<?xml version="1.0" standalone="no"?>
<!DOCTYPE svg PUBLIC "-//W3C//DTD SVG 1.1//EN" "http://www.w3.org/Graphics/SVG/1.1/DTD/svg11.dtd">
<svg xmlns="http://www.w3.org/2000/svg">
<metadata>Copyright (C) 2024 by original authors @ fontello.com</metadata>
<defs>
<font id="wlfmc-icons" horiz-adv-x="1000" >
<font-face font-family="wlfmc-icons" font-weight="400" font-stretch="normal" units-per-em="1000" ascent="850" descent="-150" />
<missing-glyph horiz-adv-x="1000" />
<glyph glyph-name="close" unicode="&#xe800;" d="M817 85l-265 265 265 265c15 15 15 38 0 52-14 15-37 15-52 0l0 0-265-265-265 265c-15 15-38 15-52 0-15-14-15-37 0-52l0 0 265-265-265-265c-15-15-15-38 0-52 14-15 37-15 52 0l0 0 265 265 265-265c15-15 38-15 52 0 15 14 15 37 0 52l0 0z" horiz-adv-x="1000" />

<glyph glyph-name="arrow-right" unicode="&#xe801;" d="M6 313v68h875l-325 325 44 44 394-387c6-7 6-19 0-25l-400-388-44 44 325 319h-875 6z" horiz-adv-x="1000" />

<glyph glyph-name="multi-list-5-o" unicode="&#xe802;" d="M1000 64v-25c0-51-38-88-88-88h-252c-50 0-88 37-88 88v25c0 50 38 88 88 88h252c50 0 88-38 88-88z m-88 685h-252c-50 0-88-37-88-88v-25c0-50 38-88 88-88h252c50 0 88 38 88 88v25c0 51-38 88-88 88z m-597 101h-227c-50 0-88-38-88-88v-226c0-51 38-88 88-88h227c50 0 88 37 88 88v226c0 50-38 88-88 88z m0-597h-227c-50 0-88-38-88-88v-227c0-50 38-88 88-88h227c50 0 88 38 88 88v227c0 50-38 88-88 88z" horiz-adv-x="1000" />

<glyph glyph-name="multi-list-6" unicode="&#xe803;" d="M315 850h-227c-50 0-88-38-88-88v-226c0-51 38-88 88-88h227c50 0 88 37 88 88v226c0 50-38 88-88 88z m25-314c0-13-13-26-25-26h-227c-12 0-25 13-25 26v226c0 13 13 25 25 25h227c12 0 25-12 25-25v-226z m-25-283h-227c-50 0-88-38-88-88v-227c0-50 38-88 88-88h227c50 0 88 38 88 88v227c0 50-38 88-88 88z m25-315c0-13-13-25-25-25h-227c-12 0-25 12-25 25v227c0 12 13 25 25 25h227c12 0 25-13 25-25v-227z m572 912h-226c-51 0-88-38-88-88v-226c0-51 37-88 88-88h226c50 0 88 37 88 88v226c0 50-38 88-88 88z m25-314c0-13-12-26-25-26h-226c-13 0-26 13-26 26v226c0 13 13 25 26 25h226c13 0 25-12 25-25v-226z m57-485c0-25-19-44-44-44h-107v-113c0-25-19-44-44-44-25 0-44 19-44 44v113h-113c-26 0-44 19-44 44 0 25 18 44 44 44h113v107c0 25 19 44 44 44 25 0 44-19 44-44v-107h107c25 0 44-19 44-44z" horiz-adv-x="1000" />

<glyph glyph-name="multi-list-6-o" unicode="&#xe804;" d="M403 762v-226c0-51-38-88-88-88h-227c-50 0-88 37-88 88v226c0 50 38 88 88 88h227c50 0 88-38 88-88z m-88-509h-227c-50 0-88-38-88-88v-227c0-50 38-88 88-88h227c50 0 88 38 88 88v227c0 50-38 88-88 88z m597 597h-226c-51 0-88-38-88-88v-226c0-51 37-88 88-88h226c50 0 88 37 88 88v226c0 50-38 88-88 88z m38-755h-107v107c0 25-19 44-44 44-25 0-44-19-44-44v-107h-113c-26 0-44-19-44-44 0-25 18-44 44-44h113v-113c0-25 19-44 44-44 25 0 44 19 44 44v113h107c25 0 44 19 44 44 0 25-19 44-44 44z" horiz-adv-x="1000" />

<glyph glyph-name="multi-list-7" unicode="&#xe805;" d="M811 586h-748c-32 0-63 25-63 63l0 0c0 31 25 63 63 63h748c32 0 63-25 63-63l0 0c0-38-25-63-63-63z m-427-289h-321c-32 0-63 25-63 62l0 0c0 32 25 63 63 63h327c31 0 63-25 63-63l0 0c-6-37-32-62-69-62z m0-290h-321c-32 0-63 25-63 63l0 0c0 32 25 63 63 63h327c31 0 63-25 63-63l0 0c-6-38-32-63-69-63z m553 145h-321c-31 0-62 25-62 63l0 0c0 31 25 63 62 63h327c32 0 63-25 63-63l0 0c-6-32-31-63-69-63z m-220-101v327c0 32 25 63 63 63l0 0c31 0 63-25 63-63v-327c0-31-25-63-63-63l0 0c-38 0-63 32-63 63z" horiz-adv-x="1000" />

<glyph glyph-name="multi-list-7-o" unicode="&#xe806;" d="M811 586h-748c-32 0-63 25-63 63l0 0c0 31 25 63 63 63h748c32 0 63-25 63-63l0 0c0-38-25-63-63-63z m-427-289h-321c-32 0-63 25-63 62l0 0c0 32 25 63 63 63h327c31 0 63-25 63-63l0 0c-6-37-32-62-69-62z m0-290h-321c-32 0-63 25-63 63l0 0c0 32 25 63 63 63h327c31 0 63-25 63-63l0 0c-6-38-32-63-69-63z m597 365c-25 25-69 25-88 0l-189-189-69 70c-12 18-31 25-44 25-19 0-31-7-44-19-25-25-25-69 0-88l113-113 7-7c25-25 63-19 88 0l226 233c13 13 19 31 19 44 0 19-6 38-19 44z" horiz-adv-x="1000" />

<glyph glyph-name="notification-2" unicode="&#xe807;" d="M363-150c-19 6-38 12-50 25-32 19-50 56-50 94h-225c-19-7-38 6-38 25 0 6 0 6 0 12 0 50 6 94 31 138 13 19 25 37 38 56 31 38 50 88 50 138 0 43 0 87 0 125 0 112 69 218 181 256 0 0 0 0 6 0-12 19-12 37-12 56 6 38 31 69 69 75 0 0 6 0 6 0h25c12-6 25-6 37-12 38-25 50-75 32-113 6 0 6 0 12-6 106-38 175-138 175-250 0-44 0-88 0-131 0-57 19-107 50-144 44-56 69-125 69-194 0-19-13-31-25-31 0 0-6 0-6 0h-238c0-7 0-19-6-25-13-44-44-82-94-88 0 0-6 0-6 0h-31z m343 175c-6 19-6 38-12 56-13 32-25 57-50 82-31 43-56 93-56 143 0 50 0 100 0 157 0 12 0 31-7 43-18 113-131 188-237 163-100-19-169-100-169-200 0-44 0-88 0-131 0-63-19-125-62-175-7-7-13-19-19-25-19-38-31-75-31-113h643z m-268-56h-113c0-32 25-57 56-57 32-6 57 19 57 57z m-25 794c0 18-13 31-32 31-18 0-31-13-31-31s13-32 31-32c0 0 0 0 0 0 13 0 32 13 32 32z m350-282c0-6 0-12 0-12 0-19-19-25-32-25-12 0-25 12-25 31 0 113-62 219-156 275-19 0-25 13-25 25 0 13 13 25 25 25 6 0 13 0 25-6 94-56 156-144 181-250 0-19 7-44 7-63l0 0z m-563 319c13 0 25-6 31-19 7-12 0-25-12-31-25-19-50-37-69-56-56-63-87-138-94-219 0-19-12-31-25-31 0 0 0 0 0 0-18-6-31 6-31 25 0 0 0 0 0 6 0 131 75 256 188 325 6 0 12 0 12 0z" horiz-adv-x="763" />

<glyph glyph-name="multi-list-8" unicode="&#xe808;" d="M151 158c82 0 151-63 151-144s-69-145-151-145-151 69-151 145 69 144 151 144l0 0z m0-94c-25 0-50-19-50-50s19-45 50-45 50 19 50 51-25 44-50 44l0 0z m0 761c82 0 151-63 151-145s-69-138-151-138-151 63-151 138 69 145 151 145l0 0z m0-94c-25 0-50-19-50-51s25-50 50-50 50 19 50 50-25 51-50 51l0 0z m0-239c82 0 151-63 151-145s-69-145-151-145-151 69-151 145 69 145 151 145l0 0z m0-95c-31 0-50-19-50-50 0-25 25-50 50-50s50 25 50 50c0 31-25 50-50 50l0 0z m252-428h597v95h-597v-95z m0 667h597v95h-597v-95z m0-333h597v94h-597v-94z" horiz-adv-x="1000" />

<glyph glyph-name="multi-list-8-o" unicode="&#xe809;" d="M403 397v-94h597v94h-597z m0 334v-95h597v95h-597z m0-667v-95h597v95h-597z m-252 94c-82 0-151-69-151-144 0-76 69-145 151-145 82 0 151 63 151 145 0 81-69 144-151 144z m0-189c-31 0-50 13-50 45s25 50 50 50c25 0 50-13 50-44s-19-51-50-51z m176 736l-6-6-126-119c-25-32-75-32-107-7l-6 7-63 63c-25 25-25 69 0 94 25 25 63 25 88 6l6-6 25-25 88 81c26 26 70 26 95 0 25-25 25-62 6-88z m0-333l-6-6-126-120c-25-31-75-31-107-6l-6 6-63 63c-25 25-25 69 0 95 25 25 63 25 88 6l6-6 25-26 88 82c26 25 70 25 95 0 25-25 25-63 6-88z" horiz-adv-x="1000" />

<glyph glyph-name="sfl-8" unicode="&#xe80a;" d="M799 759c-109 0-199-90-199-199 0-110 90-199 199-199s199 89 199 199c0 109-90 199-199 199z m67-248h-67c-16 0-28 12-28 27v120c0 16 13 28 28 28 16 0 28-12 28-28v-92h39c16 0 28-12 28-28 0-15-12-27-28-27z m-21-181c-14-4-30-5-45-5-9 0-17 1-26 1-6-4-13-7-22-7h-487l-32 221h332c-1 7-1 14-1 21 0 13 1 25 3 37h-342l-8 48c-4 30-14 45-53 45h-134c-15-1-28-14-28-30 0-15 13-28 28-28h129l61-419c0-48 40-88 89-88h448c15 1 28 14 27 30 0 15-12 27-27 28h-439c-21 0-35 15-38 38l-7 40h484c48 0 76 26 88 68z m-505-266c-33-1-60-28-60-62 0-34 27-61 61-61 0 0 1 0 1 0 34 1 61 28 60 63 0 34-28 60-62 60z m357 0c-34 0-61-28-61-62 1-34 27-61 61-61 0 0 1 0 1 0 34 1 61 28 60 63 0 34-28 60-61 60z" horiz-adv-x="1000" />

<glyph glyph-name="pdf" unicode="&#xe81a;" d="M480 205c0 15-10 25-30 25h-15v-55h15c20-5 35 15 30 30z m155 15c-5 5-15 5-25 5h-20v-120h15c35 0 60 20 60 65 0 25-10 45-30 50z m-155-15c0 15-10 25-30 25h-15v-55h15c20-5 35 15 30 30z m155 15c-5 5-15 5-25 5h-20v-120h15c35 0 60 20 60 65 0 25-10 45-30 50z m-155-15c0 15-10 25-30 25h-15v-55h15c20-5 35 15 30 30z m155 15c-5 5-15 5-25 5h-20v-120h15c35 0 60 20 60 65 0 25-10 45-30 50z m-155-15c0 15-10 25-30 25h-15v-55h15c20-5 35 15 30 30z m155 15c-5 5-15 5-25 5h-20v-120h15c35 0 60 20 60 65 0 25-10 45-30 50z m265 135h-20v240l-250 250h-405c-55 0-105-50-105-105v-390h-25c-20 0-40-15-40-40v-270c0-20 15-40 40-40h25v-50c0-50 50-100 105-100h550c60 0 105 50 105 105v45h20c25 0 40 20 40 40v270c5 20-15 45-40 45z m-790-160c10 10 20 10 30 0l45-45v590c0 25 20 40 40 40h375v-140c0-40 35-75 75-75h135v-215h-540c-20-5-35-20-35-40v-150l40 40c10 10 20 10 30 0l5-5c5-10 5-15-5-25l-80-85-5-5c-5-5-5-5-10-5s-10 0-15 5c-5 5-5 5-5 5l-10 10-70 70c-5 5-5 10-5 15s0 10 5 15z m600-15c0-35-15-60-30-75-20-15-50-25-85-25h-45v175c15 5 35 5 55 5 35 0 60-5 75-20 15-10 30-35 30-60z m-185 25c0-20-5-35-15-45-5-5-10-10-15-10-10-5-25-10-45-10h-15v-65h-40v180c5 0 10 5 20 5h35c25 0 45-5 55-15 10-5 20-25 20-40z m250-295h-550c-25 0-40 20-40 40v50h625v-50c5-15-10-40-35-40z m70 320h-70v-40h65v-35h-65v-75h-40v180h110v-30z m-255-125h15c35 0 60 20 60 65 0 25-10 45-30 50-5 5-15 5-25 5h-20v-120z m-155 125v-55h15c20 0 35 15 30 30 0 15-10 25-30 25h-15z m200-10c-5 5-15 5-25 5h-20v-120h15c35 0 60 20 60 65 0 25-10 45-30 50z m-155-15c0 15-10 25-30 25h-15v-55h15c20-5 35 15 30 30z m155 15c-5 5-15 5-25 5h-20v-120h15c35 0 60 20 60 65 0 25-10 45-30 50z m-155-15c0 15-10 25-30 25h-15v-55h15c20-5 35 15 30 30z m155 15c-5 5-15 5-25 5h-20v-120h15c35 0 60 20 60 65 0 25-10 45-30 50z m-155-15c0 15-10 25-30 25h-15v-55h15c20-5 35 15 30 30z m155 15c-5 5-15 5-25 5h-20v-120h15c35 0 60 20 60 65 0 25-10 45-30 50z m-155-15c0 15-10 25-30 25h-15v-55h15c20-5 35 15 30 30z" horiz-adv-x="1000" />

<glyph glyph-name="multi-list-1" unicode="&#xe81b;" d="M600 331h-150c-12 0-25-12-25-25s13-25 25-25h144c19 0 31 13 31 25s-12 25-25 25z m200 82h-350c-12 0-25-13-25-25 0-13 13-25 25-25h344c19 0 31 12 31 25 0 12-12 25-25 25z m-506-225h-81c-25 0-44-19-44-44v-81c0-25 19-44 44-44h81c25 0 44 19 44 44v81c0 25-19 44-44 44z m306-107h-150c-12 0-25-12-25-25s13-25 25-25h144c19 0 31 13 31 25s-12 25-25 25z m200 82h-350c-12 0-25-13-25-25 0-13 13-25 25-25h344c19 0 31 12 31 25 0 12-12 25-25 25z m-200 418h-150c-12 0-25-12-25-25s13-25 25-25h144c19 0 31 13 31 25s-12 25-25 25z m200 82h-350c-12 0-25-13-25-25 0-13 13-25 25-25h344c19 0 31 12 31 25 0 12-12 25-25 25z m-350-50h344c19 0 31 12 31 25 0 12-12 25-25 25h-350c-12 0-25-13-25-25 0-13 13-25 25-25z m350-200h-350c-12 0-25-13-25-25 0-13 13-25 25-25h344c19 0 31 12 31 25 0 12-12 25-25 25z m0-250h-350c-12 0-25-13-25-25 0-13 13-25 25-25h344c19 0 31 12 31 25 0 12-12 25-25 25z m-350 368h144c19 0 31 13 31 25s-12 25-25 25h-150c-12 0-25-12-25-25s13-25 25-25z m0-250h144c19 0 31 13 31 25s-12 25-25 25h-150c-12 0-25-12-25-25s13-25 25-25z m150-200h-150c-12 0-25-12-25-25s13-25 25-25h144c19 0 31 13 31 25s-12 25-25 25z m-306 107h-81c-25 0-44-19-44-44v-81c0-25 19-44 44-44h81c25 0 44 19 44 44v81c0 25-19 44-44 44z m575 662h-744c-69 0-125-62-125-131v-744c0-69 56-125 125-125h744c69 0 125 56 125 125v744c0 69-56 131-125 131z m75-869c0-44-31-75-75-75h-744c-44 0-75 31-75 75v738c0 44 31 75 75 75h744v6c44 0 75-31 75-75v-744z m-144 682h-350c-12 0-25-13-25-25 0-13 13-25 25-25h344c19 0 31 12 31 25 0 12-12 25-25 25z m0-250h-350c-12 0-25-13-25-25 0-13 13-25 25-25h344c19 0 31 12 31 25 0 12-12 25-25 25z m0-250h-350c-12 0-25-13-25-25 0-13 13-25 25-25h344c19 0 31 12 31 25 0 12-12 25-25 25z m-350 368h144c19 0 31 13 31 25s-12 25-25 25h-150c-12 0-25-12-25-25s13-25 25-25z m0-250h144c19 0 31 13 31 25s-12 25-25 25h-150c-12 0-25-12-25-25s13-25 25-25z m150-200h-150c-12 0-25-12-25-25s13-25 25-25h144c19 0 31 13 31 25s-12 25-25 25z m-306 107h-81c-25 0-44-19-44-44v-81c0-25 19-44 44-44h81c25 0 44 19 44 44v81c0 25-19 44-44 44z m156 425h344c19 0 31 12 31 25 0 12-12 25-25 25h-350c-12 0-25-13-25-25 0-13 13-25 25-25z m350-200h-350c-12 0-25-13-25-25 0-13 13-25 25-25h344c19 0 31 12 31 25 0 12-12 25-25 25z m0-250h-350c-12 0-25-13-25-25 0-13 13-25 25-25h344c19 0 31 12 31 25 0 12-12 25-25 25z m-350 368h144c19 0 31 13 31 25s-12 25-25 25h-150c-12 0-25-12-25-25s13-25 25-25z m0-250h144c19 0 31 13 31 25s-12 25-25 25h-150c-12 0-25-12-25-25s13-25 25-25z m150-200h-150c-12 0-25-12-25-25s13-25 25-25h144c19 0 31 13 31 25s-12 25-25 25z m-306 107h-81c-25 0-44-19-44-44v-81c0-25 19-44 44-44h81c25 0 44 19 44 44v81c0 25-19 44-44 44z m575 631h-744c-56 0-100-44-100-100v-744c0-56 44-100 100-100h744c56 0 100 44 100 100v744c0 56-44 100-100 100z m75-838c0-44-31-75-75-75h-744c-44 0-75 31-75 75v738c0 44 31 75 75 75h744v6c44 0 75-31 75-75v-744z m-144 682h-350c-12 0-25-13-25-25 0-13 13-25 25-25h344c19 0 31 12 31 25 0 12-12 25-25 25z m0-250h-350c-12 0-25-13-25-25 0-13 13-25 25-25h344c19 0 31 12 31 25 0 12-12 25-25 25z m0-250h-350c-12 0-25-13-25-25 0-13 13-25 25-25h344c19 0 31 12 31 25 0 12-12 25-25 25z m-350 368h144c19 0 31 13 31 25s-12 25-25 25h-150c-12 0-25-12-25-25s13-25 25-25z m0-250h144c19 0 31 13 31 25s-12 25-25 25h-150c-12 0-25-12-25-25s13-25 25-25z m150-200h-150c-12 0-25-12-25-25s13-25 25-25h144c19 0 31 13 31 25s-12 25-25 25z m-306 107h-81c-25 0-44-19-44-44v-81c0-25 19-44 44-44h81c25 0 44 19 44 44v81c0 25-19 44-44 44z m506 475h-350c-12 0-25-13-25-25 0-13 13-25 25-25h344c19 0 31 12 31 25 0 12-12 25-25 25z m0-250h-350c-12 0-25-13-25-25 0-13 13-25 25-25h344c19 0 31 12 31 25 0 12-12 25-25 25z m0-250h-350c-12 0-25-13-25-25 0-13 13-25 25-25h344c19 0 31 12 31 25 0 12-12 25-25 25z m-200 418h-150c-12 0-25-12-25-25s13-25 25-25h144c19 0 31 13 31 25s-12 25-25 25z m0-250h-150c-12 0-25-12-25-25s13-25 25-25h144c19 0 31 13 31 25s-12 25-25 25z m0-250h-150c-12 0-25-12-25-25s13-25 25-25h144c19 0 31 13 31 25s-12 25-25 25z m-306 107h-81c-25 0-44-19-44-44v-81c0-25 19-44 44-44h81c25 0 44 19 44 44v81c0 25-19 44-44 44z m44 200v-82c0-18-19-37-44-37h-81c-19 0-44 19-44 44v75c0 25 19 43 44 43h81c25 0 44-18 44-43z m0 250v-82c0-18-19-37-44-37h-81c-19 0-44 19-44 44v75c0 25 19 43 44 43h81c25 0 44-18 44-43z" horiz-adv-x="994" />

<glyph glyph-name="multi-list-1-o" unicode="&#xe81c;" d="M869 850h-744c-69 0-125-62-125-131v-744c0-69 56-125 125-125h744c69 0 125 56 125 125v744c0 69-56 131-125 131z m-531-787c0-25-19-44-44-44h-81c-25 0-44 19-44 44v81c0 25 19 44 44 44h81c25 0 44-19 44-44v-81z m0 243c0-18-19-37-44-37h-81c-19 0-44 19-44 44v75c0 25 19 43 44 43h81c25 0 44-18 44-43v-82z m0 250c0-18-19-37-44-37h-81c-19 0-44 19-44 44v75c0 25 19 43 44 43h81c25 0 44-18 44-43v-82z m256-525h-144c-12 0-25 13-25 25s13 25 25 25h150c13 0 25-12 25-25s-12-25-31-25z m200 82h-344c-12 0-25 12-25 25 0 12 13 25 25 25h350c13 0 25-13 25-25 0-13-12-25-31-25z m-369 193c0 13 13 25 25 25h150c13 0 25-12 25-25s-12-25-31-25h-144c-12 0-25 13-25 25z m369 57h-344c-12 0-25 12-25 25 0 12 13 25 25 25h350c13 0 25-13 25-25 0-13-12-25-31-25z m-369 193c0 13 13 25 25 25h150c13 0 25-12 25-25s-12-25-31-25h-144c-12 0-25 13-25 25z m369 57h-344c-12 0-25 12-25 25 0 12 13 25 25 25h350c13 0 25-13 25-25 0-13-12-25-31-25z" horiz-adv-x="994" />

<glyph glyph-name="multi-list-2" unicode="&#xe81d;" d="M256 850h-181c-44 0-75-31-75-75v-144c0-43 31-75 75-75h175c44 0 75 32 75 75v144c6 44-31 75-69 75z m25-219c0-12-12-25-25-25h-181c-12 0-25 13-25 25v144c0 13 13 25 25 25h181c13 0 25-12 25-25v-144z m-25-131h-181c-44 0-75-37-75-75v-144c0-43 31-75 75-75h175c44 0 75 32 75 75v144c6 38-31 75-69 75z m25-219c0-12-12-25-25-25h-181c-12-6-25 7-25 19v150c0 13 13 25 25 25h181c13 0 25-12 25-25v-144z m-25-137h-181c-44 0-75-31-75-75v-144c0-44 31-75 75-75h175c44 0 75 31 75 75v144c6 44-31 75-69 75z m25-219c0-13-12-25-25-25h-181c-12 0-25 12-25 25v144c0 12 13 25 25 25h181c13 0 25-13 25-25v-144z m638 219h-469c-44 0-75-31-75-75v-144c0-44 31-75 75-75h469c44 0 75 31 75 75v144c0 44-31 75-75 75z m25-219c0-13-13-25-25-25h-469c-12 0-25 12-25 25v144c0 12 13 25 25 25h469c12 0 25-13 25-25v-144z m-25 575h-469c-44 0-75-31-75-75v-144c0-43 31-75 75-75h469c44 0 75 32 75 75v144c0 38-31 75-75 75z m25-219c0-12-13-25-25-25h-469c-12 0-25 13-25 25v144c0 13 13 25 25 25h469c12 0 25-12 25-25v-144z m-25 569h-469c-44 0-75-31-75-75v-144c0-43 31-75 75-75h469c44 0 75 32 75 75v144c0 38-31 75-75 75z m25-219c0-12-13-25-25-25h-469c-12 0-25 13-25 25v144c0 13 13 25 25 25h469c12 0 25-12 25-25v-144z" horiz-adv-x="994" />

<glyph glyph-name="multi-list-2-o" unicode="&#xe81e;" d="M375 631v144c0 44 38 75 81 75h469c44 0 75-31 69-75v-144c0-43-31-75-75-75h-469c-44 0-75 32-75 75z m544-131h-469c-44 0-75-31-75-75v-144c0-43 31-75 75-75h469c44 0 75 32 75 75v144c0 38-31 75-75 75z m-663-356h-181c-44 0-75-31-75-75v-144c0-44 31-75 75-75h175c44 0 75 31 75 75v144c6 44-31 75-69 75z m0 706h-181c-44 0-75-31-75-75v-144c0-43 31-75 75-75h175c44 0 75 32 75 75v144c6 44-31 75-69 75z m663-706h-469c-44 0-75-31-75-75v-144c0-44 31-75 75-75h469c44 0 75 31 75 75v144c0 44-31 75-75 75z m-663 356h-181c-44 0-75-37-75-75v-144c0-43 31-75 75-75h175c44 0 75 32 75 75v144c6 38-31 75-69 75z" horiz-adv-x="994" />

<glyph glyph-name="multi-list-3" unicode="&#xe81f;" d="M227 802c12 0 22-10 22-22v-160c0-13-10-23-22-23h-161c-12 0-22 10-22 23v160c0 12 10 22 22 22l161 0m0 44h-161c-36 0-66-30-66-66v-160c0-37 30-67 66-67h161c36 0 66 30 66 67v160c0 36-30 66-66 66l0 0z m183-88h590v-102h-590v102z m-183-307c12 0 22-10 22-23v-160c0-12-10-23-22-23h-161c-12 0-22 11-22 23v160c0 13 10 23 22 23h161m0 44h-161c-36 0-66-30-66-67v-160c0-37 30-66 66-66h161c36 0 66 29 66 66v160c0 37-30 67-66 67l0 0z m183-88h590v-103h-590v103z m-183-308c12 0 22-10 22-22v-161c0-12-10-22-22-22h-161c-12 0-22 10-22 22v161c0 12 10 22 22 22h161m0 44h-161c-36 0-66-30-66-66v-161c0-36 30-66 66-66h161c36 0 66 30 66 66v161c0 36-30 66-66 66l0 0z m183-88h590v-103h-590v103z" horiz-adv-x="1000" />

<glyph glyph-name="multi-list-3-o" unicode="&#xe820;" d="M227 802c12 0 22-10 22-22v-160c0-13-10-23-22-23h-161c-12 0-22 10-22 23v160c0 12 10 22 22 22l161 0 0 0z m0 44h-161c-36 0-66-30-66-66v-160c0-37 30-67 66-67h161c36 0 66 30 66 67v160c0 36-30 66-66 66l0 0z m183-88h590v-102h-590v102z m-183-307c12 0 22-10 22-23v-160c0-12-10-23-22-23h-161c-12 0-22 11-22 23v160c0 13 10 23 22 23h161l0 0z m0 44h-161c-36 0-66-30-66-67v-160c0-37 30-66 66-66h161c36 0 66 29 66 66v160c0 37-30 67-66 67l0 0z m183-88h590v-103h-590v103z m-183-308c12 0 22-10 22-22v-161c0-12-10-22-22-22h-161c-12 0-22 10-22 22v161c0 12 10 22 22 22h161l0 0z m0 44h-161c-36 0-66-30-66-66v-161c0-36 30-66 66-66h161c36 0 66 30 66 66v161c0 36-30 66-66 66l0 0z m183-88h590v-103h-590v103z m-154 555v179c0 11-9 20-20 20h-179c-11 0-20-9-20-20v-179c0-11 9-20 20-20h179c11 0 20 9 20 20z m0-351v178c0 12-9 21-20 21h-179c-11 0-20-9-20-21v-178c0-12 9-21 20-21h179c11 0 20 10 20 21z m0-345v179c0 11-9 21-20 21h-179c-11 0-20-10-20-21v-179c0-11 9-20 20-20h179c11 0 20 9 20 20z" horiz-adv-x="1000" />

<glyph glyph-name="multi-list-4" unicode="&#xe821;" d="M1 672c2 6 4 13 6 20 15 34 49 56 87 54 271 0 541 0 812 0 2 0 4 0 7 0 48-1 86-40 86-88 0-59 1-117 0-176-1-13-3-26-9-38-15-32-48-52-84-50-271 0-541 0-812 0-3 0-6 0-10 0-37 2-69 27-79 63-2 4-3 8-4 12l0 203z m353-219h10c181 0 360 0 541 0 25 0 35 10 35 36 0 55 0 109 0 164 3 16-8 32-25 34-3 1-6 1-9 0-181 1-362 1-543 0-3 0-6 0-9 0l0-234z m-70 234c-63 0-126 0-189 0-25 0-36-11-36-35 0-55 0-110 0-165-2-17 10-32 26-34 2 0 5-1 8 0 64 0 128 0 193 0 2 0 5 0 8 0v235l-10-1z m436-88c-44 0-88 1-132 0-16 0-30-12-30-29 0-13 9-24 22-28 3-1 7-1 10-1 87 0 173 0 259 0 17-2 31 10 33 26s-11 31-27 32c-2 1-4 1-6 0-43 0-86 0-129 0z m-719-367c2 6 4 13 6 20 15 34 49 56 87 54 271 0 541 0 812 0 2 0 4 0 7 0 48-1 86-40 86-88 0-59 1-117 0-176-1-13-3-26-9-38-15-32-48-52-84-50-271 0-541 0-812 0-3 0-6 0-10 0-37 2-69 27-79 63-2 4-3 8-4 12l0 203z m353-219h10c181 0 360 0 541 0 25 0 35 10 35 36 0 55 0 109 0 164 3 16-8 32-25 34-3 1-6 1-9 0-181 0-362 0-543 0-3 0-6 0-9 0l0-234z m-70 234c-63 0-126 0-189 0-25 0-36-11-36-35 0-55 0-110 0-165-2-17 10-32 26-34 2-1 5-1 8 0 64 0 128 0 192 0 3 0 6 0 9 0v234l-10 0z m436-88c-44 0-88 1-132 0-16 0-30-12-30-29 0-13 9-24 22-28 3-1 7-1 10-1 87 0 173 0 259 0 17-2 31 10 33 26s-11 31-27 32c-2 1-4 1-6 0-43 0-86 0-129 0z" horiz-adv-x="1000" />

<glyph glyph-name="multi-list-4-o" unicode="&#xe822;" d="M856 599c-3 1-5 1-7 0h-129c-44 0-88 1-132 0-17 0-30-12-30-29 0-13 9-24 22-28 3-1 7-1 10-1h259c17-2 31 10 32 26 2 17-10 31-25 32z m0 0c-3 1-5 1-7 0h-129c-44 0-88 1-132 0-17 0-30-12-30-29 0-13 9-24 22-28 3-1 7-1 10-1h259c17-2 31 10 32 26 2 17-10 31-25 32z m57 147h-819c-37 2-73-20-86-54-3-7-5-14-7-20v-203c1-4 2-8 3-12 11-36 43-61 80-63h10c271 0 542 0 812 0 36-2 70 18 84 51 6 11 8 24 9 37 0 59 0 117 0 176 0 48-38 88-86 88z m-828-293c-1 0-3 0-4 1 2-1 5-1 8-1h-4z m855 200v-164c0-26-10-36-35-36h-551v234h552c4 1 7 1 11 0 2 0 5-2 7-3 1 0 3-1 4-2 1-1 3-2 4-4 1-1 3-2 3-4 2-1 2-2 2-3 2-3 3-5 3-8 0 0 0 0 0-1 1-3 1-6 0-9z m-84-54c-3 1-5 1-7 0h-129c-44 0-88 1-132 0-17 0-30-12-30-29 0-13 9-24 22-28 3-1 7-1 10-1h259c17-2 31 10 32 26 2 17-10 31-25 32z m0 0c-3 1-5 1-7 0h-129c-44 0-88 1-132 0-17 0-30-12-30-29 0-13 9-24 22-28 3-1 7-1 10-1h259c17-2 31 10 32 26 2 17-10 31-25 32z m-762 88c-12 0-20-2-26-8-6-6-8-14-8-26v-166c0-2-1-3-1-5 0-3 1-6 2-8-1-1 0-2 0-2 1-3 3-5 5-8 1-2 3-4 5-5 2-1 4-2 6-4 1 0 2-1 4-1 2-1 5-1 8-1h196c3 0 5 0 9 0v234h-200z m762-88c-3 1-5 1-7 0h-129c-44 0-88 1-132 0-17 0-30-12-30-29 0-13 9-24 22-28 3-1 7-1 10-1h259c17-2 31 10 32 26 2 17-10 31-25 32z m0 0c-3 1-5 1-7 0h-129c-44 0-88 1-132 0-17 0-30-12-30-29 0-13 9-24 22-28 3-1 7-1 10-1h259c17-2 31 10 32 26 2 17-10 31-25 32z m-762 88c-12 0-20-2-26-8-6-6-9-14-9-26v-174c0-2 1-4 2-5-1-1 0-2 0-2 1-3 3-5 5-8 1-2 3-4 5-5 2-1 4-2 6-4 1 0 2-1 4-1 2-1 5-1 8-1h196c3 0 5 0 9 0v234h-200z m149-83c-11 12-29 13-41 3-1-1-2-2-3-3-7-7-14-14-22-23-8 9-15 16-22 23-11 12-30 13-42 3-12-12-12-30-2-42 1 0 2-1 2-2 14-14 28-28 42-42 10-12 29-13 41-3 1 1 2 3 3 3 14 14 28 28 41 42 13 10 13 29 3 41z m613-5c-3 1-5 1-7 0h-129c-44 0-88 1-132 0-17 0-30-12-30-29 0-13 9-24 22-28 3-1 7-1 10-1h259c17-2 31 10 32 26 2 17-10 31-25 32z m-613 5c-11 12-29 13-41 3-1-1-2-2-3-3-7-7-14-14-22-23-8 9-15 16-22 23-11 12-30 13-42 3-12-12-12-30-2-42 1 0 2-1 2-2 14-14 28-28 42-42 10-12 29-13 41-3 1 1 2 3 3 3 14 14 28 28 41 42 13 10 13 29 3 41z m670-298c-3 0-5 0-7 0h-812c-37 2-73-20-86-54-3-7-5-14-7-20v-203c1-4 2-8 3-12 11-36 43-61 80-63h10c271 0 542 0 812 0 36-2 70 18 84 51 6 11 8 24 9 37 0 59 0 117 0 176 0 48-38 87-86 88z m-828-293c-1 0-3 0-4 1 2-1 5-1 8-1h-4z m855 200v-164c0-26-10-36-35-36h-551v234h552c4 1 7 1 11 0 2 0 5-2 7-3 1 0 3-1 4-2 1-1 3-2 4-4 1-1 3-3 3-4 2-1 2-2 2-3 2-3 3-5 3-8 0 0 0 0 0-1 1-3 1-6 0-9z m-84-54c-3 1-5 1-7 0h-261c-17 0-30-12-30-29 0-13 9-24 22-28 3-1 7-1 10-1h259c17-2 31 10 32 26 2 17-10 31-25 32z m0 0c-3 1-5 1-7 0h-261c-17 0-30-12-30-29 0-13 9-24 22-28 3-1 7-1 10-1h259c17-2 31 10 32 26 2 17-10 31-25 32z m-762 88c-24 0-34-10-34-34v-166c-1-2-1-4-1-6s1-4 1-6c0-1 1-3 2-5 1-1 2-3 3-4 0-2 2-3 4-4 0-2 1-2 2-3 2-1 4-2 6-4 1 0 2-1 4-1 2-1 5-1 8-1h196c3 0 5 0 9 0v234h-200z m762-88c-3 1-5 1-7 0h-261c-17 0-30-12-30-29 0-13 9-24 22-28 3-1 7-1 10-1h259c17-2 31 10 32 26 2 17-10 31-25 32z m0 0c-3 1-5 1-7 0h-261c-17 0-30-12-30-29 0-13 9-24 22-28 3-1 7-1 10-1h259c17-2 31 10 32 26 2 17-10 31-25 32z m-762 88c-24 0-34-10-34-34v-166c-1-2-1-4-1-6v-2c0-1 1-2 1-4 0-1 1-3 2-5 1-1 2-3 3-4 0-2 2-3 4-4 0-2 1-2 2-3 2-1 4-2 6-4 1 0 2-1 4-1 2-1 5-1 8-1h196c3 0 5 0 9 0v234h-200z m149-83c-11 12-29 13-41 3-1-1-2-2-3-3-7-7-14-14-22-23-8 9-15 16-22 23-11 12-30 13-42 3-12-12-12-30-2-42 1 0 2-1 2-2 14-14 28-28 42-42 10-12 29-13 41-2 1 0 2 2 3 2 14 14 28 28 41 42 13 10 14 29 3 41z m613-5c-3 1-5 1-7 0h-261c-17 0-30-12-30-29 0-13 9-24 22-28 3-1 7-1 10-1h259c17-2 31 10 32 26 2 17-10 31-25 32z m-613 5c-11 12-29 13-41 3-1-1-2-2-3-3-7-7-14-14-22-23-8 9-15 16-22 23-11 12-30 13-42 3-12-12-12-30-2-42 1 0 2-1 2-2 14-14 28-28 42-42 10-12 29-13 41-2 1 0 2 2 3 2 14 14 28 28 41 42 13 10 14 29 3 41z" horiz-adv-x="1000" />

<glyph glyph-name="notification-1" unicode="&#xe825;" d="M881 31c-106 50-112 257-112 257v143c0 125-75 244-194 294 0 69-56 125-125 125s-125-56-125-125c-119-50-194-169-194-294v-137c0-6-6-213-112-256-13-7-19-19-19-32 0-12 13-25 25-25h269c6-31 19-62 44-81 31-31 68-50 112-50 44 0 81 19 106 50 25 19 38 50 44 81h269c12 0 25 6 25 19 0 0 0 0 0 6 6 7 0 19-13 25z m-137 100c12-31 25-68 50-93h-688c19 31 38 62 50 93h588z m-294 663c31 0 56-19 63-50-19 6-44 6-63 6-19 0-44 0-62-6 6 31 31 50 62 50z m-262-500v137c0 144 118 263 262 263s263-119 263-263v-137c0-38 6-69 12-106h-550c6 37 13 68 13 106z m262-388c-44 0-81 31-94 75h188c-13-44-50-75-94-75z m0 750c-119 0-219-100-219-218 0-19 13-32 32-32 18 0 31 13 31 32-6 87 62 156 150 162 0 0 6 0 6 0 19 0 31 13 31 31 0 13-18 25-31 25z" horiz-adv-x="894" />

<glyph glyph-name="notification-1-o" unicode="&#xe826;" d="M881 31c-106 50-112 257-112 257v143c0 125-75 244-194 294 0 69-56 125-125 125-69 0-125-56-125-125-119-50-194-169-194-294v-137c0-6-6-213-112-256-13-7-19-19-19-32 0-12 13-25 25-25h269c6-31 19-56 44-81 31-31 68-50 112-50 44 0 81 19 106 50 25 25 38 50 44 81h269c12 0 25 6 25 19v6c6 7 0 19-13 25z m-431 763c31 0 56-19 63-50-19 6-44 6-63 6-19 0-44 0-62-6 6 31 31 50 62 50z m-156-356c0-19-13-32-31-32-19 0-32 13-32 32 0 118 100 218 219 218 13 0 31-12 31-25 0-18-12-31-31-31h-6c-88-6-156-75-150-162z m156-532c-44 0-81 31-94 75h188c-13-44-50-75-94-75z" horiz-adv-x="894" />

<glyph glyph-name="up-dir" unicode="&#xe827;" d="M571 171q0-14-10-25t-25-10h-500q-15 0-25 10t-11 25 11 26l250 250q10 10 25 10t25-10l250-250q10-11 10-26z" horiz-adv-x="571.4" />

<glyph glyph-name="notification-2-o" unicode="&#xe828;" d="M363-150c-19 6-38 12-50 25-32 19-50 56-50 94h-225c-19-7-38 6-38 25 0 6 0 6 0 12 0 50 6 94 31 138 13 19 25 37 38 56 31 38 50 88 50 138 0 43 0 87 0 125 0 112 69 218 181 256 0 0 0 0 6 0-12 19-12 37-12 56 6 38 31 69 69 75 0 0 6 0 6 0h25c12-6 25-6 37-12 38-25 50-75 32-113 6 0 6 0 12-6 106-38 175-138 175-250 0-44 0-88 0-131 0-57 19-107 50-144 44-56 69-125 69-194 0-19-13-31-25-31 0 0-6 0-6 0h-238c0-7 0-19-6-25-13-44-44-82-94-88 0 0-6 0-6 0h-31z m343 175c-6 19-6 38-12 56-13 32-25 57-50 82-31 43-56 93-56 143 0 50 0 100 0 157 0 12 0 31-7 43-18 113-131 188-237 163-100-19-169-100-169-200 0-44 0-88 0-131 0-63-19-125-62-175-7-7-13-19-19-25-19-38-31-75-31-113h643z m-268-56h-113c0-32 25-57 56-57 32-6 57 19 57 57z m-25 794c0 18-13 31-32 31-18 0-31-13-31-31s13-32 31-32c0 0 0 0 0 0 13 0 32 13 32 32z m350-282c0-6 0-12 0-12 0-19-19-25-32-25-12 0-25 12-25 31 0 113-62 219-156 275-19 0-25 13-25 25 0 13 13 25 25 25 6 0 13 0 25-6 94-56 156-144 181-250 0-19 7-44 7-63l0 0z m-563 319c13 0 25-6 31-19 7-12 0-25-12-31-25-19-50-37-69-56-56-63-87-138-94-219 0-19-12-31-25-31 0 0 0 0 0 0-18-6-31 6-31 25 0 0 0 0 0 6 0 131 75 256 188 325 6 0 12 0 12 0z m506-775h-643c0 38 12 75 31 106 6 7 12 19 19 25 43 50 62 113 62 175 0 44 0 88 0 132 0 112 88 206 200 206 100 0 188-69 206-169 0-12 7-31 7-44 0-50 0-100 0-156 0-56 18-106 56-144 19-25 37-50 50-81 0-12 6-31 12-50z" horiz-adv-x="763" />

<glyph glyph-name="notification-3" unicode="&#xe829;" d="M563-13c-19-87-107-150-200-131-63 13-119 63-132 131h-193c-19 0-38 13-38 32 0 6 0 19 6 25 19 44 38 94 57 137 0 7 6 13 6 19 0 75 0 150 0 225-6 125 75 244 194 294 168 75 362 0 437-169 6-19 13-37 19-62 6-25 6-50 6-75 0-88 0-175 0-263 0-6 0-12 6-19 19-31 38-62 57-93 12-13 12-38-7-51-6-6-18-6-25-6h-193z m-482 63h625c-12 19-25 38-31 56-6 13-6 19-6 32 0 87 0 181 0 268 0 19 0 38-6 50-25 150-163 250-313 225-125-25-219-137-219-268 0-75 0-157 0-232 0-12 0-18-6-25-12-31-25-62-37-93 0 0 0-7-7-13z m225-63c13-43 50-68 94-68 38 0 75 25 88 68h-182z m94 794c-19 0-44 0-62 0-19 0-38 13-38 32-6 18 13 37 31 37 0 0 7 0 7 0 43 0 87 0 125 0 18 0 37-12 37-31 0 0 0 0 0 0 0-19-19-31-37-31 0 0 0 0 0 0h-63z" horiz-adv-x="800" />

<glyph glyph-name="notification-3-o" unicode="&#xe82a;" d="M563-13c-19-87-107-150-200-131-63 13-119 63-132 131h-193c-19 0-38 13-38 32 0 6 0 19 6 25 19 44 38 94 57 137 0 7 6 13 6 19 0 75 0 150 0 225-6 125 75 244 194 294 168 75 362 0 437-169 6-19 13-37 19-62 6-25 6-50 6-75 0-88 0-175 0-263 0-6 0-12 6-19 19-31 38-62 57-93 12-13 12-38-7-51-6-6-18-6-25-6h-193z m-482 63h625c-12 19-25 38-31 56-6 13-6 19-6 32 0 87 0 181 0 268 0 19 0 38-6 50-25 150-163 250-313 225-125-25-219-137-219-268 0-75 0-157 0-232 0-12 0-18-6-25-12-31-25-62-37-93 0 0 0-7-7-13z m225-63c13-43 50-68 94-68 38 0 75 25 88 68h-182z m94 794c-19 0-44 0-62 0-19 0-38 13-38 32-6 18 13 37 31 37 0 0 7 0 7 0 43 0 87 0 125 0 18 0 37-12 37-31 0 0 0 0 0 0 0-19-19-31-37-31 0 0 0 0 0 0h-63z m-319-731c0 6 0 6 7 13 12 31 25 62 37 93 6 7 6 19 6 25 0 75 0 157 0 232 0 143 119 268 263 268 131 0 244-93 262-218 0-19 7-32 7-50 0-88 0-182 0-269 0-13 0-25 6-31 12-19 19-38 31-57l-619-6z" horiz-adv-x="800" />

<glyph glyph-name="sfl-1" unicode="&#xe82d;" d="M819-150c-19 0-31 12-31 31v119h-119c-19 0-31 13-31 31s12 32 31 32h119v112c0 19 12 31 31 31s31-12 31-31v-112h119c19 0 31-13 31-32s-12-31-31-31h-119v-119c0-19-12-31-31-31z m-344 50c-262 0-475 213-475 475s213 475 469 475c262 0 475-212 475-475 0-19-13-31-31-31s-32 12-32 31c0 225-187 413-412 413-225 0-406-188-406-413s187-413 412-413c19 0 31-12 31-31s-12-31-31-31z m200 344c-6 0-6 0-12 0l-144 69c-50 25-75 62-75 118v188c0 19 12 31 31 31s31-12 31-31v-188c0-25 13-43 38-62l144-63c12-6 25-25 12-43 0-13-12-19-25-19z" horiz-adv-x="994" />

<glyph glyph-name="sfl-2" unicode="&#xe82e;" d="M963 69h-119v112c0 19-13 32-31 32s-32-13-32-32v-112h-118c-19 0-32-13-32-31s13-32 32-32h118v-119c0-18 13-31 32-31s31 13 31 31v119h119c18 0 31 13 31 32s-13 31-31 31z m-150 144c-19 0-32-13-32-32v-112h-118c-19 0-32-13-32-31s13-32 32-32h87c38 25 69 57 94 94v81c0 19-13 32-31 32z m125 168c0 257-213 469-469 469s-469-212-469-469 213-469 469-469c87 0 162 25 231 63h-37c-38 0-63 25-63 63s25 62 63 62h87v81c0 38 25 63 63 63 31 0 62-31 62-63v-31c38 69 63 144 63 231z m-238-112c-6-13-19-19-31-19-6 0-6 0-13 0l-143 69c-44 25-75 62-75 112v188c0 19 12 31 31 31s31-12 31-31v-188c0-25 13-43 38-56l143-69c19-6 25-25 19-37z" horiz-adv-x="994" />

<glyph glyph-name="sfl-3" unicode="&#xe82f;" d="M500 850c-275 0-494-225-494-500s225-500 500-500c19 0 32 12 32 31s-13 31-32 31c-237 0-437 201-437 438s194 438 431 438 438-200 438-438c0-19 12-31 31-31s31 12 31 31c0 275-225 500-500 500z m288-900l0 0c-13 0-25 12-25 25v163c0 12 12 25 25 25l0 0c12 0 25-13 25-25v-163c0-13-13-25-25-25z m-107 113l0 0c0 12 13 25 25 25h169c13 0 25-13 25-25l0 0c0-13-12-25-25-25h-162c-25 0-32 12-32 25z m107 143c81 0 143-68 143-143s-68-144-143-144-144 68-144 144 62 143 144 143m0 69c-119 0-213-94-213-212s100-213 213-213 212 94 212 213-94 212-212 212l0 0z m-463-44c-12 0-25 7-25 19-12 13-6 31 13 38l156 81v244c0 18 12 31 31 31s31-13 31-31v-263c0-12-6-25-18-25l-175-87c0-7-7-7-13-7z" horiz-adv-x="1000" />

<glyph glyph-name="sfl-4" unicode="&#xe830;" d="M500 850c-275 0-494-225-494-500s225-500 500-500c19 0 32 12 32 31s-13 31-32 31c-237 0-437 201-437 438s194 438 431 438 438-200 438-438c0-19 12-31 31-31s31 12 31 31c0 275-225 500-500 500z m288-575c-119 0-213-94-213-212s100-213 213-213 212 94 212 213-94 212-212 212l0 0z m112-212c0-13-12-25-25-25h-62v-63c0-13-13-25-25-25-13 0-25 12-25 25v63h-50c-25 0-32 12-32 25 0 12 13 25 25 25h57v50c0 12 12 25 25 25 12 0 25-13 25-25v-50h62c13 0 25-13 25-25z m-575 168c-12 0-25 7-25 19-12 13-6 31 13 38l156 81v244c0 18 12 31 31 31s31-13 31-31v-263c0-12-6-25-18-25l-175-87c0-7-7-7-13-7z" horiz-adv-x="1000" />

<glyph glyph-name="sfl-5" unicode="&#xe831;" d="M319-150a141 141 0 0 0-49 21 106 106 0 1 0 82-19 42 42 0 0 1-6-2z m14 60a45 45 0 1 1-45 46l0 0a46 46 0 0 1 45-46z m351-60a120 120 0 0 0-60 29 106 106 0 1 0 93-27 36 36 0 0 1-6-2z m14 60a45 45 0 1 1-47 45l0 0a46 46 0 0 1 47-45z m-444 681l44-241h480c3 11 5 23 7 34a30 30 0 1 0 60-9q0-1 0-3c-4-19-8-37-12-56a31 31 0 0 0-33-27l-1 0q-239 0-478 0h-12l19-106h14q204 0 408 0a72 72 0 0 0 13-1 30 30 0 0 0-4-59c-3-1-6 0-9 0q-219 0-438 0c-27 0-36 7-40 33q-46 249-91 499c-9 44-16 88-25 133h-10q-57 0-113 0a30 30 0 1 0 1 60q72 0 144 0a30 30 0 0 0 34-26l0-2c10-52 19-104 29-156 0-4 1-7 2-13h11q130 0 259 0a30 30 0 0 0 4-60q-1 0-2 0c-18 0-36 0-54 0h-196z m443 123c8-9 15-15 21-22a30 30 0 1 0-42-43q-36 36-72 72a30 30 0 0 0 0 46q36 36 72 72a30 30 0 1 0 43-42c-7-7-14-13-21-20l1-3h10c41 0 83 0 124 0a151 151 0 0 0 9-302c-63-1-125 0-188 0a30 30 0 0 0-1 60q1 0 2 0c59 0 119 0 178 0a91 91 0 0 1 7 181c-47 1-93 1-143 1z" horiz-adv-x="987" />

<glyph glyph-name="sfl-6" unicode="&#xe832;" d="M419-107a105 105 0 0 0-68-41 43 43 0 0 1-5-2h-28a138 138 0 0 0-48 21 106 106 0 1 0 149 22z m351 139a106 106 0 0 1-147-153 121 121 0 0 1 61-29h28a44 44 0 0 0 5 2 101 101 0 0 1 56 31 106 106 0 0 1-3 149z m49 378a31 31 0 0 1-34-26q-3-17-7-34h-480l-44 241h264a30 30 0 0 1-5 61h-270c-1 5-2 8-3 12-9 52-19 104-28 156 0 1 0 2-1 2a30 30 0 0 1-33 26h-145a17 17 0 0 1-6 0 29 29 0 0 1-27-33 30 30 0 0 1 33-27h124c7-45 15-89 23-133q46-250 91-499c5-26 13-34 41-34h447a18 18 0 0 1 6 2 32 32 0 0 1 36 26l30 159v0a11 11 0 0 1 2 7q6 28 12 56a4 4 0 0 0 0 3 32 32 0 0 1-26 35z m21 303a91 91 0 0 0-7-181c-59 0-119 0-179 0q0 0-1 0a30 30 0 0 1 1-60c63 0 125-1 188 0a151 151 0 0 1-9 302c-41 0-83 0-124 0h-10l-1 3c7 7 14 13 21 20a30 30 0 1 1-43 42q-37-36-73-72a30 30 0 0 1 0-46q36-36 73-72a30 30 0 1 1 42 43c-6 7-13 13-22 22 50 0 97 0 144-1z" horiz-adv-x="987" />

<glyph glyph-name="sfl-7" unicode="&#xe833;" d="M866 566h-39v32h-56v-58h46l-5-29h54c2 0 5 0 7 2l7 40c0 3 1 6 1 8-4 3-9 5-15 5z m-68-149l-1-9-7-46 0-4c-3-24-16-39-38-39h-487l-32 221h425c-1 6-1 13-1 20 0 13 1 26 5 38h-437l-8 48c-4 30-14 45-53 45h-134c-15-1-28-14-28-30 0-15 13-28 28-28h129l61-419c0-48 40-88 89-88h448c15 1 28 14 27 30 0 15-12 27-27 28h-439c-21 0-35 15-38 38l-7 40h484c56 0 85 34 93 89l2 17 8 52 2 12c-19-10-40-15-63-15h-1z m-458-353c-33-1-60-28-60-62 0-34 27-61 61-61 0 0 1 0 1 0 34 1 61 28 60 63 0 34-28 60-62 60z m357 0c-34 0-61-28-61-62 1-34 27-61 61-61 0 0 1 0 1 0 34 1 61 28 60 63 0 34-28 60-61 60z m184 497c-4 3-9 5-15 5h-39v92c0 16-12 28-28 28-15 0-28-12-28-28v-120c0-15 12-27 28-27h67c2 0 5 0 7 2 12 2 21 13 21 25 0 10-5 19-13 23z m0 0c-4 3-9 5-15 5h-39v92c0 16-12 28-28 28-15 0-28-12-28-28v-120c0-15 12-27 28-27h67c2 0 5 0 7 2 12 2 21 13 21 25 0 10-5 19-13 23z m-82 198c-96 0-177-70-194-161-3-12-5-25-5-38 0-7 1-13 2-20 9-97 90-174 188-178 3-1 6-1 9-1 18 0 36 3 53 7 84 23 146 100 146 192 0 109-90 199-199 199z m63-327c-19-10-40-15-63-15h-1c-71 1-130 54-140 123-1 6-1 13-1 20 0 13 1 26 5 38 16 60 71 105 137 105 79 0 143-65 143-143 0-56-33-106-80-128z m19 129c-4 3-9 5-15 5h-39v92c0 16-12 28-28 28-15 0-28-12-28-28v-120c0-15 12-27 28-27h67c2 0 5 0 7 2 12 2 21 13 21 25 0 10-5 19-13 23z m0 0c-4 3-9 5-15 5h-39v92c0 16-12 28-28 28-15 0-28-12-28-28v-120c0-15 12-27 28-27h67c2 0 5 0 7 2 12 2 21 13 21 25 0 10-5 19-13 23z m0 0c-4 3-9 5-15 5h-39v92c0 16-12 28-28 28-15 0-28-12-28-28v-120c0-15 12-27 28-27h67c2 0 5 0 7 2 12 2 21 13 21 25 0 10-5 19-13 23z" horiz-adv-x="1000" />

<glyph glyph-name="down-dir" unicode="&#xe834;" d="M571 457q0-14-10-25l-250-250q-11-11-25-11t-25 11l-250 250q-11 11-11 25t11 25 25 11h500q14 0 25-11t10-25z" horiz-adv-x="571.4" />

<glyph glyph-name="alert-circle" unicode="&#xe835;" d="M500-150c-275 0-500 225-500 500s225 500 500 500 500-225 500-500-225-500-500-500z m0 931c-237 0-431-193-431-431s194-431 431-431 431 194 431 431-193 431-431 431c0 0 0 0 0 0z m44-693h-88v87h88v-87z m-6 156h-75v394h68v-394z" horiz-adv-x="1000" />

<glyph glyph-name="arrow-left" unicode="&#xe836;" d="M1000 313h-875l325-319-44-44-400 388c-6 6-6 18 0 25l394 387 44-44-325-325h875v-68z" horiz-adv-x="1000" />

<glyph glyph-name="cart" unicode="&#xe837;" d="M850-100c-31 0-56 25-56 56 0 31 25 57 56 57 31 0 56-26 56-57 0 0 0 0 0 0 0-31-25-56-56-56z m-581 0c-31 0-56 25-56 56s25 57 56 57c31 0 56-26 56-57 0 0 0 0 0 0 0-31-25-56-56-56z m669 181h-669c-31 0-50 19-56 50l-100 600h-113v69h125c31 0 50-19 56-50l19-94h744c31 0 56-25 56-56 0-6 0-12 0-12l-62-244c-7-25-32-44-57-44h-625l25-144h657l0-75z m-725 500l37-218h625l56 218h-718z" horiz-adv-x="1000" />

<glyph glyph-name="checked-circle" unicode="&#xe838;" d="M500-150c-275 0-500 225-500 500s225 500 500 500 500-225 500-500c0-200-125-388-306-463-63-25-131-37-194-37z m0 931l0 0c-237 0-431-193-431-431s194-431 431-431c238 0 431 194 431 431 0 175-106 331-262 394-56 25-113 37-169 37z m-69-625l0 0-181 182 50 50 125-125 269 268 56-50-319-325z" horiz-adv-x="1000" />

<glyph glyph-name="close-circle" unicode="&#xe839;" d="M500-150c-275 0-500 225-500 500s225 500 500 500 500-225 500-500-225-500-500-500z m0 931c-237 0-431-193-431-431 0-237 194-431 431-431s431 194 431 431c0 0 0 0 0 0 0 238-193 431-431 431z m-162-643l0 0-50 50 162 162-169 163 50 50 169-163 163 163 50-50-163-163 163-162-50-50-163 162-162-162 0 0z" horiz-adv-x="1000" />

<glyph glyph-name="components" unicode="&#xe83a;" d="M594 713h-594v-319h594v319z m406-407v-319h-594v319h594z m-681 0v-319h-319v319h319z m362 88v319h319v-319h-319z" horiz-adv-x="1000" />

<glyph glyph-name="discount-off" unicode="&#xe83b;" d="M319 488c6 18 25 43 50 43-25 0-44-12-50-43z m375 18c0 13-6 19-13 25 7-6 7-12 13-25-6-12-6-18-13-31 7 13 13 19 13 31z m-113-287c0 31 25 50 44 50l0 0c-25 0-50-19-44-50-6-25 19-50 44-50h6c-31 0-50 25-50 50z m113 287c0 13-6 19-13 25 7-6 7-12 13-25-6-12-6-18-13-31 7 13 13 19 13 31z m-63-237l0 0c19 0 44-25 44-50 0-25-19-44-37-50 25 0 50 25 50 50-7 25-32 50-57 50z m0-100l0 0 0 0 0 0z m-50 50c0 31 25 50 44 50l0 0c-25 0-50-19-44-50-6-25 19-50 44-50h6c-31 0-50 25-50 50z m-262 269c6 18 25 43 50 43-25 0-44-12-50-43z m375 18c0 13-6 19-13 25 7-6 7-12 13-25-6-12-6-18-13-31 7 13 13 19 13 31z m-63-237l0 0c19 0 44-25 44-50 0-25-19-44-37-50 25 0 50 25 50 50-7 25-32 50-57 50z m0-100l0 0 0 0 0 0z m63 337c0 13-6 19-13 25 7-6 7-12 13-25-6-12-6-18-13-31 7 13 13 19 13 31z m-63-237l0 0c19 0 44-25 44-50 0-25-19-44-37-50 25 0 50 25 50 50-7 25-32 50-57 50z m0-100l0 0 0 0 0 0z m-50 50c0 31 25 50 44 50l0 0c-25 0-50-19-44-50-6-25 19-50 44-50h6c-31 0-50 25-50 50z m-262 269c6 18 25 43 50 43-25 0-44-12-50-43z m0 0c6 18 25 43 50 43-25 0-44-12-50-43z m375 18c0 13-6 19-13 25 7-6 7-12 13-25-6-12-6-18-13-31 7 13 13 19 13 31z m-113-287c0 31 25 50 44 50l0 0c-25 0-50-19-44-50-6-25 19-50 44-50h6c-31 0-50 25-50 50z m113 287c0 13-6 19-13 25 7-6 7-12 13-25-6-12-6-18-13-31 7 13 13 19 13 31z m-63-237l0 0c19 0 44-25 44-50 0-25-19-44-37-50 25 0 50 25 50 50-7 25-32 50-57 50z m0-100l0 0 0 0 0 0z m-50 50c0 31 25 50 44 50l0 0c-25 0-50-19-44-50-6-25 19-50 44-50h6c-31 0-50 25-50 50z m-262 269c6 18 25 43 50 43-25 0-44-12-50-43z m312-219l0 0c19 0 44-25 44-50 0-25-19-44-37-50 25 0 50 25 50 50-7 25-32 50-57 50z m0-100l0 0 0 0 0 0z m63 337c0 13-6 19-13 25 7-6 7-12 13-25-6-12-6-18-13-31 7 13 13 19 13 31z m-63-237l0 0c19 0 44-25 44-50 0-25-19-44-37-50 25 0 50 25 50 50-7 25-32 50-57 50z m0-100l0 0 0 0 0 0z m-50 50c0 31 25 50 44 50l0 0c-25 0-50-19-44-50-6-25 19-50 44-50h6c-31 0-50 25-50 50z m-262 269c6 18 25 43 50 43-25 0-44-12-50-43z m644-50l-75 75v100c0 68-57 125-125 125h-94l-81 81c-50 50-125 50-175 0l-75-81h-100c-69 0-125-57-125-125v-100l-75-75c-51-50-51-132 0-175l75-75v-100c0-69 56-126 125-126h100l75-75c50-50 125-50 175 0l75 75h100c68 0 125 57 125 126v100l75 75c50 50 50 125 0 175z m-594-275c-6-7-13-7-25-7-13 0-19 0-31 7-13 12-13 37 0 56l312 312c13 13 38 13 56 0 7-6 13-12 13-25 0-12-6-18-13-31l-312-312z m312 56c0-25-25-50-50-50l0 0h-6c-25 0-50 25-50 50 0 31 25 50 50 50h6c25 0 50-25 50-50z m-362 262l0 0c6 32 25 50 50 50 31 0 50-25 50-50 0-31-25-50-50-50-31 0-50 25-50 50z" horiz-adv-x="1000" />

<glyph glyph-name="edit" unicode="&#xe83c;" d="M1000-150h-500v77h500z m-977 12a23 23 0 0 0-22 28l55 278 562 561 249-249-562-562-278-56a23 23 0 0 0-4 0z m594 759h0l-490-491-35-176 176 35 490 491z m383-617h-308v77h308z m-67 542h0l-249 250 54 54 250-249-54-55z" horiz-adv-x="1000" />

<glyph glyph-name="edit2" unicode="&#xe83d;" d="M25-150c-12 0-25 12-25 25 0 0 0 0 0 6l56 282 563 562 250-250-563-563-281-62c6 0 0 0 0 0l0 0z m600 763l0 0-494-494-37-175 175 37 494 494-138 138z m319-75l0 0-250 250 56 56 250-250-56-56 0 0z" horiz-adv-x="1000" />

<glyph glyph-name="estimate" unicode="&#xe83e;" d="M206 338h488v-75h-488v75z m0 206h175v-75h-175v75z m0-413h488v-75h-488v75z m344 719h-412c-75 0-138-62-138-137 0 0 0 0 0 0v-719c0-82 63-144 138-144 0 0 0 0 0 0h618c75 0 138 62 138 137 0 0 0 0 0 0v519c6 188-150 344-344 344 0 0 0 0 0 0z m38-75l18-6c88-19 163-75 194-163l13-18h-232l7 187 0 0z m237-788c0-37-31-68-69-68h-618c-38 0-69 31-69 68v726c0 37 31 68 69 68h375v-256h312v-538z" horiz-adv-x="900" />

<glyph glyph-name="estimate-done" unicode="&#xe83f;" d="M683 275a208 208 0 0 1-215-210 213 213 0 0 1 215-215 205 205 0 0 1 215 210 219 219 0 0 1-215 215z m-38-317l-97 102 33 32 64-65 135 135 32-32z m-430 354v-75h264a320 320 0 0 0 112 75z m199-215h-199v-75h199v38a46 46 0 0 0 0 37z m-199 430v-75h183v75z m339 323h-414a142 142 0 0 1-140-140v-720a142 142 0 0 1 140-140h365a283 283 0 0 0-64 75h-301a65 65 0 0 0-65 65v720a65 65 0 0 0 65 65h376v-258h312v-232a270 270 0 0 0 70-64v285a347 347 0 0 1-344 344z m27-263l5 193 22-5a257 257 0 0 0 193-161l11-27z m-366-275v-75h264a320 320 0 0 0 112 75z m199-215h-199v-75h199v38a46 46 0 0 0 0 37z m-199 430v-75h183v75z m0-215v-75h264a320 320 0 0 0 112 75z m0 215v-75h183v75z m199-430h-199v-75h199v38a46 46 0 0 0 0 37z" horiz-adv-x="898" />

<glyph glyph-name="grid" unicode="&#xe840;" d="M363 850h-363v-362h363v362z m0-637h-363v-363h363v363z m275 0h362v-363h-362v363z m362 637h-362v-362h362v362z" horiz-adv-x="1000" />

<glyph glyph-name="growth-profit" unicode="&#xe841;" d="M1006 581l0 0-75-281-75 75-256-256 0 0-294 281-262-256 0 0-44 50 313 312 0 0 287-281 213 200-75 75h12l256 81z" horiz-adv-x="1000" />

<glyph glyph-name="lock" unicode="&#xe842;" d="M669-150h-338c-93 0-137 0-181 19-37 18-62 43-81 81-19 37-19 88-19 181v19c0 94 0 138 19 181 19 38 44 63 81 82 19 6 38 12 56 18v125c0 163 132 294 294 294s294-131 294-294v-131c19 0 37-6 56-19 38-18 63-43 81-81 19-37 19-87 19-181v-19c0-94 0-138-19-181-18-38-43-63-81-82-44-12-87-12-181-12z m-338 519c-81 0-125 0-150-13-25-12-43-31-56-56-12-25-12-69-12-150v-19c0-81 0-125 12-150 13-25 31-44 56-56 25-13 69-13 150-13h332c81 0 125 0 150 13 25 12 43 31 56 56 12 25 12 69 12 150v19c0 81 0 125-12 150-13 25-31 44-56 56-25 13-69 13-150 13h-332z m0 62h332c25 0 43 0 62 0v125c6 132-100 232-225 232-125 0-231-100-231-232v-125c19 0 37 0 62 0z" horiz-adv-x="1000" />

<glyph glyph-name="info-circle" unicode="&#xe843;" d="M500-150a500 500 0 1 0 500 500 500 500 0 0 0-500-500z m0 928a429 429 0 1 1 429-428 429 429 0 0 1-429 429z m36-714h-71v393h71z m7 486h-86v86h86z" horiz-adv-x="1000" />

<glyph glyph-name="private" unicode="&#xe848;" d="M794-25l0 0-100 100c-56-25-125-37-194-37-206 0-400 118-494 306l-6 19 6 18c44 82 107 150 182 207l-88 81 50 50 694-694-50-50 0 0z m-556 556c-69-43-125-100-163-175 44-75 100-137 175-181 119-69 256-87 388-44l-44 44c-100-50-225-12-275 94-31 62-31 131 0 194l-81 68z m137-131c-25-69 13-144 81-169 25-6 57-6 82 0l-163 169z m450-250l0 0-50 50c63 44 106 100 144 163-44 75-106 137-175 181-106 62-238 81-363 50l-56 56c56 25 113 31 175 31 206 0 400-118 494-306l6-12-6-19c-44-75-100-144-169-194l0 0z m-131 138l0 0-56 56c0 6 0 12 0 19 0 75-63 131-132 131-6 0-12 0-18 0l-63 56c106 44 225-12 269-119 19-43 19-100 0-143l0 0z" horiz-adv-x="1000" />

<glyph glyph-name="profit-outline" unicode="&#xe849;" d="M825 850h-649a176 176 0 0 1-176-175v-652a176 176 0 0 1 176-173h651a176 176 0 0 1 176 176v649a183 183 0 0 1-178 175z m105-825a107 107 0 0 0-105-108h-649a108 108 0 0 0-109 108v650a107 107 0 0 0 109 105h651a106 106 0 0 0 103-105z m-91 486l-55-211-53 53-167-167-187 190-166-166-47 46 3 3 210 211 187-187 117 117-52 52z" horiz-adv-x="1003" />

<glyph glyph-name="public" unicode="&#xe84a;" d="M500 25c-206 0-400 119-494 306l-6 19 6 19c132 275 463 381 732 244 112-50 200-138 250-244l12-19-6-19c-94-181-288-306-494-306z m0 569c-87 0-169-25-244-69-75-37-137-100-175-175 38-75 100-137 175-181s157-69 238-69c175 0 337 94 425 244-44 81-106 144-175 187-75 44-156 63-244 63z m0-450c-112 0-200 94-206 200 0 112 94 200 200 206 112 0 200-94 206-200l0 0c0-112-87-200-200-206l0 0z m0 337c-75 0-131-56-131-131s56-131 131-131 131 56 131 131l0 0c0 75-56 131-131 131l0 0 0 0z" horiz-adv-x="1000" />

<glyph glyph-name="share-outline" unicode="&#xe84b;" d="M775-150c-100 0-175 81-175 175 0 19 0 38 6 56l-256 150c-69-68-175-75-250-12s-75 175-12 250 175 75 250 12c6-6 12-6 12-12l256 150c-31 94 19 194 113 225s194-19 225-113-19-193-113-225c-68-18-137 0-181 50l-256-150c12-37 12-75 0-106l256-150c69 69 181 75 250 6s75-181 6-250c-31-37-81-56-131-56l0 0z m0 275c-31 0-62-19-81-44 0 0 0-6 0-6 0 0 0 0-6-6-25-50-7-113 43-138 50-25 113-6 138 44 25 50 6 113-44 138-19 12-31 12-50 12l0 0z m-550 325c-56 0-100-44-100-100 0-56 44-100 100-100 38 0 69 19 88 50v0l0 0 0 0c18 31 18 69 0 100l0 0 0 0v0c-25 31-57 50-88 50l0 0z m550 325c-56 0-100-44-100-100 0-19 6-31 13-50l0 0 0 0c0 0 0 0 0 0 31-50 93-62 137-31 50 31 63 94 31 137-12 25-43 44-81 44z" horiz-adv-x="1000" />

<glyph glyph-name="share-solid" unicode="&#xe84c;" d="M781-150c-93 0-175 75-175 169 0 0 0 6 0 6 0 19 0 38 7 56l-263 150c-69-68-181-75-250-6-75 63-81 169-19 244 0 0 7 6 7 6 62 69 175 81 243 13 0 0 7-7 7-7 6-6 12-6 12-12l263 150c-32 94 18 194 112 225s194-19 225-113c31-93-19-193-112-225 0 0 0 0 0 0-63-18-138-6-182 44l-268-150c6-37 6-69 0-106l262-150c69 69 181 75 250 6s75-181 6-250c-31-31-81-50-125-50z" horiz-adv-x="1000" />

<glyph glyph-name="time-circle" unicode="&#xe84d;" d="M500-150a500 500 0 1 0 500 500 500 500 0 0 0-500-500z m0 929a429 429 0 1 1 429-429 429 429 0 0 1-429 429z m143-643h0l-179 186v314h72v-284l157-166z" horiz-adv-x="1000" />

<glyph glyph-name="trash" unicode="&#xe84e;" d="M788-150h-575c-38 0-69 31-69 69l0 0v719h-75v68h250v88c0 31 31 56 62 56h244c31 0 56-25 56-56v-88h250v-68h-68v-713c-7-44-38-75-75-75 0 0 0 0 0 0z m-575 788v-713h568v713h-568z m181 143v-68h212v68h-212z m250-718h-75v431h69l6-431z m-213 0h-75v431h69l6-431z" horiz-adv-x="1000" />

<glyph glyph-name="unlock" unicode="&#xe84f;" d="M669-150h-338c-93 0-137 0-181 19-37 18-62 43-81 81-19 37-19 88-19 181v19c0 94 0 138 19 181 19 38 44 63 81 82 19 12 38 12 56 18v125c0 163 132 294 294 294 138 0 256-100 288-231 6-19-7-38-25-38-19-6-38 7-38 25-25 100-119 182-225 182-125 0-225-107-225-232v-125c19 0 38 0 63 0h331c94 0 137 0 181-18 38-19 63-44 81-82 19-37 19-87 19-181v-19c0-93 0-137-19-181-18-38-43-63-81-81-44-19-94-19-181-19z m-338 519c-81 0-125 0-150-13-18-12-37-31-50-56-12-25-12-69-12-150v-19c0-81 0-125 12-150 13-25 32-44 57-56 25-13 62-13 143-13h332c81 0 125 0 150 13 25 12 43 31 56 56 12 25 12 69 12 150v19c0 81 0 125-12 150-13 25-31 44-56 56-25 13-69 13-150 13h-332z" horiz-adv-x="1000" />

<glyph glyph-name="alert-solid" unicode="&#xe851;" d="M500 850c-275 0-500-225-500-500s225-500 500-500c275 0 500 225 500 500 0 275-225 500-500 500z m-37-212h68v-394h-68v394z m81-550h-88v87h88v-87z" horiz-adv-x="1000" />

<glyph glyph-name="save-for-later" unicode="&#xe852;" d="M988 531c0-81-63-150-144-150-63 0-125 0-188 0-18 0-31 13-31 32 0 18 13 31 31 31h0c57 0 119 0 175 0 50 0 94 37 94 87 0 50-37 88-87 94-44 0-94 0-144 0 6-6 12-12 25-19 12-12 12-31 6-43-6-25-25-25-37-13 0 0 0 0-7 6-25 19-50 44-75 69-12 13-12 31 0 44 0 0 0 0 0 6 25 25 50 50 75 69 13 12 32 12 44 0 13-13 13-31 6-44 0 0 0 0 0 0-6-6-12-12-18-19l0 0h12c44 0 81 0 125 0 69 0 138-68 138-150z m-213-550c-12-12-31-25-56-31 0 0-6 0-6 0h-25c-25 6-44 12-63 31-44 38-44 107-6 150s106 44 150 0c50-43 50-106 6-150z m-31 75c0 25-19 44-44 44-25 0-44-19-44-44 0-25 19-43 44-43 0 0 0 0 0 0 25-7 50 18 44 43z m-319-62c-19-19-37-38-69-44 0 0-6 0-6 0h-25c-19 6-31 12-50 19-50 31-56 100-25 144 38 50 100 56 150 25 50-32 63-100 25-144z m-37 56c0 25-19 44-44 44-25 0-44-19-44-44 0-25 19-44 44-44 19 0 44 19 44 44z m437 263c-19 0-31-7-31-25 0-13-6-25-6-32h-482l-43 238h206c19 0 37 0 56 0h0c19 0 31 12 25 31s-12 31-31 31h-269c0 7 0 7 0 13-12 50-19 100-31 156v0c0 19-19 25-31 25h-150c-19 0-32-19-25-31 0-19 18-31 31-25h125c6-50 12-94 19-138 18-118 43-243 68-362h550c13 0 32 12 32 25 6 19 6 37 12 56 0 0 0 0 0 0 0 25-12 38-25 38z" horiz-adv-x="1000" />

<glyph glyph-name="down" unicode="&#xe853;" d="M505 109l-433 434 48 43 385-375 375 380 48-48-423-434z" horiz-adv-x="1000" />

<glyph glyph-name="next" unicode="&#xe854;" d="M88 314h600l-286-292 50-50 342 353c17 17 17 39 0 50l-336 348-50-51 280-286h-600v-72 0z m891-381v834h-67l0-834h67z" horiz-adv-x="1067" />

<glyph glyph-name="open-link" unicode="&#xe855;" d="M856-75h-712c-38 0-69 31-69 69v712c0 38 31 69 69 69l0 0h319v-69h-319v-706h706v319h75v-319c0-44-31-75-69-75l0 0z m-306 425l0 0-50 50 306 306h-237v69h319c18 0 37-19 37-37v-319h-69v237l-306-306 0 0z" horiz-adv-x="1000" />

<glyph glyph-name="plus-1" unicode="&#xe856;" d="M895 385h-360v360c0 19-16 35-35 35s-35-16-35-35l0 0v-360h-360c-19 0-35-16-35-35s16-35 35-35l0 0h360v-360c0-19 16-35 35-35s35 16 35 35l0 0v360h360c19 0 35 16 35 35s-16 35-35 35l0 0z" horiz-adv-x="1000" />

<glyph glyph-name="prev" unicode="&#xe857;" d="M979 314v72h-599l280 286-51 51-336-348c-17-11-17-33 0-50l342-353 50 50-285 292h599z m-824-381v834h-67v-834h67z" horiz-adv-x="1067" />

<glyph glyph-name="up" unicode="&#xe858;" d="M928 158l-49-49-374 380-384-374-49 43 433 433 423-433z" horiz-adv-x="1000" />

<glyph glyph-name="multi-list-9" unicode="&#xe859;" d="M126 850c-69 0-126-57-126-126v-188c0-70 57-126 126-126h189c69 0 125 56 125 126v188c0 69-56 126-125 126h-189z m0-126h189v-188h-189v188z m497 0c-32 0-63-25-63-63s25-63 63-63h314c32 0 63 26 63 63s-25 63-63 63h-314z m0-559c-32 0-63-26-63-63 0-32 25-63 63-63h314c32 0 63 25 63 63 0 31-25 63-63 63h-314z m-623 0c0 69 57 125 126 125h189c69 0 125-56 125-125v-189c0-69-56-126-125-126h-189c-69 0-126 57-126 126v189z m315 0h-189v-189h189v189z" horiz-adv-x="1000" />

<glyph glyph-name="multi-list-9-o" unicode="&#xe85a;" d="M937 724h-314c-32 0-63-25-63-63 0-37 25-63 63-63h314c32 0 63 26 63 63 0 38-25 63-63 63z m0-559h-314c-32 0-63-26-63-63 0-32 25-63 63-63h314c32 0 63 25 63 63 0 31-25 63-63 63z m-497 559v-188c0-70-56-126-125-126h-189c-69 0-126 56-126 126v188c0 69 57 126 126 126h189c69 0 125-57 125-126z m0-559v-189c0-69-56-126-125-126h-189c-69 0-126 57-126 126v189c0 69 57 125 126 125h189c69 0 125-56 125-125z" horiz-adv-x="1000" />

<glyph glyph-name="multi-list-10" unicode="&#xe85b;" d="M264 271c57 0 101-44 107-94l0-6v-157c0-57-44-101-94-107l-7 0h-163c-57 0-101 44-107 94l0 6v158c0 56 44 100 94 106l7 0h163z m472-213c31 0 50-26 50-51 0-25-19-50-44-50l-6 0h-208c-31 0-50 25-50 50 0 25 19 51 44 51l6 0h208z m-472 107h-157v-158h157v158z m686 106c31 0 50-25 50-50s-25-50-50-50h-422c-31 0-50 25-50 50s25 50 50 50h422z m-686 529c57 0 107-44 107-107v-157c0-57-44-107-107-107h-157c-63 0-107 50-107 107v157c0 56 44 107 107 107h157z m472-214c31 0 50-25 50-50 0-26-19-51-44-51l-6 0h-208c-31-6-56 19-56 51 0 25 19 50 44 50l6 0h214z m-472 107h-157v-157h157v157z m686 107c31 0 50-25 50-51 0-25-19-50-44-50l-6 0h-422c-31 0-50 25-50 50 0 26 19 51 44 51l6 0h422z" horiz-adv-x="1000" />

<glyph glyph-name="multi-list-10-o" unicode="&#xe85c;" d="M264 271c57 0 101-44 107-94l0-6v-157c0-57-44-101-94-107l-7 0h-163c-57 0-101 44-107 94l0 6v158c0 56 44 100 94 106l7 0h163z m472-213c31 0 50-26 50-51 0-25-19-50-44-50l-6 0h-208c-31 0-50 25-50 50 0 25 19 51 44 51l6 0h208z m214 213c31 0 50-25 50-50 0-31-25-50-50-50h-422c-31 0-50 25-50 50 0 32 25 50 50 50h422z m-686 529c57 0 107-44 107-107v-157c0-57-44-107-107-107h-157c-63 0-107 50-107 107v157c0 56 44 107 107 107h157z m472-214c31 0 50-25 50-50 0-26-19-51-44-51l-6 0h-208c-31-6-56 19-56 51 0 25 19 50 44 50l6 0h214z m214 214c31 0 50-25 50-51 0-25-19-50-44-50l-6 0h-422c-31 0-50 25-50 50 0 26 19 51 44 51l6 0h422z" horiz-adv-x="1000" />

<glyph glyph-name="low-stock" unicode="&#xe85d;" d="M409 139h-107v673c0 19-13 38-32 38h-69c-25 0-37-19-37-38v-673h-107c-32 0-51-37-26-63l177-213c12-13 37-13 50 0l176 213c25 19 6 63-25 63z m497-144h-38v251c0 19-19 38-38 38h-107c-12 0-25-6-31-19l-38-69c-6-19 0-38 19-50 6 0 13-7 19-7h38v-144h-38c-19 0-38-19-38-38v-69c0-19 19-38 38-38h214c19 0 37 19 37 38v69c0 19-12 38-37 38z m-151 842c-57-18-107-62-120-119-31-113 44-220 151-226-12-13-31-19-50-26-19-6-25-25-19-44l19-44c6-19 25-31 44-19 126 57 189 139 189 296v13c12 113-95 207-214 169l0 0z m50-213c-25 0-44 19-44 44s19 44 44 44c25 0 44-19 44-44s-25-44-44-44z" horiz-adv-x="1000" />

<glyph glyph-name="on-sale" unicode="&#xe85e;" d="M19 209c0 6 0 18 6 25 38 75 32 157 0 232-25 63 0 114 69 145 70 32 120 76 151 151 32 75 88 94 164 69 69-25 132-31 207 0 82 32 132 13 164-69 31-69 75-113 138-138 82-38 101-88 69-170-25-69-25-132 0-201 32-82 13-133-69-164-69-31-113-75-138-138-38-82-88-101-170-70-69 26-132 26-201 0-82-31-132-6-164 70-31 69-69 113-138 138-63 13-94 50-88 120z m667 358c-13 0-26-13-38-25-113-113-227-227-333-333-19-19-45-38-13-70 25-25 50 0 69 19 57 57 120 120 176 176 57 57 107 107 164 164 12 12 25 31 12 50-6 13-19 19-37 19z m-227-82c0 44-38 88-82 88-44 0-88-37-88-81 0-44 38-88 82-88 44-7 88 31 88 81z m183-188c-44 0-88-38-88-82 0-44 37-88 81-88 44 0 88 38 88 82 7 50-31 88-81 88z" horiz-adv-x="1000" />

<glyph glyph-name="price-change" unicode="&#xe85f;" d="M975 202l-327-327c-32-31-88-31-120 0l-471 472c-32 38-57 88-57 138l6 277c0 44 38 82 82 82l277 0c50 6 100-19 138-51l472-471c31-32 31-88 0-120l0 0z m-749 478c0 32-25 57-56 57s-63-19-63-57c0-31 25-56 57-56 0 0 0 0 0 0 31 0 62 25 62 56z m491-547c19 19 19 44 0 57 0 0 0 0 0 0l-25 31c12 19 19 38 25 63 13 38 0 82-31 113-19 19-51 32-76 32-19 0-38 0-56-7h0c-19-6-32-12-45-18h0c-12-7-25-19-31-26-6-6-13-12-19-19-12-6-19-12-25-12h0c-6 0-19-6-25 0h0c-13 0-19 0-25 6-13 13-13 25-7 38 0 25 13 44 26 57 6 6 12 6 18 12l0 0c13 6 19 6 26 13 6 0 18 6 25 6 25 0 44 19 44 44 0 25-19 44-44 44h0c-19 0-38-6-57-13-12-6-25-18-38-25l0 0-31 32c-19 19-44 19-57 0-19-19-19-44 0-57l32-31c-13-19-25-38-25-63-13-44 0-88 31-120 19-19 44-31 76-31 18 0 44 0 62 6 7 6 26 19 38 25 13 7 19 19 32 25 6 7 12 13 19 13 6 6 12 6 25 13 6 6 19 6 25 6 6 0 19-6 25-13 6-6 13-12 6-37-6-19-19-38-31-51-6-6-13-12-19-19-13-6-19-6-25-12-6 0-19-6-25-6-26 0-44-13-44-38 0-25 12-44 37-44l0 0c7 0 7 0 13 0 19 0 38 6 50 12 13 7 25 13 38 19l0 0 31-31c19-13 44-13 57 6l0 0z" horiz-adv-x="1000" />

<glyph glyph-name="back-in-stock" unicode="&#xe860;" d="M440 1c-119 0-232-6-352 0-50 0-82 38-82 94 0 183-6 365 0 548 0 75 57 132 101 188 19 13 38 6 57 6 182 0 364 0 540 0 26 0 44-6 63-31 101-113 88-245 82-384 6-12-6-12-19-12-276 19-421-139-390-409z m302 654c-19 63-50 94-119 94-126-6-252-6-378 0-75 7-107-25-125-94 213 0 415 0 622 0z m-308-94c-31 0-57 0-88 0-31 0-50-19-50-51 0-31 19-44 50-44 63 0 119 0 182 0 32 0 51 19 51 51 0 31-19 44-51 44-37 0-63 0-94 0z m327-705c-126 0-233 107-233 233 0 126 107 233 233 233 126 0 233-107 233-233 0-126-107-233-233-233z m138 283c0 38-37 57-69 38-19-12-37-31-50-50-25-32-50-44-82-7-19 26-44 26-69 0-19-25-13-44 6-69 19-19 38-44 63-63 25-25 50-25 76 0 37 38 75 76 113 114 6 6 19 18 12 37z" horiz-adv-x="1000" />

<glyph glyph-name="multi-list-5" unicode="&#xe861;" d="M912 687c13 0 25-13 25-26v-25c0-12-12-25-25-25h-252c-12 0-25 13-25 25v25c0 13 13 26 25 26h252m0 62h-252c-50 0-88-37-88-88v-25c0-50 38-88 88-88h252c50 0 88 38 88 88v25c0 51-38 88-88 88l0 0z m0-660c13 0 25-13 25-25v-25c0-13-12-25-25-25h-252c-12 0-25 12-25 25v25c0 12 13 25 25 25h252m0 63h-252c-50 0-88-38-88-88v-25c0-51 38-88 88-88h252c50 0 88 37 88 88v25c0 50-38 88-88 88l0 0z m-597 635c12 0 25-12 25-25v-226c0-13-13-26-25-26h-227c-12 0-25 13-25 26v226c0 13 13 25 25 25h227m0 63h-227c-50 0-88-38-88-88v-226c0-51 38-88 88-88h227c50 0 88 37 88 88v226c0 50-38 88-88 88l0 0z m0-660c12 0 25-13 25-25v-227c0-13-13-25-25-25h-227c-12 0-25 12-25 25v227c0 12 13 25 25 25h227m0 63h-227c-50 0-88-38-88-88v-227c0-50 38-88 88-88h227c50 0 88 38 88 88v227c0 50-38 88-88 88l0 0z" horiz-adv-x="1000" />

<glyph glyph-name="drag-drop" unicode="&#xe862;" d="M131 212c0 38-31 63-62 63-38 0-63-32-63-63 0-37 32-62 63-62l0 0c31 0 62 25 62 62z m0 275c0 38-31 63-62 63s-63-32-63-63c0-37 32-62 63-62s62 25 62 62l0 0z m225-212c38 0 63-32 63-63 0-37-31-62-63-62s-62 31-62 62l0 0c-6 38 25 63 62 63z m63 212c0 38-31 63-63 63s-62-32-62-63c0-37 31-62 62-62l0 0c38 0 63 25 63 62z m225-212c37 0 62-32 62-63s-31-62-62-62c-38 0-63 31-63 62l0 0c0 38 25 63 63 63z m287 0c38 0 63-32 63-63s-31-62-63-62-62 31-62 62l0 0c0 38 31 63 62 63z m-218 212c0 38-32 63-63 63s-62-32-62-63 31-62 62-62 63 25 63 62l0 0z m287 0c0 38-31 63-62 63-38 0-63-32-63-63s31-62 63-62 62 25 62 62l0 0z" horiz-adv-x="1000" />

<glyph glyph-name="move-to-list" unicode="&#xe863;" d="M375 113c0 18-12 31-31 31h-313c-18 0-31-13-31-31v-232c0-19 13-31 31-31h313c12 0 31 12 31 31v232z m-250 318h-100c-25 0-31-18-19-25l169-175c6-6 19-6 31 0l169 175c13 13 0 32-19 32h-106c0 100 100 206 206 206v125c-187 0-331-150-331-338z m700 38c-6 6-19 6-31 0l-169-175c-12-13 0-31 19-31h106c0-125-87-207-212-207v-125c187 0 337 144 337 332h100c19 0 31 18 19 31l-169 175z m175 350c0 19-19 31-31 31h-313c-18 0-31-12-31-31v-231c0-19 13-32 31-32h313c19 0 31 13 31 32v231z" horiz-adv-x="1000" />

<glyph glyph-name="manage" unicode="&#xe864;" d="M500 550c-110 0-200-90-200-200s90-200 200-200 200 90 200 200-90 200-200 200z m0-300c-55 0-100 45-100 100s45 100 100 100 100-45 100-100-45-100-100-100z m492 186c-5 27-23 46-44 55l-11 6c-30 15-54 37-70 65-18 31-24 68-21 105 3 23-5 48-26 65-43 37-94 66-148 86-26 10-52 4-70-10-31-22-66-34-102-34s-71 12-101 34c-19 13-45 20-70 10-55-20-105-49-149-86-21-17-28-43-26-65 4-38-3-74-21-105-18-31-46-55-80-71l-6-3c-19-10-34-28-38-52-5-28-8-56-8-86s3-58 8-85c5-27 23-47 44-56l11-5c29-16 53-38 69-65 18-32 25-68 21-105-2-23 5-49 26-66 44-36 94-66 149-86 25-9 52-3 70 10 30 22 65 35 101 35s71-13 102-35c18-13 44-19 70-10 55 20 104 49 148 86 21 17 29 43 26 66-4 37 3 74 21 105 18 31 46 55 81 70l6 3c18 11 34 29 37 53 5 28 8 56 8 86s-2 57-7 85z m-96-142c-47-23-87-58-115-106-27-48-38-101-35-152-29-23-62-42-97-56-43 28-94 46-149 46-55 0-106-18-149-46-35 14-68 33-97 56 3 52-8 104-35 152-28 48-68 83-115 106-2 19-4 37-4 56 0 19 2 38 4 56 46 23 87 58 115 106 28 48 37 101 35 153 29 22 62 41 97 55 43-28 94-45 149-45s106 17 149 46c35-15 68-34 97-56-3-52 8-105 35-153 27-47 68-83 115-106 2-18 3-37 3-56 1-19-1-37-3-56z" horiz-adv-x="1000" />

<glyph glyph-name="multi-list-14-light" unicode="&#xe865;" d="M754-106h-508c-65 0-97 0-126 15-26 13-47 34-60 60-15 29-15 62-15 126v508c0 65 0 97 15 126 13 26 34 47 60 60 29 15 61 15 126 15h508c65 0 97 0 126-15 26-13 47-34 60-60 15-29 15-61 15-126v-508c0-64 0-97-15-126-13-26-34-47-60-60-29-15-61-15-126-15z m-508 848c-53 0-82 0-98-9-14-7-25-18-32-32-9-16-9-45-9-98v-508c0-53 0-82 9-98 7-14 18-25 32-32 16-9 45-9 98-9h508c53 0 82 0 98 9 14 7 25 18 32 32 9 16 9 45 9 98v508c0 53 0 82-9 98-7 14-18 25-32 32-16 9-45 9-98 9h-508z m466-636c0 0 0 0 0 0l-265 0c-17 0-31 14-31 31 0 17 14 31 31 31 0 0 0 0 0 0l265 0c17 0 31-14 31-31 0-17-14-31-31-31z m-423 0h-1c-17 0-31 14-31 31s14 31 31 31h1c17 0 31-14 31-31s-14-31-31-31z m423 212c0 0 0 0 0 0l-265 0c-17 0-31 14-31 31 0 17 14 31 31 31 0 0 0 0 0 0l265 0c17 0 31-14 31-31 0-17-14-31-31-31z m-423 0h-1c-17 0-31 14-31 31 0 17 14 31 31 31h1c17 0 31-14 31-31 0-17-14-31-31-31z m423 212c0 0 0 0 0 0l-265 0c-17 0-31 14-31 31 0 17 14 31 31 31 0 0 0 0 0 0l265 0c17 0 31-14 31-31 0-17-14-31-31-31z m-423 0h-1c-17 0-31 14-31 31s14 31 31 31h1c17 0 31-14 31-31s-14-31-31-31z" horiz-adv-x="1000" />

<glyph glyph-name="multi-list-14-solid-o" unicode="&#xe866;" d="M954 736c-14 29-38 52-67 67-32 17-68 17-133 17h-508c-65 0-100 0-133-17-29-14-52-38-67-67-17-32-17-68-17-133v-508c0-65 0-101 17-133 15-29 38-52 67-67 32-17 68-17 133-17h508c65 0 101 0 133 17 29 15 52 38 67 67 17 32 17 68 17 133v508c0 65 0 101-17 133z m-665-646h-1c-26 0-47 21-47 47s21 47 47 47h1c26 0 47-21 47-47s-21-47-47-47z m0 212h-1c-26 0-47 21-47 47s21 47 47 47h1c26 0 47-21 47-47s-21-47-47-47z m0 212h-1c-26 0-47 21-47 47s21 47 47 47h1c26 0 47-21 47-47s-21-47-47-47z m423-424l-265 0c-26 0-47 21-47 47 0 26 21 47 47 47 0 0 0 0 0 0l265 0c26 0 47-21 47-47 0-26-21-47-47-47z m0 212l-265 0c-26 0-47 21-47 47 0 26 21 47 47 47 0 0 0 0 0 0l265 0c26 0 47-21 47-47 0-26-21-47-47-47z m0 212l-265 0c-26 0-47 21-47 47 0 26 21 47 47 47 0 0 0 0 0 0l265 0c26 0 47-21 47-47 0-26-21-47-47-47z" horiz-adv-x="1000" />

<glyph glyph-name="multi-list-14-regular" unicode="&#xe867;" d="M754-121h-508c-65 0-100 0-133 17-29 14-52 38-67 67-17 32-17 68-17 133v508c0 65 0 101 17 133 15 29 38 52 67 67 32 17 68 17 133 17h508c65 0 101 0 133-17 29-15 52-38 67-67 17-32 17-68 17-133v-508c0-65 0-101-17-133-14-29-38-52-67-67-32-17-68-17-133-17z m-508 848c-49 0-78 0-91-6-11-6-20-15-25-26-7-13-7-42-7-91v-508c0-49 0-78 7-91 5-11 14-20 25-26 13-6 42-6 91-6h508c49 0 78 0 91 6 11 6 20 15 26 26 6 13 6 42 6 91v508c0 49 0 78-6 91-6 11-15 20-26 26-13 6-42 6-91 6h-508z m466-636c0 0 0 0 0 0l-265 0c-26 0-47 21-47 47 0 26 21 47 47 47 0 0 0 0 0 0l265 0c26 0 47-21 47-47s-21-47-47-47z m-423 0h-1c-26 0-47 21-47 47s21 47 47 47h1c26 0 47-21 47-47s-21-47-47-47z m423 212c0 0 0 0 0 0l-265 0c-26 0-47 21-47 47 0 26 21 47 47 47 0 0 0 0 0 0l265 0c26 0 47-21 47-47s-21-47-47-47z m-423 0h-1c-26 0-47 21-47 47s21 47 47 47h1c26 0 47-21 47-47s-21-47-47-47z m423 212c0 0 0 0 0 0l-265 0c-26 0-47 21-47 47 0 26 21 47 47 47 0 0 0 0 0 0l265 0c26 0 47-21 47-47 0-26-21-47-47-47z m-423 0h-1c-26 0-47 21-47 47s21 47 47 47h1c26 0 47-21 47-47s-21-47-47-47z" horiz-adv-x="1000" />

<glyph glyph-name="gift-light" unicode="&#xe868;" d="M692-137h-384c-62 0-93 0-121 14-25 13-45 33-58 58-15 29-15 60-15 121v263c-25 0-41 1-56 9-16 8-28 20-36 36-9 17-9 35-9 67v91c0 33 0 50 9 68 8 15 20 28 36 36 17 9 35 9 67 9h85c-13 21-20 45-20 70 0 35 14 68 38 93 25 25 58 39 93 39 69 0 127-40 169-117 3-7 7-13 10-20 3 7 6 13 9 20 42 77 101 117 170 117 34 0 68-14 92-39 25-25 38-58 38-93 0-25-7-49-19-70h84c32 0 50 0 68-9 15-8 28-21 35-36 9-18 9-35 9-68v-91c0-32 0-50-9-67-7-16-20-28-35-36-16-8-31-9-57-9v-263c0-62 0-92-14-121-13-25-33-45-58-58-28-14-59-14-121-14z m-168 63h168c50 0 78 0 93 7 13 7 24 18 31 31 7 15 7 42 7 92v263h-292v-374c0-8-2-14-7-19z m-347 393v-263c0-50 0-77 7-92 7-14 18-24 31-31 15-8 43-8 93-8h168c-5 6-7 12-7 20v374h-292z m354 62h344c19 0 35 0 39 2 4 2 7 5 9 9 2 4 2 20 2 39v91c0 19 0 35-2 40-2 3-5 6-9 8-4 2-20 2-39 2h-344v-191z m-406 191c-19 0-35 0-39-2-4-2-7-5-8-9-3-4-3-20-3-39v-91c0-19 0-35 3-39 2-4 4-7 8-9 4-2 20-2 39-2h344v191h-344z m416 62h138c18 0 35 8 48 21 13 13 20 31 20 50 0 18-7 36-20 49-13 13-30 21-48 21-79-1-120-88-138-141z m-220 0h138c-18 52-59 140-138 140-18 0-35-7-48-20-13-13-20-31-20-50 0-18 7-36 20-49 13-13 30-21 48-21z" horiz-adv-x="1000" />

<glyph glyph-name="gift-solid-o" unicode="&#xe869;" d="M990 595c-10 18-25 33-43 42-21 11-41 11-74 11h-59c0 0 0 0 0 1 7 17 10 34 10 53 0 39-15 76-43 104-27 27-64 43-103 43-72 0-134-41-178-118-44 77-105 118-178 118-39 0-76-16-103-43-28-28-43-65-43-104 0-19 4-36 10-53 0-1 0-1 1-1h-60c-33 0-53 0-74-11-18-9-33-24-42-42-11-21-11-41-11-75v-72c0-55 44-99 99-99h354v245c0 13 5 25 14 33 8 9 20 14 33 14 26 0 47-21 47-47v-245h354c55 0 99 44 99 99v72c0 34 0 54-10 75z m-668 53c-4 0-9 0-13 1-9 2-17 7-24 14-10 10-15 24-15 39 0 14 5 28 15 38 10 10 23 16 37 16 39 0 72-25 99-75 6-10 11-21 15-32 1 0 1-1 1-1h-115z m393 15c-7-7-15-12-24-14-4-1-9-1-13-1h-115c1 0 1 0 1 1 19 47 55 107 114 107 14 0 27-6 37-16 10-10 16-24 16-39s-6-28-16-38z m-262-408v-406h-144c-62 0-96 0-128 16-28 14-50 37-64 64-16 32-16 66-16 128v198h352z m446 0v-198c0-62 0-96-16-128-14-27-36-50-64-64-32-16-66-16-128-16h-144v406h352z" horiz-adv-x="1000" />

<glyph glyph-name="gift-regular" unicode="&#xe86a;" d="M692-153h-384c-62 0-97 0-128 17-28 14-51 36-65 64-16 32-16 66-16 128v247c-19 1-34 3-48 11-19 9-33 24-43 42-10 21-10 41-10 75v91c0 34 0 54 10 75 10 18 24 33 43 42 21 11 41 11 74 11h60c-7 17-10 35-10 54 0 40 15 77 42 105 28 28 65 44 104 44 73 0 135-41 179-119 45 78 106 119 179 119 39 0 77-16 104-44 28-28 43-65 43-105 0-19-4-37-11-54h60c34 0 54 0 75-11 18-9 33-24 42-42 11-21 11-41 11-75v-91c0-34 0-54-11-75-9-18-24-33-42-42-15-8-29-10-48-11v-247c0-62 0-96-17-128-14-28-36-50-64-64-32-17-66-17-129-17z m-145 94h145c47 0 74 0 86 6 10 5 19 13 24 24 6 12 6 39 6 85v247h-261v-358c0-1 0-3 0-4z m-355 362v-247c0-46 0-74 6-85 6-11 14-19 24-24 12-6 40-6 86-6h145c0 1 0 3 0 4v358h-261z m355 94h328c14 0 28 0 33 1 0 0 0 0 0 0 1 5 1 19 1 33v91c0 14 0 28-1 33 0 0 0 1 0 1-5 0-19 0-33 0h-328v-159z m-455 1c6-1 20-1 33-1h328v159h-328c-13 0-27 0-33-1 0 0 0 0 0 0-1-5-1-19-1-33v-91c0-14 0-28 1-33 0 0 0 0 0 0z m816-1c0 0 0 0 0 0 0 0 0 0 0 0z m-816 0c0 0 0 0 0 0 0 0 0 0 0 0z m816 158l0 0c0 0 0 0 0 0z m-816 0l0 0c0 0 0 0 0 0z m0 1c0 0 0 0 0 0 0 0 0 0 0 0z m816 0c0 0 0 0 0 0 0 0 0 0 0 0z m-344 94h115c14 0 27 6 37 16 10 10 16 24 16 38 0 15-6 29-16 39-10 10-23 16-37 16-60 0-96-61-115-109z m-243 0h115c-4 11-9 23-16 34-27 50-60 75-99 75-14 0-27-6-37-16-10-10-16-24-16-38 0-15 6-29 16-39 10-10 23-16 37-16z" horiz-adv-x="1000" />

<glyph glyph-name="tag-light" unicode="&#xe86b;" d="M837-115c-7 0-13 2-19 6l-318 227-318-227c-10-7-22-8-33-2s-17 16-17 27v712c0 59 0 88 14 115 12 25 32 44 56 56 27 14 57 14 115 14h366c58 0 88 0 115-14 24-12 43-32 56-56 14-27 14-56 14-115v-712c0-11-7-22-17-27-5-3-10-4-14-4z m-337 303c6 0 13-2 18-6l287-205v651c0 47 0 73-7 87-6 12-16 22-28 28-14 7-40 7-87 7h-366c-47 0-73 0-87-7-12-6-22-16-28-28-7-14-7-40-7-87v-651l287 205c5 4 12 6 18 6z" horiz-adv-x="1000" />

<glyph glyph-name="tag-solid-o" unicode="&#xe86c;" d="M883 628v-712c0-17-9-33-25-41-7-4-14-6-21-6-10 0-20 3-28 9l-309 221-309-221c-14-10-33-11-49-3-15 8-25 24-25 41v712c0 59 0 92 15 123 14 27 36 48 63 62 31 16 63 16 123 16h365c59 0 92 0 123-16 27-14 48-35 62-62 15-31 15-64 15-123z" horiz-adv-x="1000" />

<glyph glyph-name="tag-regular" unicode="&#xe86d;" d="M164-131c-8 0-15 2-22 6-16 8-25 24-25 41v712c0 59 0 92 15 123 14 26 36 48 63 62 30 16 63 16 122 16h366c59 0 92 0 123-16 26-13 48-35 62-62 15-31 15-63 15-123v-712c0-17-9-33-25-41-16-8-34-7-49 3l-309 221-309-221c-8-6-18-9-27-9z m336 335c10 0 19-3 27-9l263-188v621c0 42 0 70-5 80-5 9-13 17-22 22 0 0 0 0 0 0-11 5-38 5-80 5h-366c-41 0-69 0-79-5-10-5-17-13-22-22 0 0 0 0 0 0-6-10-6-38-6-80v-621l263 188c8 6 17 9 27 9z" horiz-adv-x="1000" />

<glyph glyph-name="star-light" unicode="&#xe86e;" d="M774-127c-9 0-18 2-27 7l-247 139-247-139c-19-11-42-9-59 4-18 12-26 34-22 55l55 278-208 192c-16 15-22 37-15 58 7 20 24 35 46 37l281 34 119 257c9 20 29 32 50 32 0 0 0 0 0 0 22 0 41-12 50-32l119-257 281-34c22-2 39-17 46-37 7-21 1-43-15-58l-208-192 55-278c4-21-4-43-22-55-9-7-20-11-32-11z m-7 54l0 0 0 0z m-694 517l200-184c14-13 20-33 16-51l-53-266 237 132c17 10 37 10 54 0l237-132-53 266c-4 19 2 38 16 51l200 184-270 32c-19 3-35 14-43 32l-114 246-114-246c-8-18-24-30-43-32l-270-32z m866 11c0 0 0 0 0 0l0 0c0 0 0 0 0 0z" horiz-adv-x="1000" />

<glyph glyph-name="star-solid-o" unicode="&#xe86f;" d="M976 395l-194-180 51-259c6-27-5-54-27-70-13-9-27-13-41-13-12 0-24 3-34 9l-231 129-230-129c-24-14-53-12-76 4-22 16-32 43-27 70l51 260-194 179c-20 19-27 47-18 73 8 26 30 44 58 48l262 31 111 240c11 25 36 40 63 40 28 0 52-15 64-40l111-240 262-32c27-3 50-21 58-47 8-26 1-54-19-73z" horiz-adv-x="1000" />

<glyph glyph-name="star-regular" unicode="&#xe870;" d="M236-128c-15 0-29 5-41 14-22 16-33 43-28 70 0 0 0 0 0 0l52 259-195 180c-20 19-27 46-19 73 9 26 31 44 58 47l263 32 111 239c11 25 36 41 63 41 28 0 52-16 64-41l110-240 263-31c27-3 50-21 58-48 9-26 1-54-19-72l-194-180 52-259c5-27-5-54-28-70-22-17-51-18-75-5l-231 129-230-129c-11-5-23-9-34-9z m264 236c12 0 24-3 34-9l197-110-43 221c-5 24 2 48 20 65 0 0 1 0 1 0l165 153-224 27c-24 3-45 18-55 40l-95 205-94-205c-11-22-31-37-56-40l-224-26 166-154c18-16 26-41 21-65l-44-221 197 110c11 6 23 9 34 9z m-271 98c0 0 0 0 0 0 0 0 0 0 0 0z m683 258c0 0 0 0 0 0l0 0z" horiz-adv-x="1000" />

<glyph glyph-name="heart-light-2" unicode="&#xe871;" d="M764 746c-16 3-33 5-50 5-56 0-110-18-156-50-7-5-14-10-21-16-10-8-18-16-25-25l-12-13-12 13c-13 15-29 29-46 41-46 32-100 49-155 49-17 0-35-1-51-4-62-12-118-45-158-94-40-48-62-109-62-172v-7c0-77 32-151 89-204l342-317 5-5 0 0 0 0c13-12 30-19 48-19 18 0 35 7 48 19l5 5 342 318c57 52 89 127 89 204v6c0 130-92 242-220 266z m158-273c0-59-25-117-69-158l-342-318-11-10-10 10-343 318c-44 41-69 99-69 158v7c0 100 71 186 170 205 12 2 25 3 39 3 59 0 115-25 154-69l1 0 0-1 35-39 0 0 0 0 6-4v-1c5-4 11-5 17-5 8 0 16 3 22 8 0 1 1 1 1 2l0 0 0 0 35 39 0 0 1 1 0 0c39 44 96 69 155 69 13 0 26-1 39-4 98-18 169-104 169-204v-7z" horiz-adv-x="1000" />

<glyph glyph-name="heart-solid-2-o" unicode="&#xe872;" d="M441-65l-5 5-342 318c-60 56-94 134-94 215v7c0 137 98 255 233 281 77 15 156-3 218-47 18-12 34-27 49-43 8 9 17 18 26 26 8 6 15 12 23 17l0 0c63 44 141 62 218 47 135-25 233-144 233-281v-7c0-81-34-159-94-215l-342-318-5-5c-16-14-37-23-59-23s-43 8-59 23l0 0z" horiz-adv-x="1000" />

<glyph glyph-name="heart-regular-2" unicode="&#xe873;" d="M441-65l-5 5-342 318c-60 56-94 134-94 215v7c0 137 98 255 233 281 77 15 156-3 218-47 18-12 34-27 49-43 8 9 17 18 26 26 8 6 15 12 23 17 0 0 0 0 0 0 63 44 141 62 218 47 135-25 233-144 233-281v-7c0-81-34-159-94-215l-342-318-5-5c-16-14-37-23-59-23s-43 8-59 23z m26 632c-1 0-1 1-2 2l-35 39c0 0 0 0 0 0 0 0 0 0 0 0-45 51-113 74-180 61-91-17-156-96-156-189v-7c0-55 23-108 64-146l342-318 342 318c41 38 64 91 64 146v7c0 92-65 172-156 189-67 13-135-10-180-61 0 0 0 0 0 0s0 0 0 0l-35-39c-1-1-1-2-2-2-9-9-21-14-33-14s-24 5-33 14z" horiz-adv-x="1000" />

<glyph glyph-name="sfl-9-light" unicode="&#xe874;" d="M455-112h-5c-32 0-58 26-58 58s26 59 58 59h5c32 0 59-26 59-59s-27-58-59-58z m344 58c0 33-26 59-59 59h-5c-32 0-58-26-58-59s26-58 58-58h5c33 0 59 26 59 58z m-173 452v111h112c17 0 31 14 31 31s-14 32-31 32h-112v111c0 17-14 31-31 31s-31-14-31-31v-111h-111c-18 0-32-14-32-32s14-31 32-31h111v-111c0-17 14-31 31-31s31 14 31 31z m248-209l84 344c4 17-6 34-23 38-17 4-34-6-38-23l-83-344c-2-8-9-13-16-13-1 0-1 0-1 0h-400c-1 0-1 0-1 0-8 0-15 6-16 13l-125 544c-8 36-41 62-78 61h-105c-17 0-31-14-31-31s14-31 31-31h105c0 0 0 0 1 0 7 0 14-5 16-13l124-544c9-36 41-62 79-61h399c1 0 1 0 2 0 36 0 68 25 76 60z" horiz-adv-x="1000" />

<glyph glyph-name="sfl-9-regular" unicode="&#xe875;" d="M455-132h-5c-40 0-73 33-73 73s33 74 73 74h5c40 0 73-33 73-74s-33-73-73-73z m358 73c0 41-32 74-73 74h-5c-40 0-73-33-73-74s33-73 73-73h5c41 0 73 33 73 73z m-171 452v96h96c26 0 47 20 47 46s-21 47-47 47h-96v96c0 26-21 47-47 47s-47-21-47-47v-96h-95c-26 0-47-21-47-47s21-46 47-46h95v-96c0-26 21-47 47-47s47 21 47 47z m248-213l83 344c6 26-9 51-34 57-25 6-51-9-57-34l-84-344c0-1 0-1 0-1 0 0-1 0-1 0h-400c-1 0-1 0-2 0 0 0 0 0 0 1l-125 543c-10 44-49 75-94 74h-104c-26 0-47-21-47-47 0-26 21-47 47-47h105c0 0 1 0 1 0 0 0 1 0 1 0l124-544c10-43 49-74 94-74h399c1 0 1 0 2 0 43 0 81 30 92 72z" horiz-adv-x="1000" />

<glyph glyph-name="sfl-10-light" unicode="&#xe876;" d="M380 97c-17 17-39 26-63 26-50 0-90-40-90-89 0-50 40-90 90-90 49 0 89 40 89 89 0 24-9 47-26 64z m-40-64c0-13-11-23-23-23-13 0-23 11-23 23 0 13 10 23 23 23 6 0 12-2 16-7 5-4 7-10 7-16l0 0z m340 64c-17 17-40 26-63 26-50 0-90-40-90-89 0-50 40-90 90-90 49 0 89 40 89 89 0 24-9 47-26 64z m-41-64c0-13-10-23-23-23-12 0-23 11-23 23 0 13 11 23 23 23 7 0 13-2 17-7 4-4 6-10 6-16l0 0z m332 523c-19 34-55 55-94 55h-522l-30 118c-4 15-18 25-33 25h-144c-14 0-26-12-26-27s12-26 26-26h129l28-110-1-4c-1-2-1-4-2-6l-37-299c0-2 0-3 0-5 0-59 48-108 108-108 1 0 2 0 3 0l417 43 1 0c37 1 71 21 90 52 0 1 1 2 1 3l0 0 85 181 1 1c19 32 19 74 0 107z m-58-75c0-1-1-2-1-3l0 0-85-180-1-1c-8-12-20-18-34-18-1 0-2 0-3-1l0 0-417-42-1 0c-21 1-38 18-39 38l0 2 33 268h513c15 0 29-8 36-21 7-13 7-29-1-42z m-718-60h-50c-15 0-27-12-27-27s12-27 27-27h50c14 0 26 12 26 27 0 15-12 27-26 27z m0 125h-154c-14 0-26-12-26-27s12-27 26-27h154c14 0 26 12 26 27 0 15-12 27-26 27z" horiz-adv-x="1000" />

<glyph glyph-name="sfl-10-solid" unicode="&#xe877;" d="M195 559h-154c-22 0-40-18-40-40s18-40 40-40h154c22 0 40 18 40 40 0 22-18 40-40 40z m0-125h-50c-22 0-40-18-40-40s18-40 40-40h50c22 0 40 18 40 40 0 22-18 40-40 40z m494-328c-19 20-45 31-73 31-56 0-103-47-103-103 0-57 47-104 103-104 0 0 0 0 0 0 29 0 55 12 73 30 19 19 30 45 30 73 0 28-10 54-30 73z m-66-79c-2-2-4-3-7-3-5 0-9 4-9 9 0 6 4 10 9 10 3 0 5-1 7-3 2-2 3-4 3-7 0-2-2-5-3-6z m-233 79c-20 20-46 31-73 31-57 0-103-47-103-103s46-104 103-104c28 0 54 12 73 30 18 19 30 45 30 73 0 28-11 54-30 73z m-67-79c-1-2-3-3-6-3-5 0-9 4-9 9 0 6 4 10 9 10 3 0 5-1 7-3 1-2 2-4 2-7 0-2-1-5-3-6z m660 415l-85-180c-1-2-1-3-2-5-22-35-60-58-102-59l-416-42c-2 0-4 0-5 0-67 0-122 54-122 121 0 2 0 4 0 6l38 300c0 3 1 6 2 8l-24 96h-119c-22 0-40 18-40 40 0 23 18 41 40 41h144c22 0 41-15 47-37v0l26-107h512c44 0 85-24 106-62 21-37 21-83 0-120z" horiz-adv-x="1000" />

<glyph glyph-name="sfl-10-regular" unicode="&#xe878;" d="M317-82l0 0c-57 0-103 47-103 104 0 56 46 102 103 102 27 0 53-10 73-30 19-19 30-45 30-73l0 0c0-57-46-103-103-103z m0 113c-5 0-9-4-9-10 0-5 4-9 9-9l0 0c5 0 9 4 9 9 0 3-1 5-3 7-1 2-4 3-6 3z m56-10l0 0 0 0z m243-103c0 0 0 0 0 0-56 0-103 47-103 104 0 56 47 102 103 102 28 0 54-10 73-30 20-19 30-45 30-73l0 0c0-57-46-103-103-103z m0 113c-5 0-9-4-9-10 0-5 4-9 9-9l0 0c5 0 9 4 10 9 0 3-1 5-3 7-2 2-4 3-7 3z m57-10l0 0 0 0z m310 529c-21 38-62 62-106 62l0 0h-512l-26 107v0c-6 21-25 37-47 37h-144c-22 0-40-18-40-41s18-40 40-40h119l24-96c-1-3-2-5-2-8l-38-300c0-2 0-4 0-6 0-67 55-122 122-122 1 0 3 0 5 1l416 42c42 1 80 24 102 59 1 2 1 3 2 4l85 181c21 37 21 83 0 120z m-82-74c0-2-1-3-2-4l-84-180c-6-7-14-12-23-12-2 0-3 0-5 0l-415-43c-14 1-26 12-27 26l32 256h500c11 0 20-6 25-15s4-20-1-28z m-706-54h-50c-22 0-40-18-40-40 0-22 18-40 40-40h50c22 0 40 18 40 40 0 22-18 40-40 40z m0 125h-154c-22 0-40-18-40-40s18-40 40-40h154c22 0 40 18 40 40 0 22-18 40-40 40z" horiz-adv-x="1000" />

<glyph glyph-name="sfl-11-light" unicode="&#xe879;" d="M945 479h-129l-140 280c-7 15-26 22-42 14-15-8-21-27-14-42l126-252h-492l126 252c7 15 1 34-15 42-15 8-34 1-42-14l-139-280h-129c-17 0-32-14-32-31 0-17 15-31 32-31h24l68-343c10-48 15-74 31-96 13-20 32-35 54-45 25-11 52-11 101-11h334c49 0 76 0 101 11 22 10 41 25 55 45 15 22 21 48 30 96l69 343h23c18 0 32 14 32 31 0 17-14 31-32 31z m-153-392c-8-40-13-62-21-74-7-10-17-18-28-23-13-6-36-6-76-6h-334c-40 0-63 0-76 6-11 5-21 13-28 23-8 12-13 34-21 74l-66 330h61c0 0 0 0 1 0h592c1 0 1 0 2 0h60l-66-330z m-173 117c0-17-14-31-31-31h-57v-57c0-17-14-31-31-31s-31 14-31 31v57h-57c-17 0-31 14-31 31 0 17 14 31 31 31h57v57c0 17 14 31 31 31s31-14 31-31v-57h57c17 0 31-14 31-31z" horiz-adv-x="1000" />

<glyph glyph-name="sfl-12-light" unicode="&#xe87a;" d="M667-78h-334c-49 0-76 0-101 11-22 9-41 25-54 44-16 23-21 49-31 97l-68 343h-24c-17 0-32 14-32 31s15 31 32 31h49c0 0 0 0 1 0h79l139 280c8 15 27 22 42 14 16-8 22-26 15-42l-126-251h492l-125 251c-8 15-2 34 14 42 15 8 34 1 42-14l139-280h79c1 0 1 0 2 0h48c18 0 32-14 32-31s-14-31-32-31h-23l-69-343c-10-48-15-74-30-97-14-19-33-35-55-44-25-11-52-11-101-11z m-525 495l66-330c8-40 13-62 21-73 7-11 17-19 28-24 13-5 36-5 76-5h334c41 0 63 0 76 5 12 5 21 13 28 24 8 11 13 33 21 73l66 330h-60c-1 0-1 0-2 0h-592c-1 0-1 0-1 0h-61v0z m311-342c-8 0-16 3-22 9l-95 94c-12 12-12 32 0 45s32 12 44 0l73-73 167 167c12 12 32 12 44 0s12-32 0-44l-189-189c-6-6-14-9-22-9z" horiz-adv-x="1000" />

<glyph glyph-name="sfl-12-regular" unicode="&#xe87b;" d="M667-94h-334c-51 0-79 0-107 12-25 11-46 28-61 51-17 25-23 52-33 102l-66 330h-11c-26 0-47 21-47 47 0 26 21 47 47 47h48c1 0 2 0 2 0h69l136 271c11 23 39 32 63 21 23-12 32-40 20-63l-114-229h442l-115 229c-11 23-2 51 21 63 24 11 52 2 63-21l136-271h69c0 0 1 0 2 0h48c26 0 47-21 47-47 0-26-21-47-47-47h-11l-66-330c-10-50-15-77-33-102-15-22-36-40-61-50-28-13-56-13-107-13z m-506 495l63-311c7-37 11-59 18-68 5-7 13-14 22-18 9-4 32-4 69-4h334c37 0 60 0 70 4 9 4 16 10 22 18 6 9 10 31 18 68l62 311h-41c0 0-1 0-2 0h-592c0 0-1 0-2 0h-41z m325-328l189 189c18 19 18 48 0 66-18 19-48 19-66 0l-156-156-62 62c-18 18-48 18-66 0s-18-48 0-67l95-94c9-9 20-14 33-14s24 5 33 14z" horiz-adv-x="1000" />

<glyph glyph-name="sfl-11-regular" unicode="&#xe87c;" d="M945 495h-119l-136 271c-11 23-39 32-62 21-24-12-33-40-21-63l114-229h-442l114 229c12 23 3 51-20 63-24 11-52 2-63-21l-136-271h-119c-26 0-47-21-47-47 0-26 21-47 47-47h11l66-330c10-50 16-77 33-102 15-22 36-40 61-50 28-13 56-13 107-13h334c51 0 79 0 107 13 25 10 46 28 61 50 18 25 23 52 33 102l66 330h12c25 0 46 21 46 47 0 26-21 47-47 47z m-169-405c-7-37-11-59-18-67-5-8-13-15-21-18-10-5-33-5-70-5h-334c-37 0-60 0-69 5-9 3-17 10-22 18-7 8-11 30-18 67l-63 311h41c1 0 2 0 2 0h592c1 0 1 0 2 0h41l-63-311z m-141 114c0-26-21-47-47-47h-41v-41c0-26-21-47-47-47s-47 21-47 47v41h-41c-26 0-47 21-47 47 0 26 21 47 47 47h41v41c0 26 21 47 47 47s47-21 47-47v-41h41c26 0 47-21 47-47z" horiz-adv-x="1000" />

<glyph glyph-name="sfl-13-light" unicode="&#xe87d;" d="M831-107c-43 0-78 35-78 78 0 44 35 79 78 79s79-35 79-79c0-43-35-78-79-78z m0 94c-9 0-16-7-16-16 0-9 7-16 16-16s16 7 16 16c0 9-7 16-16 16z m-520-94c-44 0-79 35-79 78 0 44 35 79 79 79s78-35 78-79c0-43-35-78-78-78z m0 94c-9 0-16-7-16-16 0-9 7-16 16-16s16 7 16 16c0 9-7 16-16 16z m568 143h-568c-16 0-29 11-31 26l-28 184c-1 4-2 7-2 10 0 0 0 0 0 0l-60 395h-116c-17 0-31 14-31 31s14 31 31 31h142c16 0 29-11 31-26l61-400h500l88 309c4 16 22 26 38 21 17-4 27-22 22-38l-95-332c-4-13-16-22-30-22h-513l20-127h541c17 0 31-14 31-31 0-17-14-31-31-31z m-308 378c-17 0-31 14-31 31v87h-87c-18 0-32 14-32 31s14 32 32 32h87v87c0 17 14 31 31 31 17 0 31-14 31-31v-87h87c17 0 32-14 32-32s-15-31-32-31h-87v-87c0-17-14-31-31-31z" horiz-adv-x="1000" />

<glyph glyph-name="sfl-14-light" unicode="&#xe87e;" d="M831-108c-43 0-78 35-78 78s35 79 78 79 79-35 79-79-36-78-79-78z m0 94c-8 0-16-7-16-16 0-8 8-16 16-16 9 0 16 8 16 16 0 9-7 16-16 16z m-520-94c-44 0-79 35-79 78s35 79 79 79c43 0 78-35 78-79s-35-78-78-78z m0 94c-9 0-16-7-16-16 0-8 7-16 16-16s16 8 16 16c0 9-7 16-16 16z m568 143h-568c-16 0-29 11-31 26l-28 185c-1 3-2 6-2 9 0 0 0 0 0 0l-61 395h-115c-17 0-31 14-31 31s14 31 31 31h142c16 0 29-11 31-26l62-399h499l88 308c5 17 22 26 39 22 16-5 26-22 21-39l-94-331c-4-14-16-23-31-23h-513l20-127h541c17 0 31-14 31-31 0-17-14-31-31-31z m-332 378c-8 0-16 3-22 9l-94 95c-12 12-12 32 0 44 12 12 32 12 44 0l72-73 168 168c12 12 32 12 44 0 12-12 12-32 0-44l-190-190c-5-6-13-9-22-9z" horiz-adv-x="1000" />

<glyph glyph-name="sfl-14-regular" unicode="&#xe87f;" d="M831-124c-52 0-94 43-94 94s42 95 94 95c52 0 94-42 94-95s-42-94-94-94z m0 95c0 0 0 0 0-1 0 0 1 0 1 0 0 1-1 1-1 1z m-520-95c-52 0-94 43-94 94s42 95 94 95c52 0 94-42 94-95s-42-94-94-94z m0 95c0 0-1 0-1-1 0 0 1 0 1 0 0 1 0 1 0 1z m568 142h-568c-23 0-43 17-46 40l-29 183c-1 4-1 8-1 12l-59 380h-102c-26 0-47 21-47 47s21 47 47 47h142c23 0 43-17 47-40l59-386h474l85 297c7 25 33 39 58 32 25-7 39-33 32-58l-94-331c-6-20-25-34-46-34h-495l15-96h528c26 0 46-20 46-46s-21-47-46-47z m-332 378c-12 0-24 5-33 14l-94 95c-19 18-19 48 0 66 18 18 48 18 66 0l61-62 156 156c19 19 48 19 67 0 18-18 18-48 0-66l-190-189c-8-9-20-14-33-14z" horiz-adv-x="1000" />

<glyph glyph-name="sfl-13-regular" unicode="&#xe880;" d="M816-122c-52 0-94 42-94 94s42 95 94 95c52 0 94-43 94-95s-43-94-94-94z m0 95c-1 0-1 0-1-1 0 0 1 0 1 0 0 1 0 1 0 1z m-521-95c-52 0-94 42-94 94s42 95 94 95c52 0 94-43 94-95s-42-94-94-94z m0 95c0 0 0 0 0-1 0 0 1 0 1 0 0 1-1 1-1 1z m568 142h-568c-23 0-43 17-46 40l-28 183c-1 4-2 8-2 12l-59 380h-101c-26 0-47 21-47 47s21 47 47 47h142c23 0 42-17 46-40l59-386h474l85 297c7 25 33 39 58 32 25-7 40-33 33-58l-95-331c-6-20-24-34-45-34h-495l14-96h528c26 0 47-20 47-46s-21-47-47-47z m-308 378c-26 0-47 21-47 47v72h-71c-26 0-47 21-47 47 0 26 21 47 47 47h71v71c0 26 21 47 47 47s47-21 47-47v-72h72c26 0 47-21 47-47 0-26-21-46-47-46h-72v-72c0-26-21-47-47-47z" horiz-adv-x="1000" />

<glyph glyph-name="heart-light-1" unicode="&#xe881;" d="M500-82c-7 0-12 1-36 14-11 6-30 17-54 31-39 24-97 63-158 113-66 55-120 112-158 169-49 73-74 145-74 216 0 154 118 319 295 319 85 0 145-35 185-72 40 37 100 72 185 72 177 0 296-165 296-319 0-71-25-143-75-216-38-57-92-114-158-169-60-50-119-89-158-113-24-14-42-25-54-31-24-13-29-14-36-14z m-185 799c-139 0-233-132-233-256 0-131 109-251 201-330 92-78 186-131 217-147 31 16 125 69 217 147 92 79 201 199 201 330 0 124-94 256-233 256-80 0-132-40-161-74-6-7-15-11-24-11s-18 4-24 11c-29 34-81 74-161 74z" horiz-adv-x="1000" />

<glyph glyph-name="heart-solid-1-o" unicode="&#xe882;" d="M996 461c0-74-26-149-77-225-39-58-94-116-161-172-61-51-121-90-160-114-77-47-89-47-98-47s-21 0-98 47c-39 24-99 63-160 114-67 56-122 114-161 172-51 76-77 151-77 225 0 81 31 163 84 226 59 70 140 108 227 108 83 0 143-31 185-66 42 35 102 66 185 66 87 0 168-38 227-108 53-63 84-145 84-226z" horiz-adv-x="1000" />

<glyph glyph-name="heart-regular-1" unicode="&#xe883;" d="M500-97c-9 0-21 0-98 47-39 24-99 63-160 114-67 56-122 114-161 172-51 76-77 151-77 225 0 81 30 163 84 226 59 70 140 108 227 108 83 0 143-31 185-66 42 35 102 66 185 66 87 0 168-38 227-108 54-63 84-145 84-226 0-74-26-149-77-225-39-58-93-116-161-172-61-51-120-90-160-114-77-47-89-47-98-47z m-185 799c-130 0-217-125-217-241 0-124 105-240 194-316 85-73 172-124 208-143 36 19 123 70 208 143 89 76 194 192 194 316 0 116-87 241-217 241-60 0-110-24-149-70-9-10-22-16-36-16-14 0-27 6-35 16-40 46-90 70-150 70z" horiz-adv-x="1000" />

<glyph glyph-name="notification-4-light" unicode="&#xe884;" d="M897-128h-793c-18 0-32 14-32 31s14 31 32 31h19c9 123 73 236 173 308l150 107-150 107c-100 72-164 185-173 308h-19c-18 0-32 14-32 31 0 17 14 31 32 31h793c17 0 31-14 31-31 0-17-14-31-31-31h-20c-9-123-72-236-173-308l-150-107 150-107c101-72 164-185 173-308h20c17 0 31-14 31-31s-14-31-31-31z m-711 62h628c-9 103-62 197-147 257l-167 120-167-120c-85-60-138-154-147-257z m0 830c9-102 62-197 147-257l167-119 167 119c85 60 138 155 147 257h-628z m463-744h-298c-17 0-31 14-31 32s14 31 31 31h298c17 0 31-14 31-31s-14-32-31-32z" horiz-adv-x="1000" />

<glyph glyph-name="notification-4-solid" unicode="&#xe885;" d="M943-97c0-26-21-47-46-47h-793c-26 0-47 21-47 47 0 26 21 47 47 47h5c13 121 78 233 178 305l132 94-132 94c-100 72-165 184-178 305h-5c-26 0-47 21-47 47 0 26 21 47 47 47h793c25 0 46-21 46-47 0-26-21-47-46-47h-6c-13-121-78-233-178-305l-132-94 132-94c101-72 165-184 178-305h6c25 0 46-21 46-47z" horiz-adv-x="1000" />

<glyph glyph-name="notification-4-regular" unicode="&#xe886;" d="M897-144h-793c-26 0-47 21-47 47s21 47 47 47h5c13 121 78 233 178 305l132 94-132 95c-100 71-165 183-178 304h-5c-26 0-47 21-47 47s21 47 47 47h793c26 0 46-21 46-47s-20-47-46-47h-6c-13-121-78-233-178-304l-132-95 132-94c101-72 165-183 178-305h6c26 0 46-21 46-47s-20-47-46-47z m-694 94h594c-13 91-63 174-139 228l-158 113-158-113c-76-54-126-137-139-228z m0 798c13-91 63-174 139-228l158-113 158 113c76 54 126 137 139 228h-594z m446-743h-298c-26 0-46 21-46 47s20 46 46 46h298c26 0 47-20 47-46s-21-47-47-47z" horiz-adv-x="1000" />

<glyph glyph-name="notification-5-light" unicode="&#xe887;" d="M500-112c-123 0-239 48-326 135-87 87-135 203-135 326 0 123 48 239 135 326s203 135 326 135c123 0 239-48 326-135 87-87 135-203 135-326 0-123-48-239-135-326s-203-135-326-135z m0 860c-220 0-398-179-398-399 0-220 178-398 398-398 220 0 398 178 398 398 0 220-178 399-398 399z m119-502c-5 0-11 2-16 5l-119 71c-9 6-15 16-15 27v239c0 17 14 31 31 31 17 0 31-14 31-31v-221l104-63c15-9 20-28 11-43-6-9-16-15-27-15z" horiz-adv-x="1000" />

<glyph glyph-name="notification-5-solid" unicode="&#xe888;" d="M837 686c-90 90-210 140-337 140s-247-50-337-140c-90-90-140-210-140-337s50-247 140-337c90-90 210-140 337-140s247 50 337 140c90 90 140 210 140 337s-50 247-140 337z m-177-433c-9-14-25-22-41-22-8 0-16 2-24 6l-119 72c-14 8-23 24-23 40v239c0 26 21 47 47 47s47-21 47-47v-212l97-58c22-14 29-43 16-65z" horiz-adv-x="1000" />

<glyph glyph-name="notification-5-regular" unicode="&#xe889;" d="M500-128c-127 0-247 50-337 140-90 90-140 210-140 337s50 247 140 337c90 90 210 140 337 140s247-50 337-140c90-90 140-210 140-337s-50-247-140-337c-90-90-210-140-337-140z m0 860c-211 0-383-172-383-383s172-383 383-383 383 172 383 383-172 383-383 383z m119-501c-8 0-16 2-24 6l-119 72c-14 8-23 24-23 40v239c0 26 21 47 47 47s47-21 47-47v-212l97-58c22-14 29-43 16-65-9-14-25-22-41-22z" horiz-adv-x="1000" />

<glyph glyph-name="notification-6-light" unicode="&#xe88a;" d="M819 271c-33 35-47 59-47 82v132c0 140-106 255-241 270 0 1 0 1 0 1v32c0 17-14 31-31 31s-31-14-31-31v-32c0 0 0 0 0-1-136-15-241-131-241-270v-132c0-23-13-47-47-82-32-33-49-76-49-121 0-44 36-80 81-80h575c44 0 80 36 80 80 0 45-17 88-49 121z m-16-137h-606v16c0 29 11 56 31 77 22 24 65 68 65 126v132c0 114 93 208 207 208s208-93 208-208v-132c0-58 42-102 65-126 20-21 31-48 31-77v-16z m-303-255c-1 0-1 0-2 0-24 0-47 7-67 21-21 13-37 31-47 53-7 16 0 35 16 42 16 7 34 0 41-16 6-11 14-20 24-27 10-7 22-10 34-11 13 0 24 3 35 10 10 6 19 16 24 27 8 15 27 22 42 14 15-7 22-26 15-42-11-21-28-40-48-52-20-13-43-19-67-19z" horiz-adv-x="1000" />

<glyph glyph-name="notification-6-solid" unicode="&#xe88b;" d="M500-137c-1 0-1 0-2 0-27 1-53 9-76 23-23 15-41 36-52 61-11 24 0 51 23 62 24 11 52 0 63-23 3-9 9-16 17-21 8-5 17-8 26-8 10 0 19 3 27 7 8 5 14 12 18 21 12 23 40 33 63 21 23-11 33-39 22-62-12-25-31-45-54-59-23-15-49-22-75-22z m331 419c-29 31-43 52-43 71v132c0 143-105 262-241 284 0 1 0 3 0 4v15c0 26-21 47-47 47s-47-21-47-47v-15c0-1 0-3 0-4-136-22-240-141-240-284v-132c0-19-15-40-44-71-32-34-52-81-52-132 0-53 43-96 96-96h575c52 0 95 43 95 96 0 51-20 98-52 132z" horiz-adv-x="1000" />

<glyph glyph-name="notification-6-regular" unicode="&#xe88c;" d="M607 14c-24 11-52 1-63-22-4-8-10-15-18-20-8-5-17-8-27-7-9 0-18 3-26 8s-14 12-18 20c-10 24-38 34-62 24-23-11-34-39-23-63 11-24 29-45 52-60 22-15 49-23 76-23 0 0 1 0 2 0 26 0 52 7 75 21 23 14 41 34 53 59 12 23 2 51-21 63z m224 276c-29 30-43 52-43 71v132c0 143-105 261-241 284v19c0 26-21 46-47 46s-47-20-47-46v-19c-136-23-240-141-240-284v-132c0-19-15-41-44-71-32-35-52-81-52-133 0-52 43-95 96-95h575c52 0 95 43 95 95 0 51-20 98-52 133z m-618-133c0 26 10 49 26 66 27 29 69 76 69 138v132c0 105 86 191 192 191 106 0 192-85 192-191v-132c0-62 43-110 70-138 16-17 26-40 26-66h-575z" horiz-adv-x="1000" />

<glyph glyph-name="notification-7-light" unicode="&#xe88d;" d="M500-129c-25 0-50 5-74 15-24 10-45 24-63 42-18 18-32 40-42 63-6 14-10 29-12 43h-83c-44 0-83 25-102 65-18 40-13 86 16 120l44 53v159c0 164 125 299 285 315v51c0 18 14 32 31 32 17 0 31-14 31-32v-51c160-16 285-151 285-315v-159l44-53c29-34 34-80 16-120s-58-65-102-65h-82c-3-14-7-29-13-43-9-23-24-45-42-63-18-18-39-32-63-42-23-10-48-15-74-15z m-127 163c1-6 3-13 6-19 7-16 16-30 28-42 13-13 27-22 43-29 16-7 33-10 50-10 18 0 34 3 50 10 16 7 31 16 43 29 12 12 22 26 29 42 2 7 4 13 6 19h-255z m290 63h111c20 0 37 10 45 29 8 18 6 38-7 53l-51 62c-5 5-8 12-8 20v170c0 140-113 254-253 254-140 0-253-114-253-254v-170c0-8-3-15-7-20l-52-62c-13-15-15-35-7-53s25-29 45-29h437z m-448 164l0 0 0 0z" horiz-adv-x="1000" />

<glyph glyph-name="notification-7-solid" unicode="&#xe88e;" d="M500 843c24 0 43-19 43-43v-46c146-21 258-146 258-298v-180l54-65c47-56 7-141-66-141h-578c-73 0-112 85-66 141l54 65v180c0 152 112 277 258 298v46c0 24 19 43 43 43z m-152-925c-18 19-34 42-44 66h393c-11-24-26-47-45-66-20-20-43-36-70-46-26-11-53-17-82-17-28 0-56 6-82 17-26 10-50 26-70 46z" horiz-adv-x="1000" />

<glyph glyph-name="notification-7-regular" unicode="&#xe88f;" d="M500-144c-27 0-54 5-80 16-26 10-48 26-68 45-20 20-35 43-46 68-4 11-8 22-10 34h-70c-50 0-95 28-116 73-21 46-15 98 18 137l40 49v153c0 167 124 306 285 329v37c0 26 21 47 47 47s47-21 47-47v-37c160-23 284-162 284-329v-153l41-49c32-39 39-91 17-137-21-45-66-73-116-73h-69c-2-12-6-23-11-34-10-25-25-48-45-68-20-19-42-34-68-45-25-11-52-16-80-16z m-106 163c6-13 14-25 24-35 11-11 24-20 38-25 14-6 29-9 44-9 15 0 31 3 45 9 14 5 26 14 37 25 10 10 18 22 24 35h-212z m269 93h111c19 0 28 14 31 20s8 22-5 37l-51 62c-7 8-11 19-11 30v170c0 132-107 238-238 238-131 0-238-106-238-238v-170c0-11-4-22-11-30l-51-62c-13-15-8-31-5-37 3-6 11-20 31-20h437z m-448 149l0 0 0 0z" horiz-adv-x="1000" />

<glyph glyph-name="multi-list-11-light" unicode="&#xe890;" d="M726 55h-200l-5 0c-15-2-27-16-27-32 0-17 14-32 32-32h200l5 1c8 1 15 4 19 10 6 6 8 13 8 21 0 18-14 32-32 32z m202 201h-403c-17 0-32-14-32-32 0-17 15-32 32-32h403c17 0 31 15 31 32 0 18-14 32-31 32z m-573-76c-1 21-10 40-26 54-15 14-35 22-56 22h-150l-7 0c-20-2-39-11-53-26-15-15-22-35-22-56v-151l0-7c2-20 11-39 26-53 15-14 35-22 56-22h150l7 0c20 2 39 11 54 26 14 15 22 35 22 56v150l-1 7z m-63-175h-188v188h188v-188z m434 553h-200l-5-1c-15-1-27-15-27-31 0-18 14-32 32-32h200l5 1c7 1 14 4 19 10 6 6 8 13 8 21 0 18-14 32-32 32z m202 201h-402l-5 0c-15-2-27-16-27-32 0-17 14-32 32-32h401l5 1c16 2 27 15 27 31 0 18-14 32-31 32z m-654 0h-151c-45 0-82-37-82-82v-151c0-45 37-82 82-82h151c45 0 82 37 82 82v151c0 45-37 82-82 82z m18-252h-188v189h188v-189z" horiz-adv-x="1000" />

<glyph glyph-name="multi-list-11-solid-o" unicode="&#xe891;" d="M726 71h-201l-5-1c-24-3-42-23-42-47 0-26 21-47 47-47h202l5 0c12 1 23 7 30 16 7 8 12 19 12 31 0 26-22 48-48 48z m202 201h-403c-26 0-47-22-47-48 0-26 21-47 47-47h403c26 0 47 21 47 47 0 26-21 48-47 48z m-202 301h-201l-5 0c-24-3-42-23-42-47 0-26 21-47 47-47h202l5 0c12 1 23 7 30 16 7 8 12 19 12 31 0 26-22 47-48 47z m202 202h-403l-5-1c-24-2-42-23-42-47 0-26 21-47 47-47h403l5 0c24 3 42 23 42 47 0 26-21 48-47 48z m-557-601v-151c0-25-9-49-26-67-17-18-40-29-64-30l-7-1h-151c-25 0-49 10-67 27s-29 39-31 64l0 7v151c0 25 9 49 26 66 17 19 40 30 64 31l8 1h150c25 0 49-10 67-27 18-16 29-39 31-64l0-7z m0 503v-151c0-54-43-98-97-98h-151c-54 0-98 44-98 98v151c0 54 44 98 98 98h151c54 0 97-44 97-98z" horiz-adv-x="1000" />

<glyph glyph-name="multi-list-11-regular" unicode="&#xe892;" d="M774 23c0-12-5-23-12-31-7-9-18-15-30-16l-5 0h-202c-26 0-47 21-47 47 0 24 18 44 42 47l5 1h201c26 0 48-22 48-48z m154 249h-403c-26 0-47-22-47-48 0-26 21-47 47-47h403c26 0 47 21 47 47 0 26-21 48-47 48z m-557-98v-151c0-25-9-49-26-67-17-18-40-29-64-30l-7-1h-151c-25 0-49 10-67 27-18 16-29 39-31 64l0 7v151c0 25 9 49 26 66 17 19 40 30 64 31l8 1h150c25 0 49-10 67-27 18-16 29-39 31-64v0l0-7z m-94-154v157h-157v-157h157z m449 553h-201l-5 0c-24-3-42-23-42-47 0-26 21-47 47-47h202l5 0c12 1 23 7 30 16 7 8 12 19 12 31 0 26-22 47-48 47z m202 202h-403l-5-1c-24-2-42-23-42-47 0-26 21-47 47-47h403l5 0c24 3 42 23 42 47 0 26-21 48-47 48z m-557-98v-151c0-54-43-98-97-98h-151c-54 0-98 44-98 98v151c0 54 44 98 98 98h151c54 0 97-44 97-98z m-94-154v157h-157v-157h157z" horiz-adv-x="1000" />

<glyph glyph-name="multi-list-12-light" unicode="&#xe893;" d="M769-113c-17 0-31 14-31 31v131h-130c-18 0-32 14-32 31 0 17 14 31 32 31h130v130c0 18 14 32 31 32 17 0 31-14 31-32v-130h131c17 0 31-14 31-31 0-17-14-31-31-31h-131v-131c0-17-14-31-31-31z m-463 0h-150c-34 0-53 0-71 9-17 8-29 21-37 37-10 19-10 37-10 71v151c0 34 0 53 10 71 8 16 21 29 37 37 18 9 37 9 71 9h150c34 0 53 0 71-9 16-8 29-21 37-37 9-18 9-37 9-71v-151c0-34 0-52-9-71-8-16-21-29-37-37-18-9-37-9-71-9z m-150 323c-22 0-38 0-43-2-4-2-8-6-10-10-3-5-3-22-3-43v-151c0-21 0-37 3-42 2-5 6-8 10-10 5-3 21-3 43-3h150c21 0 38 0 43 3 4 2 7 5 10 10 2 5 2 21 2 42v151c0 21 0 38-2 43-2 4-6 7-10 10-5 2-22 2-43 2h-150z m689 215h-151c-34 0-53 0-71 10-16 8-29 21-37 37-9 18-9 37-9 71v151c0 34 0 52 9 71 8 16 21 28 37 37 18 9 37 9 71 9h151c34 0 52 0 70-9 16-9 29-21 38-37 9-19 9-37 9-71v-151c0-34 0-53-9-71-9-16-22-29-38-37-18-10-36-10-70-10z m-151 323c-21 0-38 0-43-2-4-2-7-6-10-10-2-5-2-21-2-43v-150c0-21 0-38 2-43 2-4 6-8 10-10 5-2 22-2 43-2h151c21 0 37 0 42 2 4 2 8 6 10 10 3 5 3 22 3 43v151c0 21 0 37-3 42-2 4-6 8-10 10-5 3-21 3-42 3h-151z m-388-323h-150c-34 0-53 0-71 10-17 8-29 21-37 37-10 18-10 37-10 71v151c0 34 0 52 10 71 8 16 21 28 37 37 18 9 37 9 71 9h150c34 0 53 0 71-9 16-8 29-21 37-37 9-18 9-37 9-71v-151c0-34 0-53-9-71-8-16-21-29-37-37-18-10-37-10-71-10z m-150 323c-22 0-38 0-43-2-4-2-8-6-10-10-3-5-3-21-3-43v-150c0-21 0-38 3-43 2-4 6-8 10-10 5-2 21-2 43-2h150c21 0 38 0 43 2 4 2 7 6 10 10 2 5 2 22 2 43v151c0 21 0 37-2 42-2 4-6 8-10 10-5 3-22 3-43 3h-150z" horiz-adv-x="1000" />

<glyph glyph-name="multi-list-12-solid-o" unicode="&#xe894;" d="M931 127h-115v114c0 26-21 47-47 47-26 0-47-21-47-47v-114h-114c-26 0-47-21-47-47 0-26 21-47 47-47h114v-115c0-25 21-47 47-47 26 0 47 22 47 47v115h115c25 0 47 21 47 47 0 26-21 47-47 47z m-492 28v-150c0-36 0-57-11-78-9-20-25-35-44-44-21-11-42-11-78-11h-150c-36 0-57 0-78 11-20 9-35 25-44 44-11 21-11 42-11 78v150c0 35 0 57 11 78 9 19 25 35 44 44 21 11 42 11 78 11h150c35 0 57 0 78-11 19-10 35-25 44-44 11-21 11-43 11-78z m539 539v-151c0-35 0-57-11-78-10-19-25-34-44-44-22-11-43-11-78-11h-151c-35 0-56 0-78 11-19 10-34 25-44 44-11 21-11 43-11 78v151c0 35 0 56 11 78 10 19 25 34 44 43 22 11 43 11 78 11h151c35 0 56 0 78-11 19-9 34-25 44-43 11-22 11-43 11-78z m-539 0v-151c0-35 0-57-11-78-9-19-25-34-44-44-21-11-42-11-78-11h-150c-36 0-57 0-78 11-20 10-35 25-44 44-11 21-11 43-11 78v151c0 35 0 56 11 78 9 19 25 34 44 43 21 12 42 12 78 12h150c35 0 57 0 78-11 19-10 35-25 44-44 11-22 11-43 11-78z" horiz-adv-x="1000" />

<glyph glyph-name="multi-list-12-regular" unicode="&#xe895;" d="M769-129c-26 0-47 21-47 47v115h-114c-26 0-47 21-47 47s21 47 47 47h114v114c0 26 21 47 47 47s47-21 47-47v-114h115c26 0 47-21 47-47s-21-47-47-47h-115v-115c0-26-21-47-47-47z m-463 0h-150c-36 0-57 0-78 11-20 10-35 25-44 44-11 22-11 43-11 78v151c0 35 0 57 11 78 9 19 25 34 44 44 21 11 42 11 78 11h150c36 0 57 0 78-11 20-10 35-25 44-44 11-21 11-43 11-78v-151c0-35 0-56-11-78-9-19-25-34-44-44-21-11-43-11-78-11z m-187 95c5-1 21-1 37-1h150c16 0 31 0 36 1 1 1 2 2 2 2 2 5 2 21 2 37v150c0 16 0 31-2 36 0 1-1 2-2 2-5 2-20 2-36 2h-150c-16 0-32 0-37-2 0 0-1-1-2-2-1-5-1-20-1-36v-150c0-16 0-32 1-37 1 0 2-1 2-2z m726 444h-151c-35 0-57 0-78 11-19 10-35 25-44 44-11 21-11 42-11 78v151c0 35 0 56 11 78 10 19 25 34 44 43 21 11 43 11 78 11h151c35 0 56 0 78-11 19-9 34-25 43-43 11-22 11-43 11-79v-150c0-36 0-57-11-78-9-19-25-35-43-44-22-11-43-11-78-11z m-187 95c5-1 21-1 36-1h151c15 0 31 0 36 1 0 0 1 1 2 2 1 5 1 21 1 36v151c0 15 0 31-1 36-1 1-2 1-2 2-5 1-21 1-36 1h-151c-15 0-31 0-36-1-1-1-2-1-2-2-1-5-1-21-1-36v-151c0-15 0-31 1-36 0-1 1-2 2-2z m-352-95h-150c-36 0-57 0-78 11-20 10-35 25-44 44-11 21-11 42-11 78v151c0 35 0 56 11 78 9 19 25 34 44 43 21 12 42 12 78 12h150c35 0 57 0 78-11 19-10 35-25 44-44 11-22 11-43 11-78v-151c0-35 0-56-11-78-10-19-25-34-44-44-21-11-43-11-78-11z m-187 95c5-1 21-1 37-1h150c16 0 31 0 36 1 1 0 2 1 2 2 2 5 2 21 2 36v151c0 15 0 31-2 36 0 1-1 1-2 2-5 1-20 1-36 1h-150c-16 0-32 0-37-1 0-1-1-1-2-2-1-5-1-21-1-36v-151c0-15 0-31 1-36 1-1 2-2 2-2z" horiz-adv-x="1000" />

<glyph glyph-name="multi-list-13-light" unicode="&#xe896;" d="M750-73h-500c-53 0-82 0-108 13-23 11-42 28-55 50-15 25-18 54-23 106l-23 220c-4 48-7 75 3 99 10 22 26 40 46 51 24 13 51 13 100 13h621c48 0 75 0 99-13 20-11 37-29 46-51 10-24 8-51 3-99l-22-219c-6-53-8-82-23-107-14-22-33-39-56-50-26-13-55-13-108-13z m-560 490c-38 0-60 0-69-6-9-4-15-11-19-20-4-10-2-32 2-69l22-219c4-44 6-68 14-81 7-11 17-20 29-26 13-6 37-6 81-6h500c44 0 68 0 82 6 12 6 22 15 28 26 8 13 11 37 15 81l22 219c3 37 5 59 1 69-3 9-10 16-18 21-10 5-32 5-69 5h-621z m310-343c-100 0-178 57-178 129 0 73 78 129 178 129 100 0 178-56 178-129 0-72-78-129-178-129z m0 196c-68 0-116-35-116-67s48-66 116-66c68 0 116 35 116 66s-48 67-116 67z m391 294h-782c-18 0-32 14-32 31 0 17 14 31 32 31h783c17 0 31-14 31-31 0-18-14-31-32-31z m-48 146h-686c-17 0-31 14-31 31s14 32 31 32h686c17 0 31-14 31-32s-14-31-31-31z" horiz-adv-x="1000" />

<glyph glyph-name="multi-list-13-solid-o" unicode="&#xe897;" d="M891 641h-782c-26 0-47-21-47-47 0-26 21-47 47-47h783c25 0 47 21 47 47-1 26-22 47-48 47z m-48 146h-686c-26 0-46-21-46-47 0-25 20-46 46-46h686c26 0 47 21 47 46 0 26-22 47-47 47z m127-366c-10 24-29 45-53 58-27 15-55 15-106 15h-621c-52 0-80 0-107-15-24-13-42-34-53-58-12-29-9-57-4-108l22-219c5-55 8-85 25-113 15-25 36-44 62-56 30-14 60-14 115-14h500c55 0 86 0 115 14 26 12 48 31 62 56 17 28 20 58 26 113l21 219c5 51 8 79-4 108z m-664-219c0 81 85 145 194 145s194-64 194-145c0-81-85-145-194-145s-194 64-194 145z m294 0c0-21-39-51-100-51s-100 30-100 51c0 21 39 51 100 51s100-30 100-51z" horiz-adv-x="1000" />

<glyph glyph-name="multi-list-13-regular" unicode="&#xe898;" d="M750-88h-500c-55 0-85 0-115 14-26 12-47 31-62 56-17 28-20 58-25 113l-22 219c-5 51-8 79 4 108 10 24 29 45 53 58 27 15 55 15 106 15h622c51 0 79 0 106-15 24-13 42-34 53-58 12-29 9-57 4-108l-22-219c-5-55-8-85-25-113-15-25-36-44-62-56-30-14-60-14-115-14z m-560 489c-29 0-56 0-62-3-5-3-9-8-12-13-2-6 0-33 3-62l22-219c4-40 7-64 13-74 5-8 12-15 21-20 11-5 35-5 75-5h500c40 0 65 0 75 5 9 5 17 11 22 20 6 10 8 34 12 74l22 219c3 29 5 56 3 62-3 5-7 10-12 13-6 3-33 3-61 3h-621z m310-343c-109 0-194 64-194 145 0 81 85 145 194 145 109 0 194-64 194-145 0-81-85-145-194-145z m0 196c-61 0-100-30-100-51s39-51 100-51c61 0 100 30 100 51s-39 51-100 51z m391 294h-782c-26 0-47 21-47 47 0 26 21 47 47 47h783c26 0 47-21 47-47-1-26-22-47-48-47z m-48 147h-686c-26 0-46 20-46 46 0 26 20 47 46 47h686c26 0 47-21 47-47 0-25-22-46-47-46z" horiz-adv-x="1000" />

<glyph glyph-name="copy" unicode="&#xe899;" d="M685 788c-66 0-131-26-179-72l0-1-21-20c-16-17-16-43 0-59l30-30c16-16 42-16 59 0l20 20c24 24 57 37 90 37 34-1 66-14 90-39 24-24 38-57 38-91 1-34-12-67-36-92l-129-130c-13-13-29-24-46-30-18-7-36-9-55-8-18 1-36 7-52 16-4 2-8 4-12 7-19 13-45 18-63 4l-34-25c-18-14-22-40-6-56 16-16 34-29 54-40 32-18 68-28 104-31 37-2 73 3 107 16 35 13 66 33 91 59l130 131 1 0c46 49 72 113 71 180 0 67-27 131-74 179-47 47-111 74-178 75z m-222-236c-37 2-73-3-107-16-35-13-66-33-91-59l-130-130-1-1c-46-48-72-113-71-180 0-67 27-131 74-179 47-47 111-74 178-75 67 0 131 26 179 72l0 1 21 20c16 17 16 43 0 59l-30 30c-16 16-42 16-59 0l-20-20c-24-24-56-37-90-36-34 0-66 14-90 38-24 24-38 57-38 91-1 34 12 67 36 92l129 130c14 14 29 24 47 30 17 7 36 10 54 8 18-1 36-6 53-15 4-3 8-5 11-8 19-13 45-17 64-4l33 25c19 14 23 40 6 56-16 16-34 29-54 40-32 18-68 28-104 31z" horiz-adv-x="1000" />

<glyph glyph-name="info" unicode="&#xe89a;" d="M903 520c-22 52-53 99-94 139s-87 72-139 94c-54 23-111 35-170 35s-116-12-170-35c-52-22-99-53-139-94s-72-87-94-139c-23-54-34-111-34-170s11-116 34-170c22-52 54-99 94-139s87-72 139-94c54-23 111-34 170-34s116 11 170 34c52 22 99 54 139 94s72 87 94 139c23 54 34 111 34 170s-11 116-34 170z m-450-154c0 26 21 47 47 47s47-21 47-47v-219c0-26-21-47-47-47s-47 21-47 47v219z m47 109c-26 0-47 21-47 47s21 47 47 47h0c26 0 47-21 47-47s-21-47-47-47z" horiz-adv-x="1000" />

<glyph glyph-name="notice" unicode="&#xe89c;" d="M924 555l-219 219c-9 9-21 14-33 14h-344c-12 0-24-5-33-14l-219-219c-8-9-13-21-13-33v-344c0-12 5-24 13-33l219-219c9-9 21-14 33-14h344c12 0 24 5 33 14l219 219c9 9 14 21 14 33v344c0 12-5 24-14 33z m-471-2c0 26 21 47 47 47s47-21 47-47v-219c0-25-21-46-47-46s-47 21-47 46v219z m47-453c-26 0-47 21-47 47s21 47 47 47h0c26 0 47-21 47-47s-21-47-47-47z" horiz-adv-x="1000" />

<glyph glyph-name="success" unicode="&#xe89d;" d="M391 38c-13 0-25 4-33 13l-219 219c-18 18-18 48 0 66 18 19 48 19 66 0l185-184 404 433c18 19 47 20 66 2 19-17 20-47 2-66l-437-469c-9-9-21-14-34-15 0 1 0 1 0 1z" horiz-adv-x="1000" />

<glyph glyph-name="warning" unicode="&#xe89f;" d="M875 616v-313c0-41-9-83-27-123-17-39-41-76-73-110-65-69-155-123-261-156-5-1-9-2-14-2s-9 1-14 2c-108 34-198 85-260 150-66 68-101 151-101 239v313c0 19 12 37 30 43l328 125c11 5 23 5 34 0l328-125c18-6 30-24 30-43z m-328-438c0 26-21 47-47 47h0c-26 0-47-21-47-47s21-47 47-47 47 21 47 47z m0 156v188c0 26-21 47-47 47s-47-21-47-47v-188c0-25 21-46 47-46s47 21 47 46z" horiz-adv-x="1000" />

<glyph glyph-name="tag" unicode="&#xe900;" d="M741 850h-488c-75 0-131-56-131-131 0 0 0 0 0 0v-838c0-19 12-31 31-31 6 0 13 0 13 6l331 182 331-182c13-6 31 0 44 13 0 6 6 12 6 12v838c-6 75-62 131-137 131 0 0 0 0 0 0z m68-913l-300 163c-6 6-18 6-31 0l-294-163v776c0 43 38 75 75 75h469c44 0 81-32 81-75v-776z" horiz-adv-x="1000" />

<glyph glyph-name="tag-o" unicode="&#xe901;" d="M741 850h-488c-75 0-131-56-131-131 0 0 0 0 0 0v-838c0-19 12-31 31-31 6 0 13 0 13 6l331 182 331-182c13-6 31 0 44 13 0 6 6 12 6 12v838c-6 75-62 131-137 131 0 0 0 0 0 0z m68-412v0z" horiz-adv-x="1000" />

<glyph glyph-name="gift" unicode="&#xe902;" d="M925 578h-200c6 0 6 6 13 13 56 56 56 150 0 206v0c-25 25-63 44-100 44v0c-44-7-82-19-107-50-18-13-31-38-31-57-6 19-19 44-37 57-25 31-63 43-100 43v0c-38 0-75-12-100-43-63-57-63-144-7-207v0c0-6 7-6 13-12h-200c-38 6-69-25-69-63v-156c0-37 31-69 69-69h12v-325c0-37 25-68 63-68v0h706c38 0 69 31 69 68v325h12c38 0 69 32 69 69v0 156c-6 38-37 69-75 69v0z m-69-294v-325c0-6-6-12-12-12h-325v337h337z m-337 294c0 63 12 125 44 175v0c18 19 43 25 62 25 25 0 50-6 63-25 37-37 37-94 0-125v0c-44-37-107-50-169-50z m419-69v-156c0-6-7-12-13-12v0h-406v181h406c6 0 13-6 13-13v0 0z m-469-225v-337h-325c-6 0-13 6-13 12v325h338z m0 294c-63 0-125 13-175 44-38 37-38 94 0 125v0c37 37 94 37 131 0 25-44 44-106 44-169v0z m0-56v-181h-400c-6 0-13 6-13 12v156c0 7 7 13 13 13h400z" horiz-adv-x="1000" />

<glyph glyph-name="gift-o" unicode="&#xe903;" d="M519 294h400v-332c0-37-31-62-63-68h-331l-6 400z m481 219v-157c0-6 0-6 0-12v-6h-475v181h-50v-181h-475v6c0 6 0 6 0 12v157c0 37 25 62 63 68h200l-7 7c-56 56-56 150 0 206s150 56 207 0v0c18-19 31-38 37-63 6 25 19 44 38 63 25 25 62 44 106 44 37 0 75-13 100-44 56-56 56-150 0-206l-13-7h200c38 0 69-31 69-68v0z m-300 243c-19 19-37 25-62 25s-50-12-63-25c-31-56-50-112-50-175 31 0 63 7 94 13s62 19 81 37c38 32 38 88 0 125z m-275 0c-37 38-94 38-131 0-19-18-25-43-25-62 0-25 12-50 25-63 50-31 112-50 175-43 0 56-13 112-44 168z m-350-794c0-37 31-62 63-68h331v400h-394v-332z" horiz-adv-x="1000" />

<glyph glyph-name="email-light" unicode="&#xe904;" d="M890 735h-780c-30 0-55-10-70-25 0 0 0 0 0 0-25-25-40-55-40-85v-540c0-65 55-120 120-120h760c65 0 120 55 120 120v540c0 60-50 110-110 110z m-5-60l-385-335-390 335h775z m55-190v-400c0-35-25-60-60-60h-760c-35 0-60 25-60 60v540c0 5 0 10 5 15l415-360c5-5 10-5 20-5 5 0 15 0 20 5l420 365c0-5 5-10 5-20l-5-140z" horiz-adv-x="1000" />

</font>
</defs>
</svg>
