<svg id="Group_4136" data-name="Group 4136" xmlns="http://www.w3.org/2000/svg" width="30" height="32" viewBox="0 0 30 32">
  <rect id="BG" width="30" height="32" rx="8" fill="#ff2366" opacity="0.1"/>
  <path id="price-tag-svgrepo-com_1_" data-name="price-tag-svgrepo-com (1)" d="M14.674,12.071,10,16.74a1.183,1.183,0,0,1-1.667,0L1.655,10.058a3.221,3.221,0,0,1-.82-2.013L.881,4.129A1.214,1.214,0,0,1,2.075,2.937l3.9-.037a3.234,3.234,0,0,1,2.013.822L14.674,10.4a1.183,1.183,0,0,1,0,1.667ZM4.017,5.276a.843.843,0,1,0-.843.843A.843.843,0,0,0,4.017,5.276Zm7.016,7.818a.589.589,0,0,0,0-.834l-.427-.427a2.692,2.692,0,0,0,.372-.883,1.665,1.665,0,0,0-.422-1.6,1.692,1.692,0,0,0-1.082-.489,2.277,2.277,0,0,0-.8.09h0a2.6,2.6,0,0,0-.628.295h0a2.848,2.848,0,0,0-.466.38A2.174,2.174,0,0,1,7.3,9.86a1.372,1.372,0,0,1-.35.181h0a.888.888,0,0,1-.36.04h0a.564.564,0,0,1-.334-.145.573.573,0,0,1-.113-.568,1.639,1.639,0,0,1,.436-.755,1.736,1.736,0,0,1,.245-.176l.032-.02A1.9,1.9,0,0,1,7.2,8.253a1,1,0,0,1,.346-.064.589.589,0,1,0,0-1.179h0a2.19,2.19,0,0,0-.763.14,3.028,3.028,0,0,0-.563.277L6.2,7.434l-.423-.426a.59.59,0,1,0-.834.835l.413.412a2.674,2.674,0,0,0-.369.854,1.749,1.749,0,0,0,.43,1.661,1.726,1.726,0,0,0,1.046.485,2.045,2.045,0,0,0,.856-.095,2.524,2.524,0,0,0,.664-.339,3.343,3.343,0,0,0,.423-.361,1.669,1.669,0,0,1,.272-.221,1.469,1.469,0,0,1,.34-.161,1.088,1.088,0,0,1,.37-.04.516.516,0,0,1,.328.148c.053.052.176.176.1.519a1.658,1.658,0,0,1-.439.776,2.634,2.634,0,0,1-.3.233,1.837,1.837,0,0,1-.326.167.731.731,0,0,1-.34.045A.59.59,0,0,0,8.336,13.1c.055,0,.11.005.162.005a1.833,1.833,0,0,0,.729-.143,2.849,2.849,0,0,0,.539-.287l.011-.007.422.423a.591.591,0,0,0,.833,0Z" transform="translate(7.5 6.008)" fill="#ff2366"/>
</svg>
