<svg id="Group_4134" data-name="Group 4134" xmlns="http://www.w3.org/2000/svg" width="30" height="32" viewBox="0 0 30 32">
  <rect id="BG" width="30" height="32" rx="8" fill="#ff2366" opacity="0.1"/>
  <path id="puzzle-piece-fill-svgrepo-com" d="M22.386,26.28v2.508a1.067,1.067,0,0,1-1.066,1.066H11.729a1.067,1.067,0,0,1-1.066-1.066V26.642a2.431,2.431,0,0,1-.266.015,2.4,2.4,0,0,1,0-4.8,2.429,2.429,0,0,1,.266.015V19.73a1.067,1.067,0,0,1,1.066-1.066h2.412a2.438,2.438,0,0,1-.015-.266,2.4,2.4,0,1,1,4.8,0,2.438,2.438,0,0,1-.015.266H21.32a1.067,1.067,0,0,1,1.066,1.066v2.508a.533.533,0,0,1-.737.492,1.549,1.549,0,0,0-.6-.118,1.648,1.648,0,0,0,0,3.294,1.549,1.549,0,0,0,.6-.118.533.533,0,0,1,.737.492Z" transform="translate(-0.193 -6.927)" fill="#ff2366"/>
</svg>
