<svg id="Group_4136" data-name="Group 4136" xmlns="http://www.w3.org/2000/svg" width="30" height="32" viewBox="0 0 30 32">
  <rect id="BG" width="30" height="32" rx="8" fill="#ff2366" opacity="0.1"/>
  <path id="sort-numeric-down-alt-svgrepo-com" d="M5.575,42.13H4.056V32.507A.507.507,0,0,0,3.549,32H2.536a.507.507,0,0,0-.507.507V42.13H.51a.507.507,0,0,0-.357.865l2.533,3.039a.507.507,0,0,0,.716,0l2.533-3.039A.507.507,0,0,0,5.575,42.13Zm7.091,2.026H12.16V40.611a.507.507,0,0,0-.507-.507h-1.52a.507.507,0,0,0-.452.28L9.175,41.4a.507.507,0,0,0,.452.733h.507v2.026H9.627a.507.507,0,0,0-.507.507v1.013a.507.507,0,0,0,.507.507h3.039a.507.507,0,0,0,.507-.507V44.663A.507.507,0,0,0,12.667,44.156ZM10.456,32.092a2.5,2.5,0,0,0-1.741,1.715,2.542,2.542,0,0,0,2.179,3.246,2.662,2.662,0,0,1-.66.409.522.522,0,0,0-.259.644l.313.633a.5.5,0,0,0,.662.314,4,4,0,0,0,2.73-4.179v-.341a2.54,2.54,0,0,0-3.224-2.44Zm.691,3.074a.633.633,0,1,1,.633-.633A.633.633,0,0,1,11.147,35.166Z" transform="translate(8.158 -22.091)" fill="#ff2366"/>
</svg>
