<svg xmlns="http://www.w3.org/2000/svg" width="54" height="54" viewBox="0 0 54 54">
  <g id="icon-lists" transform="translate(-211.596 -242.596)">
    <rect id="card-bg" width="54" height="54" rx="8" transform="translate(211.596 242.596)" fill="#ff5f5f" opacity="0.1"/>
    <g id="Group_4123" data-name="Group 4123" transform="translate(210.713 241.153)">
      <path id="Path_1395" data-name="Path 1395" d="M34.773,19.03a4.565,4.565,0,0,0-4.474,3.7,3.293,3.293,0,0,0-.1.881c0,.157.016.3.024.464a4.556,4.556,0,0,0,4.348,4.1.9.9,0,0,0,.2.016,4.8,4.8,0,0,0,1.219-.157H36a4.582,4.582,0,0,0-1.227-9Zm1.439,7.525a3.063,3.063,0,0,1-1.439.346h-.016a3.271,3.271,0,0,1-3.224-2.831v-.008a2.142,2.142,0,0,1-.039-.456,3.555,3.555,0,0,1,.11-.881,3.284,3.284,0,0,1,6.448.881A3.257,3.257,0,0,1,36.212,26.555Zm-3.8,8.477a1.412,1.412,0,0,0,.008,2.823h.031a1.412,1.412,0,0,0-.039-2.823Zm-8.209,0a1.412,1.412,0,0,0,.016,2.823h.031a1.412,1.412,0,0,0-.047-2.823ZM34.773,26.9h-.016a3.271,3.271,0,0,1-3.224-2.831v-.008a2.142,2.142,0,0,1-.039-.456,3.555,3.555,0,0,1,.11-.881H21.547l-.173-1.109c-.086-.676-.33-1.022-1.227-1.022H17.065a.673.673,0,0,0,0,1.345h2.972l1.392,9.625a2.061,2.061,0,0,0,2.06,2.029h10.3a.661.661,0,0,0,0-1.321H23.7c-.5,0-.8-.346-.889-.881l-.149-.92H33.806a2.063,2.063,0,0,0,2.131-2.044l.063-.4.173-1.2.039-.275A3.063,3.063,0,0,1,34.773,26.9Zm-.212,1.368c-.079.535-.362.881-.881.881h-11.2l-.747-5.08H30.22a4.556,4.556,0,0,0,4.348,4.1Z" fill="#ff5f5f"/>
      <path id="Path_1396" data-name="Path 1396" d="M39.219,20.22h-.8a3.071,3.071,0,0,0-3.067,3.067v.8a3.066,3.066,0,0,0,3.067,3.067h.8a3.066,3.066,0,0,0,3.067-3.067v-.8A3.071,3.071,0,0,0,39.219,20.22Zm1.313,4.4a.651.651,0,1,1-.92.92l-.786-.786-.794.786a.651.651,0,1,1-.92-.92l.794-.786-.794-.794a.655.655,0,0,1,0-.92.643.643,0,0,1,.456-.189.661.661,0,0,1,.464.189l.794.794.786-.794a.655.655,0,0,1,.92,0,.655.655,0,0,1,0,.92l-.786.794Z" transform="translate(-4.045 -0.254)" fill="#ff5f5f"/>
    </g>
  </g>
</svg>
