<svg xmlns="http://www.w3.org/2000/svg" viewBox="0 0 30 32">
  <rect id="BG" width="30" height="32" rx="8" fill="#fd5d00" opacity="0.1"/>
  <path d="M11.558,2.277a1.435,1.435,0,0,0-.315.445c-.285.547-.629.724-1.2.152C9.986,2.817,8.276,1.03,7.994.705A.5.5,0,0,0,7.309.592,22.151,22.151,0,0,0,5.134,2.54.908.908,0,0,0,5.1,3.774a1.1,1.1,0,0,0,.5.25c.238.073.762.029,1.067.335.49.49.233,1.263-.4,1.91-.647.63-1.421.886-1.91.4C4.052,6.359,4.1,5.836,4.023,5.6a1.106,1.106,0,0,0-.25-.5.908.908,0,0,0-1.234.034A22.1,22.1,0,0,0,.592,7.309a.5.5,0,0,0,.113.684c.324.283,2.111,1.992,2.168,2.048.572.572.4.916-.152,1.2a1.432,1.432,0,0,0-.445.315,1.618,1.618,0,1,0,2.288,2.288,1.435,1.435,0,0,0,.315-.445c.285-.547.629-.724,1.2-.152.056.056,1.766,1.844,2.048,2.168a.5.5,0,0,0,.684.113,22.151,22.151,0,0,0,2.175-1.947.908.908,0,0,0,.034-1.234,1.1,1.1,0,0,0-.5-.25c-.238-.073-.762-.029-1.067-.335-.49-.49-.233-1.263.4-1.91.647-.63,1.421-.886,1.91-.4.306.306.262.829.335,1.067a1.106,1.106,0,0,0,.25.5.908.908,0,0,0,1.234-.034A22.1,22.1,0,0,0,15.53,8.813a.5.5,0,0,0-.113-.684c-.324-.283-2.111-1.992-2.168-2.048-.572-.572-.4-.916.152-1.2a1.432,1.432,0,0,0,.445-.315,1.618,1.618,0,1,0-2.288-2.288Z" transform="translate(7.439 8.438)" fill="#fd5d00"/>
</svg>
