<?xml version="1.0" encoding="utf-8"?>
<!-- Generator: Adobe Illustrator 25.2.3, SVG Export Plug-In . SVG Version: 6.00 Build 0)  -->
<svg version="1.1" id="Analytics" xmlns="http://www.w3.org/2000/svg" xmlns:xlink="http://www.w3.org/1999/xlink" x="0px" y="0px"
	 viewBox="0 0 62 62" style="enable-background:new 0 0 62 62;" xml:space="preserve">
<style type="text/css">
	.st0{opacity:0.1;fill:#A45EFF;enable-background:new    ;}
	.st1{fill:#A45EFF;}
	.st2{fill:#F8F2FF;}
</style>
<path id="Rectangle_28" class="st0" d="M17,0h28c9.4,0,17,7.6,17,17v28c0,9.4-7.6,17-17,17H17C7.6,62,0,54.4,0,45V17
	C0,7.6,7.6,0,17,0z"/>
<path class="st1" d="M41.2,39.3H20.8c-1,0-1.8-0.8-1.8-1.8v-13c0-1,0.8-1.8,1.8-1.8h20.4c1,0,1.8,0.8,1.8,1.8v13
	C43,38.5,42.2,39.3,41.2,39.3z"/>
<path class="st2" d="M40.8,27.3v5c0,0.3-0.3,0.6-0.6,0.6s-0.6-0.3-0.6-0.6v-2.8l-5.1,5.1c-0.2,0.2-0.6,0.2-0.9,0l-2.7-2.7l-4.5,4.5
	c-0.1,0.1-0.3,0.2-0.4,0.2c-0.2,0-0.3-0.1-0.4-0.2c-0.2-0.2-0.2-0.6,0-0.9l5-5c0.2-0.2,0.6-0.2,0.9,0l2.7,2.7l4.7-4.7h-2.8
	c-0.3,0-0.6-0.3-0.6-0.6c0-0.3,0.3-0.6,0.6-0.6C36.1,27.3,40.8,27.3,40.8,27.3z"/>
<path class="st2" d="M26.1,29.7c0,0.3-0.3,0.6-0.6,0.6h-1.2c-0.4,0-0.6-0.3-0.6-0.6c0-0.3,0.3-0.6,0.6-0.6h1.2
	C25.8,29.1,26.1,29.3,26.1,29.7z"/>
<path class="st2" d="M27.4,27.2c0,0.3-0.3,0.6-0.6,0.6h-2.5c-0.4,0-0.6-0.3-0.6-0.6c0-0.4,0.3-0.6,0.6-0.6h2.5
	C27.1,26.6,27.4,26.8,27.4,27.2z"/>
<path class="st2" d="M22.4,26v9.9c0,0.3-0.3,0.6-0.6,0.6c-0.3,0-0.6-0.3-0.6-0.6V26c0-0.4,0.3-0.6,0.6-0.6
	C22.1,25.3,22.4,25.6,22.4,26z"/>
</svg>
