<?xml version="1.0" encoding="utf-8"?>
<!-- Generator: Adobe Illustrator 25.2.3, SVG Export Plug-In . SVG Version: 6.00 Build 0)  -->
<svg version="1.1" id="Layer_1" xmlns="http://www.w3.org/2000/svg" xmlns:xlink="http://www.w3.org/1999/xlink" x="0px" y="0px"
	 viewBox="0 0 62 62" style="enable-background:new 0 0 62 62;" xml:space="preserve">
<style type="text/css">
	.st0{opacity:0.1;fill:#02BC77;enable-background:new    ;}
	.st1{fill:#02BC77;}
	.st2{fill:#E5F8F1;}
	.st3{fill-rule:evenodd;clip-rule:evenodd;fill:#02BC77;}
	.st4{fill:#02BC77;stroke:#E5F8F1;stroke-width:1.5;}
	.st5{fill:#E5F8F1;stroke:#E5F8F1;stroke-width:0.5;}
</style>
<path id="Rectangle_28_1_" class="st0" d="M17,0h28c9.389,0,17,7.611,17,17v28c0,9.389-7.611,17-17,17H17C7.611,62,0,54.389,0,45V17
	C0,7.611,7.611,0,17,0z"/>
<g id="icon-estimate" transform="translate(0 0.425)">
	<g id="file-document" transform="translate(29.871 27.66)">
		<g id="Path_536">
			<rect x="-5.283" y="7.832" class="st1" width="11.734" height="2.107"/>
			<path class="st2" d="M6.302,7.982V9.79H-5.133V7.982H6.302 M6.602,7.682H-5.433v2.408H6.602V7.682L6.602,7.682z"/>
		</g>
		<g id="Path_537">
			<rect x="-5.283" y="3.019" class="st1" width="11.734" height="2.107"/>
			<path class="st2" d="M6.302,3.168v1.808H-5.133V3.168H6.302 M6.602,2.868H-5.433v2.408H6.602V2.868L6.602,2.868z"/>
		</g>
		<g id="Path_538">
			<rect x="-5.283" y="-1.795" class="st1" width="4.514" height="2.107"/>
			<path class="st2" d="M-0.919-1.645v1.807h-4.214v-1.807H-0.919 M-0.619-1.945h-4.814v2.407h4.814V-1.945L-0.619-1.945z"/>
		</g>
		<g id="Path_539">
			<path class="st3" d="M-6.637,14.752c-1.908,0-3.46-1.552-3.46-3.46V-5.557c0-1.908,1.552-3.46,3.46-3.46h9.628
				c4.562,0,8.274,3.712,8.274,8.274v12.035c0,1.908-1.552,3.46-3.46,3.46H-6.637z M-6.637-6.91c-0.746,0-1.353,0.606-1.354,1.353
				v16.849c0,0.747,0.607,1.354,1.354,1.354h14.44c0.747,0,1.354-0.607,1.354-1.354V-0.893H1.939V-6.91H-6.637z M4.045-2.999h4.693
				l-0.092-0.21C7.841-5.047,6.189-6.384,4.226-6.786L4.045-6.823V-2.999z"/>
			<path class="st2" d="M2.992-8.867c4.48,0,8.124,3.644,8.124,8.124v12.035c0,1.825-1.485,3.31-3.31,3.31H-6.637
				c-1.825,0-3.31-1.485-3.31-3.31V-5.557c0-1.825,1.485-3.31,3.31-3.31H2.992 M-6.637,12.796h14.44
				c0.829,0,1.504-0.675,1.504-1.504V-0.743v-0.3h-0.3H2.088V-6.76v-0.3h-0.3h-8.425c-0.828,0-1.503,0.674-1.504,1.503v16.849
				C-8.141,12.121-7.466,12.796-6.637,12.796 M3.895-2.849h0.3h4.314h0.459l-0.184-0.42C7.96-5.152,6.267-6.521,4.255-6.933
				l-0.36-0.074v0.368v3.49V-2.849 M2.992-9.167C2.992-9.167,2.992-9.167,2.992-9.167h-9.629c-1.994,0-3.61,1.616-3.61,3.61v16.849
				c0,1.994,1.616,3.61,3.61,3.61H7.806c1.994,0,3.61-1.616,3.61-3.61V-0.743C11.416-5.396,7.644-9.167,2.992-9.167L2.992-9.167z
				 M-6.637,12.496c-0.665,0-1.204-0.539-1.204-1.204V-5.557C-7.84-6.221-7.301-6.76-6.637-6.76h8.425v6.017h7.219v12.035
				c0,0.665-0.539,1.204-1.204,1.204H-6.637L-6.637,12.496z M4.195-3.149v-3.49c1.92,0.393,3.528,1.695,4.314,3.49H4.195
				L4.195-3.149z"/>
		</g>
	</g>
	<g id="icon-tick" transform="translate(-12.644 -9.988)">
		<path id="Union" class="st4" d="M48.846,53.56c3.41,0,6.174-2.764,6.174-6.174s-2.764-6.174-6.174-6.174s-6.174,2.764-6.174,6.174
			c0,2.062,1.029,3.988,2.744,5.133C46.431,53.198,47.625,53.56,48.846,53.56z"/>
		<path id="Union-2" class="st5" d="M48.069,49.516l3.493-3.493l-0.549-0.549l-2.944,2.945l-1.393-1.392l-0.548,0.548L48.069,49.516
			z"/>
	</g>
</g>
</svg>
