<svg xmlns="http://www.w3.org/2000/svg" xmlns:xlink="http://www.w3.org/1999/xlink" width="54" height="54" viewBox="0 0 54 54">
  <defs>
    <clipPath id="clip-path">
      <rect id="Rectangle_29" data-name="Rectangle 29" width="24" height="24" transform="translate(260.625 268.625)" fill="#5ec4ff" stroke="#707070" stroke-width="1"/>
    </clipPath>
  </defs>
  <g id="icon-lists" transform="translate(-211.596 -242.596)">
    <rect id="card-bg" width="54" height="54" rx="8" transform="translate(211.596 242.596)" fill="#5ec4ff" opacity="0.1"/>
    <g id="Mask_Group_7" data-name="Mask Group 7" transform="translate(-34.029 -11.029)" clip-path="url(#clip-path)">
      <g id="_4552714" data-name="4552714" transform="translate(262.408 269)">
        <path id="Path_20" data-name="Path 20" d="M11.611,2.9a.607.607,0,0,0-.3.428.451.451,0,0,0,.118.438,1.609,1.609,0,0,0,.185.123Z" transform="translate(-1.761 -0.091)" fill="#5ec4ff"/>
        <path id="Path_21" data-name="Path 21" d="M12.806,5.761a.662.662,0,0,0-.47-.767l-.011,0v1.4a.847.847,0,0,0,.482-.629Z" transform="translate(-1.793 -0.156)" fill="#5ec4ff"/>
        <path id="Path_22" data-name="Path 22" d="M11.854,9.082A4.541,4.541,0,1,0,7.313,4.541,4.541,4.541,0,0,0,11.854,9.082ZM10.421,6.158a.34.34,0,0,1,.471-.1,1.192,1.192,0,0,0,.593.236V4.566a2.89,2.89,0,0,1-.605-.35,1.116,1.116,0,0,1-.367-1.1,1.263,1.263,0,0,1,.865-.99c.036-.011.072-.02.107-.029v-.28a.341.341,0,0,1,.681,0v.241a1.312,1.312,0,0,1,.786.391.341.341,0,0,1-.512.449.634.634,0,0,0-.274-.144V4.109l.238.087a1.33,1.33,0,0,1,.915,1.522,1.532,1.532,0,0,1-1.154,1.23v.318a.341.341,0,1,1-.681,0V6.979a1.838,1.838,0,0,1-.966-.349.341.341,0,0,1-.1-.471Z" transform="translate(-1.636)" fill="#5ec4ff"/>
        <path id="Path_23" data-name="Path 23" d="M20.525,10.781H2.815a1.362,1.362,0,1,0,0,2.725h17.71a1.362,1.362,0,0,0,0-2.725Z" transform="translate(-1.453 -0.337)" fill="#5ec4ff"/>
        <path id="Path_24" data-name="Path 24" d="M17.856,6.063A3.179,3.179,0,1,0,16.875,1a5.9,5.9,0,0,1,.981,5.061Z" transform="translate(-1.935)" fill="#5ec4ff"/>
        <path id="Path_25" data-name="Path 25" d="M4.632,6.357a3.16,3.16,0,0,0,1.335-.294A5.9,5.9,0,0,1,6.948,1,3.178,3.178,0,1,0,4.632,6.357Z" transform="translate(-1.453 0)" fill="#5ec4ff"/>
        <path id="Path_26" data-name="Path 26" d="M9.728,20.05v2.987a.681.681,0,0,0,.934.632l2.725-1.09a.681.681,0,0,0,.428-.632v-1.9L18.864,15H4.678Z" transform="translate(-1.554 -0.469)" fill="#5ec4ff"/>
      </g>
    </g>
  </g>
</svg>
