<svg xmlns="http://www.w3.org/2000/svg" width="63.017" height="55.931" viewBox="0 0 63.017 55.931">
  <g id="diamond" transform="translate(-0.5 -4)">
    <path id="Path_363" data-name="Path 363" d="M62.414,17.191,52.926,10a2.581,2.581,0,0,0-.715-.542L45.818,4.585A2.774,2.774,0,0,0,44.169,4H19.833a2.77,2.77,0,0,0-1.651.586L1.584,17.175a2.75,2.75,0,0,0-.525,3.85L29.825,58.85a2.731,2.731,0,0,0,4.351,0l28.766-37.82a2.74,2.74,0,0,0-.528-3.841ZM20.75,10h22.5l3.1,2.117-4.01,2.855L22.754,14.76l-4.947-2.731ZM7.071,19.9,13.1,15.338,18.1,18.309l-5.754,8.53ZM32,52.684,17.03,33H46.97ZM18.489,28l4.949-7.577,18.383.267L46.983,28Zm33.974-2.229L47.026,18.2,50.9,15.33l6.031,4.57-4.464,5.871Z" fill="#ea7a0b"/>
    <path id="Path_364" data-name="Path 364" d="M62.414,17.191,52.926,10a2.581,2.581,0,0,0-.715-.542L45.818,4.585A2.774,2.774,0,0,0,44.169,4H32v6H43.252l3.1,2.117-3.956,2.855L32,14.86v5.687l9.821.143L46.983,28H32v5H46.97L32,52.684v7.239a2.451,2.451,0,0,0,2.229-1.069L62.967,21.033a2.743,2.743,0,0,0-.553-3.842Zm-9.951,8.58L47.026,18.2,50.9,15.33l6.031,4.57Z" fill="#ea7a0b"/>
    <path id="Path_365" data-name="Path 365" d="M20.991,5.525,44.169,4H19.833a2.77,2.77,0,0,0-1.651.586L1.584,17.175,19.341,6.087a2.742,2.742,0,0,1,1.65-.562Z" fill="#ea7a0b"/>
  </g>
</svg>
