<svg id="receipt-disscount-svgrepo-com" xmlns="http://www.w3.org/2000/svg" width="16.99" height="20.003" viewBox="0 0 16.99 20.003">
  <path id="Path_1424" data-name="Path 1424" d="M6.73,19.7a1.758,1.758,0,0,1,2.79.15l1.01,1.35a1.738,1.738,0,0,0,2.93,0l1.01-1.35a1.758,1.758,0,0,1,2.79-.15c1.78,1.9,3.23,1.27,3.23-1.39V7.04C20.5,3.01,19.56,2,15.78,2H8.22C4.44,2,3.5,3.01,3.5,7.04V18.3C3.5,20.97,4.96,21.59,6.73,19.7Z" transform="translate(-3.5 -2)" fill="#ea7a0b"/>
  <path id="Path_1425" data-name="Path 1425" d="M15,14a1,1,0,1,1,1-1A1,1,0,0,1,15,14Z" transform="translate(-3.5 -2)" fill="#fdf9f5"/>
  <path id="Path_1426" data-name="Path 1426" d="M9,9a1,1,0,1,1,1-1A1,1,0,0,1,9,9Z" transform="translate(-3.5 -2)" fill="#fdf9f5"/>
  <path id="Path_1427" data-name="Path 1427" d="M8.63,14.55a.742.742,0,0,1-.53-.22.754.754,0,0,1,0-1.06l6.73-6.73A.75.75,0,0,1,15.89,7.6L9.16,14.33A.725.725,0,0,1,8.63,14.55Z" transform="translate(-3.5 -2)" fill="#fdf9f5"/>
</svg>
