<svg xmlns="http://www.w3.org/2000/svg" width="10.983" height="10.983" viewBox="0 0 10.983 10.983">
  <path id="icon-star" d="M5.928,3.872C6.624,2.624,6.971,2,7.491,2s.868.624,1.563,1.872l.18.323a2.015,2.015,0,0,0,.451.649,1.877,1.877,0,0,0,.73.247l.349.079c1.351.306,2.026.458,2.187.975s-.3,1.055-1.221,2.132l-.238.279a2.021,2.021,0,0,0-.451.648,2.11,2.11,0,0,0,0,.8l.036.372c.139,1.437.209,2.155-.212,2.474s-1.053.028-2.318-.554l-.327-.151a1.873,1.873,0,0,0-.73-.248,1.873,1.873,0,0,0-.73.248l-.327.151c-1.265.582-1.9.873-2.318.554s-.351-1.038-.212-2.474l.036-.372a2.108,2.108,0,0,0,0-.8,2.021,2.021,0,0,0-.451-.648l-.238-.279C2.331,7.2,1.871,6.661,2.032,6.145s.836-.669,2.187-.975l.349-.079a1.877,1.877,0,0,0,.73-.247,2.015,2.015,0,0,0,.451-.649Z" transform="translate(-2 -2)" fill="#fff"/>
</svg>
