<?xml version="1.0" encoding="utf-8"?>
<!-- Generator: Adobe Illustrator 25.2.3, SVG Export Plug-In . SVG Version: 6.00 Build 0)  -->
<svg version="1.1" id="Layer_1" xmlns="http://www.w3.org/2000/svg" xmlns:xlink="http://www.w3.org/1999/xlink" x="0px" y="0px"
	 viewBox="0 0 800 800" style="enable-background:new 0 0 800 800;" xml:space="preserve">
<style type="text/css">
	.st0{fill:#FD5D00;}
	.st1{fill:#FFFFFF;}
	.st2{fill:url(#SVGID_1_);}
</style>
<path class="st0" d="M799.6,232.4v335.2c0,145.6-86.8,232.4-232.4,232.4H232.4C86.8,800,0,713.2,0,567.2V232.4
	C0,86.8,86.8,0,232.4,0h335.2C713.2,0,800,86.8,799.6,232.4z"/>
<g id="Logo_3_">
	<path class="st1" d="M448,400h-96.1c0-74.2-59.8-134.7-133.7-135.8V352c0,26.5-21.5,48-48,48s-48-21.5-48-48V216.1
		c0-26.5,21.5-48,48-48h45.9c0.7,0,1.4,0,2.1,0c30.5,0.3,60.2,6.4,88.1,18.2c27.6,11.7,52.4,28.4,73.7,49.7
		c21.3,21.3,38,46.1,49.7,73.7C441.9,338.3,448,368.7,448,400z"/>
	<g>
		<linearGradient id="SVGID_1_" gradientUnits="userSpaceOnUse" x1="188.5891" y1="236.3206" x2="468.4427" y2="349.4698">
			<stop  offset="0.413" style="stop-color:#FFFFFF"/>
			<stop  offset="0.4499" style="stop-color:#FFECE0;stop-opacity:0.9711"/>
			<stop  offset="0.5308" style="stop-color:#FEBA91;stop-opacity:0.9077"/>
			<stop  offset="0.6489" style="stop-color:#FD6C15;stop-opacity:0.8151"/>
			<stop  offset="0.6681" style="stop-color:#FD5F00;stop-opacity:0.8"/>
		</linearGradient>
		<path class="st2" d="M429.8,309.7c-11.7-27.6-28.4-52.4-49.7-73.7c-21.3-21.3-46.1-38-73.7-49.7c-28.6-12.1-59-18.2-90.2-18.2
			v96.1c74.9,0,135.8,60.9,135.8,135.8H448C448,368.7,441.9,338.3,429.8,309.7z"/>
	</g>
	<path class="st1" d="M581.7,352v-87.8c-73.9,1.1-133.7,61.6-133.7,135.8c0,74.9,60.9,135.8,135.8,135.8v0h45.9
		c26.5,0,48,21.5,48,48c0,13.3-5.4,25.3-14.1,34c-8.7,8.7-20.7,14.1-34,14.1h-48v0c-30.5-0.3-60.2-6.4-88.1-18.2
		C466,602,441.2,585.2,419.9,564c-21.3-21.3-38-46.1-49.7-73.7c-12.1-28.6-18.2-59-18.2-90.3s6.1-61.7,18.2-90.3
		c11.7-27.6,28.4-52.4,49.7-73.7c21.3-21.3,46.1-38,73.7-49.7c28-11.8,57.6-18,88.1-18.2c0.7,0,1.4,0,2.1,0h45.9
		c26.5,0,48,21.5,48,48V352c0,26.5-21.5,48-48,48S581.7,378.5,581.7,352z"/>
</g>
</svg>
