<svg id="icon-lists" xmlns="http://www.w3.org/2000/svg" width="54" height="54" viewBox="0 0 54 54">
  <rect id="card-bg" width="54" height="54" rx="8" fill="#5e94ff" opacity="0.1"/>
  <path id="list3-solid" d="M8.051,1.761V6.29A1.72,1.72,0,0,1,6.29,8.051H1.761A1.72,1.72,0,0,1,0,6.29V1.761A1.72,1.72,0,0,1,1.761,0H6.29A1.72,1.72,0,0,1,8.051,1.761ZM6.29,11.95H1.761A1.72,1.72,0,0,0,0,13.711V18.24A1.72,1.72,0,0,0,1.761,20H6.29A1.72,1.72,0,0,0,8.051,18.24V13.711A1.72,1.72,0,0,0,6.29,11.95ZM18.24,0H13.711A1.72,1.72,0,0,0,11.95,1.761V6.29a1.72,1.72,0,0,0,1.761,1.761H18.24A1.72,1.72,0,0,0,20,6.29V1.761A1.72,1.72,0,0,0,18.24,0Zm.755,15.1H16.856V12.957a.881.881,0,1,0-1.761,0V15.1H12.831a.881.881,0,1,0,0,1.761H15.1V19.12a.881.881,0,1,0,1.761,0V16.856h2.138a.881.881,0,0,0,0-1.761Z" transform="translate(17 16.985)" fill="#5e94ff"/>
</svg>
