<?xml version="1.0" encoding="utf-8"?>
<!-- Generator: Adobe Illustrator 25.2.3, SVG Export Plug-In . SVG Version: 6.00 Build 0)  -->
<svg version="1.1" id="Layer_1" xmlns="http://www.w3.org/2000/svg" xmlns:xlink="http://www.w3.org/1999/xlink" x="0px" y="0px"
	 viewBox="0 0 62 62" style="enable-background:new 0 0 62 62;" xml:space="preserve">
<style type="text/css">
	.st0{opacity:0.1;fill:#E43B67;enable-background:new    ;}
	.st1{fill:#E43B67;}
</style>
<g id="Group_116" transform="translate(0 -0.484)">
	<path id="Rectangle_28" class="st0" d="M17,0.484h28c9.389,0,17,7.611,17,17v28c0,9.389-7.611,17-17,17H17c-9.389,0-17-7.611-17-17
		v-28C0,8.095,7.611,0.484,17,0.484z"/>
</g>
<path class="st1" d="M30.671,43.082c-0.408-0.124-0.803-0.287-1.18-0.488c-0.735-0.474-1.177-1.292-1.171-2.168
	c-0.003-0.092,0-0.184,0-0.302h-0.302c-1.867,0-3.735,0-5.602,0c-0.629,0-0.879-0.252-0.88-0.888c0-0.818,0-1.635,0-2.453
	c-0.048-0.399,0.237-0.762,0.636-0.809c0.036-0.005,0.074-0.006,0.112-0.005c0.77-0.017,1.381-0.655,1.365-1.425
	c0-0.026-0.002-0.05-0.003-0.074c0.003-1.588-0.003-3.176,0.002-4.764c-0.03-3.078,1.86-5.85,4.739-6.943
	c0.115-0.027,0.192-0.137,0.177-0.255c-0.018-0.494-0.005-0.989,0.036-1.482c0.127-1.049,0.928-1.89,1.97-2.067
	c0.036-0.011,0.071-0.024,0.104-0.042h0.66c0.204,0.051,0.403,0.115,0.599,0.19c0.903,0.361,1.499,1.23,1.51,2.202
	c0.023,0.392,0.011,0.786,0.003,1.179c-0.02,0.125,0.059,0.243,0.181,0.275c2.503,0.94,4.289,3.176,4.656,5.824
	c0.057,0.389,0.082,0.782,0.074,1.174c0.008,1.549,0.003,3.099,0.003,4.648c-0.086,0.771,0.471,1.467,1.242,1.552
	c0.053,0.006,0.104,0.009,0.157,0.009c0.396,0.003,0.714,0.325,0.713,0.72c0,0.02-0.002,0.039-0.003,0.059
	c0.003,0.857,0.003,1.715,0,2.572c0.048,0.394-0.232,0.752-0.626,0.799c-0.059,0.008-0.118,0.008-0.177,0
	c-1.892,0.002-3.785,0.003-5.676,0.002h-0.273c-0.017,0.281-0.048,0.56-0.094,0.838c-0.228,1.076-1.094,1.902-2.181,2.079
	c-0.036,0.011-0.072,0.024-0.107,0.041h-0.66V43.082z M39.054,38.695c0-0.444,0.005-0.86-0.006-1.276
	c-0.017-0.068-0.063-0.124-0.127-0.152c-1.247-0.394-2.064-1.59-1.976-2.894c0-1.534,0.006-3.067-0.005-4.601
	c0-0.4-0.033-0.8-0.097-1.196c-0.583-3.226-3.671-5.371-6.897-4.788c-2.826,0.509-4.882,2.966-4.885,5.838
	c-0.012,1.62,0,3.241-0.005,4.861c0.038,1.271-0.779,2.409-1.996,2.782c-0.035,0.012-0.069,0.027-0.101,0.039v1.387H39.054z
	 M32.034,22.304c0-0.237,0.002-0.488,0-0.737c0.005-0.11,0-0.22-0.011-0.329c-0.063-0.504-0.483-0.888-0.992-0.903
	c-0.51-0.026-0.957,0.34-1.031,0.845c-0.027,0.374-0.03,0.749-0.009,1.123H32.034z M29.739,40.14
	c-0.092,0.524,0.143,1.051,0.595,1.331c0.411,0.278,0.95,0.273,1.354-0.014c0.439-0.284,0.664-0.803,0.571-1.318H29.739z
	 M39.054,38.695H22.961v-1.387c0.032-0.012,0.065-0.027,0.101-0.039c1.215-0.373,2.032-1.511,1.996-2.782
	c0.005-1.62-0.009-3.241,0.005-4.861c0.002-3.279,2.663-5.936,5.942-5.933c2.871,0.002,5.329,2.058,5.839,4.884
	c0.063,0.396,0.097,0.796,0.097,1.196c0.011,1.534,0.005,3.067,0.005,4.601c-0.086,1.304,0.729,2.5,1.976,2.894
	c0.063,0.029,0.112,0.085,0.127,0.152C39.058,37.836,39.054,38.251,39.054,38.695z"/>
</svg>
