<svg xmlns="http://www.w3.org/2000/svg" width="95.139" height="59.913" viewBox="0 0 95.139 59.913">
  <g id="rating-stars" transform="translate(-193.085 -364.536)" opacity="0.5" style="mix-blend-mode: screen;isolation: isolate">
    <path d="M17.027,9.16C19.688,4.387,21.019,2,23.008,2s3.32,2.387,5.98,7.16l.688,1.235A7.707,7.707,0,0,0,31.4,12.877a7.18,7.18,0,0,0,2.792.946l1.337.3c5.167,1.169,7.751,1.754,8.365,3.73s-1.147,4.036-4.669,8.156l-.911,1.066a7.733,7.733,0,0,0-1.727,2.48,8.071,8.071,0,0,0,0,3.067l.138,1.422c.533,5.5.8,8.244-.81,9.466s-4.028.108-8.867-2.12L25.8,40.816a7.167,7.167,0,0,0-2.791-.95,7.167,7.167,0,0,0-2.791.95l-1.252.576c-4.838,2.227-7.257,3.341-8.866,2.12s-1.343-3.97-.81-9.466l.138-1.422a8.064,8.064,0,0,0,0-3.067A7.731,7.731,0,0,0,7.7,27.077L6.79,26.012c-3.523-4.119-5.284-6.179-4.669-8.156s3.2-2.561,8.366-3.73l1.337-.3a7.182,7.182,0,0,0,2.792-.946A7.708,7.708,0,0,0,16.339,10.4Z" transform="translate(244.208 371.479)" fill="#fff" opacity="0.6"/>
    <path d="M11.263,6.414C12.9,3.471,13.723,2,14.95,2S17,3.471,18.636,6.414l.424.761a4.751,4.751,0,0,0,1.063,1.53,4.426,4.426,0,0,0,1.721.583l.824.186c3.185.721,4.778,1.081,5.157,2.3s-.707,2.488-2.878,5.027l-.562.657a4.767,4.767,0,0,0-1.064,1.529,4.975,4.975,0,0,0,0,1.891l.085.876c.328,3.388.492,5.082-.5,5.835s-2.483.066-5.466-1.307l-.772-.355a4.418,4.418,0,0,0-1.72-.585,4.418,4.418,0,0,0-1.72.585l-.772.355c-2.982,1.373-4.473,2.06-5.465,1.307s-.828-2.447-.5-5.835l.085-.876a4.971,4.971,0,0,0,0-1.891,4.766,4.766,0,0,0-1.064-1.529L4.953,16.8C2.781,14.262,1.7,12.992,2.074,11.774s1.972-1.579,5.157-2.3l.824-.186a4.427,4.427,0,0,0,1.721-.583,4.751,4.751,0,0,0,1.063-1.53Z" transform="translate(216.389 396.55)" fill="#fff" opacity="0.5"/>
    <path d="M8.111,4.912C9.193,2.971,9.734,2,10.543,2s1.35.971,2.432,2.912l.28.5a3.134,3.134,0,0,0,.7,1.009,2.92,2.92,0,0,0,1.135.385l.544.123c2.1.475,3.152.713,3.4,1.517s-.466,1.641-1.9,3.316l-.371.433a3.145,3.145,0,0,0-.7,1.008,3.282,3.282,0,0,0,0,1.247l.056.578c.217,2.235.325,3.352-.33,3.849s-1.638.044-3.606-.862l-.509-.234a2.915,2.915,0,0,0-1.135-.386,2.915,2.915,0,0,0-1.135.386l-.509.234c-1.967.906-2.951,1.359-3.606.862s-.546-1.614-.33-3.849l.056-.578a3.279,3.279,0,0,0,0-1.247,3.144,3.144,0,0,0-.7-1.008l-.371-.433C2.515,10.089,1.8,9.252,2.049,8.448s1.3-1.042,3.4-1.517l.544-.123A2.92,2.92,0,0,0,7.13,6.423a3.134,3.134,0,0,0,.7-1.009Z" transform="translate(191.085 388.007)" fill="#fff" opacity="0.3"/>
    <path d="M12.187,6.854C13.991,3.618,14.893,2,16.241,2s2.25,1.618,4.054,4.854l.467.837a5.225,5.225,0,0,0,1.169,1.683,4.868,4.868,0,0,0,1.893.641l.906.205c3.5.793,5.254,1.189,5.671,2.529s-.777,2.736-3.165,5.529L26.618,19a5.242,5.242,0,0,0-1.171,1.681,5.471,5.471,0,0,0,0,2.079l.093.964c.361,3.726.542,5.589-.549,6.417s-2.731.073-6.011-1.437l-.849-.391a4.859,4.859,0,0,0-1.892-.644,4.859,4.859,0,0,0-1.892.644L13.5,28.7c-3.28,1.51-4.92,2.265-6.011,1.437s-.91-2.691-.549-6.417l.093-.964a5.467,5.467,0,0,0,0-2.079A5.241,5.241,0,0,0,5.865,19l-.618-.722c-2.388-2.792-3.582-4.189-3.165-5.529S4.25,11.013,7.753,10.22l.906-.205a4.869,4.869,0,0,0,1.893-.641A5.225,5.225,0,0,0,11.72,7.691Z" transform="translate(210.091 362.536)" fill="#fff" opacity="0.4"/>
  </g>
</svg>
