<svg id="icon-lists" xmlns="http://www.w3.org/2000/svg" width="54" height="54" viewBox="0 0 54 54">
  <rect id="card-bg" width="54" height="54" rx="8" fill="#71a926" opacity="0.1"/>
  <path id="sfl4-solid" d="M18.6,1.46a4.631,4.631,0,1,0,4.631,4.631A4.643,4.643,0,0,0,18.6,1.46Zm1.558,5.782H18.6a.65.65,0,0,1-.655-.641V3.8a.662.662,0,0,1,.655-.655.653.653,0,0,1,.655.655V5.945h.9a.648.648,0,1,1,0,1.3Zm-.481,4.209a4.251,4.251,0,0,1-1.063.117c-.2,0-.393-.015-.6-.029a.833.833,0,0,1-.524.16H6.166L5.409,6.557h7.748a2.663,2.663,0,0,1-.029-.481A5.582,5.582,0,0,1,13.2,5.2H5.22L5.045,4.081C4.958,3.4,4.71,3.047,3.807,3.047H.69A.678.678,0,0,0,.69,4.4h3L5.1,14.145A2.086,2.086,0,0,0,7.186,16.2H17.613a.671.671,0,0,0,0-1.34H7.4c-.51,0-.816-.35-.9-.888l-.146-.932H17.627A1.97,1.97,0,0,0,19.681,11.45Zm-11.767,6.2a1.427,1.427,0,0,0,.015,2.854h.029a1.427,1.427,0,0,0-.044-2.854Zm8.3,0a1.427,1.427,0,0,0,.015,2.854h.029a1.427,1.427,0,0,0-.044-2.854Z" transform="translate(14.965 15.54)" fill="#71a926"/>
</svg>
