<svg xmlns="http://www.w3.org/2000/svg" width="98.002" height="43.487" viewBox="0 0 98.002 43.487">
  <g id="sell" transform="translate(-1350.996 -1902.362)">
    <g id="Group_118" data-name="Group 118" transform="translate(2.996 743)">
      <path id="Path_342" data-name="Path 342" d="M1393,1192.36h36.5a2.5,2.5,0,0,0,0-5h-2a2.5,2.5,0,0,1,0-5h6a2.5,2.5,0,0,0,0-5h-9a2.5,2.5,0,0,1,0-5h3.5v-.051a2.5,2.5,0,0,0,0-4.9v-.051h-35Zm48.5-15a2.5,2.5,0,0,0,0,5h1a2.5,2.5,0,0,0,0-5Z" fill="#8fb6d7"/>
      <path id="Path_343" data-name="Path 343" d="M1358.5,1167.36a2.5,2.5,0,0,0,0,5h2.5v.051a2.5,2.5,0,0,1,0,4.9v.051h-10.5a2.5,2.5,0,0,0,0,5h16a2.5,2.5,0,0,1,0,5h-3a2.5,2.5,0,0,0,0,5H1393v-25h-34.5Zm-4,20a2.5,2.5,0,0,0,0,5h1a2.5,2.5,0,0,0,0-5Z" fill="#ee7581"/>
      <path id="Path_344" data-name="Path 344" d="M1350,1194.86h11.438m6.7,0H1445.5m-81.042,0h1.141" fill="none" stroke="#105286" stroke-linecap="round" stroke-linejoin="round" stroke-width="1"/>
    </g>
    <g id="Group_122" data-name="Group 122" transform="translate(-24.5 15.385)">
      <g id="Group_119" data-name="Group 119" transform="translate(765.5 490.615)">
        <path id="Path_345" data-name="Path 345" d="M637.5,1429.19v-26.528a1.79,1.79,0,0,1,1.792-1.8h39.417a1.79,1.79,0,0,1,1.792,1.8v26.528Z" fill="#f0f4f7" stroke="#105286" stroke-width="1" fill-rule="evenodd"/>
        <path id="Path_346" data-name="Path 346" d="M683.5,1426.89a4.961,4.961,0,0,1-4.973,4.972H639.473a4.961,4.961,0,0,1-4.973-4.972Z" fill="#406b95" stroke="#105286" stroke-linejoin="round" stroke-width="1"/>
        <path id="Path_347" data-name="Path 347" d="M654.5,1426.89h9v1.327a1.3,1.3,0,0,1-1.286,1.327h-6.429a1.3,1.3,0,0,1-1.286-1.327Z" fill="#8fb6d7" stroke="#105286" stroke-width="1"/>
        <path id="Path_348" data-name="Path 348" d="M668.938,1424.11H640.25V1403.6h37.5v20.505h-3.437" fill="#d2dce9"/>
        <path id="Path_349" data-name="Path 349" d="M648.75,1424.11h-8.5V1403.6h37.5v20.505H659.625" fill="none" stroke="#105286" stroke-linejoin="round" stroke-width="0.5"/>
      </g>
      <g id="Group_120" data-name="Group 120" transform="translate(1373.736 3258.853)">
        <path id="Path_350" data-name="Path 350" d="M55.136-1371.638H70.747l4.53,4.519v21.486a1.5,1.5,0,0,1-1.51,1.506H55.646a1.5,1.5,0,0,1-1.51-1.506v-24.416c0-.835.175-1.455,1-1.59Z" fill="#fbfdfe"/>
        <path id="Path_351" data-name="Path 351" d="M54.136-1363.143v-6.972a1.5,1.5,0,0,1,1.51-1.506H70.983l4.53,4.519v21.474a1.5,1.5,0,0,1-1.51,1.506H55.646a1.5,1.5,0,0,1-1.51-1.506v-14.934" fill="none" stroke="#105286" stroke-linecap="round" stroke-linejoin="round" stroke-width="0.501"/>
        <path id="Path_352" data-name="Path 352" d="M70.983-1371.625l4.53,4.519h-3.02a1.465,1.465,0,0,1-1.51-1.489Z" fill="#105286" stroke="#105286" stroke-linecap="round" stroke-linejoin="round" stroke-width="0.501"/>
      </g>
      <path id="Path_353" data-name="Path 353" d="M1408,1896.48v15.993h13.993" fill="none" stroke="#0c5286" stroke-linecap="round" stroke-linejoin="round" stroke-width="1"/>
      <path id="Path_354" data-name="Path 354" d="M1410.9,1909.19l2.321-4.127m.705-.1,3.219,2.844m.773-.279,3.189-6.09" fill="none" stroke="#2dbca4" stroke-width="1"/>
      <rect id="Rectangle_52" data-name="Rectangle 52" width="3" height="1" transform="translate(1414.5 1896.98) rotate(180)" fill="#406b95"/>
      <rect id="Rectangle_53" data-name="Rectangle 53" width="3" height="1" transform="translate(1414.5 1898.98) rotate(180)" fill="#406b95"/>
      <rect id="Rectangle_54" data-name="Rectangle 54" width="1" height="1" transform="translate(1410.5 1896.98) rotate(180)" fill="#2dbca4"/>
      <rect id="Rectangle_55" data-name="Rectangle 55" width="1" height="1" transform="translate(1410.5 1898.98) rotate(180)" fill="#ee7581"/>
      <ellipse id="Ellipse_12" data-name="Ellipse 12" cx="0.495" cy="0.5" rx="0.495" ry="0.5" transform="translate(1409.995 1909.48)" fill="none" stroke="#0c5286" stroke-linecap="square" stroke-width="1"/>
      <ellipse id="Ellipse_13" data-name="Ellipse 13" cx="0.495" cy="0.5" rx="0.495" ry="0.5" transform="translate(1413.005 1904.48)" fill="none" stroke="#0c5286" stroke-linecap="square" stroke-width="1"/>
      <ellipse id="Ellipse_14" data-name="Ellipse 14" cx="0.495" cy="0.5" rx="0.495" ry="0.5" transform="translate(1417.005 1907.48)" fill="none" stroke="#0c5286" stroke-linecap="square" stroke-width="1"/>
      <ellipse id="Ellipse_15" data-name="Ellipse 15" cx="0.495" cy="0.5" rx="0.495" ry="0.5" transform="translate(1421.015 1900.48)" fill="none" stroke="#0c5286" stroke-linecap="square" stroke-width="1"/>
      <path id="Path_355" data-name="Path 355" d="M1434.38,1904.22a6,6,0,1,1,9.439-1.243l-5.2-3Z" fill="#2dbca4"/>
      <path id="Path_356" data-name="Path 356" d="M1444.62,1899.98a6,6,0,0,1-10.243,4.243l4.243-4.243Z" fill="#ee7581"/>
      <path id="Path_357" data-name="Path 357" d="M1444.62,1899.98a6,6,0,0,1-1.757,4.243l-4.243-4.243Z" fill="#105286"/>
      <rect id="Rectangle_56" data-name="Rectangle 56" width="3" height="1" transform="translate(1434.62 1889.98) rotate(180)" fill="#406b95"/>
      <rect id="Rectangle_57" data-name="Rectangle 57" width="3" height="1" transform="translate(1434.62 1891.98) rotate(180)" fill="#406b95"/>
      <rect id="Rectangle_58" data-name="Rectangle 58" width="1" height="1" transform="translate(1430.62 1889.98) rotate(180)" fill="#2dbca4"/>
      <rect id="Rectangle_59" data-name="Rectangle 59" width="1" height="1" transform="translate(1430.62 1891.98) rotate(180)" fill="#ee7581"/>
      <rect id="Rectangle_60" data-name="Rectangle 60" width="3" height="1" transform="translate(1434.62 1893.98) rotate(180)" fill="#406b95"/>
      <rect id="Rectangle_61" data-name="Rectangle 61" width="1" height="1" transform="translate(1430.62 1893.98) rotate(180)" fill="#105286"/>
      <rect id="Rectangle_62" data-name="Rectangle 62" width="5" height="1" transform="translate(1429.62 1906.98)" fill="#406b95"/>
      <rect id="Rectangle_63" data-name="Rectangle 63" width="18" height="1" transform="translate(1429.62 1908.98)" fill="#406b95"/>
      <rect id="Rectangle_64" data-name="Rectangle 64" width="18" height="1" transform="translate(1429.62 1910.98)" fill="#406b95"/>
      <g id="Group_121" data-name="Group 121" transform="translate(886.554 1044.438) rotate(-30)">
        <path id="Path_358" data-name="Path 358" d="M12.217,1016.88l-2.36,1.361-1.478.852-1.254.723-1.064.613-2.043,1.178a1.54,1.54,0,1,0,1.541,2.666l8.2-4.728" fill="#eb8e68"/>
        <path id="Path_359" data-name="Path 359" d="M-886.359-493.875v-4.912h-4.409v4.912" transform="matrix(-0.5, -0.866, 0.866, -0.5, 0, 0)" fill="#2dbca4" stroke="#105286" stroke-linejoin="round" stroke-width="1"/>
        <path id="Path_360" data-name="Path 360" d="M27.255,1005.36a8.353,8.353,0,1,0,2.893,2.959,8.375,8.375,0,0,0-2.893-2.959Zm-.8,1.315a6.821,6.821,0,1,1-6.963-.083,6.82,6.82,0,0,1,6.963.083Z" fill="#2dbca4"/>
        <path id="Path_361" data-name="Path 361" d="M-881.744-486.9a6.821,6.821,0,0,0-5.969-6.77,6.819,6.819,0,0,0-7.457,5.083,6.824,6.824,0,0,0,4.111,8.036,6.817,6.817,0,0,0,8.481-3.08" transform="matrix(-0.5, -0.866, 0.866, -0.5, 0, 0)" fill="none" stroke="#105286" stroke-linejoin="round" stroke-width="0.5"/>
        <path id="Path_362" data-name="Path 362" d="M12.217,1016.88l-2.36,1.361m-1.478.852-.462.266m-.521.3-.27.156-1.064.613-2.043,1.178a1.54,1.54,0,1,0,1.541,2.666l8.2-4.728" fill="none" stroke="#105286" stroke-linejoin="round" stroke-width="0.5"/>
        <ellipse id="Ellipse_16" data-name="Ellipse 16" cx="8.359" cy="8.363" rx="8.359" ry="8.363" transform="matrix(-0.5, -0.866, 0.866, -0.5, 19.837, 1023.912)" fill="none" stroke="#105286" stroke-linejoin="round" stroke-width="1"/>
      </g>
    </g>
  </g>
</svg>
