<svg id="icon-lists" xmlns="http://www.w3.org/2000/svg" width="54" height="54" viewBox="0 0 54 54">
  <rect id="card-bg" width="54" height="54" rx="8" fill="#ff2366" opacity="0.1"/>
  <path id="bell6-solid" d="M10.509,23.25a6.343,6.343,0,0,1-1.136-.469,2.462,2.462,0,0,1-1.127-2.086c0-.089,0-.177,0-.29H2.565c-.606,0-.845-.243-.847-.854V17.19a.7.7,0,0,1,.611-.779.659.659,0,0,1,.107,0,1.343,1.343,0,0,0,1.313-1.371c0-.025,0-.048,0-.071,0-1.528,0-3.056,0-4.584A7.07,7.07,0,0,1,8.309,3.7a.224.224,0,0,0,.17-.245,11.993,11.993,0,0,1,.035-1.426,2.3,2.3,0,0,1,1.9-1.988.5.5,0,0,0,.1-.041h.635a5.015,5.015,0,0,1,.577.183A2.309,2.309,0,0,1,13.173,2.3c.022.378.01.757,0,1.134a.235.235,0,0,0,.174.264A7.014,7.014,0,0,1,17.83,9.3a6.847,6.847,0,0,1,.071,1.13c.007,1.49,0,2.982,0,4.472A1.352,1.352,0,0,0,19.1,16.4a1.317,1.317,0,0,0,.151.009.69.69,0,0,1,.686.693c0,.019,0,.038,0,.057q0,1.238,0,2.475a.689.689,0,0,1-.6.768.665.665,0,0,1-.17,0q-2.73,0-5.461,0h-.263a7.909,7.909,0,0,1-.09.806,2.565,2.565,0,0,1-2.1,2,.683.683,0,0,0-.1.039h-.635Zm8.066-4.221c0-.427,0-.828-.006-1.227a.218.218,0,0,0-.122-.147,2.729,2.729,0,0,1-1.9-2.784c0-1.476.006-2.951,0-4.427a7.271,7.271,0,0,0-.093-1.15A5.714,5.714,0,0,0,5.112,10.3c-.012,1.559,0,3.118,0,4.677a2.715,2.715,0,0,1-1.92,2.677c-.033.012-.067.026-.1.038v1.335ZM11.821,3.258c0-.228,0-.469,0-.709a2.3,2.3,0,0,0-.01-.317.991.991,0,0,0-.954-.869.953.953,0,0,0-.992.813,8.384,8.384,0,0,0-.009,1.081ZM9.613,20.419a1.253,1.253,0,0,0,.572,1.281,1.144,1.144,0,0,0,1.3-.013,1.244,1.244,0,0,0,.549-1.268Zm8.962-1.39H3.091V17.694c.031-.012.062-.026.1-.038a2.719,2.719,0,0,0,1.92-2.677c0-1.559-.009-3.118,0-4.677A5.713,5.713,0,0,1,16.448,9.293a7.271,7.271,0,0,1,.093,1.15c.01,1.476,0,2.951,0,4.427a2.731,2.731,0,0,0,1.9,2.784.214.214,0,0,1,.122.147C18.579,18.2,18.575,18.6,18.575,19.029Z" transform="translate(16.175 15.375)" fill="#ff2366"/>
</svg>
