<svg xmlns="http://www.w3.org/2000/svg" width="24" height="24" viewBox="0 0 24 24">
  <rect width="24" height="24" rx="6" fill="#fff"/>
  <g transform="translate(6.383 -50)">
    <path d="M11.233,60.135a.854.854,0,1,0-1.707,0,.888.888,0,0,0,.24.61,1.992,1.992,0,0,1-2.549,1.279,2.591,2.591,0,0,1-1.144-2.119,1.014,1.014,0,0,0,.525-.895.982.982,0,1,0-1.963,0,1.014,1.014,0,0,0,.525.895,2.591,2.591,0,0,1-1.144,2.119,1.992,1.992,0,0,1-2.549-1.279.888.888,0,0,0,.24-.61.866.866,0,0,0-.853-.879.881.881,0,0,0-.11,1.75l.984,3.709h7.78l.984-3.709A.87.87,0,0,0,11.233,60.135Z" transform="translate(0)" fill="#fd5d00"/>
    <path d="M65.96,394.329a.618.618,0,0,1-.652.577H57.651a.618.618,0,0,1-.651-.577v-.048a.618.618,0,0,1,.651-.577h7.657a.618.618,0,0,1,.652.577Z" transform="translate(-55.863 -328.219)" fill="#fd5d00"/>
  </g>
</svg>
