<svg id="icon-lists" xmlns="http://www.w3.org/2000/svg" width="54" height="54" viewBox="0 0 54 54">
  <rect id="card-bg" width="54" height="54" rx="8" fill="#ea7a0b" opacity="0.1"/>
  <path id="_1077086" data-name=" 1077086" d="M50.051,26.6A6.126,6.126,0,0,0,45.5,24.613a5.731,5.731,0,0,0-3.579,1.234,7.336,7.336,0,0,0-1.451,1.513,7.293,7.293,0,0,0-1.447-1.513,5.73,5.73,0,0,0-3.582-1.234A6.126,6.126,0,0,0,30.881,26.6a7.119,7.119,0,0,0-1.8,4.862,8.472,8.472,0,0,0,2.259,5.549,48.245,48.245,0,0,0,5.655,5.308c.784.664,1.671,1.423,2.594,2.231a1.338,1.338,0,0,0,1.76,0c.922-.807,1.811-1.564,2.595-2.232A48.237,48.237,0,0,0,49.6,37.007a8.472,8.472,0,0,0,2.259-5.549A7.119,7.119,0,0,0,50.051,26.6Z" transform="translate(-13.481 -7.759)" fill="#ea7a0b"/>
</svg>
