<svg xmlns="http://www.w3.org/2000/svg" width="20" height="20" viewBox="0 0 20 20">
  <path id="wordpress" d="M19.891,7.788A9,9,0,0,1,16.52,19.872l2.746-7.939a8.488,8.488,0,0,0,.684-3.219,7.165,7.165,0,0,0-.059-.926m-6.651.087q.514-.025,1.026-.088a.376.376,0,0,0-.056-.749s-1.463.112-2.4.112c-.887,0-2.375-.125-2.375-.125a.37.37,0,0,0-.061.738s.449.052.938.075l1.4,3.838-1.975,5.9L6.462,7.851q.515-.026,1.028-.083a.375.375,0,0,0-.055-.747s-1.455.115-2.395.115c-.167,0-.365-.007-.575-.013A9.123,9.123,0,0,1,12,3.113a8.954,8.954,0,0,1,6.071,2.36c-.038,0-.076-.008-.117-.008a1.558,1.558,0,0,0-1.51,1.6,4.2,4.2,0,0,0,.883,2.108,4.739,4.739,0,0,1,.742,2.481,10.775,10.775,0,0,1-.685,2.9l-.9,2.987-3.25-9.675,0,.014ZM12,21.087a8.983,8.983,0,0,1-2.54-.364l2.7-7.838,2.763,7.572c.021.044.042.085.065.124A9.016,9.016,0,0,1,12,21.089M3.01,12.1a8.94,8.94,0,0,1,.778-3.658L8.075,20.192A8.993,8.993,0,0,1,3.01,12.1M12,2.1a10,10,0,1,0,10,10,10.013,10.013,0,0,0-10-10" transform="translate(-2 -2.101)" fill="#fff"/>
</svg>
