<svg id="Group_112" data-name="Group 112" xmlns="http://www.w3.org/2000/svg" width="41" height="41" viewBox="0 0 41 41">
  <rect id="Rectangle_28" data-name="Rectangle 28" width="41" height="41" rx="17" fill="#ea7a0b" opacity="0.1"/>
  <path id="building-svgrepo-com" d="M22.954,1.668v-1A.667.667,0,0,0,22.288,0H10.3a.667.667,0,0,0-.667.667v1a.666.666,0,0,0-.506.646V15.289a.667.667,0,0,0,.667.667h13a.667.667,0,0,0,.667-.667V2.314A.666.666,0,0,0,22.954,1.668ZM11.369,5.016V3.88h1.764V5.016Zm4.059,0V3.88h1.764V5.016Zm4.059,0V3.88H21.25V5.016ZM21.25,7.751V8.886H19.487V7.751Zm-4.059,0V8.886H15.428V7.751Zm-4.059,0V8.886H11.369V7.751Zm0,3.871v1.136H11.369V11.621Zm4.059.01v2.991H15.428V11.631Zm2.3,1.126V11.621H21.25v1.136Z" transform="translate(4.206 12.522)" fill="#ea7a0b"/>
</svg>
