<svg xmlns="http://www.w3.org/2000/svg" xmlns:xlink="http://www.w3.org/1999/xlink" viewBox="0 0 6991.68 3491.48"><defs><style>.cls-1{fill:url(#linear-gradient);}.cls-2{fill:url(#linear-gradient-2);}.cls-3{fill:url(#linear-gradient-3);}.cls-4{fill:none;clip-rule:evenodd;}.cls-5{clip-path:url(#clip-path);}.cls-6{mask:url(#mask);}.cls-7{fill:url(#linear-gradient-4);}.cls-8{clip-path:url(#clip-path-2);}.cls-9{mask:url(#mask-2);}.cls-10{fill:url(#linear-gradient-5);}.cls-11{clip-path:url(#clip-path-3);}.cls-12{mask:url(#mask-3);}.cls-13{fill:url(#linear-gradient-6);}</style><linearGradient id="linear-gradient" x1="3038.61" y1="1977.68" x2="3038.61" y2="3461.04" gradientTransform="translate(457.23 -0.11)" gradientUnits="userSpaceOnUse"><stop offset="0" stop-color="#fff"/><stop offset="1"/></linearGradient><linearGradient id="linear-gradient-2" x1="3272.23" y1="1010.32" x2="3272.23" y2="3171.56" gradientTransform="translate(223.61 -0.11)" xlink:href="#linear-gradient"/><linearGradient id="linear-gradient-3" x1="3495.84" y1="31.18" x2="3495.84" y2="3084.71" gradientTransform="translate(0 -0.05)" gradientUnits="userSpaceOnUse"><stop offset="0"/><stop offset="0.49" stop-color="#949494"/><stop offset="1"/></linearGradient><clipPath id="clip-path"><path class="cls-4" d="M4732.9,3491.23H2258.77L1980.21,3213c-103.15-103-103.15-271.59,0-374.6L3308.29,1512.1c103.15-103,271.95-103,375.1,0L5011.47,2838.43c103.15,103,103.15,271.58,0,374.6Zm-2461.56-30.31h2449L4990,3191.6c91.31-91.19,91.31-240.56,0-331.75L3661.93,1533.53c-91.31-91.19-240.88-91.19-332.18,0L2001.67,2859.85c-91.31,91.19-91.31,240.56,0,331.75Z"/></clipPath><mask id="mask" x="1877.06" y="1409.08" width="3237.56" height="2082.14" maskUnits="userSpaceOnUse"><rect class="cls-1" x="1902.85" y="1434.84" width="3185.98" height="2056.39"/></mask><linearGradient id="linear-gradient-4" x1="3495.84" y1="1551.15" x2="3495.84" y2="3323.57" gradientUnits="userSpaceOnUse"><stop offset="0" stop-color="#ea7b0d"/><stop offset="0.31" stop-color="#ea7b0d"/><stop offset="0.5" stop-color="#ea7b0d"/><stop offset="0.65" stop-color="#ea7b0d"/><stop offset="1" stop-color="#ea7b0d"/></linearGradient><clipPath id="clip-path-2"><path class="cls-4" d="M5730.32,3491.23l185.13-184.89c154.5-154.3,154.5-406.93,0-561.22L3776.82,609.31c-154.5-154.29-407.46-154.29-562,0L1076.23,2745.12c-154.5,154.29-154.5,406.92,0,561.22l185.13,184.89h-42.07l-164.1-163.88c-166.11-165.89-166.11-437.35,0-603.24L3193.82,588.3c166.11-165.89,437.93-165.89,604,0L5936.49,2724.11c166.11,165.89,166.11,437.35,0,603.24l-164.1,163.88Z"/></clipPath><mask id="mask-2" x="889.08" y="422.41" width="5213.52" height="3068.82" maskUnits="userSpaceOnUse"><rect class="cls-2" x="930.61" y="463.88" width="5130.46" height="3027.34"/></mask><linearGradient id="linear-gradient-5" x1="3495.84" y1="635.12" x2="3495.84" y2="3244.39" xlink:href="#linear-gradient-4"/><clipPath id="clip-path-3"><path class="cls-4" d="M31.18,2657.76v833.72c-20-.07-31.1-.15-31.18-.25V2646.59A603.16,603.16,0,0,1,42.86,2599L2645.29,0h1701.1L6948.82,2599a603.16,603.16,0,0,1,42.86,47.59v844.64c-.09.1-11.18.18-31.19.25V2657.76q-16-19.1-33.72-36.74L4333.47,31.14H2658.21L64.91,2621q-17.65,17.63-33.73,36.74"/></clipPath><mask id="mask-3" x="0" y="0" width="6991.68" height="3491.48" maskUnits="userSpaceOnUse"><rect class="cls-3" width="6991.68" height="3491.48"/></mask><linearGradient id="linear-gradient-6" x1="3495.84" y1="197.51" x2="3495.84" y2="3206.82" gradientUnits="userSpaceOnUse"><stop offset="0" stop-color="#ea7b0d"/><stop offset="0.31" stop-color="#ea7b0d"/><stop offset="0.5" stop-color="#ea7b0d"/><stop offset="0.65" stop-color="#ea7b0d"/><stop offset="0.83" stop-color="#f4bc85"/><stop offset="1" stop-color="#fff"/></linearGradient></defs><g id="Layer_2" data-name="Layer 2"><g id="Layer_1-2" data-name="Layer 1"><g class="cls-5"><g class="cls-6"><rect class="cls-7" x="1877.06" y="1409.08" width="3237.56" height="2082.14"/></g></g><g class="cls-8"><g class="cls-9"><rect class="cls-10" x="889.08" y="422.41" width="5213.52" height="3068.82"/></g></g><g class="cls-11"><g class="cls-12"><rect class="cls-13" width="6991.68" height="3491.48"/></g></g></g></g></svg>