<svg id="Group_4123" data-name="Group 4123" xmlns="http://www.w3.org/2000/svg" width="41" height="41" viewBox="0 0 41 41">
  <rect id="Rectangle_28" data-name="Rectangle 28" width="41" height="41" rx="17" fill="#ea7a0b" opacity="0.1"/>
  <g id="person-support" transform="translate(14.117 12.522)">
    <path id="Path_1327" data-name="Path 1327" d="M16.767,15.792A1.794,1.794,0,0,0,14.972,14H5.795A1.794,1.794,0,0,0,4,15.792v.734A2.194,2.194,0,0,0,4.407,17.8c1.231,1.727,3.244,2.583,5.973,2.583s4.743-.855,5.977-2.581a2.195,2.195,0,0,0,.409-1.276Z" transform="translate(-4 -4.426)" fill="#ea7c0e"/>
    <path id="Path_1328" data-name="Path 1328" d="M14.472,5.991a3.99,3.99,0,0,0-7.2-2.368A.6.6,0,0,0,7.092,3.6H5.1a.6.6,0,0,0-.6.6V8.583a2.194,2.194,0,0,0,2.194,2.194h.2v0H6.9a.8.8,0,1,0-.627-1.286A1,1,0,0,1,5.7,8.583v-.2h.6a1.39,1.39,0,0,0,.814-.262,3.99,3.99,0,0,0,7.364-2.13ZM6.493,5.907q0,.042,0,.085t0,.085v.911a.2.2,0,0,1-.2.2H5.7V4.794h.8Z" transform="translate(-4.101 -2.002)" fill="#ea7c0e"/>
  </g>
</svg>
