<svg id="icon-info" xmlns="http://www.w3.org/2000/svg" width="12.124" height="12.124" viewBox="0 0 12.124 12.124">
  <path id="Path_671" data-name="Path 671" d="M11,10.586a.606.606,0,1,1,1.212,0v3.637a.606.606,0,1,1-1.212,0Z" transform="translate(-5.544 -5.142)" fill="rgba(97,97,97,0.5)"/>
  <path id="Path_672" data-name="Path 672" d="M11.606,6.051a.606.606,0,1,0,.606.606A.606.606,0,0,0,11.606,6.051Z" transform="translate(-5.544 -3.595)" fill="rgba(97,97,97,0.5)"/>
  <path id="Path_673" data-name="Path 673" d="M8.062,2a6.062,6.062,0,1,0,6.062,6.062A6.062,6.062,0,0,0,8.062,2ZM3.212,8.062A4.849,4.849,0,1,0,8.062,3.212,4.849,4.849,0,0,0,3.212,8.062Z" transform="translate(-2 -2)" fill="rgba(97,97,97,0.5)" fill-rule="evenodd"/>
</svg>
