<?xml version="1.0" encoding="utf-8"?>
<!-- Generator: Adobe Illustrator 25.2.3, SVG Export Plug-In . SVG Version: 6.00 Build 0)  -->
<svg version="1.1" id="Layer_1" xmlns="http://www.w3.org/2000/svg" xmlns:xlink="http://www.w3.org/1999/xlink" x="0px" y="0px"
	 viewBox="0 0 403 216" style="enable-background:new 0 0 403 216;" xml:space="preserve">
<style type="text/css">
	.st0{fill:#F5F5F5;}
	.st1{opacity:0.8;filter:url(#AI_GaussianBlur_4);}
	.st2{fill:#C3C3C3;}
	.st3{fill:#FFFFFF;}
	.st4{fill:#E5E5E5;}
	.st5{fill:#F3F3F3;}
	.st6{opacity:0.3;filter:url(#AI_GaussianBlur_4);}
	.st7{fill:#C4C4C4;}
	.st8{filter:url(#AI_GaussianBlur_4);}
</style>
<filter  id="AI_GaussianBlur_4">
	<feGaussianBlur  stdDeviation="4"></feGaussianBlur>
</filter>
<g id="Empty-Wishlist-SVG" transform="translate(-758 -511)">
	<path id="BG" class="st0" d="M856,527h220c8.3,0,15,6.7,15,15v170c0,8.3-6.7,15-15,15H856c-8.3,0-15-6.7-15-15V542
		C841,533.7,847.7,527,856,527z"/>
	<g id="Product_1" transform="translate(54 -10)">
		<g class="st1">
			<g>
				<path class="st2" d="M750.6,553h228.9c4.3,0,7.8,3.6,7.8,8v34c0,4.4-3.5,8-7.8,8H750.6c-4.3,0-7.8-3.6-7.8-8v-34
					C742.8,556.6,746.3,553,750.6,553z"/>
			</g>
		</g>
		<path class="st3" d="M748,549h234c4.4,0,8,3.6,8,8v34c0,4.4-3.6,8-8,8H748c-4.4,0-8-3.6-8-8v-34C740,552.6,743.6,549,748,549z"/>
		<g id="Titles">
			<path id="Rectangle_300" class="st4" d="M808,562h52c2.2,0,4,1.8,4,4l0,0c0,2.2-1.8,4-4,4h-52c-2.2,0-4-1.8-4-4l0,0
				C804,563.8,805.8,562,808,562z"/>
			<path id="Rectangle_302" class="st5" d="M808,577h117c2.2,0,4,1.8,4,4l0,0c0,2.2-1.8,4-4,4H808c-2.2,0-4-1.8-4-4l0,0
				C804,578.8,805.8,577,808,577z"/>
		</g>
		<path id="image" class="st4" d="M768,558h16c4.4,0,8,3.6,8,8v16c0,4.4-3.6,8-8,8h-16c-4.4,0-8-3.6-8-8v-16
			C760,561.6,763.6,558,768,558z"/>
		<g id="Frame_1_" class="st6">
			<g>
				<circle class="st2" cx="890" cy="552.3" r="19"/>
			</g>
		</g>
		<g id="wishlist-button-heart" transform="translate(-103 9)">
			<g id="Frame">
				<g>
					<circle class="st7" cx="993" cy="536" r="19"/>
				</g>
			</g>
			<path id="wlfmc-icons-heart-v2-solid" class="st3" d="M1000.5,529.5c-1-1-2.4-1.5-3.8-1.5c-1.4,0-2.7,0.5-3.7,1.4
				c-1-0.9-2.3-1.4-3.7-1.4c-3,0-5.3,2.4-5.3,5.4c0,1.4,0.6,2.7,1.5,3.7l6.6,6.6c0.2,0.2,0.6,0.4,0.9,0.4c0.3,0,0.6-0.1,0.9-0.4
				l6.6-6.6c1-1,1.5-2.4,1.5-3.8C1002,531.9,1001.4,530.5,1000.5,529.5z"/>
		</g>
	</g>
	<g id="Product_2" transform="translate(166 53)">
		<g>
			<g>
				<g>
					<g class="st8">
						<path class="st2" d="M749.9,553.6h228.9c4.3,0,7.8,3.5,7.8,7.8v33.2c0,4.3-3.5,7.8-7.8,7.8H749.9c-4.3,0-7.8-3.5-7.8-7.8
							v-33.2C742.1,557.1,745.6,553.6,749.9,553.6z"/>
					</g>
				</g>
			</g>
		</g>
		<g id="product-5_1_">
			<g>
				<path class="st3" d="M748,549h234c4.4,0,8,3.6,8,8v34c0,4.4-3.6,8-8,8H748c-4.4,0-8-3.6-8-8v-34C740,552.6,743.6,549,748,549z"
					/>
			</g>
		</g>
		<g id="Titles-2">
			<path id="Rectangle_300-2" class="st4" d="M808,562h52c2.2,0,4,1.8,4,4l0,0c0,2.2-1.8,4-4,4h-52c-2.2,0-4-1.8-4-4l0,0
				C804,563.8,805.8,562,808,562z"/>
			<path id="Rectangle_302-2" class="st5" d="M808,577h117c2.2,0,4,1.8,4,4l0,0c0,2.2-1.8,4-4,4H808c-2.2,0-4-1.8-4-4l0,0
				C804,578.8,805.8,577,808,577z"/>
		</g>
		<path id="image-2" class="st4" d="M768,558h16c4.4,0,8,3.6,8,8v16c0,4.4-3.6,8-8,8h-16c-4.4,0-8-3.6-8-8v-16
			C760,561.6,763.6,558,768,558z"/>
		<g id="Frame_2_" class="st6">
			<g>
				<circle class="st2" cx="959.6" cy="572" r="19"/>
			</g>
		</g>
		<g id="wishlist-button-star" transform="translate(-34 29)">
			<g id="Frame-2">
				<g>
					<circle class="st7" cx="993" cy="536" r="19"/>
				</g>
			</g>
			<path id="wlfmc-icons-star-solid" class="st3" d="M1001.6,535c0.5-0.4,0.5-1.1,0.1-1.6c-0.2-0.2-0.5-0.4-0.8-0.4l-4.9-0.4
				c-0.1,0-0.2-0.1-0.3-0.2l-1.8-4.6c-0.1-0.3-0.3-0.5-0.6-0.6s-0.5-0.1-0.8,0c-0.3,0.2-0.5,0.4-0.6,0.7l-1.8,4.6
				c0,0.1-0.2,0.2-0.3,0.2l-4.9,0.4c-0.4,0-0.8,0.3-1,0.7c-0.2,0.5,0,1,0.4,1.3l3.8,3.1c0.1,0.1,0.1,0.2,0.1,0.4l-1.1,4.4
				c-0.1,0.5,0.1,1,0.5,1.3s1,0.3,1.3,0l3.9-2.4c0.1-0.1,0.2-0.1,0.2,0l0,0l4.2,2.6c0.2,0.1,0.3,0.2,0.5,0.2s0.4-0.1,0.6-0.2
				c0.4-0.3,0.5-0.7,0.5-1.2l-1.2-4.8c0-0.1,0-0.3,0.1-0.4L1001.6,535z"/>
		</g>
	</g>
	<g id="Product_3" transform="translate(54 116)">
		<g class="st8">
			<g>
				<g>
					<path class="st2" d="M750.9,553.4h228.9c4.3,0,7.8,3.6,7.8,8v34c0,4.4-3.5,8-7.8,7H750.9c-4.3,1-7.8-2.6-7.8-7v-34
						C743.1,557,746.6,553.4,750.9,553.4z"/>
				</g>
			</g>
		</g>
		<g id="product-6_1_">
			<g>
				<path class="st3" d="M748,549h234c4.4,0,8,3.6,8,8v34c0,4.4-3.6,8-8,8H748c-4.4,0-8-3.6-8-8v-34C740,552.6,743.6,549,748,549z"
					/>
			</g>
		</g>
		<g id="Titles-3">
			<path id="Rectangle_300-3" class="st4" d="M808,562h52c2.2,0,4,1.8,4,4l0,0c0,2.2-1.8,4-4,4h-52c-2.2,0-4-1.8-4-4l0,0
				C804,563.8,805.8,562,808,562z"/>
			<path id="Rectangle_302-3" class="st5" d="M808,577h117c2.2,0,4,1.8,4,4l0,0c0,2.2-1.8,4-4,4H808c-2.2,0-4-1.8-4-4l0,0
				C804,578.8,805.8,577,808,577z"/>
		</g>
		<path id="image-3" class="st4" d="M768,558h16c4.4,0,8,3.6,8,8v16c0,4.4-3.6,8-8,8h-16c-4.4,0-8-3.6-8-8v-16
			C760,561.6,763.6,558,768,558z"/>
		<g id="Frame_4_" class="st6">
			<g>
				<circle class="st2" cx="740.3" cy="554.9" r="19"/>
			</g>
		</g>
		<g id="wishlist-button-bookmark" transform="translate(-253 12)">
			<g id="Frame-3">
				<g>
					<circle class="st7" cx="993" cy="536" r="19"/>
				</g>
			</g>
			<path id="mc-bookmark-solid" class="st3" d="M996.5,528.7h-7.2c-1,0-1.9,0.8-1.9,1.8v0.1l0,0v12.3c0,0.2,0.2,0.4,0.4,0.5
				c0,0,0,0,0.1,0s0.2,0,0.2-0.1l4.9-2.7l4.9,2.7c0.2,0.1,0.5,0,0.6-0.2c0-0.1,0-0.1,0.1-0.2v-12.3
				C998.5,529.5,997.6,528.7,996.5,528.7z M997.5,534.7L997.5,534.7"/>
		</g>
	</g>
</g>
</svg>
