<svg xmlns="http://www.w3.org/2000/svg" xmlns:xlink="http://www.w3.org/1999/xlink" width="349" height="235.5" viewBox="0 0 349 235.5">
  <defs>
    <filter id="product" x="0" y="24" width="109" height="159" filterUnits="userSpaceOnUse">
      <feOffset dy="4" input="SourceAlpha"/>
      <feGaussianBlur stdDeviation="1.5" result="blur"/>
      <feFlood flood-color="#d9dde3" flood-opacity="0.502"/>
      <feComposite operator="in" in2="blur"/>
      <feComposite in="SourceGraphic"/>
    </filter>
    <filter id="product-2" x="120" y="74" width="109" height="159" filterUnits="userSpaceOnUse">
      <feOffset dy="4" input="SourceAlpha"/>
      <feGaussianBlur stdDeviation="1.5" result="blur-2"/>
      <feFlood flood-color="#d9dde3" flood-opacity="0.502"/>
      <feComposite operator="in" in2="blur-2"/>
      <feComposite in="SourceGraphic"/>
    </filter>
    <filter id="product-3" x="240" y="0" width="109" height="159" filterUnits="userSpaceOnUse">
      <feOffset dy="4" input="SourceAlpha"/>
      <feGaussianBlur stdDeviation="1.5" result="blur-3"/>
      <feFlood flood-color="#d9dde3" flood-opacity="0.502"/>
      <feComposite operator="in" in2="blur-3"/>
      <feComposite in="SourceGraphic"/>
    </filter>
  </defs>
  <g id="Empty-Wishlist-SVG" transform="translate(-788.5 -514.5)">
    <rect id="BG" width="250" height="200" rx="15" transform="translate(841 527)" fill="#eef0f3"/>
    <g id="List_1" data-name="List #1" transform="translate(54 -8)">
      <g transform="matrix(1, 0, 0, 1, 734.5, 522.5)" filter="url(#product)">
        <rect id="product-4" data-name="product" width="100" height="150" rx="8" transform="translate(4.5 24.5)" fill="#fff"/>
      </g>
      <g id="Titles" transform="translate(-53 85)">
        <rect id="Rectangle_300" data-name="Rectangle 300" width="60" height="8" rx="4" transform="translate(804 562)" fill="#d9dde3"/>
        <rect id="Rectangle_302" data-name="Rectangle 302" width="76" height="8" rx="4" transform="translate(804 574)" fill="#eef0f3"/>
      </g>
      <g id="Add_to_cart" data-name="Add to cart">
        <rect id="Rectangle_305" data-name="Rectangle 305" width="66" height="15" rx="4" transform="translate(756 678)" fill="#a9b1bf" opacity="0.5"/>
        <rect id="Rectangle_306" data-name="Rectangle 306" width="76" height="15" rx="4" transform="translate(751 674)" fill="#a9b1bf"/>
      </g>
      <path id="image" d="M8,0H33a8,8,0,0,1,8,8V37a4,4,0,0,1-4,4H8a8,8,0,0,1-8-8V8A8,8,0,0,1,8,0Z" transform="translate(747 555)" fill="#d9dde3"/>
      <path id="image-2" data-name="image" d="M8,0H37a4,4,0,0,1,4,4V33a8,8,0,0,1-8,8H8a8,8,0,0,1-8-8V8A8,8,0,0,1,8,0Z" transform="translate(747 598)" fill="#d9dde3"/>
      <path id="image-3" data-name="image" d="M8,0H33a8,8,0,0,1,8,8V33a8,8,0,0,1-8,8H4a4,4,0,0,1-4-4V8A8,8,0,0,1,8,0Z" transform="translate(790 555)" fill="#d9dde3"/>
      <path id="image-4" data-name="image" d="M4,0H33a8,8,0,0,1,8,8V33a8,8,0,0,1-8,8H8a8,8,0,0,1-8-8V4A4,4,0,0,1,4,0Z" transform="translate(790 598)" fill="#d9dde3"/>
    </g>
    <g id="List_2" data-name="List #2" transform="translate(174 42)">
      <g transform="matrix(1, 0, 0, 1, 614.5, 472.5)" filter="url(#product-2)">
        <rect id="product-5" data-name="product" width="100" height="150" rx="8" transform="translate(124.5 74.5)" fill="#fff"/>
      </g>
      <g id="Titles-2" data-name="Titles" transform="translate(-53 85)">
        <rect id="Rectangle_300-2" data-name="Rectangle 300" width="60" height="8" rx="4" transform="translate(804 562)" fill="#d9dde3"/>
        <rect id="Rectangle_302-2" data-name="Rectangle 302" width="76" height="8" rx="4" transform="translate(804 574)" fill="#eef0f3"/>
      </g>
      <path id="image-5" data-name="image" d="M8,0H33a8,8,0,0,1,8,8V37a4,4,0,0,1-4,4H8a8,8,0,0,1-8-8V8A8,8,0,0,1,8,0Z" transform="translate(747 555)" fill="#d9dde3"/>
      <path id="image-6" data-name="image" d="M8,0H37a4,4,0,0,1,4,4V33a8,8,0,0,1-8,8H8a8,8,0,0,1-8-8V8A8,8,0,0,1,8,0Z" transform="translate(747 598)" fill="#d9dde3"/>
      <path id="image-7" data-name="image" d="M8,0H33a8,8,0,0,1,8,8V33a8,8,0,0,1-8,8H4a4,4,0,0,1-4-4V8A8,8,0,0,1,8,0Z" transform="translate(790 555)" fill="#d9dde3"/>
      <path id="image-8" data-name="image" d="M4,0H33a8,8,0,0,1,8,8V33a8,8,0,0,1-8,8H8a8,8,0,0,1-8-8V4A4,4,0,0,1,4,0Z" transform="translate(790 598)" fill="#d9dde3"/>
      <g id="Add_to_cart-2" data-name="Add to cart">
        <rect id="Rectangle_305-2" data-name="Rectangle 305" width="66" height="15" rx="4" transform="translate(756 678)" fill="#a9b1bf" opacity="0.5"/>
        <rect id="Rectangle_306-2" data-name="Rectangle 306" width="76" height="15" rx="4" transform="translate(751 674)" fill="#a9b1bf"/>
      </g>
    </g>
    <g id="Lists_3" data-name="Lists #3" transform="translate(294 -32)">
      <g transform="matrix(1, 0, 0, 1, 494.5, 546.5)" filter="url(#product-3)">
        <rect id="product-6" data-name="product" width="100" height="150" rx="8" transform="translate(244.5 0.5)" fill="#fff"/>
      </g>
      <g id="Titles-3" data-name="Titles" transform="translate(-53 85)">
        <rect id="Rectangle_300-3" data-name="Rectangle 300" width="60" height="8" rx="4" transform="translate(804 562)" fill="#d9dde3"/>
        <rect id="Rectangle_302-3" data-name="Rectangle 302" width="76" height="8" rx="4" transform="translate(804 574)" fill="#eef0f3"/>
      </g>
      <path id="image-9" data-name="image" d="M8,0H33a8,8,0,0,1,8,8V37a4,4,0,0,1-4,4H8a8,8,0,0,1-8-8V8A8,8,0,0,1,8,0Z" transform="translate(747 555)" fill="#d9dde3"/>
      <path id="image-10" data-name="image" d="M8,0H37a4,4,0,0,1,4,4V33a8,8,0,0,1-8,8H8a8,8,0,0,1-8-8V8A8,8,0,0,1,8,0Z" transform="translate(747 598)" fill="#d9dde3"/>
      <path id="image-11" data-name="image" d="M8,0H33a8,8,0,0,1,8,8V33a8,8,0,0,1-8,8H4a4,4,0,0,1-4-4V8A8,8,0,0,1,8,0Z" transform="translate(790 555)" fill="#d9dde3"/>
      <path id="image-12" data-name="image" d="M4,0H33a8,8,0,0,1,8,8V33a8,8,0,0,1-8,8H8a8,8,0,0,1-8-8V4A4,4,0,0,1,4,0Z" transform="translate(790 598)" fill="#d9dde3"/>
      <g id="Add_to_cart-3" data-name="Add to cart">
        <rect id="Rectangle_305-3" data-name="Rectangle 305" width="66" height="15" rx="4" transform="translate(756 678)" fill="#a9b1bf" opacity="0.5"/>
        <rect id="Rectangle_306-3" data-name="Rectangle 306" width="76" height="15" rx="4" transform="translate(751 674)" fill="#a9b1bf"/>
      </g>
    </g>
  </g>
</svg>
