<svg id="Group_4136" data-name="Group 4136" xmlns="http://www.w3.org/2000/svg" width="30" height="32" viewBox="0 0 30 32">
  <rect id="BG" width="30" height="32" rx="8" fill="#e43b67" opacity="0.1"/>
  <path id="calendar-alt-svgrepo-com" d="M0,12a1.242,1.242,0,0,0,1.242,1.242h9.106A1.242,1.242,0,0,0,11.59,12V4.967H0ZM8.278,6.933a.311.311,0,0,1,.31-.31H9.624a.311.311,0,0,1,.31.31V7.968a.311.311,0,0,1-.31.31H8.589a.311.311,0,0,1-.31-.31Zm0,3.311a.311.311,0,0,1,.31-.31H9.624a.311.311,0,0,1,.31.31v1.035a.311.311,0,0,1-.31.31H8.589a.311.311,0,0,1-.31-.31ZM4.967,6.933a.311.311,0,0,1,.31-.31H6.312a.311.311,0,0,1,.31.31V7.968a.311.311,0,0,1-.31.31H5.278a.311.311,0,0,1-.31-.31Zm0,3.311a.311.311,0,0,1,.31-.31H6.312a.311.311,0,0,1,.31.31v1.035a.311.311,0,0,1-.31.31H5.278a.311.311,0,0,1-.31-.31ZM1.656,6.933a.311.311,0,0,1,.31-.31H3a.311.311,0,0,1,.31.31V7.968a.311.311,0,0,1-.31.31H1.966a.311.311,0,0,1-.31-.31Zm0,3.311a.311.311,0,0,1,.31-.31H3a.311.311,0,0,1,.31.31v1.035a.311.311,0,0,1-.31.31H1.966a.311.311,0,0,1-.31-.31Zm8.692-8.589H9.106V.414A.415.415,0,0,0,8.692,0H7.865a.415.415,0,0,0-.414.414V1.656H4.139V.414A.415.415,0,0,0,3.725,0H2.9a.415.415,0,0,0-.414.414V1.656H1.242A1.242,1.242,0,0,0,0,2.9V4.139H11.59V2.9A1.242,1.242,0,0,0,10.348,1.656Z" transform="translate(9.205 9.168)" fill="#e43b67"/>
</svg>
