<svg id="Group_4134" data-name="Group 4134" xmlns="http://www.w3.org/2000/svg" width="30" height="32" viewBox="0 0 30 32">
  <rect id="BG" width="30" height="32" rx="8" fill="#e43b67" opacity="0.1"/>
  <path id="gui-user-settings-svgrepo-com" d="M16.168,11.474a2.915,2.915,0,0,0,0-1.058l.641-.37a.18.18,0,0,0,.082-.211,3.728,3.728,0,0,0-.825-1.426.181.181,0,0,0-.224-.035l-.641.37a2.917,2.917,0,0,0-.917-.529v-.74a.181.181,0,0,0-.142-.176,3.748,3.748,0,0,0-1.645,0,.181.181,0,0,0-.142.176v.74a2.917,2.917,0,0,0-.917.529l-.641-.37a.182.182,0,0,0-.224.035A3.729,3.729,0,0,0,9.75,9.834a.183.183,0,0,0,.082.211l.641.37a2.914,2.914,0,0,0,0,1.058l-.641.37a.18.18,0,0,0-.082.211,3.747,3.747,0,0,0,.825,1.426.181.181,0,0,0,.224.035l.641-.37a2.917,2.917,0,0,0,.917.529v.74a.181.181,0,0,0,.142.176,3.748,3.748,0,0,0,1.645,0,.181.181,0,0,0,.142-.176v-.74a2.917,2.917,0,0,0,.917-.529l.641.37a.182.182,0,0,0,.224-.035,3.728,3.728,0,0,0,.825-1.426.183.183,0,0,0-.082-.211Zm-2.845.676a1.2,1.2,0,1,1,1.2-1.2A1.206,1.206,0,0,1,13.323,12.15ZM6.565,8.56a3.18,3.18,0,1,0-3.18-3.18A3.18,3.18,0,0,0,6.565,8.56Zm5,5.627c-.057-.03-.114-.065-.169-.1l-.2.114a.975.975,0,0,1-1.2-.181,4.53,4.53,0,0,1-1-1.729.972.972,0,0,1,.445-1.135l.2-.114q0-.1,0-.194l-.2-.114A.971.971,0,0,1,9,9.6c.022-.072.055-.144.08-.216-.094-.008-.186-.03-.283-.03H8.377a4.325,4.325,0,0,1-3.622,0H4.339A3.34,3.34,0,0,0,1,12.694v1.034A1.193,1.193,0,0,0,2.193,14.92h8.745a1.191,1.191,0,0,0,.676-.211.968.968,0,0,1-.05-.293v-.229Z" transform="translate(6.05 7.44)" fill="#e43b67"/>
</svg>
