<svg id="Group_4136" data-name="Group 4136" xmlns="http://www.w3.org/2000/svg" width="30" height="32" viewBox="0 0 30 32">
  <rect id="BG" width="30" height="32" rx="8" fill="#e43b67" opacity="0.1"/>
  <path id="cart-plus-svgrepo-com" d="M14.588,9.249H6.115l.189.925h7.758a.694.694,0,0,1,.676.847l-.159.7a1.619,1.619,0,1,1-1.838.3H6.682a1.619,1.619,0,1,1-1.938-.248L2.714,1.85H.694A.694.694,0,0,1,0,1.156V.694A.694.694,0,0,1,.694,0H3.657a.694.694,0,0,1,.68.555L4.6,1.85H15.955a.694.694,0,0,1,.676.847L15.265,8.709A.694.694,0,0,1,14.588,9.249Zm-2.8-4.393H10.405V3.7a.462.462,0,0,0-.462-.462H9.48a.462.462,0,0,0-.462.462V4.856H7.631a.462.462,0,0,0-.462.462v.462a.462.462,0,0,0,.462.462H9.018V7.4a.462.462,0,0,0,.462.462h.462a.462.462,0,0,0,.462-.462V6.243h1.387a.462.462,0,0,0,.462-.462V5.318A.462.462,0,0,0,11.793,4.856Z" transform="translate(6.676 8.601)" fill="#e43b67"/>
</svg>
