<svg xmlns="http://www.w3.org/2000/svg" xmlns:xlink="http://www.w3.org/1999/xlink" width="20" height="20" viewBox="0 0 20 20">
    <defs>
        <clipPath>
            <rect width="20" height="20" transform="translate(172 640)" fill="#02bc77" stroke="#707070" stroke-width="1"/>
        </clipPath>
    </defs>
    <g transform="translate(-172 -640)" clip-path="url(#clip-path)">
        <path d="M19.136,12.23l0,0-1.282-1.177a8.393,8.393,0,0,0,0-2.1L19.136,7.77a1.265,1.265,0,0,0,.233-1.546L17.955,3.779a1.255,1.255,0,0,0-1.463-.568l-1.663.525a7.622,7.622,0,0,0-1.812-1.052L12.632.976A1.254,1.254,0,0,0,11.417,0H8.583A1.254,1.254,0,0,0,7.368.975L6.984,2.683A7.622,7.622,0,0,0,5.172,3.736L3.507,3.211a1.253,1.253,0,0,0-1.458.563L.628,6.229a1.264,1.264,0,0,0,.24,1.544L2.15,8.951A8.518,8.518,0,0,0,2.083,10a8.681,8.681,0,0,0,.066,1.049L.864,12.23a1.264,1.264,0,0,0-.233,1.545L2.045,16.22a1.255,1.255,0,0,0,1.463.569l1.663-.525a7.622,7.622,0,0,0,1.813,1.052l.384,1.707A1.254,1.254,0,0,0,8.583,20h2.833a1.254,1.254,0,0,0,1.215-.975l.384-1.708a7.594,7.594,0,0,0,1.812-1.052l1.665.525a1.252,1.252,0,0,0,1.459-.564l1.42-2.455a1.264,1.264,0,0,0-.237-1.54ZM10,14.167A4.167,4.167,0,1,1,14.167,10,4.171,4.171,0,0,1,10,14.167Z" transform="translate(172 640)" fill="#ffffff"/>
    </g>
</svg>
