<svg xmlns="http://www.w3.org/2000/svg" width="61" height="61" viewBox="0 0 61 61">
    <rect width="61" height="61" rx="10" fill="#fff"/>
    <g transform="translate(11.724 10.724)">
        <g>
            <g>
                <g>
                    <path d="M0,0V39.553H39.553V0ZM13.186,16.479a1.646,1.646,0,1,1,0-3.293h8.242a1.646,1.646,0,0,1,0,3.293Zm6.59,6.6A1.646,1.646,0,0,1,18.13,24.72H13.186l-.193-.01a1.647,1.647,0,0,1,.188-3.283h4.944l.193.01A1.648,1.648,0,0,1,19.776,23.074Zm.534,15.969,0,.02-.015.015-.331.153h-.025a.043.043,0,0,1-.03-.04l.054-1.014.01-.025a.047.047,0,0,1,.044-.01l.307.153.015.015,0,.02Zm.494.049-.02.025-.173.124-.02,0-.025,0-.173-.124-.02-.02-.01-.035.03-.7,0-.02a.038.038,0,0,1,.04-.01l.119.059.025,0,.03,0,.119-.059.02,0a.032.032,0,0,1,.025.03l.03.7Zm.47.124c-.01.015-.025.02-.049.015l-.331-.153-.015-.01-.01-.02-.03-.707,0-.02.015-.015.307-.153.025,0a.049.049,0,0,1,.035.035l.054,1.014Z" fill="none"/>
                    <path d="M129.655,113.769a2.471,2.471,0,0,0-2.462-2.235H124.72V103.3l-.01-.247A3.294,3.294,0,0,0,121.423,100H103.3l-.247.01A3.294,3.294,0,0,0,100,103.3v24.72l.01.247a3.294,3.294,0,0,0,3.288,3.05H124.72l.292-.01a4.942,4.942,0,0,0,4.652-4.934v-12.36ZM106.59,118.13a1.646,1.646,0,0,1,1.646-1.646h4.944l.193.01a1.647,1.647,0,0,1-.188,3.283h-4.944l-.193-.01A1.652,1.652,0,0,1,106.59,118.13Zm9.888-6.6h-8.237a1.646,1.646,0,0,1,0-3.293h8.242a1.646,1.646,0,1,1,0,3.293Zm9.888,14.832a1.646,1.646,0,0,1-1.646,1.646V114.832h1.646Z" transform="translate(-95.056 -95.056)" fill="#5ec4ff"/>
                </g>
            </g>
        </g>
        <path d="M244.935,268.346a1.646,1.646,0,0,1-1.646,1.646h-8.242a1.646,1.646,0,1,1,0-3.293h8.242A1.649,1.649,0,0,1,244.935,268.346Z" transform="translate(-221.861 -253.514)" fill="#fff" stroke="#fff" stroke-miterlimit="10" stroke-width="1"/>
        <path d="M241.542,435.046a1.646,1.646,0,0,1-1.646,1.646h-4.944l-.193-.01a1.647,1.647,0,0,1,.188-3.283h4.944l.193.01A1.648,1.648,0,0,1,241.542,435.046Z" transform="translate(-221.765 -411.972)" fill="#fff" stroke="#fff" stroke-miterlimit="10" stroke-width="1"/>
    </g>
</svg>
