<svg xmlns="http://www.w3.org/2000/svg" width="542.447" height="387.395"
     viewBox="0 0 542.447 387.395">
	<defs>
		<linearGradient id="linear-gradient" x1="0.5" y1="1" x2="0.5" gradientUnits="objectBoundingBox">
			<stop offset="0" stop-color="#fff" stop-opacity="0.102"/>
			<stop offset="1" stop-color="#fff" stop-opacity="0.4"/>
		</linearGradient>
	</defs>
	<g id="Group_695" transform="translate(-91.485 -55.177)">
		<g id="Group_654" >
			<g id="Group_633" >
				<rect id="Rectangle_73" width="123.751" height="74.75" rx="3.206"
					  transform="translate(248.891 77.505)" fill="none" stroke="#c0ccd8" stroke-miterlimit="10"
					  stroke-width="1"/>
				<line id="Line_11" x2="123.751" transform="translate(248.891 91.05)" fill="none"
					  stroke="#c0ccd8" stroke-miterlimit="10" stroke-width="1"/>
				<circle id="Ellipse_26" cx="1.978" cy="1.978" r="1.978"
						transform="translate(254.906 82.374)" fill="none" stroke="#c0ccd8" stroke-miterlimit="10"
						stroke-width="1"/>
				<path id="Path_569"
					  d="M267,84.352a1.978,1.978,0,1,1-1.978-1.978A1.978,1.978,0,0,1,267,84.352Z" fill="none"
					  stroke="#c0ccd8" stroke-miterlimit="10" stroke-width="1"/>
				<path id="Path_570"
					  d="M275.138,84.352a1.978,1.978,0,1,1-1.978-1.978A1.978,1.978,0,0,1,275.138,84.352Z" fill="none"
					  stroke="#c0ccd8" stroke-miterlimit="10" stroke-width="1"/>
			</g>
			<g id="Group_637" >
				<g id="Group_636" >
					<g id="Group_634" >
						<rect id="Rectangle_74" width="39.503" height="39.503" rx="5.12"
							  transform="translate(178.852 120.573)" fill="none" stroke="#c0ccd8"
							  stroke-linejoin="round" stroke-width="1"/>
					</g>
					<g id="Group_635" >
						<circle id="Ellipse_27" cx="11.314" cy="11.314" r="11.314"
								transform="translate(187.29 129.01)" fill="none" stroke="#c0ccd8" stroke-miterlimit="10"
								stroke-width="3"/>
						<line id="Line_12" x1="15.974" y2="15.974"
							  transform="translate(190.268 132.337)" fill="none" stroke="#c0ccd8" stroke-miterlimit="10"
							  stroke-width="3"/>
					</g>
				</g>
			</g>
			<path id="Path_571"
				  d="M480.238,151.089l-8.193-8.49H345.958a10.683,10.683,0,0,1-10.683-10.683V66.36a10.683,10.683,0,0,1,10.683-10.683H472.611A10.683,10.683,0,0,1,483.294,66.36v83.495A1.777,1.777,0,0,1,480.238,151.089Z"
				  fill="#fff" stroke="#c0ccd8" stroke-linejoin="round" stroke-width="1"/>
			<g id="Group_639" >
				<g id="Group_638" >
					<path id="Path_572"
						  d="M385.958,113.291h-5.424v9.534h-13.14v-9.534H347.752V103.52l20.484-29.952h12.3v29.784h5.424Zm-18.564-9.939V97.624q0-1.617.118-4.363a28.176,28.176,0,0,1,.185-2.881h-.37a35.552,35.552,0,0,1-2.6,4.852l-5.458,8.12Z"
						  fill="#f76652"/>
					<path id="Path_573"
						  d="M427.006,98.264q0,13.072-4.379,19.154t-13.41,6.081q-8.826,0-13.308-6.351t-4.481-18.884q0-13.14,4.38-19.271t13.409-6.132q8.794,0,13.291,6.384T427.006,98.264Zm-22.337,0q0,8.356,1.044,11.489t3.5,3.133q2.493,0,3.521-3.234t1.027-11.388q0-8.187-1.044-11.472t-3.5-3.285q-2.459,0-3.5,3.167T404.669,98.264Z"
						  fill="#f76652"/>
					<path id="Path_574"
						  d="M470.817,113.291h-5.424v9.534h-13.14v-9.534H432.611V103.52L453.1,73.568h12.3v29.784h5.424Zm-18.564-9.939V97.624q0-1.617.119-4.363a28.381,28.381,0,0,1,.184-2.881h-.37a35.552,35.552,0,0,1-2.6,4.852l-5.458,8.12Z"
						  fill="#f76652"/>
				</g>
			</g>
			<g id="Group_644" >
				<g id="Group_643" >
					<g id="Group_640" >
						<rect id="Rectangle_75" width="39.503" height="39.503" rx="5.12"
							  transform="translate(593.929 235.585)" fill="none" stroke="#c0ccd8"
							  stroke-linejoin="round" stroke-width="1"/>
					</g>
					<g id="Group_642" >
						<g id="Group_641" >
							<path id="Path_575"
								  d="M626.412,266.43a1.415,1.415,0,0,1-.473.081l-24.517.008a1.437,1.437,0,0,1-1.246-2.156l12.252-21.237a1.436,1.436,0,0,1,2.489,0l12.267,21.229a1.437,1.437,0,0,1-.772,2.076ZM602.1,264.692l23.166-.009-11.59-20.058Z"
								  fill="#c0ccd8"/>
						</g>
						<path id="Path_576"
							  d="M613.678,260.471h0a.868.868,0,0,1-.867-.829l-.5-8.356a1.361,1.361,0,0,1,1.359-1.423h0a1.362,1.362,0,0,1,1.361,1.422l-.49,8.357A.869.869,0,0,1,613.678,260.471Z"
							  fill="#c0ccd8"/>
						<path id="Path_577"
							  d="M614.563,262.486a.884.884,0,1,1-.884-.883A.884.884,0,0,1,614.563,262.486Z"
							  fill="#c0ccd8"/>
					</g>
				</g>
			</g>
			<path id="Path_578"
				  d="M96.442,204.5a2.229,2.229,0,1,1-2.228-2.228A2.228,2.228,0,0,1,96.442,204.5Z" fill="none"
				  stroke="#c0ccd8" stroke-linecap="round" stroke-linejoin="round" stroke-width="1"/>
			<path id="Path_579"
				  d="M470.817,323.314a2.229,2.229,0,1,1-2.228-2.229A2.229,2.229,0,0,1,470.817,323.314Z" fill="none"
				  stroke="#c0ccd8" stroke-linecap="round" stroke-linejoin="round" stroke-width="1"/>
			<path id="Path_580"
				  d="M623.942,140.324a2.229,2.229,0,1,1-2.229-2.228A2.228,2.228,0,0,1,623.942,140.324Z" fill="none"
				  stroke="#c0ccd8" stroke-linecap="round" stroke-linejoin="round" stroke-width="1"/>
			<path id="Path_581"
				  d="M503.662,71.4a2.229,2.229,0,1,1-2.229-2.228A2.228,2.228,0,0,1,503.662,71.4Z" fill="none"
				  stroke="#c0ccd8" stroke-linecap="round" stroke-linejoin="round" stroke-width="1"/>
			<g id="Group_645" >
				<line id="Line_13" y2="6.9" transform="translate(619.485 213.203)" fill="none"
					  stroke="#c0ccd8" stroke-linecap="round" stroke-linejoin="round" stroke-width="1"/>
				<line id="Line_14" x1="6.901" transform="translate(616.035 216.654)" fill="none"
					  stroke="#c0ccd8" stroke-linecap="round" stroke-linejoin="round" stroke-width="1"/>
			</g>
			<g id="Group_646" >
				<line id="Line_15" y2="6.9" transform="translate(439.101 346.141)" fill="none"
					  stroke="#c0ccd8" stroke-linecap="round" stroke-linejoin="round" stroke-width="1"/>
				<line id="Line_16" x1="6.901" transform="translate(435.65 349.591)" fill="none"
					  stroke="#c0ccd8" stroke-linecap="round" stroke-linejoin="round" stroke-width="1"/>
			</g>
			<g id="Group_647" >
				<line id="Line_17" y2="6.901" transform="translate(293.163 58.677)" fill="none"
					  stroke="#c0ccd8" stroke-linecap="round" stroke-linejoin="round" stroke-width="1"/>
				<line id="Line_18" x1="6.9" transform="translate(289.712 62.127)" fill="none"
					  stroke="#c0ccd8" stroke-linecap="round" stroke-linejoin="round" stroke-width="1"/>
			</g>
			<g id="Group_648" >
				<line id="Line_19" y2="6.9" transform="translate(138.696 125.375)" fill="none"
					  stroke="#c0ccd8" stroke-linecap="round" stroke-linejoin="round" stroke-width="1"/>
				<line id="Line_20" x1="6.9" transform="translate(135.246 128.825)" fill="none"
					  stroke="#c0ccd8" stroke-linecap="round" stroke-linejoin="round" stroke-width="1"/>
			</g>
			<g id="Group_649" >
				<line id="Line_21" y2="6.9" transform="translate(127.465 284.249)" fill="none"
					  stroke="#c0ccd8" stroke-linecap="round" stroke-linejoin="round" stroke-width="1"/>
				<line id="Line_22" x1="6.9" transform="translate(124.014 287.699)" fill="none"
					  stroke="#c0ccd8" stroke-linecap="round" stroke-linejoin="round" stroke-width="1"/>
			</g>
			<g id="Group_650" >
				<line id="Line_23" y2="6.901" transform="translate(518.615 97.746)" fill="none"
					  stroke="#c0ccd8" stroke-linecap="round" stroke-linejoin="round" stroke-width="1"/>
				<line id="Line_24" x1="6.9" transform="translate(515.164 101.197)" fill="none"
					  stroke="#c0ccd8" stroke-linecap="round" stroke-linejoin="round" stroke-width="1"/>
			</g>
			<path id="Path_582"
				  d="M178.8,244.962h-69.05a2.185,2.185,0,0,1-2.185-2.185h0a2.184,2.184,0,0,1,2.185-2.184H178.8a2.184,2.184,0,0,1,2.185,2.184h0A2.185,2.185,0,0,1,178.8,244.962Z"
				  fill="none" stroke="#c0ccd8" stroke-miterlimit="10" stroke-width="1"/>
			<path id="Path_583"
				  d="M585.366,189.821h-69.05a2.185,2.185,0,0,1-2.185-2.185h0a2.184,2.184,0,0,1,2.185-2.184h69.05a2.184,2.184,0,0,1,2.184,2.184h0A2.184,2.184,0,0,1,585.366,189.821Z"
				  fill="none" stroke="#c0ccd8" stroke-miterlimit="10" stroke-width="1"/>
			<path id="Path_584"
				  d="M595.474,204.5H569.949a1.092,1.092,0,0,1-1.092-1.092h0a1.091,1.091,0,0,1,1.092-1.092h25.525a1.091,1.091,0,0,1,1.092,1.092h0A1.092,1.092,0,0,1,595.474,204.5Z"
				  fill="#c0ccd8"/>
			<path id="Path_585"
				  d="M527.927,152.467H502.4a1.092,1.092,0,0,1-1.092-1.092h0a1.092,1.092,0,0,1,1.092-1.093h25.525a1.092,1.092,0,0,1,1.092,1.093h0A1.092,1.092,0,0,1,527.927,152.467Z"
				  fill="#c0ccd8"/>
			<path id="Path_586"
				  d="M153.139,225.657H133.613a1.092,1.092,0,0,1-1.092-1.092h0a1.092,1.092,0,0,1,1.092-1.092h19.526a1.092,1.092,0,0,1,1.092,1.092h0A1.092,1.092,0,0,1,153.139,225.657Z"
				  fill="#c0ccd8"/>
			<g id="Group_653" >
				<path id="Rectangle_76"
					  d="M3.7,0h21.14a3.7,3.7,0,0,1,3.7,3.7v21.14a3.7,3.7,0,0,1-3.7,3.7H3.7a3.7,3.7,0,0,1-3.7-3.7V3.7A3.7,3.7,0,0,1,3.7,0Z"
					  transform="translate(572.089 129.279) rotate(180)" fill="none" stroke="#c0ccd8"
					  stroke-linejoin="round" stroke-width="1"/>
				<g id="Group_652" >
					<g id="Group_651" >
						<path id="Path_587"
							  d="M561.862,113.806l-.5,2.451h2.727v2.177h-3.139l-.813,4.289h-2.325l.825-4.289h-3l-.8,4.289h-2.272l.782-4.289H550.83v-2.177h2.926l.5-2.451h-2.661V111.6h3.053l.813-4.3h2.314l-.813,4.3H560l.823-4.3H563.1l-.824,4.3h2.536v2.208Zm-5.814,2.451h3.025l.5-2.451h-3.024Z"
							  fill="#c0ccd8"/>
					</g>
				</g>
			</g>
		</g>
		<g id="Group_678" >
			<g id="Group_669" >
				<path id="Path_588"
					  d="M317.5,326.721l-20.048-131.5h-90.3L228.8,334.563a18.889,18.889,0,0,0,19.056,16.09H399.686l1.117-12.768H330.682A13.061,13.061,0,0,1,317.5,326.721Z"
					  fill="#475577"/>
				<path id="Path_589"
					  d="M232.037,326.721,212.731,200.094a5.7,5.7,0,0,0-5.748-4.868h-.177a7,7,0,0,0-6.856,7.848l20.426,131.489a18.889,18.889,0,0,0,19.056,16.09h97.792l1.117-12.768H245.22A13.061,13.061,0,0,1,232.037,326.721Z"
					  fill="#717a91"/>
				<g id="Group_668" >
					<g id="Group_667" >
						<g id="Group_655" >
							<line id="Line_25" y2="71.776" transform="translate(293.163 350.652)"
								  fill="none" stroke="#544943" stroke-miterlimit="10" stroke-width="1.5"/>
						</g>
						<g id="Group_666" >
							<g id="Group_656" >
								<path id="Path_590"
									  d="M252.926,428.769h0a6.34,6.34,0,0,1,6.341-6.34h67.791a6.34,6.34,0,0,1,6.341,6.34h0"
									  fill="none" stroke="#544943" stroke-miterlimit="10" stroke-width="1.5"/>
							</g>
							<g id="Group_657" >
								<path id="Path_591"
									  d="M286.226,428.769h0a6.339,6.339,0,0,1,6.34-6.34" fill="none" stroke="#544943"
									  stroke-miterlimit="10" stroke-width="1.5"/>
							</g>
							<g id="Group_660" >
								<g id="Group_658" >
									<path id="Path_592"
										  d="M259.328,435.171a6.4,6.4,0,1,1-6.4-6.4A6.4,6.4,0,0,1,259.328,435.171Z"
										  fill="#717a91"/>
								</g>
								<g id="Group_659" opacity="0.45">
									<path id="Path_593"
										  d="M255.278,435.171a2.352,2.352,0,1,1-2.352-2.352A2.352,2.352,0,0,1,255.278,435.171Z"
										  fill="#8e9db2"/>
								</g>
							</g>
							<g id="Group_661" >
								<path id="Path_594"
									  d="M292.627,435.171a6.4,6.4,0,1,1-6.4-6.4A6.4,6.4,0,0,1,292.627,435.171Z"
									  fill="#717a91"/>
							</g>
							<g id="Group_662" opacity="0.45">
								<path id="Path_595"
									  d="M288.577,435.171a2.352,2.352,0,1,1-2.351-2.352A2.352,2.352,0,0,1,288.577,435.171Z"
									  fill="#8e9db2"/>
							</g>
							<g id="Group_665" >
								<g id="Group_663" >
									<path id="Path_596"
										  d="M339.8,435.171a6.4,6.4,0,1,1-6.4-6.4A6.4,6.4,0,0,1,339.8,435.171Z"
										  fill="#717a91"/>
								</g>
								<g id="Group_664" opacity="0.45">
									<path id="Path_597"
										  d="M335.75,435.171a2.352,2.352,0,1,1-2.351-2.352A2.352,2.352,0,0,1,335.75,435.171Z"
										  fill="#8e9db2"/>
								</g>
							</g>
						</g>
					</g>
				</g>
			</g>
			<g id="Group_677" >
				<g id="Group_670" >
					<path id="Path_598"
						  d="M363.737,209.341l22.887-34.194,7.091,1.477c-5.418,18.251-9,25.472-9,25.472"
						  fill="#ffcbbb"/>
					<path id="Path_599"
						  d="M390.067,182.285l3.648-5.661s6.791-1.563,9.258-2.822a10.206,10.206,0,0,0,4.8-5.378c.527-1.446.3-5.692-.32-5.76-1.46-.16-4.372,5.28-5.735,5.6s-5.785-.012-8.216.306a8,8,0,0,0-5.82,4.37l-3.741,6.786"
						  fill="#ffcbbb"/>
					<path id="Path_600" d="M378.7,185.16l4.019-5.827L393.108,184l-3.3,8.851"
						  fill="#e6e8ef"/>
					<path id="Path_601"
						  d="M295.2,172.971s16.945-7.8,31.872,5.481,25.026,25.615,30.505,29.607l22.487-25.867,12.561,5.9c-3.312,18.734-12.607,48.611-35.353,51.686-24.61,3.328-60.7-27-60.7-27"
						  fill="#b9b5b2"/>
					<line id="Line_26" y1="8.595" x2="7.297" transform="translate(350.275 208.059)"
						  fill="none" stroke="#846a6a" stroke-miterlimit="10" stroke-width="1"/>
				</g>
				<path id="Path_602"
					  d="M386.227,430.759l-1.9,7.306a2.8,2.8,0,0,0,2.712,3.507h22.14a2.41,2.41,0,0,0,2.411-2.41h0a2.411,2.411,0,0,0-1.678-2.3l-15.133-6.106"
					  fill="#173789"/>
				<path id="Path_603"
					  d="M373.466,316.619c-3.535,37.151,12.761,114.14,12.761,114.14s3.873,4.68,8.552,0c0,0,3.926-73.406,8.063-106.409"
					  fill="#ffcbbb"/>
				<path id="Path_604"
					  d="M320.652,273.1l25.407,13.325v.259s51.854-3.48,59.7,15.032c12.278,28.986,14.368,123.27,14.368,123.27H382.172s-14.125-79.193-18.953-84.022-24.743-4.474-61.358-4.474c-41.129,0-21.052-53.029-5.739-57.58"
					  fill="#fca32d"/>
				<path id="Path_605"
					  d="M384.8,424.989s-11.278-81.716-19.568-87.709c-10.122-7.317-57.916-2.537-57.916-2.537"
					  fill="none" stroke="#ce680d" stroke-miterlimit="10" stroke-width="1"/>
				<path id="Path_606"
					  d="M306.647,430.759l-1.9,7.306a2.8,2.8,0,0,0,2.712,3.507H329.6a2.41,2.41,0,0,0,2.411-2.41h0a2.41,2.41,0,0,0-1.678-2.3L315.2,430.759"
					  fill="#173789"/>
				<path id="Path_607"
					  d="M310.334,316.619c-3.535,37.151-3.687,114.14-3.687,114.14s3.873,4.68,8.553,0c0,0,13.32-73.406,17.457-106.409"
					  fill="#ffcbbb"/>
				<g id="Group_671" >
					<path id="Path_608"
						  d="M275.834,284.77s66.651,1.074,75.37,21.269c10.722,24.835-6.951,118.95-6.951,118.95H304.078v-84.2a2.972,2.972,0,0,0-2.908-3.054c-5.564.148-17.978.148-33.741.148-41.129,0-21.052-64.01-5.739-68.56"
						  fill="#ffb548"/>
					<path id="Path_609"
						  d="M275.834,284.77s66.651,1.074,75.37,21.269c2.906,6.731,4.415,18.19,3.639,31.846" fill="none"
						  stroke="#ce680d" stroke-miterlimit="10" stroke-width="1"/>
					<path id="Path_610"
						  d="M309.679,424.989s.407-84.523-1.533-89.038c-2.7-6.274-11.909-3.193-33.274-3.193-41.129,0-24.374-58.883-9.061-63.433"
						  fill="none" stroke="#ed841b" stroke-miterlimit="10" stroke-width="1"/>
					<path id="Path_611" d="M250.227,295.059s21.115.512,24.315-2.687,0-17.7,0-17.7"
						  fill="none" stroke="#ed841b" stroke-miterlimit="10" stroke-width="1"/>
					<path id="Path_612"
						  d="M249.71,297.893s24.106.513,27.759-2.691,0-17.728,0-17.728" fill="none" stroke="#ed841b"
						  stroke-miterlimit="10" stroke-width="1" stroke-dasharray="3 2"/>
				</g>
				<g id="Group_672" >
					<path id="Path_613"
						  d="M245.639,196.79s-5.06,89.9,2.6,89.9,92.826-.259,97.819-.259-6.689-76.879-23.512-93.118c0,0-24.95-27.072-35.944-24.479S245.639,196.79,245.639,196.79Z"
						  fill="#b9b5b2"/>
					<line id="Line_27" x1="10.576" y1="43.351"
						  transform="translate(330.077 194.329)" fill="none" stroke="#846a6a" stroke-miterlimit="10"
						  stroke-width="1"/>
				</g>
				<g id="Group_673" >
					<path id="Path_614"
						  d="M202.556,213.07l-22.888-34.194-7.09,1.477c5.418,18.251,9,25.472,9,25.472" fill="#ffcbbb"/>
					<path id="Path_615"
						  d="M176.225,186.014l-3.647-5.661s-6.792-1.563-9.259-2.822a10.21,10.21,0,0,1-4.8-5.378c-.527-1.446-.3-5.692.32-5.76,1.46-.16,4.373,5.28,5.736,5.6s5.785-.012,8.215.306a8,8,0,0,1,5.82,4.37l3.742,6.786"
						  fill="#ffcbbb"/>
					<path id="Path_616" d="M187.6,188.889l-4.019-5.826-10.394,4.665,3.3,8.851"
						  fill="#e6e8ef"/>
					<path id="Path_617"
						  d="M277.111,173.485s-16.747-11.91-34.043,2.717c-16.119,13.631-26.857,41.142-30.462,41.142-2.5,0-18.011-19.779-27.269-31.885l-11.013,5.887c6.94,21.193,22.072,57.242,44.714,57.242,17.765,0,54.24-41.612,54.24-41.612"
						  fill="#b9b5b2"/>
					<line id="Line_28" y1="22.51" x2="26.993" transform="translate(244.18 212.77)"
						  fill="none" stroke="#846a6a" stroke-miterlimit="10" stroke-width="1"/>
				</g>
				<g id="Group_676" >
					<path id="Path_618" d="M278.723,175.607l16.095,17.243,2.106-19.934"
						  fill="#e6e8ef" stroke="#846a6a" stroke-linejoin="round" stroke-width="1"/>
					<path id="Path_619"
						  d="M291.648,158.2l4.528,9.921s1.823,5.685-5.723,8.26a12.6,12.6,0,0,1-13.342-2.9l-1.194-15.569"
						  fill="#ffcbbb"/>
					<path id="Path_620"
						  d="M276.676,167.814s5.956,7.464,13.777,8.568l-5.681,8.428c-4.6-2.593-10.23-12.654-10.23-12.654Z"
						  fill="#fff"/>
					<path id="Path_621"
						  d="M295.7,166.761a20.1,20.1,0,0,1-5.248,9.621l6.471,4.891c1.487-3.66,1.316-9.359,1.316-9.359Z"
						  fill="#fff"/>
					<path id="Path_622"
						  d="M298.356,142.18s4.274,16.363-2.142,20.5-17.577-2.157-18.22-4.211-3.559-19.523.627-20.833C286.061,135.306,296.172,135.2,298.356,142.18Z"
						  fill="#ffcbbb"/>
					<g id="Group_675" >
						<g id="Group_674" >
							<path id="Path_623"
								  d="M298.218,147.489a.835.835,0,1,1-1-.622A.835.835,0,0,1,298.218,147.489Z"
								  fill="#173789"/>
							<path id="Path_624"
								  d="M296.79,142.612c.282.041,1.538.171,1.272.792-.117.275-.558.268-.8.254a1.927,1.927,0,0,0-.759.033.891.891,0,0,1,.159.255c.075.185-.543.205-.612.205a3.341,3.341,0,0,0-2.111.389A2.79,2.79,0,0,1,296.79,142.612Z"
								  fill="#173789"/>
							<path id="Path_625"
								  d="M287.935,149.753a.834.834,0,1,0,.787-.879A.833.833,0,0,0,287.935,149.753Z"
								  fill="#173789"/>
							<path id="Path_626"
								  d="M285.462,146.449c-.6.324-1.105.763-.97,1.264.108.4.5.3.748.1a4.326,4.326,0,0,1,1.365-.73.923.923,0,0,0-.332.751,3.553,3.553,0,0,0,3.086-3.055,5.947,5.947,0,0,1-1.168.8C287.311,145.989,286.337,145.978,285.462,146.449Z"
								  fill="#173789"/>
						</g>
						<path id="Path_627"
							  d="M294.061,148.465s2.277,5.74,1.465,6.241-3.673.428-3.673.428" fill="none"
							  stroke="#ef977f" stroke-miterlimit="10" stroke-width="1"/>
					</g>
					<path id="Path_628" d="M294.147,163.628a13.1,13.1,0,0,1-12.208-2.053"
						  fill="none" stroke="#ef977f" stroke-miterlimit="10" stroke-width="1"/>
					<path id="Path_629" d="M290.453,159.787s.578-2.531,4.742-2.531" fill="none"
						  stroke="#ef977f" stroke-miterlimit="10" stroke-width="1"/>
					<path id="Path_630"
						  d="M301.975,133.4a3.528,3.528,0,0,0-.726-2.172,3.374,3.374,0,0,0-2.492-.787,15,15,0,0,0-8.817,2.812l2.093-1.82c.552-.481,1.788-1.239,1.193-2.135-.524-.79-2.014-.341-2.773-.35-3.579-.045-7.035,1.234-10.329,2.5a26.215,26.215,0,0,0-4.73,2.191,8.95,8.95,0,0,0-3.486,3.786,10.794,10.794,0,0,0-.734,4.481,54.943,54.943,0,0,0,.879,8.171c.468,2.953,1.177,8.775,5.144,9.128a3.257,3.257,0,0,0,2.236-.337,2.825,2.825,0,0,0,.926-2.016,10.3,10.3,0,0,0-.233-3.694c.744.4,1.446,1.076,2.28.955a.8.8,0,0,0,.654-.453,1.132,1.132,0,0,0,.025-.525c-.31-2.828-.48-5.641-.661-8.481q6.09-1.287,12.247-2.216c1.82-.275,3.747-.57,5.159-1.75C301.851,138.991,302.2,136.02,301.975,133.4Z"
						  fill="#173789"/>
					<path id="Path_631"
						  d="M281,154.244c-.675-1.664-1.852-3.67-3.7-2.54a3.614,3.614,0,0,0-1.27,2.078c-.845,2.748,1.126,6.985,3.824,6.594,1.315-.192,2.044-1.752,2.58-3.039"
						  fill="#ffcbbb"/>
				</g>
			</g>
		</g>
		<g id="Group_679" >
			<path id="Path_632"
				  d="M526.154,332.892a33.154,33.154,0,0,1,10.283-23.863,32.812,32.812,0,0,1,11.136-6.855c2.322-.856,13.449-1.7,13.449-1.7s-1.3,8.491-3.512,12.77c-5.167,9.977-15.386,18.364-31.356,19.643"
				  fill="#8ebca2"/>
			<path id="Path_633"
				  d="M558.879,358.236a27.08,27.08,0,0,1,34.526-6.34.589.589,0,0,1,.143,1.081,25.163,25.163,0,0,1-20.913,8.141,90.026,90.026,0,0,1-13.756-2.882"
				  fill="#a2ccb6"/>
			<path id="Path_634"
				  d="M567.82,344.692c.008-7.766,2.59-14.737,7.149-19.3a21.48,21.48,0,0,1,17.991-5.859.967.967,0,0,1,.661.278,1.256,1.256,0,0,1,.214.894c-.4,9.35-5.084,17.091-12.234,20.2a70.461,70.461,0,0,1-13.781,3.788"
				  fill="#8ebca2"/>
			<path id="Path_635"
				  d="M579.878,330.8a65.439,65.439,0,0,1,11.1-13.462,27.687,27.687,0,0,1,5.607-4.217c6.689-3.593,14.941-2.48,22.133-.047-2.86,5.433-6.591,10.75-12.078,13.5a33.224,33.224,0,0,1-7.743,2.468c-5.262,1.171-13.668,1.057-19.014,1.754"
				  fill="#a2ccb6"/>
			<path id="Path_636"
				  d="M576.054,317.832c-13.382-7.01-15.358-21.63-15.7-27.038-.212-3.388.009-7.156,2.832-9.6,16.582,5.837,20.815,17.062,12.864,36.633"
				  fill="#8ebca2"/>
			<path id="Path_637"
				  d="M518.388,315.724c1.038-7.121,2-14.771-1.242-21.2a25.477,25.477,0,0,0-4.612-6.177c-4.352-4.48-10.046-8.183-16.291-8.193a28.473,28.473,0,0,0,19.339,31.823"
				  fill="#8ebca2"/>
			<path id="Path_638"
				  d="M557.307,362.3a28.912,28.912,0,0,1-17.641-38.261.921.921,0,0,1,1.572-.556c11.543,6.634,19.441,25.937,16.069,38.817"
				  fill="#a2ccb6"/>
			<path id="Path_639"
				  d="M525.94,322.968a28.285,28.285,0,0,1,13.021-33.989c2.349-1.3,4.9-2.282,6.987-3.976a65.212,65.212,0,0,1,1.419,9.51,27.87,27.87,0,0,1-.606,9.451c-2.171,7.909-9.461,13.286-16.783,16.979"
				  fill="#a2ccb6"/>
			<path id="Path_640"
				  d="M516.27,321.768c-12.017,1.456-26.815-3.394-33.238-14.714,20.548-10.444,33.238,5.534,33.238,14.714"
				  fill="#a2ccb6"/>
			<path id="Path_641"
				  d="M523.282,348.582c-2.7-9.229-9.787-16.8-18.33-19.565a26.239,26.239,0,0,0-25.2,5.471,1.014,1.014,0,0,0-.286,1.617c4.592,6.641,11.92,10.562,19.414,12.215s15.231,1.258,22.86.687"
				  fill="#a2ccb6"/>
			<path id="Path_642"
				  d="M507.933,299.272c7.323,6.981,11.459,16.636,14.547,26.27,8.136,25.377,10.27,52.226,12.351,78.793"
				  fill="none" stroke="#597f6e" stroke-miterlimit="10" stroke-width="1"/>
			<path id="Path_643"
				  d="M529.718,356.448a33.2,33.2,0,0,0-12.294-11.23,72.97,72.97,0,0,0-36.284-9.052" fill="none"
				  stroke="#597f6e" stroke-miterlimit="10" stroke-width="1"/>
			<path id="Path_644"
				  d="M526.181,338.781c-.375-7.393-.917-14.19.324-20.737a39.924,39.924,0,0,1,7.968-18.1" fill="none"
				  stroke="#597f6e" stroke-miterlimit="10" stroke-width="1"/>
			<path id="Path_645" d="M498.406,310.868c7.944.644,17.864,10.9,24.876,17.244"
				  fill="none" stroke="#597f6e" stroke-miterlimit="10" stroke-width="1"/>
			<path id="Path_646" d="M552.443,379.852c4.408-29.185,26.518-54.965,54.692-63.768"
				  fill="none" stroke="#597f6e" stroke-miterlimit="10" stroke-width="1"/>
			<path id="Path_647" d="M569.057,292.418c6.591,13.294,10.705,32.186,2.563,47.052"
				  fill="none" stroke="#597f6e" stroke-miterlimit="10" stroke-width="1"/>
			<path id="Path_648"
				  d="M578.031,370.187V381.9c0,46.455-12.231,59.669-12.231,59.669H527.926s-12.232-13.214-12.232-59.669V370.187Z"
				  fill="#f2f5f9"/>
		</g>
		<g id="Group_693" >
			<g id="Group_680" >
				<line id="Line_29" y1="153.988" x2="32.116" transform="translate(171.352 287.584)"
					  fill="none" stroke="#544943" stroke-miterlimit="10" stroke-width="1.5"/>
				<line id="Line_30" x1="32.116" y1="153.988" transform="translate(203.468 287.584)"
					  fill="none" stroke="#544943" stroke-miterlimit="10" stroke-width="1.5"/>
			</g>
			<g id="Group_681" >
				<line id="Line_31" y1="153.988" x2="32.116" transform="translate(495.725 287.584)"
					  fill="none" stroke="#544943" stroke-miterlimit="10" stroke-width="1.5"/>
				<line id="Line_32" x1="32.116" y1="153.988" transform="translate(527.841 287.584)"
					  fill="none" stroke="#544943" stroke-miterlimit="10" stroke-width="1.5"/>
			</g>
			<rect id="Rectangle_77" width="383.624" height="9.213"
				  transform="translate(172.391 278.371)" fill="#e7eaf2"/>
			<g id="Group_684" >
				<path id="Path_649"
					  d="M537.525,260.81H401.959a3.887,3.887,0,0,1-3.827-4.567l15.577-87.613a5.814,5.814,0,0,1,5.725-4.8H555a3.886,3.886,0,0,1,3.827,4.566L543.25,256.013A5.815,5.815,0,0,1,537.525,260.81Z"
					  fill="#475577"/>
				<path id="Path_650"
					  d="M540.675,260.81H405.109a3.886,3.886,0,0,1-3.826-4.567l15.576-87.613a5.814,5.814,0,0,1,5.725-4.8H558.15a3.886,3.886,0,0,1,3.827,4.566L546.4,256.013A5.815,5.815,0,0,1,540.675,260.81Z"
					  fill="#c0ccd8"/>
				<path id="Path_651"
					  d="M515.733,260.81h-78.3a2.244,2.244,0,0,1-2.21-2.638l9-50.6a3.358,3.358,0,0,1,3.307-2.77h78.3a2.245,2.245,0,0,1,2.21,2.637l-9,50.6A3.358,3.358,0,0,1,515.733,260.81Z"
					  fill="#8e9db2" opacity="0.45"/>
				<path id="Path_652"
					  d="M517.608,260.81h-78.3a2.244,2.244,0,0,1-2.21-2.638l9-50.6a3.357,3.357,0,0,1,3.306-2.77h78.3a2.244,2.244,0,0,1,2.21,2.637l-9,50.6A3.359,3.359,0,0,1,517.608,260.81Z"
					  fill="#c6d2e0"/>
				<rect id="Rectangle_78" width="31.777" height="29.761"
					  transform="translate(468.475 231.049)" fill="#8e9db2"/>
				<path id="Path_653"
					  d="M498.433,231.049H468.475V239.6l8.179,33.94h31.8Zm-7.691,33.434c-3.561,0-7.326-4.153-8.409-9.276s.925-9.277,4.486-9.277,7.327,4.153,8.41,9.277S494.3,264.483,490.742,264.483Z"
					  fill="#475577"/>
				<path id="Path_654"
					  d="M450.95,273.538h71.185v4.833H446.116A4.833,4.833,0,0,1,450.95,273.538Z" fill="#475577"/>
				<rect id="Rectangle_79" width="56.909" height="4.834"
					  transform="translate(465.225 273.538)" fill="#c0ccd8"/>
				<path id="Path_655"
					  d="M500.271,231.049h-31.8l10.018,42.489h31.8Zm-7.8,33.434c-3.562,0-7.327-4.153-8.41-9.276s.925-9.277,4.487-9.277,7.326,4.153,8.409,9.277S496.028,264.483,492.467,264.483Z"
					  fill="#c0ccd8"/>
				<g id="Group_682" opacity="0.65">
					<path id="Path_656" d="M426.021,172.461l-1.883,10.59h1.883l1.883-10.59Z"
						  fill="#8e9db2"/>
					<path id="Path_657" d="M431.471,172.461l-1.883,10.59h1.883l1.883-10.59Z"
						  fill="#8e9db2"/>
					<path id="Path_658" d="M436.921,172.461l-1.883,10.59h1.883l1.883-10.59Z"
						  fill="#8e9db2"/>
					<path id="Path_659" d="M442.371,172.461l-1.883,10.59h1.883l1.883-10.59Z"
						  fill="#8e9db2"/>
					<path id="Path_660" d="M447.821,172.461l-1.883,10.59h1.883l1.883-10.59Z"
						  fill="#8e9db2"/>
				</g>
				<g id="Group_683" opacity="0.65">
					<path id="Path_661" d="M497.551,172.461l-1.883,10.59h1.883l1.883-10.59Z"
						  fill="#8e9db2"/>
					<path id="Path_662" d="M503.278,172.461l-1.883,10.59h1.883l1.883-10.59Z"
						  fill="#8e9db2"/>
					<path id="Path_663" d="M509,172.461l-1.883,10.59H509l1.883-10.59Z"
						  fill="#8e9db2"/>
					<path id="Path_664" d="M514.732,172.461l-1.883,10.59h1.883l1.883-10.59Z"
						  fill="#8e9db2"/>
					<path id="Path_665" d="M520.459,172.461l-1.883,10.59h1.883l1.883-10.59Z"
						  fill="#8e9db2"/>
					<path id="Path_666" d="M526.186,172.461l-1.883,10.59h1.883l1.883-10.59Z"
						  fill="#8e9db2"/>
					<path id="Path_667" d="M531.913,172.461l-1.883,10.59h1.883l1.883-10.59Z"
						  fill="#8e9db2"/>
					<path id="Path_668" d="M537.64,172.461l-1.883,10.59h1.883l1.883-10.59Z"
						  fill="#8e9db2"/>
					<path id="Path_669" d="M543.367,172.461l-1.883,10.59h1.883l1.883-10.59Z"
						  fill="#8e9db2"/>
					<path id="Path_670" d="M549.094,172.461l-1.883,10.59h1.883l1.883-10.59Z"
						  fill="#8e9db2"/>
				</g>
			</g>
			<g id="Group_687" >
				<path id="Path_671"
					  d="M280.451,254.364a2.286,2.286,0,0,0,1.244-.663c.743-1.032-.487-2.125-1.288-2.636-1.026-.655-2.44-.879-2.937-2.142-.561-1.424.41-3,1.584-3.775a15.89,15.89,0,0,1,3.258-1.4,6.312,6.312,0,0,0,3.212-2.368c.9-1.446.722-3.31.841-4.941.464-6.382,6.987-9.546,12.485-9.676,2.747-.065,6.945.919,8.772,3.055a5.44,5.44,0,0,1,1.254,2.5,4.535,4.535,0,0,1-1.222,3.845c-.941,1.08-2.239,1.708-3.269,2.679-1.066,1-.307,2.062-.55,3.258-.271,1.331-1.163,1.9-2.319,2.543-2.439,1.36-5.309,1.7-7.963,2.438a6.387,6.387,0,0,0-2.329,1.048,12.812,12.812,0,0,0-2.015,2.641,8.328,8.328,0,0,1-5,3.2"
					  opacity="0.55" fill="url(#linear-gradient)"/>
				<g id="Group_686" >
					<g id="Group_685" >
						<path id="Path_672"
							  d="M295.74,270.43h-5.214v-2.486h5.214a3.049,3.049,0,0,0,3.045-3.046v-4.285a3.048,3.048,0,0,0-3.045-3.045h-5.214v-2.486h5.214a5.538,5.538,0,0,1,5.531,5.531V264.9A5.537,5.537,0,0,1,295.74,270.43Z"
							  fill="#e8eaef"/>
					</g>
				</g>
				<path id="Rectangle_80"
					  d="M0,0H21.036a0,0,0,0,1,0,0V19.29a6.124,6.124,0,0,1-6.124,6.124H6.124A6.124,6.124,0,0,1,0,19.29V0A0,0,0,0,1,0,0Z"
					  transform="translate(273.399 251.559)" fill="#e8eaef"/>
				<path id="Path_673"
					  d="M269.994,273.424s.2,4.947,7.893,4.947h12.059c7.689,0,7.893-4.947,7.893-4.947Z" fill="#c6d2e0"/>
			</g>
			<g id="Group_692" >
				<g id="Group_689" >
					<g id="Group_688" >
						<rect id="Rectangle_81" width="111.28" height="1.978"
							  transform="translate(327.751 276.393)" fill="#475577"/>
						<rect id="Rectangle_82" width="7.975" height="1.595"
							  transform="translate(331.556 274.798)" fill="#475577"/>
						<rect id="Rectangle_83" width="7.975" height="1.595"
							  transform="translate(343.628 274.798)" fill="#475577"/>
						<rect id="Rectangle_84" width="7.975" height="1.595"
							  transform="translate(355.699 274.798)" fill="#475577"/>
						<rect id="Rectangle_85" width="7.975" height="1.595"
							  transform="translate(367.77 274.798)" fill="#475577"/>
						<rect id="Rectangle_86" width="7.975" height="1.595"
							  transform="translate(379.841 274.798)" fill="#475577"/>
						<rect id="Rectangle_87" width="7.975" height="1.595"
							  transform="translate(391.912 274.798)" fill="#475577"/>
						<rect id="Rectangle_88" width="7.975" height="1.595"
							  transform="translate(403.984 274.798)" fill="#475577"/>
						<rect id="Rectangle_89" width="7.975" height="1.595"
							  transform="translate(416.055 274.798)" fill="#475577"/>
						<rect id="Rectangle_90" width="7.975" height="1.595"
							  transform="translate(428.126 274.798)" fill="#475577"/>
					</g>
				</g>
				<g id="Group_691" >
					<g id="Group_690" >
						<rect id="Rectangle_91" width="111.28" height="1.978"
							  transform="translate(329.208 276.393)" fill="#c0ccd8"/>
						<rect id="Rectangle_92" width="7.975" height="1.595"
							  transform="translate(333.013 274.798)" fill="#c0ccd8"/>
						<rect id="Rectangle_93" width="7.975" height="1.595"
							  transform="translate(345.084 274.798)" fill="#c0ccd8"/>
						<rect id="Rectangle_94" width="7.975" height="1.595"
							  transform="translate(357.155 274.798)" fill="#c0ccd8"/>
						<rect id="Rectangle_95" width="7.975" height="1.595"
							  transform="translate(369.226 274.798)" fill="#c0ccd8"/>
						<rect id="Rectangle_96" width="7.975" height="1.595"
							  transform="translate(381.297 274.798)" fill="#c0ccd8"/>
						<rect id="Rectangle_97" width="7.975" height="1.595"
							  transform="translate(393.369 274.798)" fill="#c0ccd8"/>
						<rect id="Rectangle_98" width="7.975" height="1.595"
							  transform="translate(405.44 274.798)" fill="#c0ccd8"/>
						<rect id="Rectangle_99" width="7.975" height="1.595"
							  transform="translate(417.511 274.798)" fill="#c0ccd8"/>
						<rect id="Rectangle_100" width="7.975" height="1.595"
							  transform="translate(429.582 274.798)" fill="#c0ccd8"/>
					</g>
				</g>
			</g>
		</g>
		<g id="Group_694" >
			<path id="Path_674"
				  d="M170.861,353.02A24.293,24.293,0,0,0,157.2,324.9c-2.107-.94-4.366-1.59-6.274-2.886a55.97,55.97,0,0,0-.511,8.243,23.974,23.974,0,0,0,1.218,8.044c2.444,6.607,9.08,10.669,15.62,13.287"
				  fill="#8ebca2"/>
			<path id="Path_675"
				  d="M171.549,370.737c-.226-6.355.01-16.379-1.536-21.89a34.291,34.291,0,0,0-8.159-14.9" fill="none"
				  stroke="#597f6e" stroke-miterlimit="10" stroke-width="1"/>
			<path id="Path_676"
				  d="M155.316,387.507a28.478,28.478,0,0,0-11.362-19.21,28.159,28.159,0,0,0-10.235-4.627c-2.072-.477-11.644.021-11.644.021s2.03,7.094,4.385,10.5c5.489,7.937,15.11,13.969,28.856,13.318"
				  fill="#8ebca2"/>
			<path id="Path_677"
				  d="M146.945,363.065a53.322,53.322,0,0,0-2.5-13.514,22.229,22.229,0,0,0-2.208-5.038c-3.158-5.016-9.074-7.362-14.763-8.395-.07,4.843.485,9.934,3.146,13.915a25.788,25.788,0,0,0,4.271,4.633c3.087,2.8,8.742,5.9,12.058,8.4"
				  fill="#a2ccb6"/>
			<path id="Path_678"
				  d="M179.25,346.338c-.891-6.117-1.716-12.687,1.067-18.208a21.877,21.877,0,0,1,3.962-5.3c3.738-3.848,8.629-7.029,13.993-7.038a24.709,24.709,0,0,1-3.217,16.76c-3.018,4.966-10.275,12.008-15.8,13.791"
				  fill="#a2ccb6"/>
			<path id="Path_679"
				  d="M169.422,381.879A21.352,21.352,0,0,0,194.89,364a.68.68,0,0,0-.8-.939c-9.833-.05-22.042,9.34-24.671,18.814"
				  fill="#a2ccb6"/>
			<path id="Path_680"
				  d="M149.191,359.761c8.1-4.56,13.307-13.7,13.46-23.623-5.848-.325-10.25,3.274-12.8,6.376-3.547,4.318-3.846,11.907-.663,17.247"
				  fill="#a2ccb6"/>
			<path id="Path_681"
				  d="M155.078,375.783A17.887,17.887,0,0,1,171.6,351.23a.773.773,0,0,1,.66.218.755.755,0,0,1,.1.412c.223,4.977-1.967,9.827-5.1,13.7s-7.18,6.89-11.234,9.785"
				  fill="#a2ccb6"/>
			<path id="Path_682"
				  d="M188.23,332.206c-6.29,6-9.842,14.29-12.495,22.565-6.988,21.8-8.822,44.86-10.609,67.68" fill="none"
				  stroke="#597f6e" stroke-miterlimit="10" stroke-width="1"/>
			<path id="Path_683" d="M154.824,384.353a33.727,33.727,0,0,1,1.819-13.992" fill="none"
				  stroke="#597f6e" stroke-miterlimit="10" stroke-width="1"/>
			<path id="Path_684" d="M155.78,343.037c-5.107,4.558-8.078,16.954-5.366,26.062"
				  fill="none" stroke="#597f6e" stroke-miterlimit="10" stroke-width="1"/>
			<path id="Path_685" d="M157.914,412.536c-.249-20.952-5.125-47.082-20.711-63.843"
				  fill="none" stroke="#597f6e" stroke-miterlimit="10" stroke-width="1"/>
			<path id="Path_686"
				  d="M191.188,392.877v7.992c0,31.689-10.506,40.7-10.506,40.7H148.149s-10.506-9.014-10.506-40.7v-7.992Z"
				  fill="#f2f5f9"/>
		</g>
		<line id="Line_33" x2="510.445" transform="translate(119.777 441.572)" fill="none"
			  stroke="#475577" stroke-miterlimit="10" stroke-width="2"/>
	</g>
</svg>
