<svg id="Group_4136" data-name="Group 4136" xmlns="http://www.w3.org/2000/svg" width="30" height="32" viewBox="0 0 30 32">
  <rect id="BG" width="30" height="32" rx="8" fill="#9be43b" opacity="0.1"/>
  <g id="cart-cross-fill-svgrepo-com" transform="translate(6.168 6.615)">
    <path id="Path_1427" data-name="Path 1427" d="M6.612,10.43a.688.688,0,0,1,.6-.357h4.722a1.37,1.37,0,0,0,1.2-.709L15.47,5.137a.682.682,0,0,0,.077-.433.688.688,0,0,0-.491-1.171H4.729q-.034,0-.067,0l-.117-.248A1.377,1.377,0,0,0,3.3,2.5H2.609a.688.688,0,1,0,0,1.377h.155a.843.843,0,0,1,.762.482L5.473,8.464a1.377,1.377,0,0,1-.039,1.257l-.587,1.062a1.379,1.379,0,0,0,1.2,2.045h7.573a.688.688,0,0,0,0-1.377H7.215A.688.688,0,0,1,6.612,10.43Z" transform="translate(0)" fill="#9be43b"/>
    <path id="Path_1428" data-name="Path 1428" d="M7.3,18.5a1.377,1.377,0,1,0,1.377,1.377A1.375,1.375,0,0,0,7.3,18.5Z" transform="translate(-1.249 -4.984)" fill="#9be43b"/>
    <path id="Path_1429" data-name="Path 1429" d="M17.3,18.5a1.377,1.377,0,1,0,1.377,1.377A1.375,1.375,0,0,0,17.3,18.5Z" transform="translate(-4.364 -4.984)" fill="#9be43b"/>
    <path id="Path_1430" data-name="Path 1430" d="M13.18,9.536l.487-.487-.73-.73.73-.73L13.18,7.1l-.73.73-.73-.73-.487.487.73.73-.73.73.487.487.73-.73Z" transform="translate(-2.901 -1.434)" fill="#f5fbe8"/>
  </g>
</svg>
