<svg id="Group_4134" data-name="Group 4134" xmlns="http://www.w3.org/2000/svg" width="30" height="32" viewBox="0 0 30 32">
  <rect id="BG" width="30" height="32" rx="8" fill="#9be43b" opacity="0.1"/>
  <g id="rocket-svgrepo-com" transform="translate(9.483 -0.195) rotate(30)">
    <g id="Group_4137" data-name="Group 4137" transform="matrix(0.966, 0.259, -0.259, 0.966, 10.998, 0.894)">
      <path id="Path_1431" data-name="Path 1431" d="M14.3,10.455V8.414A12.7,12.7,0,0,0,11.572.163a.459.459,0,0,0-.7,0A12.566,12.566,0,0,0,8.09,8.414v2.041l-.377.254a2.637,2.637,0,0,0-1.162,2.186V15.33a.394.394,0,0,0,.207.346.39.39,0,0,0,.4-.02l1.224-.815a2.1,2.1,0,0,1,1.16-.351h.9v1.18a.393.393,0,0,0,.392.393h.721a.393.393,0,0,0,.392-.393V14.49h.9a2.088,2.088,0,0,1,1.161.351l1.223.815a.39.39,0,0,0,.4.02.394.394,0,0,0,.207-.346V12.895a2.641,2.641,0,0,0-1.162-2.186ZM11.2,7.258A1.354,1.354,0,1,1,12.55,5.9,1.354,1.354,0,0,1,11.2,7.258Z" transform="translate(-6.551 0)" fill="#9be43b"/>
    </g>
  </g>
</svg>
