<svg xmlns="http://www.w3.org/2000/svg" width="40" height="40" viewBox="0 0 40 40">
  <g transform="translate(12 12)">
    <rect width="40" height="40" rx="8" transform="translate(-12 -12)" fill="#f0f6e9"/>
    <path d="M50.162,6762.851a.771.771,0,0,1,.77-.77h3.851a1.543,1.543,0,0,1,1.54,1.54v3.852a.77.77,0,1,1-1.54,0v-1.833a.385.385,0,0,0-.658-.27L51.8,6767.7a.769.769,0,0,1-1.089-1.087l2.33-2.333a.384.384,0,0,0-.272-.655H50.932a.772.772,0,0,1-.77-.771Zm-4.621-1.54a.772.772,0,0,1,.77-.771H57.094a.772.772,0,0,1,.77.771v10.783a.772.772,0,0,1-.77.771H50.932a.772.772,0,0,1-.77-.771v-2.311a1.542,1.542,0,0,0-1.54-1.54H46.311a.772.772,0,0,1-.77-.771Zm13.864-.771a1.543,1.543,0,0,0-1.54-1.54H45.54a1.543,1.543,0,0,0-1.54,1.54v12.324a1.542,1.542,0,0,0,1.54,1.54H57.864a1.542,1.542,0,0,0,1.54-1.54Z" transform="translate(-44 -6759)" fill="#71a926" fill-rule="evenodd"/>
  </g>
</svg>
