<svg id="Group_4136" data-name="Group 4136" xmlns="http://www.w3.org/2000/svg" width="30" height="32" viewBox="0 0 30 32">
  <rect id="BG" width="30" height="32" rx="8" fill="#9be43b" opacity="0.1"/>
  <path id="price-tag-svgrepo-com_1_" data-name="price-tag-svgrepo-com (1)" d="M15.149,2H10.8a.724.724,0,0,0-.507.21L2.838,9.64a1.448,1.448,0,0,0,0,2.049l4.07,4.07a1.448,1.448,0,0,0,1.021.427h0a1.448,1.448,0,0,0,1.028-.427L16.388,8.3a.724.724,0,0,0,.21-.507V3.448A1.448,1.448,0,0,0,15.149,2ZM12.615,7.069A1.086,1.086,0,1,1,13.7,5.983,1.086,1.086,0,0,1,12.615,7.069Z" transform="translate(5.495 8.906)" fill="#9be43b"/>
</svg>
