<svg xmlns="http://www.w3.org/2000/svg" width="40" height="40" viewBox="0 0 40 40">
  <g transform="translate(10.32 10.445)">
    <rect width="40" height="40" rx="8" transform="translate(-10.32 -10.445)" fill="#f0f6e9"/>
    <path d="M5.511,2h9.066a1.516,1.516,0,0,1,1.511,1.511V6.019a.758.758,0,0,1-.756.756H4.756A.758.758,0,0,1,4,6.019V3.511A1.516,1.516,0,0,1,5.511,2Z" fill="#71a926"/>
    <path d="M4,10.076v1.179a2.255,2.255,0,0,0,1.156,1.972l2.236,1.262A1.506,1.506,0,0,1,8.163,15.8v1.587A1.516,1.516,0,0,0,9.674,18.9h.756a1.516,1.516,0,0,0,1.511-1.511V15.8a1.506,1.506,0,0,1,.771-1.315l2.236-1.262A2.271,2.271,0,0,0,16.1,11.254V10.076a.758.758,0,0,0-.756-.756H4.756A.753.753,0,0,0,4,10.076Z" transform="translate(0 -1.79)" fill="#71a926"/>
  </g>
</svg>
