<svg id="Group_4136" data-name="Group 4136" xmlns="http://www.w3.org/2000/svg" width="30" height="32" viewBox="0 0 30 32">
  <rect id="BG" width="30" height="32" rx="8" fill="#9be43b" opacity="0.1"/>
  <path id="envelope-fill-svgrepo-com" d="M9.717,14.515a1.165,1.165,0,0,0,.844-.432l5.972-5.91a2.039,2.039,0,0,0-1.407-.364H4.074a1.7,1.7,0,0,0-1.208.336l6.006,5.938A1.2,1.2,0,0,0,9.717,14.515ZM2.3,18.531l4.853-4.8-4.867-4.8a2.263,2.263,0,0,0-.158,1v7.578A2.224,2.224,0,0,0,2.3,18.531Zm14.827-.007a2.372,2.372,0,0,0,.158-1.016V9.93a2.2,2.2,0,0,0-.151-.975l-4.846,4.778ZM4.28,19.636H15.332a1.711,1.711,0,0,0,1.2-.329l-4.942-4.9-.46.46a1.978,1.978,0,0,1-1.414.659A1.977,1.977,0,0,1,8.3,14.865l-.46-.46L2.907,19.3A2.125,2.125,0,0,0,4.28,19.636Z" transform="translate(5.45 2.278)" fill="#9be43b"/>
</svg>
