<svg xmlns="http://www.w3.org/2000/svg" width="40" height="40" viewBox="0 0 40 40">
  <g transform="translate(-785.292 -1009.483)">
    <rect width="40" height="40" rx="8" transform="translate(785.292 1009.483)" fill="#71a926" opacity="0.1"/>
    <path d="M5.62,9.24v6.516a.724.724,0,0,1-.724.724H2.724A.724.724,0,0,1,2,15.756V9.24a.724.724,0,0,1,.724-.724H4.9A.724.724,0,0,1,5.62,9.24ZM10.326,4.9H8.154a.724.724,0,0,0-.724.724V15.756a.724.724,0,0,0,.724.724h2.172a.724.724,0,0,0,.724-.724V5.62A.724.724,0,0,0,10.326,4.9ZM15.756,2H13.584a.724.724,0,0,0-.724.724V15.756a.724.724,0,0,0,.724.724h2.172a.724.724,0,0,0,.724-.724V2.724A.724.724,0,0,0,15.756,2Z" transform="translate(796.292 1020.243)" fill="#71a926"/>
  </g>
</svg>
