<svg id="Group_4136" data-name="Group 4136" xmlns="http://www.w3.org/2000/svg" width="30" height="32" viewBox="0 0 30 32">
  <rect id="BG" width="30" height="32" rx="8" fill="#9be43b" opacity="0.1"/>
  <path id="product-service-campaign-svgrepo-com" d="M26.7,30.108a.243.243,0,0,1,.243.221v3.487a.742.742,0,0,1-.7.728H21.277a.742.742,0,0,1-.728-.7V30.356a.243.243,0,0,1,.221-.243h5.945Zm7.16,0a.243.243,0,0,1,.243.221v3.487a.742.742,0,0,1-.7.728H28.438a.742.742,0,0,1-.728-.7V30.356a.243.243,0,0,1,.221-.243h5.945ZM24.8,31.134l-.022.027-1.412,1.533-.638-.619a.187.187,0,0,0-.243-.019l-.022.019-.264.243a.15.15,0,0,0-.017.218l.017.019.905.859a.379.379,0,0,0,.262.109.347.347,0,0,0,.264-.109l.762-.806.153-.163.762-.8a.189.189,0,0,0,.015-.218l-.015-.019-.264-.243A.184.184,0,0,0,24.8,31.134Zm7.16,0-.024.027-1.412,1.533-.641-.619a.182.182,0,0,0-.243-.019l-.022.019-.264.243a.15.15,0,0,0-.017.218l.017.019.905.859a.374.374,0,0,0,.262.109.347.347,0,0,0,.264-.109l.762-.806.153-.163.762-.8a.189.189,0,0,0,.015-.218l-.015-.019-.26-.245a.184.184,0,0,0-.243-.027Zm-5.685-3.5a.728.728,0,0,1,.692.7v.786a.243.243,0,0,1-.2.243H20.288a.243.243,0,0,1-.228-.218v-.767a.728.728,0,0,1,.653-.74h5.581Zm7.638,0a.728.728,0,0,1,.692.7v.786a.243.243,0,0,1-.2.243H27.913a.243.243,0,0,1-.243-.218v-.767a.728.728,0,0,1,.65-.74H33.9Zm-3.64-5.166a.243.243,0,0,1,.243.221V26.18a.742.742,0,0,1-.7.74H24.859a.742.742,0,0,1-.74-.7v-3.5a.243.243,0,0,1,.218-.243h5.947Zm-1.9,1.024-.022.019-1.412,1.533-.628-.621a.184.184,0,0,0-.243-.017l-.022.017-.262.243a.148.148,0,0,0-.017.218l.017.019.9.856a.379.379,0,0,0,.264.109.347.347,0,0,0,.262-.109l.762-.8.155-.163.759-.806a.189.189,0,0,0,.015-.218l-.015-.017-.262-.243a.187.187,0,0,0-.243-.019ZM30.284,20a.742.742,0,0,1,.728.7v.784a.243.243,0,0,1-.221.243h-6.92a.243.243,0,0,1-.243-.221v-.762a.742.742,0,0,1,.7-.728h5.959Z" transform="translate(-12.331 -11.272)" fill="#9be43b"/>
</svg>
