<?xml version="1.0" encoding="utf-8"?>
<!-- Generator: Adobe Illustrator 27.8.1, SVG Export Plug-In . SVG Version: 6.00 Build 0)  -->
<svg version="1.1" id="Layer_1" xmlns="http://www.w3.org/2000/svg" xmlns:xlink="http://www.w3.org/1999/xlink" x="0px" y="0px"
	 viewBox="0 0 512 512" style="enable-background:new 0 0 512 512;" xml:space="preserve">
<path d="M354.5,513.3h-197c-31.8,0-49.3,0-65.5-8.3c-14.4-7.3-25.8-18.8-33.1-33.1c-8.3-16.2-8.3-33.7-8.3-65.5V279.9
	c-9.7-0.3-17.1-1.5-24.6-5.3c-9.5-4.8-17-12.4-21.8-21.8c-5.4-10.7-5.4-21-5.4-38.2v-46.7c0-17.2,0-27.5,5.4-38.2
	c4.8-9.5,12.4-17,21.8-21.8c10.7-5.4,21-5.4,38.2-5.4h30.5c-3.4-8.8-5.2-18.2-5.2-27.9c0-20.2,7.7-39.2,21.8-53.5
	c14-14.2,33.3-22.4,53.1-22.4c37.4,0,69,21,91.7,60.8c22.7-39.8,54.3-60.8,91.7-60.8c19.8,0,39.2,8.2,53.1,22.4
	c14.1,14.3,21.8,33.3,21.8,53.5c0,9.7-1.8,19.1-5.2,27.9h30.5c17.2,0,27.5,0,38.2,5.4c9.5,4.8,17,12.4,21.8,21.8
	c5.4,10.7,5.4,21,5.4,38.2v46.7c0,17.2,0,27.5-5.4,38.2c-4.8,9.5-12.4,17-21.8,21.8c-7.5,3.8-14.9,5-24.6,5.3v126.5
	c0,31.8,0,49.3-8.3,65.5c-7.3,14.4-18.8,25.8-33.2,33.1C403.8,513.3,386.3,513.3,354.5,513.3z M279.9,465.3h74.6
	c23.6,0,37.8,0,43.8-3c5.3-2.7,9.5-6.9,12.2-12.2c3-6,3-20.2,3-43.8V280H280v183.4C280,464.1,280,464.7,279.9,465.3z M98.5,280
	v126.4c0,23.6,0,37.8,3,43.8c2.7,5.3,6.9,9.5,12.2,12.2c6,3,20.2,3,43.8,3h74.6c-0.1-0.6-0.1-1.3-0.1-1.9V280H98.5z M280,232h167.9
	c7,0,14.2,0,16.8-0.5c0.1-0.1,0.2-0.1,0.2-0.2c0.5-2.6,0.5-9.8,0.5-16.8v-46.7c0-7,0-14.2-0.5-16.8c-0.1-0.1-0.1-0.2-0.2-0.2
	c-2.6-0.5-9.8-0.5-16.8-0.5H280V232z M47.3,231.5c2.6,0.5,9.8,0.5,16.8,0.5H232v-81.6H64.1c-7,0-14.2,0-16.8,0.5
	c-0.1,0.1-0.2,0.1-0.2,0.2c-0.5,2.6-0.5,9.8-0.5,16.8v46.7c0,7,0,14.2,0.5,16.8C47.2,231.4,47.3,231.5,47.3,231.5z M464.8,231.8
	C464.8,231.8,464.8,231.8,464.8,231.8C464.8,231.8,464.8,231.8,464.8,231.8z M47.2,231.8C47.2,231.8,47.2,231.8,47.2,231.8
	C47.2,231.8,47.2,231.8,47.2,231.8z M465.1,150.9L465.1,150.9C465.1,150.9,465.1,150.9,465.1,150.9z M46.9,150.9L46.9,150.9
	C46.9,150.9,46.9,150.9,46.9,150.9z M47.2,150.6C47.2,150.6,47.2,150.6,47.2,150.6C47.2,150.6,47.2,150.6,47.2,150.6z M464.8,150.6
	C464.8,150.6,464.8,150.6,464.8,150.6C464.8,150.6,464.8,150.6,464.8,150.6z M288.6,102.4h59.1c7.1,0,13.8-2.8,18.9-8
	c5.1-5.2,8-12.4,8-19.8c0-7.4-2.9-14.6-8-19.8c-5.1-5.2-11.8-8-18.9-8C317,46.7,298.4,77.9,288.6,102.4z M164.3,102.4h59.1
	c-2.2-5.5-4.9-11.5-8.2-17.3c-14-25.5-31.1-38.4-51-38.4c-7.1,0-13.8,2.8-18.9,8c-5.1,5.2-8,12.4-8,19.8c0,7.4,2.9,14.6,8,19.8
	C150.5,99.5,157.2,102.4,164.3,102.4z"/>
</svg>
