<?xml version="1.0" encoding="utf-8"?>
<!-- Generator: Adobe Illustrator 27.8.1, SVG Export Plug-In . SVG Version: 6.00 Build 0)  -->
<svg version="1.1" id="Layer_1" xmlns="http://www.w3.org/2000/svg" xmlns:xlink="http://www.w3.org/1999/xlink" x="0px" y="0px"
	 viewBox="0 0 512 512" style="enable-background:new 0 0 512 512;" xml:space="preserve">
<path d="M506.6,130.8c-4.8-9.4-12.3-16.9-21.7-21.7c-10.6-5.4-20.9-5.4-38-5.4h-30.3c0.1-0.3,0.2-0.5,0.3-0.8
	c3.2-8.5,4.9-17.6,4.9-26.9c0-20.1-7.7-39-21.7-53.2C386.2,8.6,366.9,0.5,347.2,0.5C310,0.5,278.5,21.4,256,61
	c-22.5-39.6-54-60.5-91.2-60.5c-19.7,0-39,8.1-52.9,22.2C98,37,90.3,55.9,90.3,76c0,9.3,1.7,18.4,4.9,26.9c0.1,0.3,0.2,0.5,0.3,0.8
	H65.1c-17.1,0-27.4,0-38,5.4c-9.4,4.8-16.9,12.3-21.7,21.7C0,141.4,0,151.7,0,168.8V206c0,27.9,22.6,50.5,50.5,50.5H232V131
	c0-6.6,2.7-12.6,7-17c4.3-4.3,10.3-7,17-7c13.2,0,24,10.8,24,24v125.5h181.5c27.9,0,50.5-22.6,50.5-50.5v-37.2
	C512,151.7,512,141.4,506.6,130.8z M164.8,103.7c-2.2,0-4.4-0.3-6.4-0.8c-4.6-1.2-8.9-3.6-12.3-7.2c-5.1-5.2-8-12.4-8-19.7
	c0-7.4,2.9-14.6,8-19.8c5-5.1,11.7-8,18.8-8c19.7,0,36.8,12.8,50.7,38.2c3,5.5,5.6,11.1,7.8,16.4c0.1,0.3,0.2,0.5,0.3,0.8H164.8z
	 M366,95.7c-3.5,3.5-7.7,6-12.4,7.2c-2.1,0.5-4.2,0.8-6.4,0.8h-58.8c0.1-0.3,0.2-0.5,0.3-0.8c9.9-24.2,28.3-54.6,58.5-54.6
	c7.1,0,13.8,2.8,18.8,8c5.1,5.2,8,12.4,8,19.8S371.1,90.5,366,95.7z M232,304.5v208h-74c-31.6,0-49.1,0-65.2-8.2
	c-14.3-7.3-25.7-18.7-33-33c-8.2-16.1-8.2-33.6-8.2-65.2V304.5H232z M460.4,304.5v101.6c0,31.6,0,49.1-8.2,65.2
	c-7.3,14.3-18.7,25.7-33,33c-16.1,8.2-33.6,8.2-65.2,8.2h-74v-208H460.4z"/>
</svg>
