<?xml version="1.0" encoding="utf-8"?>
<!-- Generator: Adobe Illustrator 27.8.1, SVG Export Plug-In . SVG Version: 6.00 Build 0)  -->
<svg version="1.1" id="Layer_1" xmlns="http://www.w3.org/2000/svg" xmlns:xlink="http://www.w3.org/1999/xlink" x="0px" y="0px"
	 viewBox="0 0 512 512" style="enable-background:new 0 0 512 512;" xml:space="preserve">
<path d="M354.5,505.3h-197c-31.6,0-47.4,0-61.9-7.4c-12.8-6.5-23.1-16.8-29.7-29.7c-7.4-14.5-7.4-30.4-7.4-61.9V272
	c-13.1-0.1-21.1-0.5-29-4.6c-7.9-4-14.3-10.4-18.3-18.3c-4.6-9-4.6-18.1-4.6-34.6v-46.7c0-16.5,0-25.6,4.6-34.6
	c4-7.9,10.4-14.3,18.3-18.3c9-4.6,18.1-4.6,34.6-4.6h43.3c-6.6-10.7-10.1-23-10.1-35.9c0-18.1,6.9-35.1,19.5-47.9
	c12.5-12.7,29.8-20,47.4-20c35.4,0,65.4,20.8,86.6,60.2c1.8,3.3,3.5,6.7,5,10c1.5-3.3,3.2-6.6,5-10c21.3-39.4,51.3-60.2,86.6-60.2
	c17.7,0,35,7.3,47.4,20c12.6,12.8,19.5,29.8,19.5,47.9c0,12.9-3.5,25.2-10.1,35.9h43.3c16.5,0,25.6,0,34.6,4.6
	c7.9,4,14.3,10.4,18.3,18.3c4.6,9,4.6,18.1,4.6,34.6v46.7c0,16.5,0,25.6-4.6,34.6c-4,7.9-10.4,14.3-18.3,18.3
	c-7.9,4-15.9,4.5-29,4.6v134.4c0,31.6,0,47.4-7.4,61.9c-6.5,12.9-16.8,23.1-29.7,29.7C401.9,505.3,386.1,505.3,354.5,505.3z
	 M268.5,473.3h86c25.6,0,39.7,0,47.4-3.9c6.8-3.5,12.2-8.9,15.7-15.7c3.9-7.7,3.9-21.8,3.9-47.4V272H272v191.4
	C272,467.2,270.7,470.6,268.5,473.3z M90.5,272v134.4c0,25.6,0,39.7,3.9,47.4c3.5,6.8,8.9,12.2,15.7,15.7c7.7,3.9,21.8,3.9,47.4,3.9
	h86c-2.2-2.7-3.5-6.2-3.5-9.9V272H90.5z M272,240h175.9c9.6,0,17.9,0,20.1-1.1c1.9-1,3.4-2.5,4.3-4.3c1.1-2.1,1.1-10.4,1.1-20.1
	v-46.7c0-9.6,0-17.9-1.1-20.1c-1-1.9-2.5-3.4-4.3-4.3c-2.1-1.1-10.4-1.1-20.1-1.1H272V240z M64.1,142.4c-9.6,0-17.9,0-20.1,1.1
	c-1.9,1-3.4,2.5-4.3,4.3c-1.1,2.1-1.1,10.4-1.1,20.1v46.7c0,9.6,0,17.9,1.1,20.1c1,1.9,2.5,3.4,4.3,4.3c2.1,1.1,10.4,1.1,20.1,1.1
	H240v-97.6H64.1z M277.1,110.4h70.6c9.3,0,18-3.7,24.6-10.4c6.6-6.7,10.3-16,10.3-25.5c0-9.5-3.8-18.8-10.3-25.5
	c-6.6-6.7-15.3-10.4-24.6-10.4C307.2,38.7,286,83.7,277.1,110.4z M164.3,110.4h70.6c-9-26.6-30.1-71.7-70.6-71.7
	c-9.3,0-18,3.7-24.6,10.4c-6.6,6.7-10.3,16-10.3,25.5c0,9.5,3.8,18.8,10.3,25.5C146.3,106.7,155.1,110.4,164.3,110.4z"/>
</svg>
