<svg id="Layer_1" data-name="Layer 1" xmlns="http://www.w3.org/2000/svg" viewBox="0 0 16.87 15.89"><path d="M10.37,11.26H17.1v5.57A1.12,1.12,0,0,1,16,17.94h-5.6Zm8.06-3.73v2.65a1.64,1.64,0,0,1,0,.22v.11h-8V7.44H9.62v3.07h-8V10.4a1.8,1.8,0,0,1,0-.22V7.53A1.12,1.12,0,0,1,2.69,6.4h3.4l-.18-.15a2.47,2.47,0,0,1,0-3.47,2.46,2.46,0,0,1,3.48,0A2.91,2.91,0,0,1,10,3.83a2.88,2.88,0,0,1,.61-1.05,2.44,2.44,0,0,1,1.74-.72,2.4,2.4,0,0,1,1.73.72,2.48,2.48,0,0,1,0,3.47l-.18.15H17.3A1.12,1.12,0,0,1,18.43,7.53Zm-5-4.1A1.51,1.51,0,0,0,12.35,3a1.55,1.55,0,0,0-1.09.45,5.33,5.33,0,0,0-.79,2.95A10.91,10.91,0,0,0,12,6.18a3,3,0,0,0,1.42-.58A1.56,1.56,0,0,0,13.43,3.43Zm-4.7,0A1.53,1.53,0,0,0,6.12,4.51,1.54,1.54,0,0,0,6.57,5.6a5.42,5.42,0,0,0,2.95.78A5.36,5.36,0,0,0,8.73,3.43ZM2.9,16.83A1.12,1.12,0,0,0,4,17.94h5.6V11.26H2.9Z" transform="translate(-1.57 -2.06)"/></svg>