<svg id="Layer_1" data-name="Layer 1" xmlns="http://www.w3.org/2000/svg" viewBox="0 0 16.86 15.89"><path d="M17.31,6.4h-3.4a1.29,1.29,0,0,0,.17-.16,2.45,2.45,0,0,0,0-3.47,2.45,2.45,0,0,0-1.73-.72h0a2.47,2.47,0,0,0-1.74.72,2.91,2.91,0,0,0-.61,1,2.91,2.91,0,0,0-.61-1,2.46,2.46,0,0,0-1.74-.71h0a2.4,2.4,0,0,0-1.73.72,2.44,2.44,0,0,0,0,3.46,1.29,1.29,0,0,0,.17.16H2.69A1.12,1.12,0,0,0,1.57,7.52v2.66A1.12,1.12,0,0,0,2.69,11.3H2.9v5.52A1.13,1.13,0,0,0,4,18H16a1.13,1.13,0,0,0,1.12-1.13V11.3h.21a1.12,1.12,0,0,0,1.12-1.12V7.52A1.12,1.12,0,0,0,17.31,6.4Zm-1.13,4.9v5.52A.21.21,0,0,1,16,17H10.46V11.3ZM10.47,6.38a5.51,5.51,0,0,1,.79-3h0A1.5,1.5,0,0,1,12.35,3a1.51,1.51,0,0,1,1.08.44,1.53,1.53,0,0,1,0,2.17A5.39,5.39,0,0,1,10.47,6.38Zm7,1.14v2.66a.2.2,0,0,1-.2.2H10.46V7.32h6.85A.2.2,0,0,1,17.51,7.52Zm-8,3.78V17H4a.21.21,0,0,1-.2-.21V11.3Zm0-4.92a5.39,5.39,0,0,1-3-.79,1.53,1.53,0,0,1,0-2.17,1.55,1.55,0,0,1,2.17,0A5.51,5.51,0,0,1,9.53,6.38Zm0,.94v3.06H2.69a.2.2,0,0,1-.2-.2V7.52a.2.2,0,0,1,.2-.2Z" transform="translate(-1.57 -2.05)"/></svg>