<?xml version="1.0" encoding="utf-8"?>
<!-- Generator: Adobe Illustrator 27.8.1, SVG Export Plug-In . SVG Version: 6.00 Build 0)  -->
<svg version="1.1" id="Layer_1" xmlns="http://www.w3.org/2000/svg" xmlns:xlink="http://www.w3.org/1999/xlink" x="0px" y="0px"
	 viewBox="0 0 512 512" style="enable-background:new 0 0 512 512;" xml:space="preserve">
<path d="M256,477c-3.7,0-6.1-0.6-18.6-7.2c-5.7-3.1-15.1-8.3-27.4-15.8c-19.9-12.1-50-32-80.8-57.6c-34.1-28.4-61.4-57.5-81.1-86.5
	C22.8,272.6,10,235.4,10,199.2C10,120.4,70.8,36,161.4,36c43.4,0,74.2,17.9,94.6,36.7C276.4,53.9,307.2,36,350.6,36
	C441.2,36,502,120.4,502,199.2c0,36.1-12.8,73.3-38.1,110.6c-19.7,29-47,58.1-81.1,86.5C352,422,321.9,441.8,302,454
	c-12.3,7.5-21.7,12.7-27.4,15.8C262.1,476.4,259.7,477,256,477z M161.4,68C90,68,42,135.9,42,199.2C42,266.1,98,327.9,145,367.9
	c47.2,40.2,95,67.3,111,75.5c16-8.2,63.8-35.3,111-75.5c47-40,103.1-101.8,103.1-168.6C470,135.9,422,68,350.6,68
	c-41,0-67.4,20.8-82.5,38.2c-3,3.5-7.5,5.6-12.1,5.6s-9.1-2-12.1-5.6C228.9,88.8,202.4,68,161.4,68z"/>
</svg>
