<?xml version="1.0" encoding="utf-8"?>
<!-- Generator: Adobe Illustrator 27.8.1, SVG Export Plug-In . SVG Version: 6.00 Build 0)  -->
<svg version="1.1" id="Layer_1" xmlns="http://www.w3.org/2000/svg" xmlns:xlink="http://www.w3.org/1999/xlink" x="0px" y="0px"
	 viewBox="0 0 512 512" style="enable-background:new 0 0 512 512;" xml:space="preserve">
<path d="M225.8,468.2l-2.5-2.3L48.1,303.2C17.4,274.7,0,234.7,0,192.8v-3.3c0-70.4,50-130.8,119.2-144c39.4-7.6,79.7,1.5,111.8,24.1
	c9,6.4,17.4,13.8,25,22.3c4.2-4.8,8.7-9.2,13.5-13.3c3.7-3.2,7.5-6.2,11.5-9l0,0c32.1-22.6,72.4-31.7,111.8-24.2
	C462,58.6,512,119.1,512,189.5v3.3c0,41.9-17.4,81.9-48.1,110.4L288.7,465.9l-2.5,2.3c-8.2,7.6-19,11.9-30.2,11.9
	S234,475.9,225.8,468.2L225.8,468.2z"/>
</svg>
