<?xml version="1.0" encoding="utf-8"?>
<!-- Generator: Adobe Illustrator 27.8.1, SVG Export Plug-In . SVG Version: 6.00 Build 0)  -->
<svg version="1.1" id="Layer_1" xmlns="http://www.w3.org/2000/svg" xmlns:xlink="http://www.w3.org/1999/xlink" x="0px" y="0px"
	 viewBox="0 0 512 512" style="enable-background:new 0 0 512 512;" xml:space="preserve">
<path d="M510,199.2c0,37.8-13.3,76.5-39.5,115.1c-20.1,29.6-47.9,59.3-82.6,88.2c-31.1,25.9-61.6,46-81.7,58.3
	C266.6,485,260.7,485,256,485s-10.6,0-50.2-24.2c-20.1-12.3-50.6-32.4-81.7-58.3c-34.7-28.9-62.5-58.6-82.6-88.2
	C15.2,275.7,2,237,2,199.2C2,157.8,17.7,115.6,45,83.4C75.4,47.7,116.7,28,161.4,28c42.2,0,73.1,16,94.6,34c21.5-18,52.4-34,94.6-34
	c44.7,0,86,19.7,116.4,55.4C494.3,115.6,510,157.8,510,199.2z"/>
</svg>
