<?xml version="1.0" encoding="utf-8"?>
<!-- Generator: Adobe Illustrator 25.2.3, SVG Export Plug-In . SVG Version: 6.00 Build 0)  -->
<svg version="1.1" id="Layer_1" xmlns="http://www.w3.org/2000/svg" xmlns:xlink="http://www.w3.org/1999/xlink" x="0px" y="0px"
	 viewBox="0 0 15.9 15.9" style="enable-background:new 0 0 15.9 15.9;" xml:space="preserve">
<path id="Page-1" d="M2.4,11c1.3,0,2.4,1,2.4,2.3s-1.1,2.3-2.4,2.3S0,14.5,0,13.3S1.1,11,2.4,11L2.4,11z M2.4,12.5
	c-0.4,0-0.8,0.3-0.8,0.8S1.9,14,2.4,14s0.8-0.3,0.8-0.8S2.8,12.5,2.4,12.5L2.4,12.5z M2.4,0.4c1.3,0,2.4,1,2.4,2.3S3.7,4.9,2.4,4.9
	S0,3.9,0,2.7S1.1,0.4,2.4,0.4L2.4,0.4z M2.4,1.9C2,1.9,1.6,2.2,1.6,2.7S2,3.5,2.4,3.5s0.8-0.3,0.8-0.8S2.8,1.9,2.4,1.9L2.4,1.9z
	 M2.4,5.7c1.3,0,2.4,1,2.4,2.3s-1.1,2.3-2.4,2.3S0,9.2,0,8S1.1,5.7,2.4,5.7L2.4,5.7z M2.4,7.2C1.9,7.2,1.6,7.5,1.6,8
	c0,0.4,0.4,0.8,0.8,0.8S3.2,8.4,3.2,8C3.2,7.5,2.8,7.2,2.4,7.2L2.4,7.2z M6.4,14h9.5v-1.5H6.4V14z M6.4,3.4h9.5V1.9H6.4V3.4z
	 M6.4,8.7h9.5V7.2H6.4V8.7z"/>
</svg>
