<?xml version="1.0" encoding="utf-8"?>
<!-- Generator: Adobe Illustrator 27.8.1, SVG Export Plug-In . SVG Version: 6.00 Build 0)  -->
<svg version="1.1" id="Layer_1" xmlns="http://www.w3.org/2000/svg" xmlns:xlink="http://www.w3.org/1999/xlink" x="0px" y="0px"
	 viewBox="0 0 512 512" style="enable-background:new 0 0 512 512;" xml:space="preserve">
<path d="M371.9,407.1H269.2l-2.4,0.2c-8,1-14,7.9-14,16.1c0,9,7.3,16.3,16.3,16.3h102.7l2.4-0.2c3.9-0.6,7.5-2.5,10-5.3
	c2.7-3,4.1-6.8,4.1-10.8C388.1,414.4,380.8,407.1,371.9,407.1z M474.9,304.1h-206c-9,0-16.3,7.3-16.3,16.3c0,9,7.3,16.3,16.3,16.3
	h206c9,0,16.3-7.3,16.3-16.3C491.2,311.4,483.9,304.1,474.9,304.1z M181.9,342.9c-0.8-10.4-5.5-20.2-13.3-27.5
	c-7.8-7.2-17.9-11.2-28.6-11.2H62.9l-3.5,0.1c-10.3,0.8-20,5.5-27.4,13.3c-7.2,7.7-11.2,17.9-11.2,28.6v77.1l0.1,3.5
	c0.9,10.5,5.6,20.2,13.3,27.4c7.8,7.2,17.9,11.2,28.6,11.2H140l3.5-0.1c10.3-0.8,20-5.5,27.4-13.3c7.2-7.7,11.2-17.9,11.2-28.6v-77
	L181.9,342.9z M149.6,432.9H53.4v-96.3h96.2V432.9z M371.9,149.6H269.2l-2.4,0.2c-8,1-14,7.9-14,16.1c0,9,7.3,16.3,16.3,16.3h102.7
	l2.4-0.2c3.8-0.5,7.3-2.4,10-5.3c2.6-3,4.1-6.8,4.1-10.8C388.1,156.9,380.8,149.6,371.9,149.6z M474.9,46.6H269.2l-2.4,0.2
	c-8,1-14,7.9-14,16.1c0,9,7.3,16.3,16.3,16.3h205.7l2.4-0.2c8-1,14-7.9,14-16.1C491.2,53.9,483.9,46.6,474.9,46.6z M140.1,46.6H62.9
	c-23.2,0-42,18.8-42,42v77.3c0,23.2,18.8,42,42,42h77.2c23.2,0,42-18.8,42-42V88.6C182.1,65.4,163.3,46.6,140.1,46.6z M149.6,175.4
	H53.4V79.1h96.2V175.4z"/>
</svg>
