<?xml version="1.0" encoding="utf-8"?>
<!-- Generator: Adobe Illustrator 25.2.3, SVG Export Plug-In . SVG Version: 6.00 Build 0)  -->
<svg version="1.1" id="Layer_1" xmlns="http://www.w3.org/2000/svg" xmlns:xlink="http://www.w3.org/1999/xlink" x="0px" y="0px"
	 viewBox="0 0 15.9 16" style="enable-background:new 0 0 15.9 16;" xml:space="preserve">
<path d="M9.6,8.3H7.2C7,8.3,6.8,8.5,6.8,8.7S7,9.1,7.2,9.1h2.3c0.3,0,0.5-0.2,0.5-0.4S9.8,8.3,9.6,8.3z M12.8,7H7.2
	C7,7,6.8,7.2,6.8,7.4c0,0.2,0.2,0.4,0.4,0.4h5.5c0.3,0,0.5-0.2,0.5-0.4C13.2,7.2,13,7,12.8,7z M4.7,10.6H3.4c-0.4,0-0.7,0.3-0.7,0.7
	v1.3c0,0.4,0.3,0.7,0.7,0.7h1.3c0.4,0,0.7-0.3,0.7-0.7v-1.3C5.4,10.9,5.1,10.6,4.7,10.6z M9.6,12.3H7.2c-0.2,0-0.4,0.2-0.4,0.4
	s0.2,0.4,0.4,0.4h2.3c0.3,0,0.5-0.2,0.5-0.4S9.8,12.3,9.6,12.3z M12.8,11H7.2c-0.2,0-0.4,0.2-0.4,0.4c0,0.2,0.2,0.4,0.4,0.4h5.5
	c0.3,0,0.5-0.2,0.5-0.4C13.2,11.2,13,11,12.8,11z M9.6,4.3H7.2C7,4.3,6.8,4.5,6.8,4.7S7,5.1,7.2,5.1h2.3c0.3,0,0.5-0.2,0.5-0.4
	S9.8,4.3,9.6,4.3z M12.8,3H7.2C7,3,6.8,3.2,6.8,3.4c0,0.2,0.2,0.4,0.4,0.4h5.5c0.3,0,0.5-0.2,0.5-0.4C13.2,3.2,13,3,12.8,3z
	 M7.2,3.8h5.5c0.3,0,0.5-0.2,0.5-0.4C13.2,3.2,13,3,12.8,3H7.2C7,3,6.8,3.2,6.8,3.4C6.8,3.6,7,3.8,7.2,3.8z M12.8,7H7.2
	C7,7,6.8,7.2,6.8,7.4c0,0.2,0.2,0.4,0.4,0.4h5.5c0.3,0,0.5-0.2,0.5-0.4C13.2,7.2,13,7,12.8,7z M12.8,11H7.2c-0.2,0-0.4,0.2-0.4,0.4
	c0,0.2,0.2,0.4,0.4,0.4h5.5c0.3,0,0.5-0.2,0.5-0.4C13.2,11.2,13,11,12.8,11z M7.2,5.1h2.3c0.3,0,0.5-0.2,0.5-0.4S9.8,4.3,9.6,4.3
	H7.2C7,4.3,6.8,4.5,6.8,4.7S7,5.1,7.2,5.1z M7.2,9.1h2.3c0.3,0,0.5-0.2,0.5-0.4S9.8,8.3,9.6,8.3H7.2C7,8.3,6.8,8.5,6.8,8.7
	S7,9.1,7.2,9.1z M9.6,12.3H7.2c-0.2,0-0.4,0.2-0.4,0.4s0.2,0.4,0.4,0.4h2.3c0.3,0,0.5-0.2,0.5-0.4S9.8,12.3,9.6,12.3z M4.7,10.6H3.4
	c-0.4,0-0.7,0.3-0.7,0.7v1.3c0,0.4,0.3,0.7,0.7,0.7h1.3c0.4,0,0.7-0.3,0.7-0.7v-1.3C5.4,10.9,5.1,10.6,4.7,10.6z M13.9,0H2
	C0.9,0,0,1,0,2.1V14c0,1.1,0.9,2,2,2h11.9c1.1,0,2-0.9,2-2V2.1C15.9,1,15,0,13.9,0z M15.1,13.9c0,0.7-0.5,1.2-1.2,1.2H2
	c-0.7,0-1.2-0.5-1.2-1.2V2.1c0-0.7,0.5-1.2,1.2-1.2h11.9V0.8c0.7,0,1.2,0.5,1.2,1.2V13.9z M12.8,3H7.2C7,3,6.8,3.2,6.8,3.4
	c0,0.2,0.2,0.4,0.4,0.4h5.5c0.3,0,0.5-0.2,0.5-0.4C13.2,3.2,13,3,12.8,3z M12.8,7H7.2C7,7,6.8,7.2,6.8,7.4c0,0.2,0.2,0.4,0.4,0.4
	h5.5c0.3,0,0.5-0.2,0.5-0.4C13.2,7.2,13,7,12.8,7z M12.8,11H7.2c-0.2,0-0.4,0.2-0.4,0.4c0,0.2,0.2,0.4,0.4,0.4h5.5
	c0.3,0,0.5-0.2,0.5-0.4C13.2,11.2,13,11,12.8,11z M7.2,5.1h2.3c0.3,0,0.5-0.2,0.5-0.4S9.8,4.3,9.6,4.3H7.2C7,4.3,6.8,4.5,6.8,4.7
	S7,5.1,7.2,5.1z M7.2,9.1h2.3c0.3,0,0.5-0.2,0.5-0.4S9.8,8.3,9.6,8.3H7.2C7,8.3,6.8,8.5,6.8,8.7S7,9.1,7.2,9.1z M9.6,12.3H7.2
	c-0.2,0-0.4,0.2-0.4,0.4s0.2,0.4,0.4,0.4h2.3c0.3,0,0.5-0.2,0.5-0.4S9.8,12.3,9.6,12.3z M4.7,10.6H3.4c-0.4,0-0.7,0.3-0.7,0.7v1.3
	c0,0.4,0.3,0.7,0.7,0.7h1.3c0.4,0,0.7-0.3,0.7-0.7v-1.3C5.4,10.9,5.1,10.6,4.7,10.6z M7.2,3.8h5.5c0.3,0,0.5-0.2,0.5-0.4
	C13.2,3.2,13,3,12.8,3H7.2C7,3,6.8,3.2,6.8,3.4C6.8,3.6,7,3.8,7.2,3.8z M12.8,7H7.2C7,7,6.8,7.2,6.8,7.4c0,0.2,0.2,0.4,0.4,0.4h5.5
	c0.3,0,0.5-0.2,0.5-0.4C13.2,7.2,13,7,12.8,7z M12.8,11H7.2c-0.2,0-0.4,0.2-0.4,0.4c0,0.2,0.2,0.4,0.4,0.4h5.5
	c0.3,0,0.5-0.2,0.5-0.4C13.2,11.2,13,11,12.8,11z M7.2,5.1h2.3c0.3,0,0.5-0.2,0.5-0.4S9.8,4.3,9.6,4.3H7.2C7,4.3,6.8,4.5,6.8,4.7
	S7,5.1,7.2,5.1z M7.2,9.1h2.3c0.3,0,0.5-0.2,0.5-0.4S9.8,8.3,9.6,8.3H7.2C7,8.3,6.8,8.5,6.8,8.7S7,9.1,7.2,9.1z M9.6,12.3H7.2
	c-0.2,0-0.4,0.2-0.4,0.4s0.2,0.4,0.4,0.4h2.3c0.3,0,0.5-0.2,0.5-0.4S9.8,12.3,9.6,12.3z M4.7,10.6H3.4c-0.4,0-0.7,0.3-0.7,0.7v1.3
	c0,0.4,0.3,0.7,0.7,0.7h1.3c0.4,0,0.7-0.3,0.7-0.7v-1.3C5.4,10.9,5.1,10.6,4.7,10.6z M13.9,0.5H2c-0.9,0-1.6,0.7-1.6,1.6V14
	c0,0.9,0.7,1.6,1.6,1.6h11.9c0.9,0,1.6-0.7,1.6-1.6V2.1C15.5,1.2,14.8,0.5,13.9,0.5z M15.1,13.9c0,0.7-0.5,1.2-1.2,1.2H2
	c-0.7,0-1.2-0.5-1.2-1.2V2.1c0-0.7,0.5-1.2,1.2-1.2h11.9V0.8c0.7,0,1.2,0.5,1.2,1.2V13.9z M12.8,3H7.2C7,3,6.8,3.2,6.8,3.4
	c0,0.2,0.2,0.4,0.4,0.4h5.5c0.3,0,0.5-0.2,0.5-0.4C13.2,3.2,13,3,12.8,3z M12.8,7H7.2C7,7,6.8,7.2,6.8,7.4c0,0.2,0.2,0.4,0.4,0.4
	h5.5c0.3,0,0.5-0.2,0.5-0.4C13.2,7.2,13,7,12.8,7z M12.8,11H7.2c-0.2,0-0.4,0.2-0.4,0.4c0,0.2,0.2,0.4,0.4,0.4h5.5
	c0.3,0,0.5-0.2,0.5-0.4C13.2,11.2,13,11,12.8,11z M7.2,5.1h2.3c0.3,0,0.5-0.2,0.5-0.4S9.8,4.3,9.6,4.3H7.2C7,4.3,6.8,4.5,6.8,4.7
	S7,5.1,7.2,5.1z M7.2,9.1h2.3c0.3,0,0.5-0.2,0.5-0.4S9.8,8.3,9.6,8.3H7.2C7,8.3,6.8,8.5,6.8,8.7S7,9.1,7.2,9.1z M9.6,12.3H7.2
	c-0.2,0-0.4,0.2-0.4,0.4s0.2,0.4,0.4,0.4h2.3c0.3,0,0.5-0.2,0.5-0.4S9.8,12.3,9.6,12.3z M4.7,10.6H3.4c-0.4,0-0.7,0.3-0.7,0.7v1.3
	c0,0.4,0.3,0.7,0.7,0.7h1.3c0.4,0,0.7-0.3,0.7-0.7v-1.3C5.4,10.9,5.1,10.6,4.7,10.6z M12.8,3H7.2C7,3,6.8,3.2,6.8,3.4
	c0,0.2,0.2,0.4,0.4,0.4h5.5c0.3,0,0.5-0.2,0.5-0.4C13.2,3.2,13,3,12.8,3z M12.8,7H7.2C7,7,6.8,7.2,6.8,7.4c0,0.2,0.2,0.4,0.4,0.4
	h5.5c0.3,0,0.5-0.2,0.5-0.4C13.2,7.2,13,7,12.8,7z M12.8,11H7.2c-0.2,0-0.4,0.2-0.4,0.4c0,0.2,0.2,0.4,0.4,0.4h5.5
	c0.3,0,0.5-0.2,0.5-0.4C13.2,11.2,13,11,12.8,11z M9.6,4.3H7.2C7,4.3,6.8,4.5,6.8,4.7S7,5.1,7.2,5.1h2.3c0.3,0,0.5-0.2,0.5-0.4
	S9.8,4.3,9.6,4.3z M9.6,8.3H7.2C7,8.3,6.8,8.5,6.8,8.7S7,9.1,7.2,9.1h2.3c0.3,0,0.5-0.2,0.5-0.4S9.8,8.3,9.6,8.3z M9.6,12.3H7.2
	c-0.2,0-0.4,0.2-0.4,0.4s0.2,0.4,0.4,0.4h2.3c0.3,0,0.5-0.2,0.5-0.4S9.8,12.3,9.6,12.3z M4.7,10.6H3.4c-0.4,0-0.7,0.3-0.7,0.7v1.3
	c0,0.4,0.3,0.7,0.7,0.7h1.3c0.4,0,0.7-0.3,0.7-0.7v-1.3C5.4,10.9,5.1,10.6,4.7,10.6z M5.4,7.4v1.3c0,0.3-0.3,0.6-0.7,0.6H3.4
	C3.1,9.3,2.7,9,2.7,8.6V7.4C2.7,7,3,6.7,3.4,6.7h1.3C5.1,6.7,5.4,7,5.4,7.4z M5.4,3.4v1.3c0,0.3-0.3,0.6-0.7,0.6H3.4
	C3.1,5.3,2.7,5,2.7,4.6V3.4C2.7,3,3,2.7,3.4,2.7h1.3C5.1,2.7,5.4,3,5.4,3.4z"/>
</svg>
