<?xml version="1.0" encoding="utf-8"?>
<!-- Generator: Adobe Illustrator 25.2.3, SVG Export Plug-In . SVG Version: 6.00 Build 0)  -->
<svg version="1.1" id="Layer_1" xmlns="http://www.w3.org/2000/svg" xmlns:xlink="http://www.w3.org/1999/xlink" x="0px" y="0px"
	 viewBox="0 0 15.9 15.9" style="enable-background:new 0 0 15.9 15.9;" xml:space="preserve">
<path d="M6.4,1.4V5c0,0.8-0.6,1.4-1.4,1.4H1.4C0.6,6.4,0,5.8,0,5V1.4C0,0.6,0.6,0,1.4,0H5C5.8,0,6.4,0.6,6.4,1.4z M5,9.5H1.4
	C0.6,9.5,0,10.1,0,10.9v3.6c0,0.8,0.6,1.4,1.4,1.4H5c0.8,0,1.4-0.6,1.4-1.4v-3.6C6.4,10.1,5.8,9.5,5,9.5z M14.5,0h-3.6
	c-0.8,0-1.4,0.6-1.4,1.4V5c0,0.8,0.6,1.4,1.4,1.4h3.6c0.8,0,1.4-0.6,1.4-1.4V1.4C15.9,0.6,15.3,0,14.5,0z M15.1,12h-1.7v-1.7
	c0-0.4-0.3-0.7-0.7-0.7c-0.4,0-0.7,0.3-0.7,0.7V12h-1.8c-0.4,0-0.7,0.3-0.7,0.7c0,0.4,0.3,0.7,0.7,0.7H12v1.8c0,0.4,0.3,0.7,0.7,0.7
	c0.4,0,0.7-0.3,0.7-0.7v-1.8h1.7c0.4,0,0.7-0.3,0.7-0.7C15.8,12.3,15.5,12,15.1,12z"/>
</svg>
