<?xml version="1.0" encoding="utf-8"?>
<!-- Generator: Adobe Illustrator 25.2.3, SVG Export Plug-In . SVG Version: 6.00 Build 0)  -->
<svg version="1.1" id="Layer_1" xmlns="http://www.w3.org/2000/svg" xmlns:xlink="http://www.w3.org/1999/xlink" x="0px" y="0px"
	 viewBox="0 0 15.9 16" style="enable-background:new 0 0 15.9 16;" xml:space="preserve">
<path d="M6,3.5V1.2C6,0.5,6.6,0,7.3,0h7.5c0.7,0,1.2,0.5,1.1,1.2v2.3c0,0.7-0.5,1.2-1.2,1.2H7.2C6.5,4.7,6,4.2,6,3.5z M14.7,5.6H7.2
	C6.5,5.6,6,6.1,6,6.8v2.3c0,0.7,0.5,1.2,1.2,1.2h7.5c0.7,0,1.2-0.5,1.2-1.2V6.8C15.9,6.2,15.4,5.6,14.7,5.6z M4.1,11.3H1.2
	c-0.7,0-1.2,0.5-1.2,1.2v2.3C0,15.5,0.5,16,1.2,16H4c0.7,0,1.2-0.5,1.2-1.2v-2.3C5.3,11.8,4.7,11.3,4.1,11.3z M4.1,0H1.2
	C0.5,0,0,0.5,0,1.2v2.3c0,0.7,0.5,1.2,1.2,1.2H4c0.7,0,1.2-0.5,1.2-1.2V1.2C5.3,0.5,4.7,0,4.1,0z M14.7,11.3H7.2
	c-0.7,0-1.2,0.5-1.2,1.2v2.3C6,15.5,6.5,16,7.2,16h7.5c0.7,0,1.2-0.5,1.2-1.2v-2.3C15.9,11.8,15.4,11.3,14.7,11.3z M4.1,5.6H1.2
	C0.5,5.6,0,6.2,0,6.8v2.3c0,0.7,0.5,1.2,1.2,1.2H4c0.7,0,1.2-0.5,1.2-1.2V6.8C5.3,6.2,4.7,5.6,4.1,5.6z"/>
</svg>
