<?xml version="1.0" encoding="utf-8"?>
<!-- Generator: Adobe Illustrator 25.2.3, SVG Export Plug-In . SVG Version: 6.00 Build 0)  -->
<svg version="1.1" id="Layer_1" xmlns="http://www.w3.org/2000/svg" xmlns:xlink="http://www.w3.org/1999/xlink" x="0px" y="0px"
	 viewBox="0 0 15.9 15.9" style="enable-background:new 0 0 15.9 15.9;" xml:space="preserve">
<path d="M12.9,4.2H1c-0.5,0-1-0.4-1-1l0,0c0-0.5,0.4-1,1-1h11.9c0.5,0,1,0.4,1,1l0,0C13.9,3.8,13.5,4.2,12.9,4.2z M6.1,8.8H1
	c-0.5,0-1-0.4-1-1l0,0c0-0.5,0.4-1,1-1h5.2c0.5,0,1,0.4,1,1l0,0C7.1,8.4,6.7,8.8,6.1,8.8z M6.1,13.4H1c-0.5,0-1-0.4-1-1l0,0
	c0-0.5,0.4-1,1-1h5.2c0.5,0,1,0.4,1,1l0,0C7.1,13,6.7,13.4,6.1,13.4z M15.6,7.6c-0.4-0.4-1.1-0.4-1.4,0l-3,3l-1.1-1.1
	C9.9,9.2,9.6,9.1,9.4,9.1c-0.3,0-0.5,0.1-0.7,0.3c-0.4,0.4-0.4,1.1,0,1.4l1.8,1.8l0.1,0.1c0.4,0.4,1,0.3,1.4,0L15.6,9
	c0.2-0.2,0.3-0.5,0.3-0.7C15.9,8,15.8,7.7,15.6,7.6z"/>
</svg>
