<?xml version="1.0" encoding="utf-8"?>
<!-- Generator: Adobe Illustrator 27.8.1, SVG Export Plug-In . SVG Version: 6.00 Build 0)  -->
<svg version="1.1" id="Layer_1" xmlns="http://www.w3.org/2000/svg" xmlns:xlink="http://www.w3.org/1999/xlink" x="0px" y="0px"
	 viewBox="0 0 512 512" style="enable-background:new 0 0 512 512;" xml:space="preserve">
<path d="M476.5,370.3h-58.7v-58.7c0-13.2-10.7-24-24-24c-13.2,0-24,10.8-24,24v58.7h-58.7c-13.2,0-24,10.8-24,24
	c0,13.3,10.8,24,24,24h58.7V477c0,13.2,10.8,24,24,24c13.3,0,24-10.8,24-24v-58.7h58.7c13.2,0,24-10.7,24-24
	C500.5,381.1,489.8,370.3,476.5,370.3z M224.9,355.7v77.2c0,18,0,28.9-5.6,39.9c-5,9.8-12.8,17.6-22.5,22.5c-11,5.6-21.9,5.6-40,5.6
	H79.6c-18,0-28.9,0-39.9-5.6c-9.8-5-17.6-12.8-22.5-22.5c-5.6-11-5.6-21.9-5.6-39.9v-77.2c0-18,0-28.9,5.6-39.9
	c5-9.8,12.8-17.6,22.5-22.5c11-5.6,21.9-5.6,39.9-5.6h77.2c18,0,28.9,0,39.9,5.6c9.8,5,17.6,12.8,22.5,22.5
	C224.9,326.8,224.9,337.7,224.9,355.7z M500.5,80.1v77.2c0,18,0,28.9-5.6,39.9c-5,9.8-12.8,17.6-22.5,22.5
	c-11,5.6-21.9,5.6-39.9,5.6h-77.2c-18,0-28.9,0-39.9-5.6c-9.8-5-17.6-12.8-22.5-22.5c-5.6-11-5.6-21.9-5.6-40V80.1
	c0-18,0-28.9,5.6-39.9c5-9.8,12.8-17.6,22.5-22.5c11-5.6,21.9-5.6,39.9-5.6h77.2c18,0,28.9,0,39.9,5.6c9.8,5,17.6,12.8,22.5,22.5
	C500.5,51.2,500.5,62.1,500.5,80.1z M224.9,80.1v77.2c0,18,0,28.9-5.6,39.9c-5,9.8-12.8,17.6-22.5,22.5c-11,5.6-21.9,5.6-39.9,5.6
	H79.6c-18,0-28.9,0-39.9-5.6c-9.8-5-17.6-12.8-22.5-22.5c-5.6-11-5.6-21.9-5.6-39.9V80.1c0-18,0-28.9,5.6-39.9
	c5-9.8,12.8-17.6,22.5-22.5C50.7,12,61.6,12,79.6,12h77.2c18,0,28.9,0,39.9,5.6c9.8,5,17.6,12.8,22.5,22.5
	C224.9,51.2,224.9,62.1,224.9,80.1z"/>
</svg>
