<?xml version="1.0" encoding="utf-8"?>
<!-- Generator: Adobe Illustrator 27.8.1, SVG Export Plug-In . SVG Version: 6.00 Build 0)  -->
<svg version="1.1" id="Layer_1" xmlns="http://www.w3.org/2000/svg" xmlns:xlink="http://www.w3.org/1999/xlink" x="0px" y="0px"
	 viewBox="0 0 512 512" style="enable-background:new 0 0 512 512;" xml:space="preserve">
<path d="M383.9,480.4H128.1c-28.3,0-43.8,0-58.9-7.1C56,467.1,45,457.1,37.4,444.5c-8.6-14.3-10.1-29.7-12.9-57.9L13.2,274.4
	c-2.6-26.1-4-40.5,2.1-55c5.4-12.7,15-23.3,27.1-29.9c13.8-7.6,28.3-7.6,54.5-7.6H415c26.2,0,40.7,0,54.5,7.6
	c12.1,6.6,21.7,17.3,27.1,29.9c6.2,14.5,4.7,28.9,2.1,55l-11.2,112.2c-2.8,28.1-4.4,43.6-12.9,57.9c-7.6,12.6-18.6,22.6-31.9,28.8
	C427.7,480.4,412.1,480.4,383.9,480.4z M97,229.9c-14.6,0-28.4,0-31.4,1.7c-2.7,1.5-4.8,3.8-6,6.6c-1.4,3.2,0,16.9,1.5,31.5
	l11.2,112.2c2.1,20.5,3.3,32.9,6.3,37.9c2.7,4.4,6.5,8,11.2,10.2c5.3,2.5,17.7,2.5,38.4,2.5h255.8c20.6,0,33.1,0,38.4-2.5
	c4.7-2.2,8.6-5.7,11.2-10.2c3-5,4.3-17.4,6.3-37.9L451,269.6c1.5-14.5,2.8-28.3,1.5-31.5c-1.2-2.8-3.3-5.1-6-6.6
	c-3-1.7-16.8-1.7-31.4-1.7H97z M256,405.3c-55.6,0-99.2-32.6-99.2-74.1c0-41.6,43.6-74.1,99.2-74.1c55.6,0,99.2,32.6,99.2,74.1
	C355.2,372.7,311.6,405.3,256,405.3z M256,305.1c-31.2,0-51.2,15.5-51.2,26.1s19.9,26.1,51.2,26.1c31.2,0,51.2-15.5,51.2-26.1
	S287.2,305.1,256,305.1z M456.4,154.7H55.6c-13.3,0-24-10.7-24-24c0-13.3,10.7-24,24-24h400.9c13.3,0,24,10.7,24,24
	C480.4,144,469.7,154.7,456.4,154.7z M431.4,79.6H80.6c-13.3,0-24-10.7-24-24c0-13.3,10.7-24,24-24h350.8c13.3,0,24,10.7,24,24
	C455.4,68.8,444.6,79.6,431.4,79.6z"/>
</svg>
