<?xml version="1.0" encoding="utf-8"?>
<!-- Generator: Adobe Illustrator 25.2.3, SVG Export Plug-In . SVG Version: 6.00 Build 0)  -->
<svg version="1.1" id="Layer_1" xmlns="http://www.w3.org/2000/svg" xmlns:xlink="http://www.w3.org/1999/xlink" x="0px" y="0px"
	 viewBox="0 0 15.909 15.909" style="enable-background:new 0 0 15.909 15.909;" xml:space="preserve">
<path d="M0.012,2.84c0.035-0.107,0.064-0.216,0.106-0.319c0.226-0.553,0.779-0.902,1.376-0.867c4.306,0,8.611,0,12.917,0
	c0.036,0,0.072,0,0.109,0.001c0.762,0.01,1.374,0.632,1.372,1.395c0.006,0.936,0.009,1.872-0.005,2.807
	c-0.003,0.206-0.05,0.409-0.137,0.596c-0.235,0.52-0.769,0.84-1.338,0.802C10.106,7.252,5.8,7.252,1.495,7.253
	c-0.052,0-0.103-0.001-0.155-0.003c-0.591-0.028-1.1-0.428-1.267-0.995c-0.019-0.063-0.04-0.125-0.06-0.188L0.012,2.84z
	 M5.627,6.321h0.171c2.864,0,5.727,0,8.591,0c0.403,0,0.572-0.171,0.572-0.576c0-0.869,0-1.737,0-2.606
	c0.042-0.263-0.137-0.51-0.4-0.552c-0.049-0.008-0.099-0.008-0.148,0c-2.879-0.001-5.758-0.001-8.637,0
	c-0.045,0-0.091,0.004-0.148,0.007L5.627,6.321z M4.51,2.587c-1.002,0-2.004,0-3.006,0c-0.384,0-0.559,0.175-0.559,0.557
	c0,0.878,0,1.757,0,2.635C0.908,6.04,1.089,6.281,1.35,6.318C1.391,6.324,1.433,6.325,1.474,6.32c1.023,0.002,2.045,0.002,3.068,0
	c0.041,0,0.082-0.004,0.133-0.007V2.586L4.51,2.587z M11.458,3.987c-0.703,0-1.406-0.002-2.108,0.001
	c-0.256-0.002-0.466,0.203-0.468,0.46C8.88,4.657,9.018,4.842,9.219,4.899C9.274,4.913,9.33,4.92,9.387,4.919
	c1.375,0.001,2.749,0.001,4.124,0c0.258,0.026,0.488-0.162,0.514-0.419s-0.162-0.488-0.419-0.514
	c-0.033-0.003-0.067-0.003-0.1,0.001C12.822,3.986,12.14,3.986,11.458,3.987z M0.012,9.84c0.035-0.107,0.064-0.216,0.106-0.319
	c0.226-0.553,0.779-0.902,1.376-0.867c4.306,0,8.611,0,12.917,0c0.036,0,0.072,0,0.109,0.001c0.762,0.01,1.374,0.632,1.372,1.395
	c0.006,0.936,0.009,1.872-0.005,2.807c-0.003,0.206-0.05,0.409-0.137,0.596c-0.235,0.52-0.769,0.84-1.338,0.802
	c-4.306-0.003-8.611-0.003-12.917-0.001c-0.052,0-0.103-0.001-0.155-0.003c-0.591-0.028-1.1-0.428-1.267-0.995
	c-0.019-0.063-0.04-0.125-0.06-0.188L0.012,9.84z M5.627,13.321h0.171c2.864,0,5.727,0,8.591,0c0.403,0,0.572-0.171,0.572-0.576
	c0-0.869,0-1.737,0-2.606c0.042-0.263-0.137-0.51-0.4-0.552c-0.049-0.008-0.099-0.008-0.148,0c-2.879-0.001-5.758-0.001-8.637,0
	c-0.045,0-0.091,0.004-0.148,0.007L5.627,13.321z M4.51,9.587c-1.002,0-2.004,0-3.006,0c-0.384,0-0.559,0.175-0.559,0.557
	c0,0.878,0,1.757,0,2.635c-0.037,0.261,0.144,0.502,0.405,0.54c0.041,0.006,0.082,0.006,0.123,0.001
	c1.023,0.002,2.045,0.002,3.068,0c0.041,0,0.082-0.004,0.133-0.007V9.586L4.51,9.587z M11.458,10.987
	c-0.703,0-1.406-0.002-2.108,0.001c-0.256-0.002-0.466,0.203-0.468,0.46c-0.002,0.209,0.136,0.394,0.337,0.451
	c0.055,0.015,0.111,0.021,0.168,0.02c1.375,0.001,2.749,0.001,4.124,0c0.258,0.026,0.488-0.162,0.514-0.419
	s-0.162-0.488-0.419-0.514c-0.033-0.003-0.067-0.003-0.1,0.001C12.822,10.986,12.14,10.986,11.458,10.987z"/>
</svg>
