<?xml version="1.0" encoding="utf-8"?>
<!-- Generator: Adobe Illustrator 27.8.1, SVG Export Plug-In . SVG Version: 6.00 Build 0)  -->
<svg version="1.1" id="Layer_1" xmlns="http://www.w3.org/2000/svg" xmlns:xlink="http://www.w3.org/1999/xlink" x="0px" y="0px"
	 viewBox="0 0 512 512" style="enable-background:new 0 0 512 512;" xml:space="preserve">
<path d="M396.2,423.4c0,6.2-2.3,11.8-6.1,16.1c-3.8,4.3-9.2,7.2-15.2,8l-2.9,0.2h-103c-13.4,0-24.3-10.9-24.3-24.3
	c0-12.3,9.2-22.7,21.3-24.1l2.9-0.2h103C385.2,399.1,396.1,410,396.2,423.4z M474.9,296.1h-206c-13.4,0-24.3,10.9-24.3,24.3
	c0,13.4,10.9,24.3,24.3,24.3h206c13.4,0,24.3-10.9,24.3-24.3C499.2,307,488.3,296.1,474.9,296.1z M190.1,346.2v77.2
	c0,12.8-4.8,24.9-13.4,34.1c-8.8,9.3-20.4,14.9-32.8,15.8l-3.8,0.1H62.8c-12.8,0-24.9-4.8-34.1-13.4c-9.2-8.6-14.8-20.3-15.8-32.8
	l-0.1-3.8v-77.2c0-12.8,4.8-24.9,13.4-34.1c8.8-9.3,20.4-14.9,32.8-15.8l3.8-0.1h77.2c12.8,0,24.9,4.8,34.1,13.4
	c9.2,8.6,14.9,20.3,15.8,32.8v0L190.1,346.2z M141.6,424.9v-80.3H61.4v80.3H141.6z M371.9,141.6h-103l-2.9,0.2
	c-12.2,1.4-21.3,11.8-21.3,24.1c0,13.4,10.9,24.3,24.3,24.3h103l2.9-0.2c6.1-0.7,11.4-3.7,15.2-8c3.8-4.3,6.1-10,6.1-16.1
	C396.1,152.5,385.2,141.6,371.9,141.6z M474.9,38.6h-206l-2.9,0.2c-12.2,1.4-21.3,11.8-21.3,24.1c0,13.4,10.9,24.3,24.3,24.3h206
	l2.9-0.2c12.2-1.4,21.3-11.8,21.3-24.1C499.2,49.5,488.3,38.6,474.9,38.6z M190.1,88.6v77.3c0,27.6-22.4,50-50,50H62.9
	c-27.6,0-50-22.4-50-50V88.6c0-27.6,22.4-50,50-50h77.2C167.7,38.6,190.1,61,190.1,88.6z M141.6,167.4V87.1H61.4v80.3H141.6z"/>
</svg>
