<?xml version="1.0" encoding="utf-8"?>
<!-- Generator: Adobe Illustrator 25.2.3, SVG Export Plug-In . SVG Version: 6.00 Build 0)  -->
<svg version="1.1" id="Layer_1" xmlns="http://www.w3.org/2000/svg" xmlns:xlink="http://www.w3.org/1999/xlink" x="0px" y="0px"
	 viewBox="0 0 15.9 16" style="enable-background:new 0 0 15.9 16;" xml:space="preserve">
<path d="M13.9,0H2C0.9,0,0,1,0,2.1V14c0,1.1,0.9,2,2,2h11.9c1.1,0,2-0.9,2-2V2.1C15.9,1,15,0,13.9,0z M5.4,12.6
	c0,0.4-0.3,0.7-0.7,0.7H3.4c-0.4,0-0.7-0.3-0.7-0.7v-1.3c0-0.4,0.3-0.7,0.7-0.7h1.3c0.4,0,0.7,0.3,0.7,0.7V12.6z M5.4,8.7
	c0,0.3-0.3,0.6-0.7,0.6H3.4C3.1,9.3,2.7,9,2.7,8.6V7.4C2.7,7,3,6.7,3.4,6.7h1.3c0.4,0,0.7,0.3,0.7,0.7V8.7z M5.4,4.7
	c0,0.3-0.3,0.6-0.7,0.6H3.4C3.1,5.3,2.7,5,2.7,4.6V3.4C2.7,3,3,2.7,3.4,2.7h1.3c0.4,0,0.7,0.3,0.7,0.7V4.7z M9.5,13.1H7.2
	c-0.2,0-0.4-0.2-0.4-0.4s0.2-0.4,0.4-0.4h2.4c0.2,0,0.4,0.2,0.4,0.4S9.8,13.1,9.5,13.1z M12.7,11.8H7.2c-0.2,0-0.4-0.2-0.4-0.4
	C6.8,11.2,7,11,7.2,11h5.6c0.2,0,0.4,0.2,0.4,0.4C13.2,11.6,13,11.8,12.7,11.8z M6.8,8.7c0-0.2,0.2-0.4,0.4-0.4h2.4
	c0.2,0,0.4,0.2,0.4,0.4S9.8,9.1,9.5,9.1H7.2C7,9.1,6.8,8.9,6.8,8.7z M12.7,7.8H7.2C7,7.8,6.8,7.6,6.8,7.4C6.8,7.2,7,7,7.2,7h5.6
	c0.2,0,0.4,0.2,0.4,0.4C13.2,7.6,13,7.8,12.7,7.8z M6.8,4.7c0-0.2,0.2-0.4,0.4-0.4h2.4c0.2,0,0.4,0.2,0.4,0.4S9.8,5.1,9.5,5.1H7.2
	C7,5.1,6.8,4.9,6.8,4.7z M12.7,3.8H7.2C7,3.8,6.8,3.6,6.8,3.4C6.8,3.2,7,3,7.2,3h5.6c0.2,0,0.4,0.2,0.4,0.4
	C13.2,3.6,13,3.8,12.7,3.8z"/>
</svg>
