<?xml version="1.0" encoding="utf-8"?>
<!-- Generator: Adobe Illustrator 27.8.1, SVG Export Plug-In . SVG Version: 6.00 Build 0)  -->
<svg version="1.1" id="Layer_1" xmlns="http://www.w3.org/2000/svg" xmlns:xlink="http://www.w3.org/1999/xlink" x="0px" y="0px"
	 viewBox="0 0 512 512" style="enable-background:new 0 0 512 512;" xml:space="preserve">
<path d="M456.4,107.2H55.6c-13.2,0-24,10.7-24,24c0,13.2,10.8,24,24,24h400.9c13.2,0,24-10.8,24-24
	C480.4,118,469.7,107.2,456.4,107.2z M431.4,32.1H80.6c-13.3,0-24,10.8-24,24c0,13.3,10.7,24,24,24h350.8c13.3,0,24-10.7,24-24
	C455.4,42.8,444.6,32.1,431.4,32.1z M496.7,219.9c-5.4-12.7-15-23.3-27.1-29.9c-13.8-7.6-28.3-7.6-54.5-7.6H97
	c-26.2,0-40.7,0-54.5,7.6c-12.1,6.6-21.7,17.3-27.1,29.9c-6.2,14.5-4.7,28.9-2.1,55l11.2,112.2c2.8,28.1,4.4,43.6,12.9,57.9
	c7.6,12.6,18.6,22.6,31.9,28.8c15,7.1,30.6,7.1,58.9,7.1h255.8c28.3,0,43.8,0,58.9-7.1c13.3-6.3,24.3-16.2,31.9-28.8
	c8.6-14.3,10.1-29.8,12.9-57.9l11.2-112.2C501.4,248.8,502.8,234.4,496.7,219.9z M156.8,331.7c0-41.5,43.5-74.1,99.2-74.1
	s99.2,32.6,99.2,74.1c0,41.6-43.5,74.1-99.2,74.1S156.8,373.2,156.8,331.7z M307.2,331.7c0,10.7-19.9,26.1-51.2,26.1
	s-51.2-15.5-51.2-26.1c0-10.6,19.9-26.1,51.2-26.1S307.2,321,307.2,331.7z"/>
</svg>
