<?xml version="1.0" encoding="utf-8"?>
<!-- Generator: Adobe Illustrator 27.8.1, SVG Export Plug-In . SVG Version: 6.00 Build 0)  -->
<svg version="1.1" id="Layer_1" xmlns="http://www.w3.org/2000/svg" xmlns:xlink="http://www.w3.org/1999/xlink" x="0px" y="0px"
	 viewBox="0 0 512 512" style="enable-background:new 0 0 512 512;" xml:space="preserve">
<path d="M386.2,497H125.8c-33.1,0-51.3,0-68.1-8.5c-14.8-7.5-26.6-19.4-34.2-34.2c-8.5-16.7-8.5-35-8.5-68.1V125.8
	c0-33.1,0-51.3,8.5-68.1c7.5-14.8,19.4-26.6,34.2-34.2c16.7-8.5,35-8.5,68.1-8.5h260.4c33.1,0,51.3,0,68.1,8.5
	c14.8,7.6,26.6,19.4,34.2,34.2c8.5,16.7,8.5,35,8.5,68.1v260.4c0,33.1,0,51.3-8.5,68.1c-7.5,14.8-19.4,26.6-34.2,34.2
	C437.5,497,419.3,497,386.2,497z M125.8,63C101,63,86,63,79.5,66.3c-5.7,2.9-10.3,7.5-13.2,13.2C63,86,63,101,63,125.8v260.4
	c0,24.8,0,39.8,3.3,46.3c2.9,5.7,7.5,10.3,13.2,13.2C86,449,101,449,125.8,449h260.4c24.8,0,39.8,0,46.3-3.3
	c5.7-2.9,10.3-7.5,13.2-13.2c3.3-6.5,3.3-21.5,3.3-46.3V125.8c0-24.8,0-39.8-3.3-46.3c-2.9-5.7-7.5-10.3-13.2-13.2
	C426,63,411,63,386.2,63H125.8z M364.5,388.5C364.5,388.5,364.5,388.5,364.5,388.5l-135.6,0c-13.3,0-24-10.7-24-24
	c0-13.3,10.7-24,24-24c0,0,0,0,0,0l135.6,0c13.3,0,24,10.7,24,24S377.8,388.5,364.5,388.5z M147.8,388.5h-0.3c-13.3,0-24-10.7-24-24
	s10.7-24,24-24h0.3c13.3,0,24,10.7,24,24S161,388.5,147.8,388.5z M364.5,280C364.5,280,364.5,280,364.5,280l-135.6,0
	c-13.3,0-24-10.7-24-24c0-13.3,10.7-24,24-24c0,0,0,0,0,0l135.6,0c13.3,0,24,10.7,24,24S377.8,280,364.5,280z M147.8,280h-0.3
	c-13.3,0-24-10.7-24-24s10.7-24,24-24h0.3c13.3,0,24,10.7,24,24S161,280,147.8,280z M364.5,171.5
	C364.5,171.5,364.5,171.5,364.5,171.5l-135.6,0c-13.3,0-24-10.7-24-24c0-13.3,10.7-24,24-24c0,0,0,0,0,0l135.6,0
	c13.3,0,24,10.7,24,24C388.5,160.8,377.8,171.5,364.5,171.5z M147.8,171.5h-0.3c-13.3,0-24-10.7-24-24s10.7-24,24-24h0.3
	c13.3,0,24,10.7,24,24S161,171.5,147.8,171.5z"/>
</svg>
