<?xml version="1.0" encoding="utf-8"?>
<!-- Generator: Adobe Illustrator 25.2.3, SVG Export Plug-In . SVG Version: 6.00 Build 0)  -->
<svg version="1.1" id="Layer_1" xmlns="http://www.w3.org/2000/svg" xmlns:xlink="http://www.w3.org/1999/xlink" x="0px" y="0px"
	 viewBox="0 0 15.9 15.9" style="enable-background:new 0 0 15.9 15.9;" xml:space="preserve">
<style type="text/css">
	.st0{fill-rule:evenodd;clip-rule:evenodd;}
</style>
<path class="st0" d="M14.9,2h-5c-0.5,0-1,0.4-1,1c0,0.6,0.4,1,1,1h5c0.5,0,1-0.4,1-1C15.9,2.4,15.5,2,14.9,2z M14.9,10.9h-5
	c-0.5,0-1,0.4-1,1c0,0.5,0.4,1,1,1h5c0.5,0,1-0.4,1-1C15.9,11.4,15.5,10.9,14.9,10.9z M7,2v3c0,1.1-0.9,2-2,2H2C0.9,7,0,6.1,0,5V2
	c0-1.1,0.9-2,2-2h3C6.1,0,7,0.9,7,2z M7,10.9v3c0,1.1-0.9,2-2,2H2c-1.1,0-2-0.9-2-2v-3c0-1.1,0.9-2,2-2h3C6.1,8.9,7,9.8,7,10.9z"/>
</svg>
