<?xml version="1.0" encoding="utf-8"?>
<!-- Generator: Adobe Illustrator 25.2.3, SVG Export Plug-In . SVG Version: 6.00 Build 0)  -->
<svg version="1.1" id="Layer_1" xmlns="http://www.w3.org/2000/svg" xmlns:xlink="http://www.w3.org/1999/xlink" x="0px" y="0px"
	 viewBox="0 0 16 16" style="enable-background:new 0 0 16 16;" xml:space="preserve">
<path d="M3.625,0.762c0.2,0,0.362,0.163,0.362,0.363v2.562c0,0.2-0.163,0.362-0.362,0.362H1.063c-0.2,0-0.362-0.163-0.362-0.362
	V1.125c0-0.2,0.163-0.363,0.362-0.363L3.625,0.762 M3.625,0.062H1.063C0.476,0.062,0,0.538,0,1.125v2.562
	C0,4.274,0.476,4.75,1.063,4.75h2.562c0.587,0,1.062-0.476,1.062-1.063V1.125C4.688,0.538,4.212,0.062,3.625,0.062L3.625,0.062z
	 M6.562,1.469H16V3.11H6.562V1.469z M3.625,6.387c0.2,0,0.362,0.163,0.362,0.363v2.562c0,0.2-0.163,0.363-0.362,0.363H1.063
	c-0.2,0-0.362-0.163-0.362-0.363V6.75c0-0.2,0.163-0.363,0.362-0.363H3.625 M3.625,5.687H1.063C0.476,5.687,0,6.163,0,6.75v2.562
	c0,0.587,0.476,1.062,1.062,1.062h2.562c0.587,0,1.062-0.476,1.062-1.062V6.75C4.688,6.163,4.212,5.687,3.625,5.687L3.625,5.687z
	 M6.562,7.094H16v1.641H6.562V7.094z M3.625,12.012c0.2,0,0.362,0.163,0.362,0.363v2.562c0,0.2-0.163,0.363-0.362,0.363H1.063
	c-0.2,0-0.362-0.163-0.362-0.363v-2.562c0-0.2,0.163-0.363,0.362-0.363H3.625 M3.625,11.312H1.063C0.476,11.312,0,11.788,0,12.375
	v2.562C0,15.524,0.476,16,1.063,16h2.562c0.587,0,1.062-0.476,1.062-1.062v-2.562C4.688,11.788,4.212,11.312,3.625,11.312
	L3.625,11.312z M6.562,12.719H16v1.641H6.562V12.719z"/>
</svg>
