<?xml version="1.0" encoding="utf-8"?>
<!-- Generator: Adobe Illustrator 25.2.3, SVG Export Plug-In . SVG Version: 6.00 Build 0)  -->
<svg version="1.1" id="Layer_1" xmlns="http://www.w3.org/2000/svg" xmlns:xlink="http://www.w3.org/1999/xlink" x="0px" y="0px"
	 viewBox="0 0 15.9 15.9" style="enable-background:new 0 0 15.9 15.9;" xml:space="preserve">
<path d="M12.9,4.2H1c-0.5,0-1-0.4-1-1l0,0c0-0.5,0.4-1,1-1h11.9c0.5,0,1,0.4,1,1l0,0C13.9,3.8,13.5,4.2,12.9,4.2z M6.1,8.8H1
	c-0.5,0-1-0.4-1-1l0,0c0-0.5,0.4-1,1-1h5.2c0.5,0,1,0.4,1,1l0,0C7.1,8.4,6.7,8.8,6.1,8.8z M6.1,13.4H1c-0.5,0-1-0.4-1-1l0,0
	c0-0.5,0.4-1,1-1h5.2c0.5,0,1,0.4,1,1l0,0C7.1,13,6.7,13.4,6.1,13.4z M14.9,11.1H9.8c-0.5,0-1-0.4-1-1l0,0c0-0.5,0.4-1,1-1H15
	c0.5,0,1,0.4,1,1l0,0C15.9,10.6,15.5,11.1,14.9,11.1z M11.4,12.7V7.5c0-0.5,0.4-1,1-1l0,0c0.5,0,1,0.4,1,1v5.2c0,0.5-0.4,1-1,1l0,0
	C11.8,13.7,11.4,13.2,11.4,12.7z"/>
</svg>
