<?xml version="1.0" encoding="utf-8"?>
<!-- Generator: Adobe Illustrator 25.2.3, SVG Export Plug-In . SVG Version: 6.00 Build 0)  -->
<svg version="1.1" id="Layer_1" xmlns="http://www.w3.org/2000/svg" xmlns:xlink="http://www.w3.org/1999/xlink" x="0px" y="0px"
	 viewBox="0 0 15.9 15.9" style="enable-background:new 0 0 15.9 15.9;" xml:space="preserve">
<style type="text/css">
	.st0{fill-rule:evenodd;clip-rule:evenodd;}
</style>
<path id="形状" class="st0" d="M4.2,9.2c0.9,0,1.6,0.7,1.7,1.5l0,0.1v2.5c0,0.9-0.7,1.6-1.5,1.7l-0.1,0H1.7
	c-0.9,0-1.6-0.7-1.7-1.5l0-0.1v-2.5C0,10,0.7,9.3,1.5,9.2l0.1,0H4.2z M11.7,12.6c0.5,0,0.8,0.4,0.8,0.8c0,0.4-0.3,0.8-0.7,0.8
	l-0.1,0H8.4c-0.5,0-0.8-0.4-0.8-0.8c0-0.4,0.3-0.8,0.7-0.8l0.1,0H11.7z M4.2,10.9H1.7v2.5h2.5V10.9z M15.1,9.2
	c0.5,0,0.8,0.4,0.8,0.8s-0.4,0.8-0.8,0.8H8.4c-0.5,0-0.8-0.4-0.8-0.8s0.4-0.8,0.8-0.8H15.1z M4.2,0.8c0.9,0,1.7,0.7,1.7,1.7V5
	c0,0.9-0.7,1.7-1.7,1.7H1.7C0.7,6.7,0,5.9,0,5V2.5c0-0.9,0.7-1.7,1.7-1.7H4.2z M11.7,4.2c0.5,0,0.8,0.4,0.8,0.8
	c0,0.4-0.3,0.8-0.7,0.8l-0.1,0H8.4C7.9,5.9,7.5,5.5,7.5,5c0-0.4,0.3-0.8,0.7-0.8l0.1,0H11.7z M4.2,2.5H1.7V5h2.5V2.5z M15.1,0.8
	c0.5,0,0.8,0.4,0.8,0.8c0,0.4-0.3,0.8-0.7,0.8l-0.1,0H8.4c-0.5,0-0.8-0.4-0.8-0.8c0-0.4,0.3-0.8,0.7-0.8l0.1,0H15.1z"/>
</svg>
