<?xml version="1.0" encoding="utf-8"?>
<!-- Generator: Adobe Illustrator 27.8.1, SVG Export Plug-In . SVG Version: 6.00 Build 0)  -->
<svg version="1.1" id="Layer_1" xmlns="http://www.w3.org/2000/svg" xmlns:xlink="http://www.w3.org/1999/xlink" x="0px" y="0px"
	 viewBox="0 0 512 512" style="enable-background:new 0 0 512 512;" xml:space="preserve">
<path d="M393.8,493c-8.8,0-16-7.2-16-16v-66.7h-66.7c-8.8,0-16-7.2-16-16c0-8.8,7.2-16,16-16h66.7v-66.7c0-8.8,7.2-16,16-16
	c8.8,0,16,7.2,16,16v66.7h66.7c8.8,0,16,7.2,16,16c0,8.8-7.2,16-16,16h-66.7V477C409.8,485.8,402.6,493,393.8,493z M156.8,493H79.6
	c-17.4,0-27,0-36.3-4.7c-8.3-4.2-14.8-10.8-19-19c-4.7-9.3-4.7-18.9-4.7-36.3v-77.2c0-17.4,0-27,4.7-36.3c4.2-8.2,10.8-14.8,19-19
	c9.3-4.7,18.9-4.7,36.3-4.7h77.2c17.4,0,27,0,36.3,4.7c8.3,4.2,14.8,10.8,19,19c4.7,9.3,4.7,18.9,4.7,36.3v77.2
	c0,17.4,0,27-4.7,36.3c-4.2,8.2-10.8,14.8-19,19C183.8,493,174.2,493,156.8,493z M79.6,327.6c-10.8,0-19.3,0-21.8,1.3
	c-2.2,1.1-3.9,2.9-5.1,5.1c-1.3,2.5-1.3,11-1.3,21.8v77.2c0,10.8,0,19.3,1.3,21.8c1.1,2.2,2.9,3.9,5.1,5.1c2.5,1.3,11,1.3,21.8,1.3
	h77.2c10.8,0,19.3,0,21.8-1.3c2.2-1.1,3.9-2.9,5.1-5.1c1.3-2.5,1.3-11,1.3-21.8v-77.2c0-10.8,0-19.3-1.3-21.8
	c-1.1-2.2-2.9-3.9-5.1-5.1c-2.5-1.3-11-1.3-21.8-1.3H79.6z M432.4,217.4h-77.2c-17.4,0-27,0-36.3-4.7c-8.2-4.2-14.8-10.8-19-19
	c-4.7-9.3-4.7-18.9-4.7-36.3V80.1c0-17.4,0-27,4.7-36.3c4.2-8.3,10.8-14.8,19-19c9.3-4.7,18.9-4.7,36.3-4.7h77.2
	c17.4,0,27,0,36.3,4.7c8.2,4.2,14.8,10.8,19,19c4.7,9.3,4.7,18.9,4.7,36.3v77.2c0,17.4,0,27-4.7,36.3c-4.2,8.3-10.8,14.8-19,19
	C459.4,217.4,449.8,217.4,432.4,217.4z M355.2,52c-10.8,0-19.3,0-21.8,1.3c-2.2,1.1-3.9,2.9-5.1,5.1c-1.3,2.5-1.3,11-1.3,21.8v77.2
	c0,10.8,0,19.3,1.3,21.8c1.1,2.2,2.9,3.9,5.1,5.1c2.5,1.3,11,1.3,21.8,1.3h77.2c10.8,0,19.3,0,21.8-1.3c2.2-1.1,3.9-2.9,5.1-5.1
	c1.3-2.5,1.3-11,1.3-21.8V80.1c0-10.8,0-19.3-1.3-21.8c-1.1-2.2-2.9-3.9-5.1-5.1c-2.5-1.3-11-1.3-21.8-1.3H355.2z M156.8,217.4H79.6
	c-17.4,0-27,0-36.3-4.7c-8.3-4.2-14.8-10.8-19-19c-4.7-9.3-4.7-18.9-4.7-36.3V80.1c0-17.4,0-27,4.7-36.3c4.2-8.3,10.8-14.8,19-19
	C52.6,20,62.2,20,79.6,20h77.2c17.4,0,27,0,36.3,4.7c8.3,4.2,14.8,10.8,19,19c4.7,9.3,4.7,18.9,4.7,36.3v77.2c0,17.4,0,27-4.7,36.3
	c-4.2,8.3-10.8,14.8-19,19C183.8,217.4,174.2,217.4,156.8,217.4z M79.6,52c-10.8,0-19.3,0-21.8,1.3c-2.2,1.1-3.9,2.9-5.1,5.1
	c-1.3,2.5-1.3,11-1.3,21.8v77.2c0,10.8,0,19.3,1.3,21.8c1.1,2.2,2.9,3.9,5.1,5.1c2.5,1.3,11,1.3,21.8,1.3h77.2
	c10.8,0,19.3,0,21.8-1.3c2.2-1.1,3.9-2.9,5.1-5.1c1.3-2.5,1.3-11,1.3-21.8V80.1c0-10.8,0-19.3-1.3-21.8c-1.1-2.2-2.9-3.9-5.1-5.1
	c-2.5-1.3-11-1.3-21.8-1.3H79.6z"/>
</svg>
