<?xml version="1.0" encoding="utf-8"?>
<!-- Generator: Adobe Illustrator 25.2.3, SVG Export Plug-In . SVG Version: 6.00 Build 0)  -->
<svg version="1.1" id="Layer_1" xmlns="http://www.w3.org/2000/svg" xmlns:xlink="http://www.w3.org/1999/xlink" x="0px" y="0px"
	 viewBox="0 0 15.909 15.909" style="enable-background:new 0 0 15.909 15.909;" xml:space="preserve">
<path d="M13.61,3.99c-0.04-0.01-0.07-0.01-0.1,0h-2.05c-0.7,0-1.41-0.01-2.11,0c-0.26,0-0.47,0.2-0.47,0.46
	c0,0.21,0.14,0.39,0.34,0.45c0.05,0.01,0.11,0.02,0.17,0.02h4.12C13.77,4.95,14,4.76,14.02,4.5C14.05,4.24,13.86,4.01,13.61,3.99z
	 M13.61,3.99c-0.04-0.01-0.07-0.01-0.1,0h-2.05c-0.7,0-1.41-0.01-2.11,0c-0.26,0-0.47,0.2-0.47,0.46c0,0.21,0.14,0.39,0.34,0.45
	c0.05,0.01,0.11,0.02,0.17,0.02h4.12C13.77,4.95,14,4.76,14.02,4.5C14.05,4.24,13.86,4.01,13.61,3.99z M14.52,1.65H1.49
	C0.9,1.62,0.34,1.97,0.12,2.52c-0.04,0.1-0.07,0.21-0.11,0.32v3.23c0.02,0.06,0.04,0.12,0.06,0.19c0.17,0.56,0.68,0.96,1.27,0.99
	H1.5c4.3,0,8.61,0,12.91,0.01c0.57,0.03,1.11-0.29,1.34-0.81c0.09-0.18,0.13-0.39,0.14-0.59c0.01-0.94,0.01-1.87,0-2.81
	C15.89,2.29,15.28,1.66,14.52,1.65z M1.35,6.32c-0.02,0-0.05-0.01-0.07-0.02c0.04,0.01,0.09,0.02,0.14,0.02H1.35z M14.96,3.14v2.6
	c0,0.41-0.17,0.58-0.57,0.58H5.63V2.59h8.78c0.06-0.01,0.12-0.01,0.17,0.01c0.04,0,0.08,0.02,0.12,0.04c0.02,0,0.04,0.02,0.06,0.04
	c0.02,0.01,0.05,0.03,0.07,0.05c0.02,0.02,0.04,0.04,0.05,0.07c0.02,0.02,0.03,0.04,0.03,0.05c0.03,0.04,0.04,0.08,0.04,0.12
	c0.01,0.01,0.01,0.01,0.01,0.02C14.97,3.04,14.97,3.09,14.96,3.14z M13.61,3.99c-0.04-0.01-0.07-0.01-0.1,0h-2.05
	c-0.7,0-1.41-0.01-2.11,0c-0.26,0-0.47,0.2-0.47,0.46c0,0.21,0.14,0.39,0.34,0.45c0.05,0.01,0.11,0.02,0.17,0.02h4.12
	C13.77,4.95,14,4.76,14.02,4.5C14.05,4.24,13.86,4.01,13.61,3.99z M13.61,3.99c-0.04-0.01-0.07-0.01-0.1,0h-2.05
	c-0.7,0-1.41-0.01-2.11,0c-0.26,0-0.47,0.2-0.47,0.46c0,0.21,0.14,0.39,0.34,0.45c0.05,0.01,0.11,0.02,0.17,0.02h4.12
	C13.77,4.95,14,4.76,14.02,4.5C14.05,4.24,13.86,4.01,13.61,3.99z M1.5,2.59c-0.19,0-0.33,0.04-0.42,0.13
	C0.99,2.81,0.95,2.95,0.95,3.14v2.64c0,0.02-0.01,0.05-0.01,0.07c0,0.05,0.01,0.1,0.03,0.14c-0.01,0.01,0,0.02,0,0.03
	C0.99,6.06,1.01,6.1,1.05,6.14C1.07,6.17,1.1,6.2,1.13,6.22c0.03,0.02,0.06,0.04,0.1,0.06C1.24,6.29,1.26,6.3,1.28,6.3
	c0.04,0.01,0.09,0.02,0.14,0.02h3.12c0.04,0,0.07,0,0.13-0.01V2.59H1.5z M13.61,3.99c-0.04-0.01-0.07-0.01-0.1,0h-2.05
	c-0.7,0-1.41-0.01-2.11,0c-0.26,0-0.47,0.2-0.47,0.46c0,0.21,0.14,0.39,0.34,0.45c0.05,0.01,0.11,0.02,0.17,0.02h4.12
	C13.77,4.95,14,4.76,14.02,4.5C14.05,4.24,13.86,4.01,13.61,3.99z M13.61,3.99c-0.04-0.01-0.07-0.01-0.1,0h-2.05
	c-0.7,0-1.41-0.01-2.11,0c-0.26,0-0.47,0.2-0.47,0.46c0,0.21,0.14,0.39,0.34,0.45c0.05,0.01,0.11,0.02,0.17,0.02h4.12
	C13.77,4.95,14,4.76,14.02,4.5C14.05,4.24,13.86,4.01,13.61,3.99z M1.5,2.59c-0.19,0-0.33,0.04-0.42,0.13
	c-0.1,0.09-0.14,0.23-0.14,0.42V5.9c0,0.03,0.01,0.06,0.03,0.09c-0.01,0.01,0,0.02,0,0.03C0.99,6.06,1.01,6.1,1.05,6.14
	C1.07,6.17,1.1,6.2,1.13,6.22c0.03,0.02,0.06,0.04,0.1,0.06C1.24,6.29,1.26,6.3,1.28,6.3c0.04,0.01,0.09,0.02,0.14,0.02h3.12
	c0.04,0,0.07,0,0.13-0.01V2.59H1.5z M3.87,3.91C3.69,3.72,3.4,3.7,3.21,3.87C3.19,3.88,3.18,3.9,3.17,3.91
	C3.05,4.02,2.95,4.14,2.82,4.28C2.68,4.14,2.58,4.02,2.46,3.91C2.29,3.72,1.99,3.7,1.8,3.87C1.61,4.05,1.6,4.34,1.77,4.53
	C1.78,4.54,1.79,4.55,1.8,4.56c0.22,0.23,0.44,0.45,0.67,0.67c0.16,0.19,0.46,0.21,0.65,0.05c0.02-0.02,0.03-0.04,0.05-0.05
	c0.22-0.22,0.44-0.44,0.65-0.66C4.02,4.4,4.03,4.11,3.87,3.91z M13.61,3.99c-0.04-0.01-0.07-0.01-0.1,0h-2.05
	c-0.7,0-1.41-0.01-2.11,0c-0.26,0-0.47,0.2-0.47,0.46c0,0.21,0.14,0.39,0.34,0.45c0.05,0.01,0.11,0.02,0.17,0.02h4.12
	C13.77,4.95,14,4.76,14.02,4.5C14.05,4.24,13.86,4.01,13.61,3.99z M3.87,3.91C3.69,3.72,3.4,3.7,3.21,3.87
	C3.19,3.88,3.18,3.9,3.17,3.91C3.05,4.02,2.95,4.14,2.82,4.28C2.68,4.14,2.58,4.02,2.46,3.91C2.29,3.72,1.99,3.7,1.8,3.87
	C1.61,4.05,1.6,4.34,1.77,4.53C1.78,4.54,1.79,4.55,1.8,4.56c0.22,0.23,0.44,0.45,0.67,0.67c0.16,0.19,0.46,0.21,0.65,0.05
	c0.02-0.02,0.03-0.04,0.05-0.05c0.22-0.22,0.44-0.44,0.65-0.66C4.02,4.4,4.03,4.11,3.87,3.91z M14.52,8.66
	c-0.04-0.01-0.07-0.01-0.11-0.01H1.49C0.9,8.62,0.34,8.97,0.12,9.52c-0.04,0.1-0.07,0.21-0.11,0.32v3.23
	c0.02,0.06,0.04,0.12,0.06,0.19c0.17,0.56,0.68,0.96,1.27,0.99h0.15c4.31,0,8.62,0,12.92,0.01c0.57,0.03,1.11-0.29,1.34-0.81
	c0.09-0.18,0.13-0.39,0.14-0.59c0.01-0.94,0.01-1.87,0-2.81C15.89,9.29,15.28,8.67,14.52,8.66z M1.35,13.32
	c-0.02,0-0.05-0.01-0.07-0.02c0.04,0.01,0.09,0.02,0.14,0.02H1.35z M14.96,10.14v2.6c0,0.41-0.17,0.58-0.57,0.58H5.63V9.59h8.78
	c0.06-0.01,0.12-0.01,0.17,0.01c0.04,0,0.08,0.02,0.12,0.04c0.02,0,0.04,0.01,0.06,0.04c0.02,0.01,0.05,0.03,0.07,0.05
	c0.02,0.02,0.04,0.05,0.05,0.07c0.02,0.02,0.03,0.04,0.03,0.05c0.02,0.04,0.04,0.08,0.04,0.12c0.01,0.01,0.01,0.01,0.01,0.02
	C14.97,10.04,14.97,10.09,14.96,10.14z M13.61,10.99c-0.04-0.01-0.07-0.01-0.1,0H9.35c-0.26,0-0.47,0.2-0.47,0.46
	c0,0.21,0.14,0.39,0.34,0.45c0.05,0.01,0.11,0.02,0.17,0.02h4.12c0.26,0.03,0.49-0.16,0.51-0.42
	C14.05,11.24,13.86,11.01,13.61,10.99z M13.61,10.99c-0.04-0.01-0.07-0.01-0.1,0H9.35c-0.26,0-0.47,0.2-0.47,0.46
	c0,0.21,0.14,0.39,0.34,0.45c0.05,0.01,0.11,0.02,0.17,0.02h4.12c0.26,0.03,0.49-0.16,0.51-0.42
	C14.05,11.24,13.86,11.01,13.61,10.99z M1.5,9.59c-0.38,0-0.55,0.17-0.55,0.55v2.64c-0.01,0.03-0.01,0.06-0.01,0.09
	s0.01,0.06,0.02,0.09c0,0.03,0.01,0.06,0.03,0.09c0.01,0.02,0.02,0.04,0.04,0.06c0.01,0.03,0.03,0.05,0.06,0.07
	c0.01,0.02,0.02,0.03,0.04,0.04c0.03,0.02,0.06,0.04,0.1,0.06c0.01,0.01,0.03,0.02,0.05,0.02c0.04,0.01,0.09,0.02,0.14,0.02h3.12
	c0.04,0,0.07,0,0.13-0.01V9.59H1.5z M13.61,10.99c-0.04-0.01-0.07-0.01-0.1,0H9.35c-0.26,0-0.47,0.2-0.47,0.46
	c0,0.21,0.14,0.39,0.34,0.45c0.05,0.01,0.11,0.02,0.17,0.02h4.12c0.26,0.03,0.49-0.16,0.51-0.42
	C14.05,11.24,13.86,11.01,13.61,10.99z M13.61,10.99c-0.04-0.01-0.07-0.01-0.1,0H9.35c-0.26,0-0.47,0.2-0.47,0.46
	c0,0.21,0.14,0.39,0.34,0.45c0.05,0.01,0.11,0.02,0.17,0.02h4.12c0.26,0.03,0.49-0.16,0.51-0.42
	C14.05,11.24,13.86,11.01,13.61,10.99z M1.5,9.59c-0.38,0-0.55,0.17-0.55,0.55v2.64c-0.01,0.03-0.01,0.06-0.01,0.09v0.03
	c0,0.02,0.01,0.04,0.02,0.06c0,0.03,0.01,0.06,0.03,0.09c0.01,0.02,0.02,0.04,0.04,0.06c0.01,0.03,0.03,0.05,0.06,0.07
	c0.01,0.02,0.02,0.03,0.04,0.04c0.03,0.02,0.06,0.04,0.1,0.06c0.01,0.01,0.03,0.02,0.05,0.02c0.04,0.01,0.09,0.02,0.14,0.02h3.12
	c0.04,0,0.07,0,0.13-0.01V9.59H1.5z M3.87,10.91c-0.18-0.19-0.47-0.21-0.66-0.04c-0.02,0.01-0.03,0.03-0.04,0.04
	c-0.12,0.11-0.22,0.23-0.35,0.37c-0.14-0.14-0.25-0.26-0.36-0.37c-0.17-0.19-0.47-0.21-0.66-0.04c-0.19,0.18-0.2,0.47-0.03,0.66
	c0.01,0.01,0.02,0.02,0.03,0.03c0.22,0.23,0.44,0.45,0.67,0.67c0.16,0.19,0.46,0.21,0.65,0.04c0.02-0.01,0.03-0.03,0.05-0.04
	c0.22-0.22,0.44-0.44,0.65-0.66C4.02,11.4,4.04,11.1,3.87,10.91z M13.61,10.99c-0.04-0.01-0.07-0.01-0.1,0H9.35
	c-0.26,0-0.47,0.2-0.47,0.46c0,0.21,0.14,0.39,0.34,0.45c0.05,0.01,0.11,0.02,0.17,0.02h4.12c0.26,0.03,0.49-0.16,0.51-0.42
	C14.05,11.24,13.86,11.01,13.61,10.99z M3.87,10.91c-0.18-0.19-0.47-0.21-0.66-0.04c-0.02,0.01-0.03,0.03-0.04,0.04
	c-0.12,0.11-0.22,0.23-0.35,0.37c-0.14-0.14-0.25-0.26-0.36-0.37c-0.17-0.19-0.47-0.21-0.66-0.04c-0.19,0.18-0.2,0.47-0.03,0.66
	c0.01,0.01,0.02,0.02,0.03,0.03c0.22,0.23,0.44,0.45,0.67,0.67c0.16,0.19,0.46,0.21,0.65,0.04c0.02-0.01,0.03-0.03,0.05-0.04
	c0.22-0.22,0.44-0.44,0.65-0.66C4.02,11.4,4.04,11.1,3.87,10.91z"/>
</svg>
