<?xml version="1.0" encoding="utf-8"?>
<!-- Generator: Adobe Illustrator 27.8.1, SVG Export Plug-In . SVG Version: 6.00 Build 0)  -->
<svg version="1.1" id="Layer_1" xmlns="http://www.w3.org/2000/svg" xmlns:xlink="http://www.w3.org/1999/xlink" x="0px" y="0px"
	 viewBox="0 0 512 512" style="enable-background:new 0 0 512 512;" xml:space="preserve">
<path d="M393.8,501c-13.3,0-24-10.7-24-24v-58.7h-58.7c-13.3,0-24-10.7-24-24s10.7-24,24-24h58.7v-58.7c0-13.3,10.7-24,24-24
	s24,10.7,24,24v58.7h58.7c13.3,0,24,10.7,24,24s-10.7,24-24,24h-58.7V477C417.8,490.3,407.1,501,393.8,501z M156.8,501H79.6
	c-18,0-28.9,0-39.9-5.6c-9.8-5-17.6-12.8-22.5-22.5c-5.6-11-5.6-21.9-5.6-39.9v-77.2c0-18,0-28.9,5.6-39.9
	c5-9.8,12.8-17.6,22.5-22.5c11-5.6,21.9-5.6,40-5.6h77.2c18,0,28.9,0,39.9,5.6c9.8,5,17.6,12.8,22.5,22.5c5.6,11,5.6,21.9,5.6,39.9
	v77.2c0,18,0,28.9-5.6,39.9c-5,9.8-12.8,17.6-22.5,22.5C185.7,501,174.8,501,156.8,501z M61.1,452.4c2.6,0.6,10.7,0.6,18.5,0.6h77.2
	c7.8,0,15.9,0,18.5-0.6c0.4-0.3,0.8-0.6,1-1c0.6-2.6,0.6-10.7,0.6-18.5v-77.2c0-7.8,0-15.9-0.6-18.5c-0.3-0.4-0.6-0.8-1-1
	c-2.6-0.6-10.7-0.6-18.5-0.6H79.6c-7.8,0-15.9,0-18.5,0.6c-0.4,0.3-0.8,0.6-1,1c-0.6,2.6-0.6,10.7-0.6,18.5v77.2
	c0,7.8,0,15.9,0.6,18.5C60.3,451.8,60.7,452.2,61.1,452.4z M432.4,225.4h-77.2c-18,0-28.9,0-39.9-5.6c-9.8-5-17.6-12.8-22.5-22.5
	c-5.6-11-5.6-21.9-5.6-40V80.1c0-18,0-28.9,5.6-39.9c5-9.8,12.8-17.6,22.5-22.5c11-5.6,21.9-5.6,39.9-5.6h77.2c18,0,28.9,0,39.9,5.6
	c9.8,5,17.6,12.8,22.5,22.5c5.6,11,5.6,21.9,5.6,40v77.2c0,18,0,28.9-5.6,39.9c-5,9.8-12.8,17.6-22.5,22.5
	C461.3,225.4,450.4,225.4,432.4,225.4z M336.7,176.8c2.6,0.6,10.7,0.6,18.5,0.6h77.2c7.8,0,15.9,0,18.5-0.6c0.4-0.3,0.8-0.6,1-1
	c0.6-2.6,0.6-10.7,0.6-18.5V80.1c0-7.8,0-15.9-0.6-18.5c-0.3-0.4-0.6-0.8-1-1c-2.6-0.6-10.7-0.6-18.5-0.6h-77.2
	c-7.8,0-15.9,0-18.5,0.6c-0.4,0.3-0.8,0.6-1,1c-0.6,2.6-0.6,10.7-0.6,18.5v77.2c0,7.8,0,15.9,0.6,18.5
	C336,176.2,336.3,176.5,336.7,176.8z M156.8,225.4H79.6c-18,0-28.9,0-39.9-5.6c-9.8-5-17.6-12.8-22.5-22.5
	c-5.6-11-5.6-21.9-5.6-39.9V80.1c0-18,0-28.9,5.6-39.9c5-9.8,12.8-17.6,22.5-22.5C50.7,12,61.6,12,79.6,12h77.2
	c18,0,28.9,0,39.9,5.6c9.8,5,17.6,12.8,22.5,22.5c5.6,11,5.6,21.9,5.6,39.9v77.2c0,18,0,28.9-5.6,39.9c-5,9.8-12.8,17.6-22.5,22.5
	C185.7,225.4,174.8,225.4,156.8,225.4z M61.1,176.8c2.6,0.6,10.7,0.6,18.5,0.6h77.2c7.8,0,15.9,0,18.5-0.6c0.4-0.3,0.8-0.6,1-1
	c0.6-2.6,0.6-10.7,0.6-18.5V80.1c0-7.8,0-15.9-0.6-18.5c-0.3-0.4-0.6-0.8-1-1c-2.6-0.6-10.7-0.6-18.5-0.6H79.6
	c-7.8,0-15.9,0-18.5,0.6c-0.4,0.3-0.8,0.6-1,1c-0.6,2.6-0.6,10.7-0.6,18.5v77.2c0,7.8,0,15.9,0.6,18.5
	C60.3,176.2,60.7,176.5,61.1,176.8z"/>
</svg>
