<?xml version="1.0" encoding="utf-8"?>
<!-- Generator: Adobe Illustrator 25.2.3, SVG Export Plug-In . SVG Version: 6.00 Build 0)  -->
<svg version="1.1" id="Layer_1" xmlns="http://www.w3.org/2000/svg" xmlns:xlink="http://www.w3.org/1999/xlink" x="0px" y="0px"
	 viewBox="0 0 15.9 15.9" style="enable-background:new 0 0 15.9 15.9;" xml:space="preserve">
<path d="M15.9,12.5v0.4c0,0.8-0.6,1.4-1.4,1.4h-4c-0.8,0-1.4-0.6-1.4-1.4v-0.4c0-0.8,0.6-1.4,1.4-1.4h4
	C15.3,11.1,15.9,11.7,15.9,12.5z M14.5,1.6h-4C9.7,1.6,9.1,2.2,9.1,3v0.4c0,0.8,0.6,1.4,1.4,1.4h4c0.8,0,1.4-0.6,1.4-1.4V3
	C15.9,2.2,15.3,1.6,14.5,1.6z M5,0H1.4C0.6,0,0,0.6,0,1.4V5c0,0.8,0.6,1.4,1.4,1.4H5c0.8,0,1.4-0.6,1.4-1.4V1.4C6.4,0.6,5.8,0,5,0z
	 M5,9.5H1.4C0.6,9.5,0,10.1,0,10.9v3.6c0,0.8,0.6,1.4,1.4,1.4H5c0.8,0,1.4-0.6,1.4-1.4v-3.6C6.4,10.1,5.8,9.5,5,9.5z"/>
</svg>
