<?xml version="1.0" encoding="utf-8"?>
<!-- Generator: Adobe Illustrator 27.8.1, SVG Export Plug-In . SVG Version: 6.00 Build 0)  -->
<svg version="1.1" id="Layer_1" xmlns="http://www.w3.org/2000/svg" xmlns:xlink="http://www.w3.org/1999/xlink" x="0px" y="0px"
	 viewBox="0 0 512 512" style="enable-background:new 0 0 512 512;" xml:space="preserve">
<path d="M383.9,472.4H128.1c-27.1,0-42,0-55.4-6.3c-11.9-5.6-21.7-14.5-28.4-25.7c-7.6-12.7-9.1-27.6-11.8-54.5L21.2,273.6
	c-2.5-24.8-3.8-38.4,1.5-51.1c4.7-11,13.1-20.3,23.6-26.1c12-6.6,25.8-6.6,50.7-6.6H415c24.9,0,38.6,0,50.7,6.6
	c10.5,5.8,18.9,15,23.6,26.1c5.4,12.6,4,26.3,1.5,51.1l-11.2,112.2c-2.7,27-4.2,41.8-11.8,54.5c-6.8,11.2-16.6,20.1-28.4,25.7
	C425.9,472.4,411,472.4,383.9,472.4z M97,221.9c-19,0-30.4,0-35.3,2.7c-4.2,2.3-7.6,6-9.5,10.5c-2.2,5.1-1,16.5,0.9,35.4l11.2,112.2
	c2.2,22.4,3.5,34.7,7.4,41.2c3.5,5.8,8.6,10.4,14.7,13.3c6.9,3.3,19.3,3.3,41.8,3.3h255.8c22.5,0,34.9,0,41.8-3.3
	c6.1-2.9,11.2-7.5,14.7-13.3c3.9-6.6,5.2-18.9,7.4-41.2L459,270.4c1.9-18.9,3-30.3,0.9-35.4c-1.9-4.4-5.3-8.2-9.5-10.5
	c-4.8-2.7-16.3-2.7-35.3-2.7H97z M256,397.3c-51.1,0-91.2-29-91.2-66.1c0-37.1,40-66.1,91.2-66.1c51.1,0,91.2,29,91.2,66.1
	C347.2,368.2,307.1,397.3,256,397.3z M256,297.1c-34.9,0-59.2,18-59.2,34.1s24.3,34.1,59.2,34.1c34.9,0,59.2-18,59.2-34.1
	S290.9,297.1,256,297.1z M456.4,146.7H55.6c-8.8,0-16-7.2-16-16c0-8.8,7.2-16,16-16h400.9c8.8,0,16,7.2,16,16
	C472.4,139.6,465.3,146.7,456.4,146.7z M431.4,71.6H80.6c-8.8,0-16-7.2-16-16s7.2-16,16-16h350.8c8.8,0,16,7.2,16,16
	S440.2,71.6,431.4,71.6z"/>
</svg>
