<?xml version="1.0" encoding="utf-8"?>
<!-- Generator: Adobe Illustrator 25.2.3, SVG Export Plug-In . SVG Version: 6.00 Build 0)  -->
<svg version="1.1" id="Layer_1" xmlns="http://www.w3.org/2000/svg" xmlns:xlink="http://www.w3.org/1999/xlink" x="0px" y="0px"
	 viewBox="0 0 15.9 15.9" style="enable-background:new 0 0 15.9 15.9;" xml:space="preserve">
<path d="M5,0H1.4C0.6,0,0,0.6,0,1.4V5c0,0.8,0.6,1.4,1.4,1.4H5c0.8,0,1.4-0.6,1.4-1.4V1.4C6.4,0.6,5.8,0,5,0z M5.4,5
	c0,0.2-0.2,0.4-0.4,0.4H1.4C1.2,5.4,1,5.2,1,5V1.4C1,1.2,1.2,1,1.4,1H5c0.2,0,0.4,0.2,0.4,0.4V5z M5,9.5H1.4C0.6,9.5,0,10.1,0,10.9
	v3.6c0,0.8,0.6,1.4,1.4,1.4H5c0.8,0,1.4-0.6,1.4-1.4v-3.6C6.4,10.1,5.8,9.5,5,9.5z M5.4,14.5c0,0.2-0.2,0.4-0.4,0.4H1.4
	c-0.2,0-0.4-0.2-0.4-0.4v-3.6c0-0.2,0.2-0.4,0.4-0.4H5c0.2,0,0.4,0.2,0.4,0.4V14.5z M14.5,0h-3.6c-0.8,0-1.4,0.6-1.4,1.4V5
	c0,0.8,0.6,1.4,1.4,1.4h3.6c0.8,0,1.4-0.6,1.4-1.4V1.4C15.9,0.6,15.3,0,14.5,0z M14.9,5c0,0.2-0.2,0.4-0.4,0.4h-3.6
	c-0.2,0-0.4-0.2-0.4-0.4V1.4c0-0.2,0.2-0.4,0.4-0.4h3.6c0.2,0,0.4,0.2,0.4,0.4V5z M15.8,12.7c0,0.4-0.3,0.7-0.7,0.7h-1.7v1.8
	c0,0.4-0.3,0.7-0.7,0.7c-0.4,0-0.7-0.3-0.7-0.7v-1.8h-1.8c-0.4,0-0.7-0.3-0.7-0.7c0-0.4,0.3-0.7,0.7-0.7H12v-1.7
	c0-0.4,0.3-0.7,0.7-0.7c0.4,0,0.7,0.3,0.7,0.7V12h1.7C15.5,12,15.8,12.3,15.8,12.7z"/>
</svg>
