<?xml version="1.0" encoding="utf-8"?>
<!-- Generator: Adobe Illustrator 27.8.1, SVG Export Plug-In . SVG Version: 6.00 Build 0)  -->
<svg version="1.1" id="Layer_1" xmlns="http://www.w3.org/2000/svg" xmlns:xlink="http://www.w3.org/1999/xlink" x="0px" y="0px"
	 viewBox="0 0 512 512" style="enable-background:new 0 0 512 512;" xml:space="preserve">
<path d="M386.2,489.5H125.8c-32.9,0-49.4,0-64.4-7.7c-13.3-6.8-23.9-17.4-30.7-30.7c-7.7-15-7.7-31.5-7.7-64.4V126.3
	c0-32.9,0-49.4,7.7-64.4c6.8-13.3,17.4-23.9,30.7-30.7c15-7.7,31.5-7.7,64.4-7.7h260.4c32.9,0,49.4,0,64.4,7.7
	c13.3,6.8,23.9,17.4,30.7,30.7c7.7,15,7.7,31.5,7.7,64.4v260.4c0,32.9,0,49.4-7.7,64.4c-6.8,13.3-17.4,23.9-30.7,30.7
	C435.6,489.5,419.1,489.5,386.2,489.5z M125.8,55.5c-26.9,0-41.7,0-49.9,4.2c-7.2,3.7-13,9.5-16.7,16.7c-4.2,8.2-4.2,23-4.2,49.9
	v260.4c0,26.9,0,41.7,4.2,49.9c3.7,7.2,9.5,13,16.7,16.7c8.2,4.2,23,4.2,49.9,4.2h260.4c26.9,0,41.7,0,49.9-4.2
	c7.2-3.7,13-9.5,16.7-16.7c4.2-8.2,4.2-23,4.2-49.9V126.3c0-26.9,0-41.7-4.2-49.9c-3.7-7.2-9.5-13-16.7-16.7
	c-8.2-4.2-23-4.2-49.9-4.2H125.8z M364.5,381C364.5,381,364.5,381,364.5,381l-135.6,0c-8.8,0-16-7.2-16-16c0-8.8,7.2-16,16-16
	c0,0,0,0,0,0l135.6,0c8.8,0,16,7.2,16,16C380.5,373.9,373.3,381,364.5,381z M147.8,381h-0.3c-8.8,0-16-7.2-16-16s7.2-16,16-16h0.3
	c8.8,0,16,7.2,16,16S156.6,381,147.8,381z M364.5,272.5C364.5,272.5,364.5,272.5,364.5,272.5l-135.6,0c-8.8,0-16-7.2-16-16
	c0-8.8,7.2-16,16-16c0,0,0,0,0,0l135.6,0c8.8,0,16,7.2,16,16C380.5,265.4,373.3,272.5,364.5,272.5z M147.8,272.5h-0.3
	c-8.8,0-16-7.2-16-16c0-8.8,7.2-16,16-16h0.3c8.8,0,16,7.2,16,16C163.8,265.3,156.6,272.5,147.8,272.5z M364.5,164
	C364.5,164,364.5,164,364.5,164l-135.6,0c-8.8,0-16-7.2-16-16c0-8.8,7.2-16,16-16c0,0,0,0,0,0l135.6,0c8.8,0,16,7.2,16,16
	C380.5,156.9,373.3,164,364.5,164z M147.8,164h-0.3c-8.8,0-16-7.2-16-16s7.2-16,16-16h0.3c8.8,0,16,7.2,16,16S156.6,164,147.8,164z"
	/>
</svg>
