<?xml version="1.0" encoding="utf-8"?>
<!-- Generator: Adobe Illustrator 25.2.3, SVG Export Plug-In . SVG Version: 6.00 Build 0)  -->
<svg version="1.1" id="Layer_1" xmlns="http://www.w3.org/2000/svg" xmlns:xlink="http://www.w3.org/1999/xlink" x="0px" y="0px"
	 viewBox="0 0 15.9 15.9" style="enable-background:new 0 0 15.9 15.9;" xml:space="preserve">
<path d="M6.4,7.2v1.5h9.5V7.2H6.4z M6.4,1.9v1.5h9.5V1.9H6.4z M6.4,12.5V14h9.5v-1.5H6.4z M2.4,11C1.1,11,0,12.1,0,13.3
	c0,1.2,1.1,2.3,2.4,2.3c1.3,0,2.4-1,2.4-2.3C4.8,12,3.7,11,2.4,11z M2.4,14c-0.5,0-0.8-0.2-0.8-0.7s0.4-0.8,0.8-0.8
	c0.4,0,0.8,0.2,0.8,0.7S2.9,14,2.4,14z M5.2,2.3L5.1,2.4l-2,1.9C2.7,4.8,1.9,4.8,1.4,4.4L1.3,4.3l-1-1c-0.4-0.4-0.4-1.1,0-1.5
	c0.4-0.4,1-0.4,1.4-0.1l0.1,0.1l0.4,0.4l1.4-1.3c0.4-0.4,1.1-0.4,1.5,0C5.5,1.3,5.5,1.9,5.2,2.3z M5.2,7.6L5.1,7.7l-2,1.9
	c-0.4,0.5-1.2,0.5-1.7,0.1L1.3,9.6l-1-1c-0.4-0.4-0.4-1.1,0-1.5c0.4-0.4,1-0.4,1.4-0.1l0.1,0.1l0.4,0.4l1.4-1.3
	c0.4-0.4,1.1-0.4,1.5,0C5.5,6.6,5.5,7.2,5.2,7.6z"/>
</svg>
