<?xml version="1.0" encoding="utf-8"?>
<!-- Generator: Adobe Illustrator 25.2.3, SVG Export Plug-In . SVG Version: 6.00 Build 0)  -->
<svg version="1.1" id="Layer_1" xmlns="http://www.w3.org/2000/svg" xmlns:xlink="http://www.w3.org/1999/xlink" x="0px" y="0px"
	 viewBox="0 0 15.9 15.9" style="enable-background:new 0 0 15.9 15.9;" xml:space="preserve">
<style type="text/css">
	.st0{fill-rule:evenodd;clip-rule:evenodd;}
</style>
<path class="st0" d="M2,0C0.9,0,0,0.9,0,2v3c0,1.1,0.9,2,2,2h3c1.1,0,2-0.9,2-2V2c0-1.1-0.9-2-2-2H2z M2,2h3v3H2V2z M9.9,2
	c-0.5,0-1,0.4-1,1s0.4,1,1,1h5c0.5,0,1-0.4,1-1s-0.4-1-1-1H9.9z M9.9,10.9c-0.5,0-1,0.4-1,1c0,0.5,0.4,1,1,1h5c0.5,0,1-0.4,1-1
	c0-0.5-0.4-1-1-1H9.9z M0,10.9c0-1.1,0.9-2,2-2h3c1.1,0,2,0.9,2,2v3c0,1.1-0.9,2-2,2H2c-1.1,0-2-0.9-2-2V10.9z M5,10.9H2v3h3V10.9z"
	/>
</svg>
