<?xml version="1.0" encoding="utf-8"?>
<!-- Generator: Adobe Illustrator 25.2.3, SVG Export Plug-In . SVG Version: 6.00 Build 0)  -->
<svg version="1.1" id="Layer_1" xmlns="http://www.w3.org/2000/svg" xmlns:xlink="http://www.w3.org/1999/xlink" x="0px" y="0px"
	 viewBox="0 0 15.9 16" style="enable-background:new 0 0 15.9 16;" xml:space="preserve">
<path d="M4.1,0H1.2C0.5,0,0,0.5,0,1.2v2.3c0,0.7,0.5,1.2,1.2,1.2H4c0.7,0,1.2-0.5,1.2-1.2V1.2C5.3,0.5,4.7,0,4.1,0z M4.5,3.5
	c0,0.2-0.2,0.4-0.4,0.4H1.2C1,3.9,0.8,3.7,0.8,3.5V1.2C0.8,1,1,0.8,1.2,0.8h2.9c0.2,0,0.4,0.2,0.4,0.4V3.5z M4.1,5.6H1.2
	C0.5,5.6,0,6.2,0,6.8v2.3c0,0.7,0.5,1.2,1.2,1.2H4c0.7,0,1.2-0.5,1.2-1.2V6.8C5.3,6.2,4.7,5.6,4.1,5.6z M4.5,9.1
	c0,0.2-0.2,0.4-0.4,0.4H1.2C1,9.6,0.8,9.4,0.8,9.2V6.8c0-0.2,0.2-0.4,0.4-0.4h2.9c0.2,0,0.4,0.2,0.4,0.4V9.1z M4.1,11.3H1.2
	c-0.7,0-1.2,0.5-1.2,1.2v2.3C0,15.5,0.5,16,1.2,16H4c0.7,0,1.2-0.5,1.2-1.2v-2.3C5.3,11.8,4.7,11.3,4.1,11.3z M4.5,14.8
	c0,0.2-0.2,0.4-0.4,0.4H1.2c-0.2,0-0.4-0.2-0.4-0.4v-2.3c0-0.2,0.2-0.4,0.4-0.4h2.9c0.2,0,0.4,0.2,0.4,0.4V14.8z M14.7,11.3H7.2
	c-0.7,0-1.2,0.5-1.2,1.2v2.3C6,15.5,6.5,16,7.2,16h7.5c0.7,0,1.2-0.5,1.2-1.2v-2.3C15.9,11.8,15.4,11.3,14.7,11.3z M15.1,14.8
	c0,0.2-0.2,0.4-0.4,0.4H7.2c-0.2,0-0.4-0.2-0.4-0.4v-2.3c0-0.2,0.2-0.4,0.4-0.4h7.5c0.2,0,0.4,0.2,0.4,0.4V14.8z M14.7,5.6H7.2
	C6.5,5.6,6,6.1,6,6.8v2.3c0,0.7,0.5,1.2,1.2,1.2h7.5c0.7,0,1.2-0.5,1.2-1.2V6.8C15.9,6.2,15.4,5.6,14.7,5.6z M15.1,9.1
	c0,0.2-0.2,0.4-0.4,0.4H7.2C7,9.5,6.8,9.3,6.8,9.1V6.8c0-0.2,0.2-0.4,0.4-0.4h7.5c0.2,0,0.4,0.2,0.4,0.4V9.1z M14.7,0H7.2
	C6.5,0,6,0.5,6,1.2v2.3c0,0.7,0.5,1.2,1.2,1.2h7.5c0.7,0,1.2-0.5,1.2-1.2V1.2C15.9,0.6,15.4,0,14.7,0z M15.1,3.5
	c0,0.2-0.2,0.4-0.4,0.4H7.2C7,3.9,6.8,3.7,6.8,3.5V1.2C6.8,1,7,0.8,7.2,0.8h7.5c0.2,0,0.4,0.2,0.4,0.4V3.5z"/>
</svg>
