<?xml version="1.0" encoding="utf-8"?>
<!-- Generator: Adobe Illustrator 27.8.1, SVG Export Plug-In . SVG Version: 6.00 Build 0)  -->
<svg version="1.1" id="Layer_1" xmlns="http://www.w3.org/2000/svg" xmlns:xlink="http://www.w3.org/1999/xlink" x="0px" y="0px"
	 viewBox="0 0 512 512" style="enable-background:new 0 0 512 512;" xml:space="preserve">
<path d="M419.5,296.4c-17.2-18.1-24.3-30.3-24.3-42v-67.6c0-71.4-54-130.4-123.2-138.3c0-0.2,0-0.4,0-0.6v-16c0-8.8-7.2-16-16-16
	s-16,7.2-16,16v16c0,0.2,0,0.4,0,0.6c-69.3,8-123.2,67-123.2,138.3v67.6c0,11.7-7,23.9-24.3,42c-16,16.8-24.8,38.9-24.8,62.1
	c0,22.6,18.4,41.1,41.1,41.1h294.4c22.7,0,41.1-18.4,41.1-41.1C444.3,335.3,435.5,313.2,419.5,296.4z M411.2,366.5H100.8v-8
	c0-14.7,5.6-28.7,15.7-39.3c11.7-12.3,33.4-35.2,33.4-64.8v-67.6c0-58.5,47.6-106.2,106.2-106.2s106.2,47.6,106.2,106.2v67.6
	c0,29.7,21.7,52.5,33.4,64.8c10.1,10.6,15.7,24.6,15.7,39.3V366.5z M256,497.2c-0.3,0-0.6,0-0.9,0c-12.4-0.2-24.4-3.8-34.7-10.6
	c-10.3-6.8-18.5-16.3-23.6-27.6c-3.7-8-0.1-17.5,8-21.2c8-3.7,17.5-0.1,21.2,8c2.6,5.7,6.8,10.6,12,14c5.3,3.4,11.4,5.3,17.6,5.4
	c6.3,0.1,12.4-1.6,17.8-4.9c5.3-3.3,9.6-8,12.4-13.7c3.9-7.9,13.5-11.2,21.4-7.4c7.9,3.9,11.2,13.5,7.4,21.4
	c-5.4,11.1-13.9,20.4-24.4,26.9C279.8,493.9,268.1,497.2,256,497.2z"/>
</svg>
