<?xml version="1.0" encoding="utf-8"?>
<!-- Generator: Adobe Illustrator 27.8.1, SVG Export Plug-In . SVG Version: 6.00 Build 0)  -->
<svg version="1.1" id="Layer_1" xmlns="http://www.w3.org/2000/svg" xmlns:xlink="http://www.w3.org/1999/xlink" x="0px" y="0px"
	 viewBox="0 0 512 512" style="enable-background:new 0 0 512 512;" xml:space="preserve">
<path d="M256,492.5c-63,0-122.3-24.5-166.9-69.1C44.5,378.8,20,319.5,20,256.5c0-63,24.5-122.3,69.1-166.9S193,20.5,256,20.5
	c63,0,122.3,24.5,166.9,69.1c44.6,44.6,69.1,103.8,69.1,166.9c0,63-24.5,122.3-69.1,166.9S319,492.5,256,492.5z M256,52.5
	c-112.5,0-204,91.5-204,204c0,112.5,91.5,204,204,204c112.5,0,204-91.5,204-204C460,144,368.5,52.5,256,52.5z M317.1,309.2
	c-2.8,0-5.6-0.7-8.2-2.3l-61.1-36.7c-4.8-2.9-7.8-8.1-7.8-13.7V134.3c0-8.8,7.2-16,16-16c8.8,0,16,7.2,16,16v113.2l53.3,32
	c7.6,4.5,10,14.4,5.5,22C327.8,306.4,322.5,309.2,317.1,309.2z"/>
</svg>
