<?xml version="1.0" encoding="utf-8"?>
<!-- Generator: Adobe Illustrator 27.8.1, SVG Export Plug-In . SVG Version: 6.00 Build 0)  -->
<svg version="1.1" id="Layer_1" xmlns="http://www.w3.org/2000/svg" xmlns:xlink="http://www.w3.org/1999/xlink" x="0px" y="0px"
	 viewBox="0 0 512 512" style="enable-background:new 0 0 512 512;" xml:space="preserve">
<path d="M483,484.9c0,13.2-10.8,24-24,24H53c-13.2,0-24-10.8-24-24c0-13.3,10.8-24,24-24h2.7c6.8-62.2,39.9-119.3,91.3-156
	l67.7-48.3L147,208.2c-51.5-36.8-84.5-93.9-91.3-156H53c-13.2,0-24-10.7-24-24c0-13.2,10.8-24,24-24h406c13.2,0,24,10.8,24,24
	c0,13.3-10.8,24-24,24h-2.7c-6.8,62.2-39.9,119.3-91.3,156l-67.7,48.3l67.7,48.3c51.5,36.8,84.5,93.9,91.3,156h2.7
	C472.2,460.9,483,471.6,483,484.9z"/>
</svg>
