<?xml version="1.0" encoding="utf-8"?>
<!-- Generator: Adobe Illustrator 27.8.1, SVG Export Plug-In . SVG Version: 6.00 Build 0)  -->
<svg version="1.1" id="Layer_1" xmlns="http://www.w3.org/2000/svg" xmlns:xlink="http://www.w3.org/1999/xlink" x="0px" y="0px"
	 viewBox="0 0 512 512" style="enable-background:new 0 0 512 512;" xml:space="preserve">
<path d="M256,505.2c-0.3,0-0.7,0-1,0c-13.9-0.2-27.4-4.3-39-11.9c-11.6-7.6-20.8-18.3-26.5-31c-5.5-12.1-0.1-26.3,11.9-31.8
	c12.1-5.5,26.3-0.1,31.8,11.9c2,4.3,5.1,8,9.1,10.6c4,2.6,8.6,4,13.4,4.1c4.8,0.1,9.4-1.2,13.5-3.7c4.1-2.5,7.3-6.1,9.4-10.4
	c5.8-11.9,20.2-16.9,32.1-11.1c11.9,5.8,16.9,20.2,11.1,32.1c-6.1,12.5-15.6,22.9-27.4,30.2C282.7,501.5,269.5,505.2,256,505.2z
	 M425.3,290.9c-14.9-15.7-22.1-26.7-22.1-36.5v-67.6c0-73.2-53.4-133.9-123.3-145.3c0-0.6,0.1-1.3,0.1-1.9v-7.7
	c0-13.3-10.8-24-24-24s-24,10.7-24,24v7.7c0,0.6,0,1.3,0.1,1.9c-69.9,11.4-123.3,72.1-123.3,145.3v67.6c0,9.8-7.2,20.8-22.1,36.5
	c-16.7,17.6-27,41.4-27,67.6c0,27.1,22,49.1,49.1,49.1h294.4c27.1,0,49.1-22,49.1-49.1C452.3,332.3,442,308.5,425.3,290.9z"/>
</svg>
