<?xml version="1.0" encoding="utf-8"?>
<!-- Generator: Adobe Illustrator 27.8.1, SVG Export Plug-In . SVG Version: 6.00 Build 0)  -->
<svg version="1.1" id="Layer_1" xmlns="http://www.w3.org/2000/svg" xmlns:xlink="http://www.w3.org/1999/xlink" x="0px" y="0px"
	 viewBox="0 0 512 512" style="enable-background:new 0 0 512 512;" xml:space="preserve">
<path d="M256,500.5c-65.2,0-126.4-25.4-172.5-71.5C37.4,382.9,12,321.7,12,256.5S37.4,130.1,83.5,84C129.6,37.9,190.8,12.5,256,12.5
	S382.4,37.9,428.5,84c46.1,46.1,71.5,107.4,71.5,172.5S474.6,382.9,428.5,429C382.4,475.1,321.2,500.5,256,500.5z M256,60.5
	c-108.1,0-196,87.9-196,196s87.9,196,196,196s196-87.9,196-196S364.1,60.5,256,60.5z M317.1,317.2c-4.2,0-8.5-1.1-12.3-3.4
	l-61.1-36.7c-7.2-4.3-11.7-12.2-11.7-20.6V134.3c0-13.3,10.7-24,24-24s24,10.7,24,24v108.6l49.5,29.7c11.4,6.8,15.1,21.6,8.2,32.9
	C333.2,313,325.2,317.2,317.1,317.2z"/>
</svg>
