<?xml version="1.0" encoding="utf-8"?>
<!-- Generator: Adobe Illustrator 27.8.1, SVG Export Plug-In . SVG Version: 6.00 Build 0)  -->
<svg version="1.1" id="Layer_1" xmlns="http://www.w3.org/2000/svg" xmlns:xlink="http://www.w3.org/1999/xlink" x="0px" y="0px"
	 viewBox="0 0 512 512" style="enable-background:new 0 0 512 512;" xml:space="preserve">
<path d="M459,508.9H53c-13.3,0-24-10.7-24-24s10.7-24,24-24h2.7c6.8-62.2,39.9-119.3,91.3-156l67.7-48.3L147,208.1
	c-51.4-36.7-84.5-93.8-91.3-156H53c-13.3,0-24-10.7-24-24s10.7-24,24-24h406c13.3,0,24,10.7,24,24s-10.7,24-24,24h-2.7
	c-6.8,62.2-39.9,119.3-91.3,156l-67.7,48.4l67.7,48.3c51.5,36.8,84.5,93.8,91.3,156h2.7c13.3,0,24,10.7,24,24S472.3,508.9,459,508.9
	z M104.1,460.9h303.9c-6.6-46.7-32-89.2-70.9-117L256,286l-81.1,57.9C136.1,371.7,110.6,414.2,104.1,460.9z M104.1,52.1
	c6.6,46.7,32,89.2,70.9,117L256,227l81.1-57.9c38.8-27.7,64.3-70.3,70.9-117H104.1z M332.1,432.8H179.9c-13.3,0-24-10.7-24-24
	s10.7-24,24-24h152.2c13.3,0,24,10.7,24,24S345.4,432.8,332.1,432.8z"/>
</svg>
