<?xml version="1.0" encoding="utf-8"?>
<!-- Generator: Adobe Illustrator 25.2.3, SVG Export Plug-In . SVG Version: 6.00 Build 0)  -->
<svg version="1.1" id="Layer_1" xmlns="http://www.w3.org/2000/svg" xmlns:xlink="http://www.w3.org/1999/xlink" x="0px" y="0px"
	 viewBox="0 0 14.3 16" style="enable-background:new 0 0 14.3 16;" xml:space="preserve">
<path d="M14.1,13.1C12.4,12.3,12.3,9,12.3,9V6.7c0-2-1.2-3.9-3.1-4.7c0-1.1-0.9-2-2-2s-2,0.9-2,2C3.3,2.8,2.1,4.7,2.1,6.7v2.2
	C2.1,9,2,12.3,0.3,13C0.1,13.1,0,13.3,0,13.5c0,0.2,0.2,0.4,0.4,0.4h4.3c0.1,0.5,0.3,1,0.7,1.3C5.9,15.7,6.5,16,7.2,16
	c0.7,0,1.3-0.3,1.7-0.8c0.4-0.3,0.6-0.8,0.7-1.3h4.3c0.2,0,0.4-0.1,0.4-0.3c0,0,0,0,0-0.1C14.4,13.4,14.3,13.2,14.1,13.1z
	 M11.9,11.5c0.2,0.5,0.4,1.1,0.8,1.5h-11c0.3-0.5,0.6-1,0.8-1.5H11.9z M7.2,0.9c0.5,0,0.9,0.3,1,0.8c-0.3-0.1-0.7-0.1-1-0.1
	c-0.3,0-0.7,0-1,0.1C6.3,1.2,6.7,0.9,7.2,0.9z M3,8.9V6.7c0-2.3,1.9-4.2,4.2-4.2s4.2,1.9,4.2,4.2v2.2c0,0.6,0.1,1.1,0.2,1.7H2.8
	C2.9,10,3,9.5,3,8.9z M7.2,15.1c-0.7,0-1.3-0.5-1.5-1.2h3C8.5,14.6,7.9,15.1,7.2,15.1z M7.2,3.1c-1.9,0-3.5,1.6-3.5,3.5
	c0,0.3,0.2,0.5,0.5,0.5c0.3,0,0.5-0.2,0.5-0.5C4.6,5.2,5.7,4.1,7.1,4c0,0,0.1,0,0.1,0c0.3,0,0.5-0.2,0.5-0.5
	C7.7,3.3,7.4,3.1,7.2,3.1z"/>
</svg>
