<?xml version="1.0" encoding="utf-8"?>
<!-- Generator: Adobe Illustrator 27.8.1, SVG Export Plug-In . SVG Version: 6.00 Build 0)  -->
<svg version="1.1" id="Layer_1" xmlns="http://www.w3.org/2000/svg" xmlns:xlink="http://www.w3.org/1999/xlink" x="0px" y="0px"
	 viewBox="0 0 512 512" style="enable-background:new 0 0 512 512;" xml:space="preserve">
<path d="M256,3.7c12.1,0,22,9.8,22,22v23.5c74.6,10.7,131.9,74.8,131.9,152.3v92.3l27.8,33.4c23.9,28.6,3.5,72.1-33.8,72.1H108.1
	c-37.3,0-57.6-43.5-33.8-72.1l27.8-33.4v-92.3c0-77.5,57.3-141.7,131.9-152.3V25.7C234,13.5,243.9,3.7,256,3.7z M178.4,477.1
	c-9.7-9.7-17.5-21.2-23-33.8h201.5c-5.5,12.6-13.3,24-23,33.8c-10.2,10.2-22.3,18.3-35.7,23.8c-13.3,5.5-27.6,8.4-42.1,8.4
	c-14.4,0-28.7-2.8-42.1-8.4C200.7,495.4,188.6,487.3,178.4,477.1z"/>
</svg>
