<?xml version="1.0" encoding="utf-8"?>
<!-- Generator: Adobe Illustrator 27.8.1, SVG Export Plug-In . SVG Version: 6.00 Build 0)  -->
<svg version="1.1" id="Layer_1" xmlns="http://www.w3.org/2000/svg" xmlns:xlink="http://www.w3.org/1999/xlink" x="0px" y="0px"
	 viewBox="0 0 512 512" style="enable-background:new 0 0 512 512;" xml:space="preserve">
<path d="M428.5,84C382.5,37.9,321.2,12.5,256,12.5S129.5,37.9,83.5,84C37.4,130,12,191.3,12,256.5S37.4,383,83.5,429
	c46.1,46.1,107.4,71.5,172.5,71.5s126.5-25.4,172.5-71.5C474.6,383,500,321.7,500,256.5S474.6,130,428.5,84z M337.7,305.5
	c-4.5,7.5-12.5,11.7-20.6,11.7c-4.2,0-8.5-1.1-12.3-3.4l-61.1-36.7c-7.2-4.3-11.7-12.2-11.7-20.6V134.3c0-13.3,10.8-24,24-24
	s24,10.7,24,24v108.6l49.5,29.7C340.8,279.4,344.5,294.2,337.7,305.5z"/>
</svg>
