<?xml version="1.0" encoding="utf-8"?>
<!-- Generator: Adobe Illustrator 27.8.1, SVG Export Plug-In . SVG Version: 6.00 Build 0)  -->
<svg version="1.1" id="Layer_1" xmlns="http://www.w3.org/2000/svg" xmlns:xlink="http://www.w3.org/1999/xlink" x="0px" y="0px"
	 viewBox="0 0 512 512" style="enable-background:new 0 0 512 512;" xml:space="preserve">
<path d="M256.1,501c-13.1,0-25.9-2.5-38-7.6c-12.1-5-22.9-12.2-32.2-21.5c-9.3-9.3-16.5-20.1-21.5-32.2c-2.9-7.1-5-14.5-6.3-22
	h-42.3c-22.6,0-42.6-12.7-52.2-33.2c-9.6-20.5-6.6-44,7.9-61.3L94.3,296v-81.6c0-83.8,64-152.9,145.7-160.9V27c0-8.8,7.2-16,16-16
	c8.8,0,16,7.2,16,16v26.4c81.7,8.1,145.7,77.2,145.7,160.9V296l22.7,27.2c14.5,17.4,17.5,40.9,7.9,61.3s-29.6,33.2-52.2,33.2h-42
	c-1.2,7.5-3.3,14.9-6.3,22c-5,12.1-12.3,22.9-21.5,32.2c-9.3,9.3-20.1,16.5-32.2,21.5C282,498.5,269.2,501,256.1,501z M190.8,417.7
	c0.8,3.3,1.9,6.6,3.2,9.7c3.4,8.2,8.3,15.5,14.6,21.8c6.3,6.3,13.6,11.2,21.8,14.6c8.2,3.4,16.9,5.1,25.7,5.1
	c8.9,0,17.5-1.7,25.7-5.1c8.2-3.4,15.5-8.3,21.8-14.6c6.3-6.3,11.2-13.6,14.6-21.8c1.3-3.2,2.4-6.4,3.2-9.7H190.8z M339.4,385.7
	h56.7c10.2,0,18.9-5.5,23.2-14.8c4.3-9.2,3-19.4-3.5-27.3L389.4,312c-2.4-2.9-3.7-6.5-3.7-10.2v-87.4c0-71.5-58.2-129.7-129.7-129.7
	c-71.5,0-129.7,58.2-129.7,129.7v87.4c0,3.7-1.3,7.4-3.7,10.2l-26.4,31.6c-6.5,7.8-7.9,18-3.5,27.3s13,14.8,23.2,14.8H339.4z
	 M110.3,301.8L110.3,301.8L110.3,301.8z"/>
</svg>
