<?xml version="1.0" encoding="utf-8"?>
<!-- Generator: Adobe Illustrator 27.8.1, SVG Export Plug-In . SVG Version: 6.00 Build 0)  -->
<svg version="1.1" id="Layer_1" xmlns="http://www.w3.org/2000/svg" xmlns:xlink="http://www.w3.org/1999/xlink" x="0px" y="0px"
	 viewBox="0 0 512 512" style="enable-background:new 0 0 512 512;" xml:space="preserve">
<path d="M310.6,428.2c-11.9-5.8-26.3-0.9-32.1,11c-2.1,4.3-5.3,7.9-9.4,10.4c-4.1,2.5-8.7,3.8-13.5,3.7c-4.8-0.1-9.4-1.5-13.4-4.1
	s-7.1-6.3-9.1-10.6c-5.5-12.1-19.7-17.4-31.8-11.9c-12.1,5.5-17.4,19.7-11.9,31.8c5.7,12.6,14.9,23.3,26.5,31
	c11.6,7.6,25.1,11.7,39,11.9c0.3,0,0.7,0,1,0c13.5,0,26.8-3.7,38.3-10.8c11.8-7.3,21.3-17.7,27.4-30.2
	C327.5,448.4,322.5,434,310.6,428.2z M425.3,287c-14.9-15.7-22.1-26.7-22.1-36.5v-67.6c0-73.1-53.3-133.8-123.2-145.3v-9.7
	c0-13.3-10.8-24-24-24s-24,10.7-24,24v9.7c-69.9,11.5-123.2,72.1-123.2,145.3v67.6c0,9.8-7.2,20.8-22.1,36.5
	c-16.7,17.6-27,41.4-27,67.6c0,27.1,22,49.1,49.1,49.1h294.4c27.1,0,49.1-22,49.1-49.1C452.3,328.5,442,304.6,425.3,287z
	 M108.8,354.7c0-13.1,5.1-25,13.5-33.8c13.7-14.5,35.6-38.6,35.6-70.3v-67.6c0-54.2,43.9-98.2,98.2-98.2c54.2,0,98.2,43.9,98.2,98.2
	v67.6c0,31.7,21.8,55.9,35.6,70.3c8.4,8.8,13.5,20.7,13.5,33.8H108.8z"/>
</svg>
