<?xml version="1.0" encoding="utf-8"?>
<!-- Generator: Adobe Illustrator 25.2.3, SVG Export Plug-In . SVG Version: 6.00 Build 0)  -->
<svg version="1.1" id="Layer_1" xmlns="http://www.w3.org/2000/svg" xmlns:xlink="http://www.w3.org/1999/xlink" x="0px" y="0px"
	 viewBox="0 0 12.8 16" style="enable-background:new 0 0 12.8 16;" xml:space="preserve">
<path d="M9,13.8c-0.3,1.4-1.7,2.4-3.2,2.1c-1-0.2-1.9-1-2.1-2.1H0.6c-0.3,0-0.6-0.2-0.6-0.5c0-0.1,0-0.3,0.1-0.4
	c0.3-0.7,0.6-1.5,0.9-2.2c0-0.1,0.1-0.2,0.1-0.3c0-1.2,0-2.4,0-3.6C1,4.8,2.3,2.9,4.2,2.1c2.7-1.2,5.8,0,7,2.7
	c0.1,0.3,0.2,0.6,0.3,1c0.1,0.4,0.1,0.8,0.1,1.2c0,1.4,0,2.8,0,4.2c0,0.1,0,0.2,0.1,0.3c0.3,0.5,0.6,1,0.9,1.5
	c0.2,0.2,0.2,0.6-0.1,0.8c-0.1,0.1-0.3,0.1-0.4,0.1H9z M1.3,12.8h10c-0.2-0.3-0.4-0.6-0.5-0.9c-0.1-0.2-0.1-0.3-0.1-0.5
	c0-1.4,0-2.9,0-4.3c0-0.3,0-0.6-0.1-0.8C10.2,3.9,8,2.3,5.6,2.7C3.6,3.1,2.1,4.9,2.1,7c0,1.2,0,2.5,0,3.7c0,0.2,0,0.3-0.1,0.4
	c-0.2,0.5-0.4,1-0.6,1.5C1.4,12.6,1.4,12.7,1.3,12.8z M4.9,13.8c0.2,0.7,0.8,1.1,1.5,1.1c0.6,0,1.2-0.4,1.4-1.1H4.9z M6.4,1.1
	c-0.3,0-0.7,0-1,0c-0.3,0-0.6-0.2-0.6-0.5C4.7,0.3,5,0,5.3,0c0,0,0.1,0,0.1,0c0.7,0,1.4,0,2,0C7.7,0,8,0.2,8,0.5c0,0,0,0,0,0
	c0,0.3-0.3,0.5-0.6,0.5c0,0,0,0,0,0H6.4z M1.3,12.8c0-0.1,0-0.1,0.1-0.2c0.2-0.5,0.4-1,0.6-1.5c0.1-0.1,0.1-0.3,0.1-0.4
	c0-1.2,0-2.5,0-3.7c0-2.3,1.9-4.3,4.2-4.3c2.1,0,3.9,1.5,4.2,3.5c0,0.3,0.1,0.5,0.1,0.8c0,1.4,0,2.9,0,4.3c0,0.2,0,0.4,0.1,0.5
	c0.2,0.3,0.3,0.6,0.5,0.9L1.3,12.8z"/>
</svg>
