<?xml version="1.0" encoding="utf-8"?>
<!-- Generator: Adobe Illustrator 25.2.3, SVG Export Plug-In . SVG Version: 6.00 Build 0)  -->
<svg version="1.1" id="Layer_1" xmlns="http://www.w3.org/2000/svg" xmlns:xlink="http://www.w3.org/1999/xlink" x="0px" y="0px"
	 viewBox="0 0 12.2 16" style="enable-background:new 0 0 12.2 16;" xml:space="preserve">
<path d="M5.8,16c-0.3-0.1-0.6-0.2-0.8-0.4c-0.5-0.3-0.8-0.9-0.8-1.5H0.6C0.3,14.2,0,14,0,13.7c0-0.1,0-0.1,0-0.2
	c0-0.8,0.1-1.5,0.5-2.2c0.2-0.3,0.4-0.6,0.6-0.9C1.6,9.8,1.9,9,1.9,8.2c0-0.7,0-1.4,0-2c0-1.8,1.1-3.5,2.9-4.1c0,0,0,0,0.1,0
	C4.7,1.8,4.7,1.5,4.7,1.2C4.8,0.6,5.2,0.1,5.8,0c0,0,0.1,0,0.1,0h0.4c0.2,0.1,0.4,0.1,0.6,0.2c0.6,0.4,0.8,1.2,0.5,1.8
	c0.1,0,0.1,0,0.2,0.1c1.7,0.6,2.8,2.2,2.8,4c0,0.7,0,1.4,0,2.1c0,0.9,0.3,1.7,0.8,2.3c0.7,0.9,1.1,2,1.1,3.1c0,0.3-0.2,0.5-0.4,0.5
	c0,0-0.1,0-0.1,0H8c0,0.1,0,0.3-0.1,0.4c-0.2,0.7-0.7,1.3-1.5,1.4c0,0-0.1,0-0.1,0H5.8z M11.3,13.2c-0.1-0.3-0.1-0.6-0.2-0.9
	c-0.2-0.5-0.4-0.9-0.8-1.3c-0.5-0.7-0.9-1.5-0.9-2.3c0-0.8,0-1.6,0-2.5c0-0.2,0-0.5-0.1-0.7C9,3.7,7.2,2.5,5.5,2.9
	C3.9,3.2,2.8,4.5,2.8,6.1c0,0.7,0,1.4,0,2.1c0,1-0.3,2-1,2.8c-0.1,0.1-0.2,0.3-0.3,0.4C1.2,12,1,12.6,1,13.2H11.3z M7,14.1H5.2
	c0,0.5,0.4,0.9,0.9,0.9C6.6,15.1,7,14.7,7,14.1z M6.6,1.4c0-0.3-0.2-0.5-0.5-0.5c-0.3,0-0.5,0.2-0.5,0.5s0.2,0.5,0.5,0.5
	c0,0,0,0,0,0C6.3,1.9,6.6,1.7,6.6,1.4z M12.2,5.9c0,0.1,0,0.2,0,0.2c0,0.3-0.3,0.4-0.5,0.4c-0.2,0-0.4-0.2-0.4-0.5
	c0-1.8-1-3.5-2.5-4.4C8.5,1.6,8.4,1.4,8.4,1.2c0-0.2,0.2-0.4,0.4-0.4c0.1,0,0.2,0,0.4,0.1c1.5,0.9,2.5,2.3,2.9,4
	C12.1,5.2,12.2,5.6,12.2,5.9L12.2,5.9z M3.2,0.8c0.2,0,0.4,0.1,0.5,0.3c0.1,0.2,0,0.4-0.2,0.5C3.1,1.9,2.7,2.2,2.4,2.5
	C1.5,3.5,1,4.7,0.9,6c0,0.3-0.2,0.5-0.4,0.5c0,0,0,0,0,0C0.2,6.6,0,6.4,0,6.1c0,0,0,0,0-0.1c0-2.1,1.2-4.1,3-5.2
	C3.1,0.8,3.2,0.8,3.2,0.8z"/>
</svg>
