<svg id="Layer_1" data-name="Layer 1" xmlns="http://www.w3.org/2000/svg" viewBox="0 0 15.94 15.93"><path d="M16.31,16.64a.44.44,0,0,1-.06.58.4.4,0,0,1-.33.12.46.46,0,0,1-.3-.15L13.36,14.7a5.7,5.7,0,0,1-1.19,2.84,1.05,1.05,0,0,1-.77.42h-.07a1.06,1.06,0,0,1-.75-.31l-3.8-3.8-2.7,2.71v.08H4a.51.51,0,0,1-.27.09h0a.44.44,0,0,1-.31-.13.45.45,0,0,1,0-.63l2.74-2.74L2.34,9.41l-.08-.08a1.07,1.07,0,0,1,.16-1.49A4.79,4.79,0,0,1,6.08,6.7L3.4,3.75a.44.44,0,1,1,.65-.6ZM17.66,7,13,2.34a1.06,1.06,0,0,0-1.49,0L8.69,5.19h0l0,0a.44.44,0,0,0,0,.62h0a0,0,0,0,0,0,0l5.16,5.66,0,0,0,0a.44.44,0,0,0,.32.13.42.42,0,0,0,.31-.13l3.16-3.16A1,1,0,0,0,18,7.73,1.06,1.06,0,0,0,17.66,7Z" transform="translate(-2.03 -2.04)"/></svg>