<svg id="Layer_1" data-name="Layer 1" xmlns="http://www.w3.org/2000/svg" viewBox="0 0 15.91 15.9"><path d="M18,7.73A1,1,0,0,0,17.65,7L13,2.35a1.05,1.05,0,0,0-1.47,0L7,6.92a4.68,4.68,0,0,0-4.55.94,1,1,0,0,0-.38.69,1.06,1.06,0,0,0,.22.77l.08.08,3.82,3.83L3.42,16a.43.43,0,0,0-.13.3.44.44,0,0,0,.13.31.42.42,0,0,0,.3.12h0A.39.39,0,0,0,4,16.62h.08v-.07l2.72-2.72,3.81,3.82a1.07,1.07,0,0,0,.74.3h.07a1,1,0,0,0,.76-.41c1.53-2,1.27-3.69.94-4.52l4.55-4.56A1,1,0,0,0,18,7.73ZM12.2,13.11c.77,1.54-.12,3.11-.73,3.91a.18.18,0,0,1-.27,0L3,8.8a.24.24,0,0,1-.05-.13A.21.21,0,0,1,3,8.52a4.09,4.09,0,0,1,2.59-1h.05a3.25,3.25,0,0,1,1.28.26.42.42,0,0,0,.5-.08L12.15,3a.19.19,0,0,1,.26,0L17.05,7.6a.17.17,0,0,1,0,.24l-4.78,4.78A.43.43,0,0,0,12.2,13.11Z" transform="translate(-2.04 -2.05)"/></svg>