<svg id="Layer_1" data-name="Layer 1" xmlns="http://www.w3.org/2000/svg" viewBox="0 0 15.92 15.92"><path d="M13.36,9.58H10.42V6.65A.42.42,0,0,0,10,6.23a.42.42,0,0,0-.42.42V9.58H6.65a.42.42,0,0,0,0,.84H9.58v2.94a.41.41,0,0,0,.42.41.41.41,0,0,0,.42-.41V10.42h2.94a.42.42,0,0,0,0-.84ZM15.87,2H4.14A2.1,2.1,0,0,0,2,4.14V15.87A2.09,2.09,0,0,0,4.14,18H15.87A2.08,2.08,0,0,0,18,15.87V4.14A2.09,2.09,0,0,0,15.87,2Zm1.26,13.83a1.27,1.27,0,0,1-1.26,1.26H4.14a1.26,1.26,0,0,1-1.26-1.26V4.14A1.25,1.25,0,0,1,4.14,2.88H15.87a1.26,1.26,0,0,1,1.26,1.26ZM13.36,9.58H10.42V6.65A.42.42,0,0,0,10,6.23a.42.42,0,0,0-.42.42V9.58H6.65a.42.42,0,0,0,0,.84H9.58v2.94a.41.41,0,0,0,.42.41.41.41,0,0,0,.42-.41V10.42h2.94a.42.42,0,0,0,0-.84Zm0,0H10.42V6.65A.42.42,0,0,0,10,6.23a.42.42,0,0,0-.42.42V9.58H6.65a.42.42,0,0,0,0,.84H9.58v2.94a.41.41,0,0,0,.42.41.41.41,0,0,0,.42-.41V10.42h2.94a.42.42,0,0,0,0-.84Z" transform="translate(-2.04 -2.04)"/></svg>