<?xml version="1.0" encoding="utf-8"?>
<!-- Generator: Adobe Illustrator 27.8.1, SVG Export Plug-In . SVG Version: 6.00 Build 0)  -->
<svg version="1.1" id="Layer_1" xmlns="http://www.w3.org/2000/svg" xmlns:xlink="http://www.w3.org/1999/xlink" x="0px" y="0px"
	 viewBox="0 0 512 512" style="enable-background:new 0 0 512 512;" xml:space="preserve">
<path d="M425.6,498.5c-26.6,0-48.2-21.6-48.2-48.2s21.6-48.2,48.2-48.2c26.6,0,48.2,21.6,48.2,48.2S452.1,498.5,425.6,498.5z
	 M425.6,450.1c-0.1,0-0.2,0.1-0.2,0.2c0,0.2,0.4,0.2,0.4,0C425.8,450.2,425.7,450.1,425.6,450.1z M159.1,498.5
	c-26.6,0-48.2-21.6-48.2-48.2s21.6-48.2,48.2-48.2c26.6,0,48.2,21.6,48.2,48.2S185.7,498.5,159.1,498.5z M159.1,450.1
	c-0.1,0-0.2,0.1-0.2,0.2c0,0.2,0.4,0.2,0.4,0C159.3,450.2,159.2,450.1,159.1,450.1z M449.8,377.4H159.1c-11.8,0-21.9-8.6-23.7-20.4
	l-14.4-93.9c-0.5-1.9-0.9-3.9-0.9-6L90.1,62.5H38c-13.3,0-24-10.7-24-24s10.7-24,24-24h72.7c11.8,0,21.9,8.6,23.7,20.4l30.4,197.6
	h242.7l43.5-152.1c3.6-12.7,16.9-20.1,29.7-16.5c12.7,3.6,20.1,16.9,16.5,29.7l-48.4,169.6c-2.9,10.3-12.4,17.4-23.1,17.4H172.2
	l7.5,48.9h270.1c13.3,0,24,10.7,24,24S463,377.4,449.8,377.4z M280.2,183.6c-6.4,0-12.5-2.5-17-7l-48.4-48.4
	c-9.4-9.4-9.4-24.6,0-33.9c9.4-9.4,24.6-9.4,33.9,0l31.5,31.5l79.9-79.9c9.4-9.4,24.6-9.4,33.9,0c9.4,9.4,9.4,24.6,0,33.9
	l-96.9,96.9C292.7,181.1,286.6,183.6,280.2,183.6z"/>
</svg>
