<?xml version="1.0" encoding="utf-8"?>
<!-- Generator: Adobe Illustrator 27.8.1, SVG Export Plug-In . SVG Version: 6.00 Build 0)  -->
<svg version="1.1" id="Layer_1" xmlns="http://www.w3.org/2000/svg" xmlns:xlink="http://www.w3.org/1999/xlink" x="0px" y="0px"
	 viewBox="0 0 512 512" style="enable-background:new 0 0 512 512;" xml:space="preserve">
<path d="M425.6,490c-22.2,0-40.2-18-40.2-40.2c0-22.2,18-40.2,40.2-40.2s40.2,18,40.2,40.2C465.8,472,447.8,490,425.6,490z
	 M425.6,441.6c-4.6,0-8.2,3.6-8.2,8.2c0,4.6,3.6,8.2,8.2,8.2s8.2-3.6,8.2-8.2C433.8,445.3,430.1,441.6,425.6,441.6z M159.1,490
	c-22.2,0-40.2-18-40.2-40.2c0-22.2,18-40.2,40.2-40.2s40.2,18,40.2,40.2C199.3,472,181.3,490,159.1,490z M159.1,441.6
	c-4.6,0-8.2,3.6-8.2,8.2c0,4.6,3.6,8.2,8.2,8.2s8.2-3.6,8.2-8.2C167.3,445.2,163.7,441.6,159.1,441.6z M449.8,368.9H159.1
	c-7.9,0-14.6-5.8-15.8-13.6l-14.5-94.4c-0.5-1.6-0.8-3.2-0.8-4.9c0,0,0-0.1,0-0.1L97,54H38c-8.8,0-16-7.2-16-16s7.2-16,16-16h72.7
	c7.9,0,14.6,5.8,15.8,13.6L157.9,240h255.6l45.1-158c2.4-8.5,11.3-13.4,19.8-11c8.5,2.4,13.4,11.3,11,19.8L441,260.4
	c-2,6.9-8.2,11.6-15.4,11.6H162.9l10,64.9h277c8.8,0,16,7.2,16,16C465.8,361.7,458.6,368.9,449.8,368.9z M292.3,175.2
	c-8.8,0-16-7.2-16-16v-44.6h-44.6c-8.8,0-16-7.2-16-16s7.2-16,16-16h44.6V38c0-8.8,7.2-16,16-16c8.8,0,16,7.2,16,16v44.6h44.6
	c8.8,0,16,7.2,16,16s-7.2,16-16,16h-44.6v44.6C308.3,168,301.1,175.2,292.3,175.2z"/>
</svg>
