<svg id="Layer_1" data-name="Layer 1" xmlns="http://www.w3.org/2000/svg" viewBox="0 0 15.66743 15.87279"><path d="M5.3022,15.872a2.23078,2.23078,0,0,1-.77166-.33158,1.686,1.686,0,1,1,1.293.30378.66707.66707,0,0,0-.08716.0278Zm.21794-.96063a.71981.71981,0,1,0-.71058-.72892l0,.00084A.72668.72668,0,0,0,5.52014,14.91137Zm5.58115.96063a1.90239,1.90239,0,0,1-.95783-.46658,1.6807,1.6807,0,1,1,1.47564.43655.57062.57062,0,0,0-.08366.03Zm.21326-.96061a.71984.71984,0,1,0-.73128-.70822l0,.00061A.726.726,0,0,0,11.31455,14.91139ZM4.2722,4.11047,4.97042,7.942h7.62394c.0382-.18235.07411-.36368.11442-.544a.47878.47878,0,1,1,.94731.13973q-.0033.02238-.0087.04436c-.05389.29893-.114.59687-.1779.89384a.48367.48367,0,0,1-.52752.43541l-.01878-.00217q-3.79038.00047-7.58075.00018H5.14655l.30655,1.67877h.21024q3.24,0,6.48007.00058a1.14339,1.14339,0,0,1,.21566.01446.47574.47574,0,0,1-.07006.94318c-.0464.00238-.093.001-.1395.001q-3.48033.00006-6.96065,0c-.42726,0-.55915-.11288-.63509-.52941q-.722-3.95958-1.44586-7.91882C2.98031,2.4,2.85466,1.70056,2.7256.98739H2.5542q-.8914,0-1.7828-.00024A.48179.48179,0,1,1,.77465.02839Q1.92183.02706,3.069.02845a.48.48,0,0,1,.535.41782l.00244.02539c.15456.82511.30321,1.65132.45441,2.47706.01112.06073.02379.12117.03982.20245h.1785q2.0541,0,4.10818.00044a.47943.47943,0,0,1,.06768.95647q-.02277.0016-.0456.00105c-.28411.00542-.56841.00132-.85262.00133H4.4563Zm7.02724-1.94576c.1353.13354.24162.23618.34537.34134a.4819.4819,0,1,1-.67246.68536q-.57816-.57133-1.1505-1.14851a.47785.47785,0,0,1,.00056-.72573q.57288-.5766,1.15053-1.14849a.48118.48118,0,1,1,.68389.67343c-.108.10972-.22488.21078-.33775.31575l.01946.04472h.15859c.65613,0,1.31225-.00122,1.96837.00026a2.39775,2.39775,0,0,1,.14,4.79324c-.99153.02023-1.98378.007-2.9757.00439a.47882.47882,0,0,1-.02737-.95725q.01522-.00043.03047.0001c.94544-.00192,1.89089.0024,2.83631-.0019a1.438,1.438,0,0,0,.11085-2.87363C12.83675,2.15305,12.09287,2.16471,11.29944,2.16471Z" transform="translate(-0.2431 0.00079)"/></svg>