<?xml version="1.0" encoding="utf-8"?>
<!-- Generator: Adobe Illustrator 25.2.3, SVG Export Plug-In . SVG Version: 6.00 Build 0)  -->
<svg version="1.1" id="Layer_1" xmlns="http://www.w3.org/2000/svg" xmlns:xlink="http://www.w3.org/1999/xlink" x="0px" y="0px"
	 viewBox="0 0 15.9 16" style="enable-background:new 0 0 15.9 16;" xml:space="preserve">
<path d="M15.4,12.5h-1.9v-1.8c0-0.3-0.2-0.5-0.5-0.5s-0.5,0.2-0.5,0.5v1.8h-1.9c-0.3,0-0.5,0.2-0.5,0.5s0.2,0.5,0.5,0.5h1.9v1.9
	c0,0.3,0.2,0.5,0.5,0.5s0.5-0.2,0.5-0.5v-1.9h1.9c0.3,0,0.5-0.2,0.5-0.5S15.7,12.5,15.4,12.5z M13,10.2c-0.3,0-0.5,0.2-0.5,0.5v1.8
	h-1.9c-0.3,0-0.5,0.2-0.5,0.5s0.2,0.5,0.5,0.5H12c0.6-0.4,1.1-0.9,1.5-1.5v-1.3C13.5,10.4,13.3,10.2,13,10.2z M15,7.5
	C15,3.4,11.6,0,7.5,0S0,3.4,0,7.5S3.4,15,7.5,15c1.4,0,2.6-0.4,3.7-1h-0.6c-0.6,0-1-0.4-1-1s0.4-1,1-1H12v-1.3c0-0.6,0.4-1,1-1
	c0.5,0,1,0.5,1,1v0.5C14.6,10.1,15,8.9,15,7.5z M11.2,9.3c-0.1,0.2-0.3,0.3-0.5,0.3c-0.1,0-0.1,0-0.2,0L8.2,8.5C7.5,8.1,7,7.5,7,6.7
	v-3c0-0.3,0.2-0.5,0.5-0.5S8,3.4,8,3.7v3c0,0.4,0.2,0.7,0.6,0.9l2.3,1.1C11.2,8.8,11.3,9.1,11.2,9.3z"/>
</svg>
