<?xml version="1.0" encoding="utf-8"?>
<!-- Generator: Adobe Illustrator 27.8.1, SVG Export Plug-In . SVG Version: 6.00 Build 0)  -->
<svg version="1.1" id="Layer_1" xmlns="http://www.w3.org/2000/svg" xmlns:xlink="http://www.w3.org/1999/xlink" x="0px" y="0px"
	 viewBox="0 0 512 512" style="enable-background:new 0 0 512 512;" xml:space="preserve">
<path d="M341.5,475.2h-171c-25.1,0-38.9,0-51.6-5.6c-11.3-4.9-20.9-12.9-28-22.9c-8-11.4-10.7-25-15.6-49.5L40.2,221.8H28
	c-8.8,0-16-7.2-16-16s7.2-16,16-16h25c0.2,0,0.4,0,0.6,0H94l71.6-143.2c4-7.9,13.6-11.1,21.5-7.2c7.9,4,11.1,13.6,7.2,21.5
	l-64.4,128.8h252.2L317.7,61c-4-7.9-0.7-17.5,7.2-21.5c7.9-4,17.5-0.7,21.5,7.2L418,189.9h40.4c0.2,0,0.4,0,0.6,0h25
	c8.8,0,16,7.2,16,16s-7.2,16-16,16h-12.2l-35.1,175.3c-4.9,24.6-7.6,38.1-15.6,49.5c-7,10.1-16.7,18-28,22.9
	C380.4,475.2,366.6,475.2,341.5,475.2z M72.9,221.8l33.8,169c4.1,20.3,6.3,31.5,10.5,37.5c3.7,5.2,8.7,9.4,14.5,11.9
	c6.6,2.9,18.1,2.9,38.8,2.9h171.1c20.7,0,32.2,0,38.8-2.9c5.9-2.6,10.9-6.7,14.5-11.9c4.1-5.9,6.4-17.1,10.4-37.5l33.8-169.1h-30.8
	c-0.2,0-0.4,0-0.6,0H104.3c-0.2,0-0.4,0-0.6,0H72.9V221.8z M231.8,397c-4.2,0-8.3-1.7-11.3-4.7L172,343.9c-6.2-6.2-6.2-16.4,0-22.6
	s16.4-6.2,22.6,0l37.1,37.1l85.6-85.6c6.2-6.2,16.4-6.2,22.6,0s6.2,16.4,0,22.6L243,392.3C240.1,395.3,236,397,231.8,397z"/>
</svg>
