<?xml version="1.0" encoding="utf-8"?>
<!-- Generator: Adobe Illustrator 27.8.1, SVG Export Plug-In . SVG Version: 6.00 Build 0)  -->
<svg version="1.1" id="Layer_1" xmlns="http://www.w3.org/2000/svg" xmlns:xlink="http://www.w3.org/1999/xlink" x="0px" y="0px"
	 viewBox="0 0 512 512" style="enable-background:new 0 0 512 512;" xml:space="preserve">
<path d="M484,181.8h-61.2L353.5,43.1c-5.9-11.8-20.3-16.7-32.2-10.7c-11.9,5.9-16.7,20.3-10.7,32.2l58.6,117.3H142.8l58.6-117.3
	c5.9-11.9,1.1-26.3-10.7-32.2c-11.8-5.9-26.3-1.1-32.2,10.7L89.2,181.8H28c-13.2,0-24,10.8-24,24c0,13.3,10.8,24,24,24h5.7
	l33.8,168.9c5.1,25.6,8,39.7,16.9,52.5c7.9,11.3,18.7,20.2,31.3,25.7c14.3,6.2,28.7,6.2,54.8,6.2h171.1c26.1,0,40.5,0,54.8-6.2
	c12.6-5.5,23.4-14.4,31.3-25.7c8.9-12.8,11.8-26.9,16.9-52.5l33.8-168.9h5.7c13.2,0,24-10.7,24-24C508,192.6,497.2,181.8,484,181.8z
	 M397.5,389.3c-3.7,18.6-6,29.9-9.2,34.4c-2.8,4-6.7,7.2-11.2,9.2c-5.1,2.2-16.6,2.2-35.6,2.2H170.5c-19,0-30.5,0-35.6-2.2
	c-4.5-2-8.4-5.1-11.2-9.2c-3.2-4.6-5.4-15.8-9.2-34.5L82.6,229.8h20.9c0.3,0,0.7,0,1,0h303c0.3,0,0.7,0,1,0h20.9L397.5,389.3z
	 M325,330.8c0,13.3-10.8,24-24,24h-21v21c0,13.3-10.8,24-24,24s-24-10.7-24-24v-21h-21c-13.2,0-24-10.7-24-24c0-13.2,10.8-24,24-24
	h21v-21c0-13.2,10.8-24,24-24s24,10.8,24,24v21h21C314.2,306.8,325,317.6,325,330.8z"/>
</svg>
