<?xml version="1.0" encoding="utf-8"?>
<!-- Generator: Adobe Illustrator 27.8.1, SVG Export Plug-In . SVG Version: 6.00 Build 0)  -->
<svg version="1.1" id="Layer_1" xmlns="http://www.w3.org/2000/svg" xmlns:xlink="http://www.w3.org/1999/xlink" x="0px" y="0px"
	 viewBox="0 0 512 512" style="enable-background:new 0 0 512 512;" xml:space="preserve">
<path d="M484,189.8h-66.1L346.3,46.7c-4-7.9-13.6-11.1-21.5-7.2c-7.9,3.9-11.1,13.6-7.2,21.5l64.4,128.8H129.9L194.3,61
	c4-7.9,0.8-17.5-7.2-21.5c-7.9-4-17.5-0.8-21.5,7.2L94.1,189.8H28c-8.8,0-16,7.2-16,16c0,8.8,7.2,16,16,16h12.2l35.1,175.3
	c4.9,24.6,7.6,38.1,15.6,49.5c7,10.1,16.7,18,28,22.9c12.8,5.6,26.6,5.6,51.6,5.6h171.1c25.1,0,38.9,0,51.6-5.6
	c11.3-4.9,20.9-12.9,28-22.9c8-11.4,10.7-24.9,15.6-49.5l35.1-175.3H484c8.8,0,16-7.2,16-16C500,197,492.8,189.8,484,189.8z
	 M405.3,390.9c-4.1,20.3-6.3,31.5-10.5,37.5c-3.7,5.2-8.7,9.4-14.5,11.9c-6.6,2.9-18.1,2.9-38.8,2.9H170.5c-20.7,0-32.2,0-38.8-2.9
	c-5.9-2.5-10.9-6.7-14.5-11.9c-4.1-5.9-6.4-17.1-10.5-37.5l-33.8-169h30.8c0.2,0,0.4,0,0.6,0h303.4c0.2,0,0.4,0,0.6,0h30.8
	L405.3,390.9z M317,330.8c0,8.8-7.2,16-16,16h-29v29c0,8.8-7.2,16-16,16s-16-7.2-16-16v-29h-29c-8.8,0-16-7.2-16-16
	c0-8.8,7.2-16,16-16h29v-29c0-8.8,7.2-16,16-16s16,7.2,16,16v29h29C309.8,314.8,317,322,317,330.8z"/>
</svg>
