<?xml version="1.0" encoding="utf-8"?>
<!-- Generator: Adobe Illustrator 27.8.1, SVG Export Plug-In . SVG Version: 6.00 Build 0)  -->
<svg version="1.1" id="Layer_1" xmlns="http://www.w3.org/2000/svg" xmlns:xlink="http://www.w3.org/1999/xlink" x="0px" y="0px"
	 viewBox="0 0 512 512" style="enable-background:new 0 0 512 512;" xml:space="preserve">
<path d="M232.9,502.8h-2.4c-20.7,0-37.5-16.8-37.5-37.5s16.8-37.5,37.5-37.5h2.4c20.7,0,37.5,16.8,37.5,37.5
	S253.6,502.8,232.9,502.8z M416.4,465.3c0-20.7-16.8-37.5-37.5-37.5h-2.4c-20.7,0-37.5,16.8-37.5,37.5s16.8,37.5,37.5,37.5h2.4
	C399.6,502.8,416.4,486,416.4,465.3z M328.7,234.1v-49h49c13.3,0,24-10.7,24-24s-10.7-24-24-24h-49v-49c0-13.3-10.7-24-24-24
	s-24,10.7-24,24v49h-49c-13.3,0-24,10.7-24,24s10.7,24,24,24h49v49c0,13.3,10.7,24,24,24S328.7,247.3,328.7,234.1z M455.5,342.9
	l42.8-176.2c3.1-12.9-4.8-25.9-17.7-29c-12.9-3.1-25.9,4.8-29,17.7l-42.8,176.1c0,0.2-0.2,0.3-0.3,0.3c-0.2,0-0.5,0-0.7,0H203
	c-0.2,0-0.4,0-0.6,0c-0.1,0-0.3-0.1-0.4-0.3L138.3,53.1c-5-22.3-25.2-38.1-48-37.7H37c-13.3,0-24,10.7-24,24c0,13.3,10.7,24,24,24
	h53.5c0.2,0,0.4,0,0.6,0c0.2,0,0.3,0.1,0.4,0.3L155.2,342c5,22.3,25.1,38.1,48,37.7h204.4c0.3,0,0.6,0,0.9,0
	C430.6,379.8,450.2,364.5,455.5,342.9z"/>
</svg>
