<?xml version="1.0" encoding="utf-8"?>
<!-- Generator: Adobe Illustrator 27.8.1, SVG Export Plug-In . SVG Version: 6.00 Build 0)  -->
<svg version="1.1" id="Layer_1" xmlns="http://www.w3.org/2000/svg" xmlns:xlink="http://www.w3.org/1999/xlink" x="0px" y="0px"
	 viewBox="0 0 512 512" style="enable-background:new 0 0 512 512;" xml:space="preserve">
<path d="M341.5,483.2H170.5c-26.1,0-40.5,0-54.8-6.2c-12.6-5.5-23.4-14.4-31.3-25.7c-8.9-12.8-11.8-26.9-16.9-52.5L33.7,229.8H28
	c-13.3,0-24-10.7-24-24c0-13.3,10.7-24,24-24h24.9c0.3,0,0.6,0,0.9,0h35.3l69.4-138.7c5.9-11.9,20.3-16.7,32.2-10.7
	c11.9,5.9,16.7,20.3,10.7,32.2l-58.6,117.3h226.3L310.5,64.6c-5.9-11.9-1.1-26.3,10.7-32.2c11.9-5.9,26.3-1.1,32.2,10.7l69.4,138.7
	h35.3c0.3,0,0.6,0,0.9,0H484c13.3,0,24,10.7,24,24c0,13.3-10.7,24-24,24h-5.7l-33.8,168.9c-5.1,25.6-8,39.7-16.9,52.5
	c-7.9,11.3-18.7,20.2-31.3,25.7C382.1,483.2,367.7,483.2,341.5,483.2z M82.6,229.8l31.9,159.5c3.7,18.6,6,29.9,9.2,34.5
	c2.8,4,6.7,7.2,11.2,9.2c5.1,2.2,16.6,2.2,35.6,2.2h171.1c19,0,30.5,0,35.6-2.2c4.5-2,8.4-5.1,11.2-9.2c3.2-4.6,5.4-15.8,9.2-34.4
	l31.9-159.5h-20.9c-0.3,0-0.7,0-1,0h-303c-0.3,0-0.7,0-1,0H82.6z M248.7,397.9l96.9-96.9c9.4-9.4,9.4-24.6,0-33.9
	c-9.4-9.4-24.6-9.4-33.9,0L231.8,347l-31.4-31.4c-9.4-9.4-24.6-9.4-33.9,0s-9.4,24.6,0,33.9l48.4,48.4c4.5,4.5,10.6,7,17,7
	S244.2,402.4,248.7,397.9z"/>
</svg>
