<?xml version="1.0" encoding="utf-8"?>
<!-- Generator: Adobe Illustrator 25.2.3, SVG Export Plug-In . SVG Version: 6.00 Build 0)  -->
<svg version="1.1" id="Layer_1" xmlns="http://www.w3.org/2000/svg" xmlns:xlink="http://www.w3.org/1999/xlink" x="0px" y="0px"
	 viewBox="0 0 15.9 16" style="enable-background:new 0 0 15.9 16;" xml:space="preserve">
<path d="M13.1,16c-0.3,0-0.5-0.2-0.5-0.5v-1.9h-1.9c-0.3,0-0.5-0.2-0.5-0.5s0.2-0.5,0.5-0.5h1.9v-1.8c0-0.3,0.2-0.5,0.5-0.5
	s0.5,0.2,0.5,0.5v1.8h1.9c0.3,0,0.5,0.2,0.5,0.5s-0.2,0.5-0.5,0.5h-1.9v1.9C13.6,15.8,13.4,16,13.1,16z M7.6,15.2
	C3.4,15.2,0,11.8,0,7.6S3.4,0,7.5,0c4.2,0,7.6,3.4,7.6,7.6c0,0.3-0.2,0.5-0.5,0.5s-0.5-0.2-0.5-0.5c0-3.6-3-6.6-6.6-6.6
	C3.9,1,1,4,1,7.6s3,6.6,6.6,6.6c0.3,0,0.5,0.2,0.5,0.5S7.9,15.2,7.6,15.2z M10.8,9.7c-0.1,0-0.1,0-0.2,0L8.3,8.6
	c-0.8-0.4-1.2-1-1.2-1.9v-3c0-0.3,0.2-0.5,0.5-0.5s0.5,0.2,0.5,0.5v3c0,0.4,0.2,0.7,0.6,1L11,8.7c0.2,0.1,0.4,0.4,0.2,0.7
	C11.2,9.6,11,9.7,10.8,9.7z"/>
</svg>
