<?xml version="1.0" encoding="utf-8"?>
<!-- Generator: Adobe Illustrator 25.2.3, SVG Export Plug-In . SVG Version: 6.00 Build 0)  -->
<svg version="1.1" id="Layer_1" xmlns="http://www.w3.org/2000/svg" xmlns:xlink="http://www.w3.org/1999/xlink" x="0px" y="0px"
	 viewBox="0 0 16 16" style="enable-background:new 0 0 16 16;" xml:space="preserve">
<path d="M13.855,4.54h-0.62V4.03h-0.9v0.93h0.73l-0.07,0.47h0.86c0.04,0,0.08-0.01,0.12-0.03l0.1-0.64c0.01-0.05,0.02-0.1,0.02-0.14
	C14.025,4.57,13.945,4.54,13.855,4.54z M12.775,6.93l-0.02,0.14l-0.11,0.74l-0.01,0.07c-0.05,0.37-0.25,0.61-0.61,0.61h-7.78
	l-0.52-3.53h6.81c-0.02-0.1-0.03-0.21-0.03-0.32c0-0.21,0.03-0.42,0.08-0.61h-6.99l-0.12-0.77c-0.06-0.47-0.23-0.71-0.85-0.71h-2.14
	c-0.25,0.01-0.46,0.22-0.45,0.47c0,0.25,0.2,0.45,0.45,0.46h2.06l0.97,6.69c0.01,0.78,0.65,1.41,1.43,1.41h7.16
	c0.25-0.01,0.45-0.22,0.44-0.47c0-0.25-0.2-0.44-0.44-0.45h-7.01c-0.35,0-0.56-0.24-0.62-0.61l-0.1-0.64h7.74
	c0.89,0,1.35-0.55,1.48-1.42l0.04-0.28l0.12-0.83l0.03-0.19c-0.3,0.16-0.64,0.24-1,0.24H12.775z M5.445,12.58
	c-0.54,0.01-0.97,0.45-0.97,0.99c0.01,0.54,0.44,0.97,0.98,0.97c0,0,0.01,0,0.02,0c0.54-0.01,0.97-0.45,0.96-1
	C6.425,13,5.985,12.57,5.445,12.58z M11.145,12.58c-0.54,0-0.97,0.45-0.97,0.99c0.01,0.54,0.44,0.97,0.98,0.97c0,0,0.01,0,0.02,0
	c0.54-0.01,0.97-0.45,0.96-1C12.135,13,11.685,12.57,11.145,12.58z M14.095,4.62c-0.07-0.05-0.15-0.08-0.24-0.08h-0.62V3.07
	c0-0.25-0.2-0.45-0.45-0.45c-0.24,0-0.45,0.2-0.45,0.45v1.92c0,0.24,0.2,0.44,0.45,0.44h1.07c0.04,0,0.08-0.01,0.12-0.03
	c0.19-0.04,0.33-0.21,0.33-0.41C14.305,4.83,14.225,4.69,14.095,4.62z M14.095,4.62c-0.07-0.05-0.15-0.08-0.24-0.08h-0.62V3.07
	c0-0.25-0.2-0.45-0.45-0.45c-0.24,0-0.45,0.2-0.45,0.45v1.92c0,0.24,0.2,0.44,0.45,0.44h1.07c0.04,0,0.08-0.01,0.12-0.03
	c0.19-0.04,0.33-0.21,0.33-0.41C14.305,4.83,14.225,4.69,14.095,4.62z M12.785,1.46c-1.54,0-2.83,1.11-3.11,2.57
	c-0.05,0.2-0.07,0.4-0.07,0.61c0,0.11,0.01,0.21,0.02,0.32c0.15,1.56,1.44,2.79,3.02,2.85c0.05,0.01,0.09,0.01,0.14,0.01
	c0.29,0,0.58-0.04,0.85-0.11c1.34-0.37,2.33-1.6,2.33-3.07C15.965,2.89,14.535,1.46,12.785,1.46z M13.785,6.69
	c-0.3,0.16-0.64,0.24-1,0.24h-0.01c-1.15-0.01-2.09-0.86-2.24-1.97c-0.02-0.1-0.03-0.21-0.03-0.32c0-0.21,0.03-0.42,0.08-0.61
	c0.27-0.96,1.15-1.67,2.2-1.67c1.26,0,2.28,1.03,2.28,2.28C15.065,5.54,14.545,6.33,13.785,6.69z M14.095,4.62
	c-0.07-0.05-0.15-0.08-0.24-0.08h-0.62V3.07c0-0.25-0.2-0.45-0.45-0.45c-0.24,0-0.45,0.2-0.45,0.45v1.92c0,0.24,0.2,0.44,0.45,0.44
	h1.07c0.04,0,0.08-0.01,0.12-0.03c0.19-0.04,0.33-0.21,0.33-0.41C14.305,4.83,14.225,4.69,14.095,4.62z M14.095,4.62
	c-0.07-0.05-0.15-0.08-0.24-0.08h-0.62V3.07c0-0.25-0.2-0.45-0.45-0.45c-0.24,0-0.45,0.2-0.45,0.45v1.92c0,0.24,0.2,0.44,0.45,0.44
	h1.07c0.04,0,0.08-0.01,0.12-0.03c0.19-0.04,0.33-0.21,0.33-0.41C14.305,4.83,14.225,4.69,14.095,4.62z M14.095,4.62
	c-0.07-0.05-0.15-0.08-0.24-0.08h-0.62V3.07c0-0.25-0.2-0.45-0.45-0.45c-0.24,0-0.45,0.2-0.45,0.45v1.92c0,0.24,0.2,0.44,0.45,0.44
	h1.07c0.04,0,0.08-0.01,0.12-0.03c0.19-0.04,0.33-0.21,0.33-0.41C14.305,4.83,14.225,4.69,14.095,4.62z"/>
</svg>
