<?xml version="1.0" encoding="utf-8"?>
<!-- Generator: Adobe Illustrator 27.8.1, SVG Export Plug-In . SVG Version: 6.00 Build 0)  -->
<svg version="1.1" id="Layer_1" xmlns="http://www.w3.org/2000/svg" xmlns:xlink="http://www.w3.org/1999/xlink" x="0px" y="0px"
	 viewBox="0 0 512 512" style="enable-background:new 0 0 512 512;" xml:space="preserve">
<path d="M194.6,385.8c-8.6-8.7-20.1-13.5-32.4-13.5c-25.3,0-45.8,20.5-45.8,45.7c0,25.2,20.5,45.8,45.8,45.8
	c25.2,0,45.7-20.5,45.7-45.7C207.9,405.8,203.2,394.4,194.6,385.8z M174,418.5c-0.2,6.4-5.4,11.4-11.8,11.4
	c-6.4,0-11.7-5.3-11.7-11.8c0-6.5,5.2-11.8,11.7-11.8c3.3,0,6.3,1.3,8.5,3.7c2.1,2.2,3.3,5.1,3.3,8.2L174,418.5z M348,385.8
	c-8.6-8.7-20.1-13.5-32.3-13.5c-25.3,0-45.8,20.5-45.8,45.7c0,25.2,20.5,45.8,45.8,45.8c25.2,0,45.7-20.5,45.7-45.7
	C361.3,405.8,356.6,394.4,348,385.8z M327.3,418.5c-0.2,6.4-5.4,11.4-11.8,11.4c-6.5,0-11.7-5.3-11.7-11.8c0-6.5,5.2-11.8,11.7-11.8
	c3.3,0,6.3,1.3,8.5,3.7c2.1,2.2,3.3,5.1,3.3,8.2L327.3,418.5z M497.3,150.8c-9.9-17.4-28.4-28.2-48.2-28.2H181.5l-15.1-60.8
	c-2.3-7.5-9.2-12.6-17.1-12.6H76c-7.5,0-13.6,6.1-13.6,13.6S68.5,76.4,76,76.4h66l14.1,56.4l-0.6,1.9c-0.3,1-0.5,1.9-0.7,2.9
	L135.7,291c-0.1,0.8-0.2,1.6-0.2,2.2c0,30.5,24.8,55.4,55.4,55.4c0.7,0,1.2,0,1.7-0.1l213.4-21.8l0.3,0
	c18.9-0.4,36.6-10.7,46.2-26.8c0.3-0.5,0.6-1,0.7-1.3l0.1-0.2l43.5-92.6l0.2-0.3C506.8,188.7,506.9,167.7,497.3,150.8z M467.6,188.9
	c-0.3,0.5-0.6,1-0.7,1.4l-0.1,0.2l-43.5,92.4l-0.3,0.5c-4,5.8-10.5,9.2-17.5,9.2c-0.6,0-1.2,0-1.5,0.1l-0.2,0l-213.3,21.9l-0.6-0.1
	c-10.6-0.7-19.2-9.2-19.9-19.7l-0.1-0.7l17.2-137.6h262.3c7.8,0,14.9,4.2,18.6,10.9C471.5,174.1,471.5,182.3,467.6,188.9z
	 M99.7,219.9H74.1c-7.5,0-13.6,6.1-13.6,13.6s6.1,13.6,13.6,13.6h25.6c7.5,0,13.6-6.1,13.6-13.6C113.2,226,107.2,219.9,99.7,219.9z
	 M99.7,155.9H21.1c-7.5,0-13.6,6.1-13.6,13.6s6.1,13.6,13.6,13.6h78.6c7.5,0,13.6-6.1,13.6-13.6C113.2,162,107.2,155.9,99.7,155.9z"
	/>
</svg>
