<?xml version="1.0" encoding="utf-8"?>
<!-- Generator: Adobe Illustrator 25.2.3, SVG Export Plug-In . SVG Version: 6.00 Build 0)  -->
<svg version="1.1" id="Layer_1" xmlns="http://www.w3.org/2000/svg" xmlns:xlink="http://www.w3.org/1999/xlink" x="0px" y="0px"
	 viewBox="0 0 16 16" style="enable-background:new 0 0 16 16;" xml:space="preserve">
<path d="M12.785,1.46c-1.75,0-3.18,1.43-3.18,3.18c0,1.76,1.43,3.18,3.18,3.18s3.18-1.42,3.18-3.18
	C15.965,2.89,14.535,1.46,12.785,1.46z M13.855,5.43h-1.07c-0.25,0-0.45-0.2-0.45-0.44V3.07c0-0.25,0.21-0.45,0.45-0.45
	c0.25,0,0.45,0.2,0.45,0.45v1.47h0.62c0.25,0,0.45,0.2,0.45,0.45C14.305,5.23,14.105,5.43,13.855,5.43z M13.525,8.32
	c-0.23,0.06-0.48,0.08-0.73,0.08c-0.14,0-0.27-0.01-0.41-0.02c-0.09,0.07-0.21,0.11-0.36,0.11h-7.78l-0.52-3.53h5.32
	c-0.02-0.11-0.02-0.22-0.02-0.33c0-0.21,0.02-0.41,0.05-0.6h-5.48l-0.12-0.77c-0.06-0.47-0.23-0.71-0.85-0.71h-2.14
	c-0.25,0.01-0.46,0.22-0.45,0.47c0,0.25,0.2,0.45,0.45,0.46h2.06l0.97,6.69c0.01,0.78,0.65,1.41,1.43,1.41h7.16
	c0.25-0.01,0.45-0.22,0.44-0.47c0-0.25-0.2-0.44-0.44-0.45h-7.01c-0.35,0-0.56-0.24-0.62-0.61l-0.1-0.64h7.74
	C12.885,9.41,13.335,9,13.525,8.32z M5.445,12.58c-0.54,0.01-0.97,0.45-0.97,0.99c0.01,0.54,0.44,0.97,0.98,0.97c0,0,0.01,0,0.02,0
	c0.54-0.01,0.97-0.45,0.96-1C6.425,13,5.985,12.57,5.445,12.58z M11.145,12.58c-0.54,0-0.97,0.45-0.97,0.99
	c0.01,0.54,0.44,0.97,0.98,0.97c0,0,0.01,0,0.02,0c0.54-0.01,0.97-0.45,0.96-1C12.135,13,11.685,12.57,11.145,12.58z"/>
</svg>
