<?xml version="1.0" encoding="utf-8"?>
<!-- Generator: Adobe Illustrator 25.2.3, SVG Export Plug-In . SVG Version: 6.00 Build 0)  -->
<svg version="1.1" id="Layer_1" xmlns="http://www.w3.org/2000/svg" xmlns:xlink="http://www.w3.org/1999/xlink" x="0px" y="0px"
	 viewBox="0 0 16 16" style="enable-background:new 0 0 16 16;" xml:space="preserve">
<path d="M8,0C3.6,0,0.1,3.6,0.1,8s3.6,8,8,8c0.3,0,0.5-0.2,0.5-0.5S8.4,15,8.1,15c-3.8,0-7-3.2-7-7S4.2,1,8,1s7,3.2,7,7
	c0,0.3,0.2,0.5,0.5,0.5S16,8.3,16,8C16,3.6,12.4,0,8,0z M12.6,14.4L12.6,14.4c-0.2,0-0.4-0.2-0.4-0.4v-2.6c0-0.2,0.2-0.4,0.4-0.4
	l0,0c0.2,0,0.4,0.2,0.4,0.4V14C13,14.2,12.8,14.4,12.6,14.4z M10.9,12.6L10.9,12.6c0-0.2,0.2-0.4,0.4-0.4H14c0.2,0,0.4,0.2,0.4,0.4
	l0,0c0,0.2-0.2,0.4-0.4,0.4h-2.6C11,13,10.9,12.8,10.9,12.6z M12.6,10.3c1.3,0,2.3,1.1,2.3,2.3s-1.1,2.3-2.3,2.3s-2.3-1.1-2.3-2.3
	S11.3,10.3,12.6,10.3 M12.6,9.2c-1.9,0-3.4,1.5-3.4,3.4s1.6,3.4,3.4,3.4s3.4-1.5,3.4-3.4S14.5,9.2,12.6,9.2L12.6,9.2z M5.2,9.9
	C5,9.9,4.8,9.8,4.8,9.6C4.6,9.4,4.7,9.1,5,9l2.5-1.3V3.8c0-0.3,0.2-0.5,0.5-0.5s0.5,0.2,0.5,0.5V8c0,0.2-0.1,0.4-0.3,0.4L5.4,9.8
	C5.4,9.9,5.3,9.9,5.2,9.9z"/>
</svg>
