<svg id="Layer_1" data-name="Layer 1" xmlns="http://www.w3.org/2000/svg" viewBox="0 0 15.66365 15.87078"><path d="M6.89,15.18a1.66976,1.66976,0,0,1-1.07.66.68919.68919,0,0,0-.08.03H5.3a2.19327,2.19327,0,0,1-.77-.33,1.68406,1.68406,0,1,1,2.36-.36Zm5.58-2.2a1.68329,1.68329,0,0,0-2.33,2.43,1.91478,1.91478,0,0,0,.96.46h.44a.69339.69339,0,0,1,.08-.03,1.60844,1.60844,0,0,0,.9-.49A1.67527,1.67527,0,0,0,12.47,12.98Zm.78-5.99a.48922.48922,0,0,0-.54.41q-.06006.27-.12.54H4.97l-.7-3.83H8.46a.48129.48129,0,0,0-.07-.96H4.1c-.02-.08-.03-.14-.04-.2-.15-.83-.3-1.65-.45-2.48,0-.01,0-.02-.01-.02A.47405.47405,0,0,0,3.07.03H.77a.27179.27179,0,0,0-.09,0A.467.467,0,0,0,.25.55.48147.48147,0,0,0,.77.99H2.73c.12.71.25,1.41.38,2.11Q3.83005,7.06,4.55,11.02c.08.41.21.53.64.53h7.1a.29167.29167,0,0,0,.09-.02.51312.51312,0,0,0,.58-.42l.48-2.52V8.58a.16888.16888,0,0,0,.03-.1q.09009-.45.18-.9A.06022.06022,0,0,1,13.66,7.54.49922.49922,0,0,0,13.25,6.99Zm.33006-4.82219a1.438,1.438,0,0,1-.11085,2.87363c-.94542.0043-1.89087,0-2.83631.0019q-.01522-.00054-.03047-.0001a.47882.47882,0,0,0,.02737.95725c.99192.00261,1.98417.01584,2.9757-.00439a2.39775,2.39775,0,0,0-.14-4.79324c-.65612-.00148-1.31224-.00026-1.96837-.00026h-.15859l-.01946-.04472c.11287-.105.22975-.206.33775-.31575a.48118.48118,0,1,0-.68389-.67343q-.57765.57189-1.15053,1.14849a.47785.47785,0,0,0-.00056.72573q.57234.57719,1.1505,1.14851a.4819.4819,0,1,0,.67246-.68536c-.10375-.10516-.21007-.2078-.34537-.34134C12.09287,2.16471,12.83675,2.15305,13.58006,2.16779Z" transform="translate(-0.24688 0.00079)"/></svg>