<?xml version="1.0" encoding="utf-8"?>
<!-- Generator: Adobe Illustrator 27.8.1, SVG Export Plug-In . SVG Version: 6.00 Build 0)  -->
<svg version="1.1" id="Layer_1" xmlns="http://www.w3.org/2000/svg" xmlns:xlink="http://www.w3.org/1999/xlink" x="0px" y="0px"
	 viewBox="0 0 512 512" style="enable-background:new 0 0 512 512;" xml:space="preserve">
<path d="M99.7,148.9H21.1c-11.4,0-20.6,9.2-20.6,20.6s9.2,20.6,20.6,20.6h78.6c11.4,0,20.6-9.2,20.6-20.6
	C120.2,158.1,111,148.9,99.7,148.9z M99.7,212.9H74.1c-11.4,0-20.6,9.2-20.6,20.6s9.2,20.6,20.6,20.6h25.6
	c11.4,0,20.6-9.2,20.6-20.6C120.2,222.1,111,212.9,99.7,212.9z M352.9,380.8c-9.9-10-23.2-15.5-37.3-15.5
	c-29.1,0-52.8,23.6-52.8,52.7c0,29.1,23.7,52.8,52.7,52.8c0,0,0,0,0.1,0c14.5,0,27.7-5.9,37.2-15.4c9.6-9.5,15.5-22.7,15.5-37.3
	C368.3,404,362.9,390.8,352.9,380.8z M318.9,421.5c-0.9,0.9-2,1.4-3.3,1.4c-2.6,0-4.7-2.2-4.7-4.8c0-2.7,2.1-4.8,4.7-4.8
	c1.3,0,2.5,0.5,3.4,1.5c0.9,0.9,1.4,2.1,1.4,3.4C320.3,419.5,319.7,420.7,318.9,421.5z M199.5,380.8c-9.9-10-23.2-15.5-37.3-15.5
	c-29.1,0-52.8,23.6-52.8,52.7s23.7,52.8,52.8,52.8c14.6,0,27.7-5.9,37.3-15.4c9.5-9.5,15.4-22.7,15.4-37.3
	C214.9,404,209.5,390.8,199.5,380.8z M165.6,421.5c-0.9,0.9-2,1.4-3.3,1.4c-2.6,0-4.7-2.2-4.7-4.8c0-2.7,2.1-4.8,4.7-4.8
	c1.3,0,2.5,0.5,3.4,1.5c0.9,0.9,1.4,2.1,1.4,3.4C167,419.5,166.4,420.7,165.6,421.5z M503.1,209l-43.4,92.3
	c-0.3,0.7-0.7,1.4-1.1,2.1c-10.9,18.3-30.8,29.8-52.1,30.3l-213.1,21.8c-0.9,0.1-1.7,0.1-2.5,0.1c-34.4,0-62.4-28-62.4-62.4
	c0-1,0.1-2,0.2-3l19.2-153.6c0.2-1.4,0.5-2.7,0.9-4l-12.3-49.2H76c-11.4,0-20.6-9.2-20.6-20.6c0-11.4,9.2-20.6,20.6-20.6h73.3
	c11.3,0,21.3,7.7,24.1,18.7V61l13.6,54.6h262.1c22.4,0,43.2,12.2,54.3,31.7C514.2,166.4,514.2,189.9,503.1,209z"/>
</svg>
