<?xml version="1.0" encoding="utf-8"?>
<!-- Generator: Adobe Illustrator 27.8.1, SVG Export Plug-In . SVG Version: 6.00 Build 0)  -->
<svg version="1.1" id="Layer_1" xmlns="http://www.w3.org/2000/svg" xmlns:xlink="http://www.w3.org/1999/xlink" x="0px" y="0px"
	 viewBox="0 0 512 512" style="enable-background:new 0 0 512 512;" xml:space="preserve">
<path d="M417.6,497.5c-26.6,0-48.2-21.6-48.2-48.2s21.6-48.2,48.2-48.2c26.6,0,48.2,21.6,48.2,48.2S444.1,497.5,417.6,497.5z
	 M417.6,449.1c-0.1,0-0.2,0.1-0.2,0.2c0,0.2,0.4,0.2,0.4,0C417.8,449.2,417.7,449.1,417.6,449.1z M151.1,497.5
	c-26.6,0-48.2-21.6-48.2-48.2s21.6-48.2,48.2-48.2c26.6,0,48.2,21.6,48.2,48.2S177.7,497.5,151.1,497.5z M151.1,449.1
	c-0.1,0-0.2,0.1-0.2,0.2c0,0.2,0.4,0.2,0.4,0C151.3,449.2,151.2,449.1,151.1,449.1z M441.8,376.4H151.1c-11.8,0-21.9-8.6-23.7-20.4
	l-14.4-93.9c-0.5-1.9-0.9-3.9-0.9-6L82.1,61.5H30c-13.3,0-24-10.7-24-24s10.7-24,24-24h72.7c11.8,0,21.9,8.6,23.7,20.4l30.4,197.6
	h242.7l43.5-152.1c3.6-12.7,16.9-20.1,29.7-16.5c12.7,3.6,20.1,16.9,16.5,29.7l-48.4,169.6c-2.9,10.3-12.4,17.4-23.1,17.4H164.2
	l7.5,48.9h270.1c13.3,0,24,10.7,24,24S455,376.4,441.8,376.4z M284.3,182.6c-13.3,0-24-10.7-24-24v-36.6h-36.6
	c-13.3,0-24-10.7-24-24c0-13.3,10.7-24,24-24h36.6V37.5c0-13.3,10.7-24,24-24s24,10.7,24,24v36.6h36.6c13.3,0,24,10.7,24,24
	c0,13.3-10.7,24-24,24h-36.6v36.6C308.3,171.9,297.6,182.6,284.3,182.6z"/>
</svg>
