<?xml version="1.0" encoding="utf-8"?>
<!-- Generator: Adobe Illustrator 25.2.3, SVG Export Plug-In . SVG Version: 6.00 Build 0)  -->
<svg version="1.1" id="Layer_1" xmlns="http://www.w3.org/2000/svg" xmlns:xlink="http://www.w3.org/1999/xlink" x="0px" y="0px"
	 viewBox="0 0 16 16" style="enable-background:new 0 0 16 16;" xml:space="preserve">
<path d="M8,0C3.6,0,0.1,3.6,0.1,8s3.6,8,8,8c0.3,0,0.5-0.2,0.5-0.5S8.4,15,8.1,15c-3.8,0-7-3.2-7-7S4.2,1,8,1s7,3.2,7,7
	c0,0.3,0.2,0.5,0.5,0.5S16,8.3,16,8C16,3.6,12.4,0,8,0z M12.6,9.2c-1.9,0-3.4,1.5-3.4,3.4s1.6,3.4,3.4,3.4s3.4-1.5,3.4-3.4
	S14.5,9.2,12.6,9.2L12.6,9.2z M14.4,12.6c0,0.2-0.2,0.4-0.4,0.4h-1v1c0,0.2-0.2,0.4-0.4,0.4c-0.2,0-0.4-0.2-0.4-0.4v-1h-0.8
	c-0.4,0-0.5-0.2-0.5-0.4c0-0.2,0.2-0.4,0.4-0.4h0.9v-0.8c0-0.2,0.2-0.4,0.4-0.4c0.2,0,0.4,0.2,0.4,0.4v0.8h1
	C14.2,12.2,14.4,12.4,14.4,12.6z M5.2,9.9C5,9.9,4.8,9.8,4.8,9.6C4.6,9.4,4.7,9.1,5,9l2.5-1.3V3.8c0-0.3,0.2-0.5,0.5-0.5
	s0.5,0.2,0.5,0.5V8c0,0.2-0.1,0.4-0.3,0.4L5.4,9.8C5.4,9.9,5.3,9.9,5.2,9.9z"/>
</svg>
