<?xml version="1.0" encoding="utf-8"?>
<!-- Generator: Adobe Illustrator 27.8.1, SVG Export Plug-In . SVG Version: 6.00 Build 0)  -->
<svg version="1.1" id="Layer_1" xmlns="http://www.w3.org/2000/svg" xmlns:xlink="http://www.w3.org/1999/xlink" x="0px" y="0px"
	 viewBox="0 0 512 512" style="enable-background:new 0 0 512 512;" xml:space="preserve">
<path d="M232.9,492.7h-2.4c-16.6,0-30-13.4-30-30s13.4-30,30-30h2.4c16.6,0,30,13.4,30,30S249.5,492.7,232.9,492.7z M408.9,462.7
	c0-16.6-13.4-30-30-30h-2.4c-16.6,0-30,13.4-30,30s13.4,30,30,30h2.4C395.5,492.7,408.9,479.2,408.9,462.7z M320.7,231.5v-57h57
	c8.8,0,16-7.2,16-16s-7.2-16-16-16h-57v-57c0-8.8-7.2-16-16-16s-16,7.2-16,16v57h-57c-8.8,0-16,7.2-16,16s7.2,16,16,16h57v57
	c0,8.8,7.2,16,16,16S320.7,240.3,320.7,231.5z M447.7,338.5l42.8-176.2c2.1-8.6-3.2-17.2-11.8-19.3c-8.6-2.1-17.2,3.2-19.3,11.8
	l-42.8,176.1c-0.9,3.8-4.5,6.4-8.3,6.3c-0.2,0-0.3,0-0.5,0H203c-0.1,0-0.3,0-0.4,0c-4,0.1-7.5-2.6-8.3-6.6L130.5,52.3
	c-4.2-18.6-21-31.8-40.1-31.5H37c-8.8,0-16,7.2-16,16s7.2,16,16,16h53.5c0.1,0,0.3,0,0.4,0c3.9-0.1,7.5,2.6,8.3,6.6L163,337.7
	c4.2,18.6,21,31.8,40.1,31.5h204.5c0.3,0,0.6,0,0.9,0C426.9,369.2,443.3,356.4,447.7,338.5z"/>
</svg>
