<?xml version="1.0" encoding="utf-8"?>
<!-- Generator: Adobe Illustrator 27.8.1, SVG Export Plug-In . SVG Version: 6.00 Build 0)  -->
<svg version="1.1" id="Layer_1" xmlns="http://www.w3.org/2000/svg" xmlns:xlink="http://www.w3.org/1999/xlink" x="0px" y="0px"
	 viewBox="0 0 512 512" style="enable-background:new 0 0 512 512;" xml:space="preserve">
<path d="M120.6,500.5c-7.4,0-14.6-2.3-20.9-6.9c-11.4-8.3-16.8-22-14.1-35.8c0,0,0-0.1,0-0.1L111.9,325l-99.5-92
	c-10.4-9.6-14.1-23.8-9.8-37.2C7,182.4,18.4,173,32.4,171.3l134.5-15.9l56.6-122.8c5.9-12.8,18.4-20.8,32.5-20.8
	c14.1,0,26.6,8,32.5,20.8l56.7,122.9l134.4,15.9c14.1,1.7,25.5,11.1,29.9,24.5c4.3,13.4,0.6,27.7-9.8,37.3l-99.2,91.8l26.3,132.6
	c2.8,13.8-2.5,27.6-13.9,36c-11.4,8.4-26.2,9.3-38.6,2.4l-118.1-66.1l-118,66.1C132.6,498.9,126.6,500.5,120.6,500.5z M256.2,380
	c6,0,11.9,1.5,17.4,4.5L374.5,441L352,327.6c-2.4-12.2,1.5-24.6,10.7-33.1c0,0,0.1,0,0.1-0.1l84.8-78.5l-114.8-13.6
	c-12.5-1.5-23.1-9.2-28.3-20.6L256,76.7l-48.4,105c-5.2,11.3-15.7,19-28.2,20.5L64.5,215.8l85,78.5c9.2,8.3,13.3,21.1,10.9,33.4
	L137.8,441l100.9-56.4C244.2,381.5,250.2,380,256.2,380z M117.2,329.9C117.2,329.9,117.2,329.9,117.2,329.9
	C117.2,329.9,117.2,329.9,117.2,329.9z M467,197.9C467,197.9,467,197.9,467,197.9L467,197.9z"/>
</svg>
