<svg id="Layer_1" data-name="Layer 1" xmlns="http://www.w3.org/2000/svg" viewBox="0 0 17.07 16.33"><path d="M18.48,8a1.05,1.05,0,0,0-.85-.72l-2.73-.4h0L13.22,6.6a.42.42,0,0,1-.32-.23l-.12-.25h0l-.32-.64-.3-.62h0L11,2.42A1.06,1.06,0,0,0,10,1.83a1,1,0,0,0-.94.59L7.24,6.09v0l-.12.26a.42.42,0,0,1-.32.23l-1.68.26h0l-2.75.4A1.08,1.08,0,0,0,1.52,8,1,1,0,0,0,1.8,9.07l2,1.94h0L5,12.2a.46.46,0,0,1,.12.38L5,13H5l-.67,3.91a1,1,0,0,0,.41,1,1.12,1.12,0,0,0,.63.2A1,1,0,0,0,5.88,18l2.43-1.28h0L9.82,16a.42.42,0,0,1,.39,0l.37.19h0L14.11,18a1,1,0,0,0,.51.14,1.1,1.1,0,0,0,1.05-1.25l-.46-2.66h0L15.16,14,15,13.13h0l-.1-.55a.43.43,0,0,1,.12-.37L16.24,11h0l2-1.93A1,1,0,0,0,18.48,8Zm-4.07,3.6h0a1.24,1.24,0,0,0-.36,1.15L14.28,14h0l.53,3.1a.21.21,0,0,1-.07.2.21.21,0,0,1-.23,0l-2.81-1.47v0l-1.1-.58a1.27,1.27,0,0,0-1.2,0l-1.1.58h0L5.48,17.28h0a.21.21,0,0,1-.3-.22L5.71,14h0L6,12.74a1.19,1.19,0,0,0,0-.62,1.4,1.4,0,0,0-.32-.53l0,0h0l0-.06-.81-.79h0L2.38,8.46a.2.2,0,0,1,0-.21.2.2,0,0,1,.17-.14l3.2-.46h0l.35-.05.86-.13h0a1.25,1.25,0,0,0,.57-.23,1.35,1.35,0,0,0,.4-.48l.53-1.12h0L9.81,2.8a.23.23,0,0,1,.39,0l1.39,2.83h0l.54,1.12a.76.76,0,0,0,.08.11v0h0a1,1,0,0,0,.31.35,1.25,1.25,0,0,0,.57.23l.13,0h0l.19,0,.91.14h0l3.19.47a.21.21,0,0,1,.1.36Z" transform="translate(-1.47 -1.83)"/></svg>