<svg id="Layer_1" data-name="Layer 1" xmlns="http://www.w3.org/2000/svg" viewBox="0 0 17.07 16.33"><path d="M18.21,9.08l-2,1.93h0L15,12.21a.43.43,0,0,0-.12.37l.1.55h0l.13.75.06.38h0l.46,2.66a1.1,1.1,0,0,1-1.05,1.25,1,1,0,0,1-.51-.14l-3.53-1.85h0L10.21,16a.39.39,0,0,0-.39,0l-1.51.78h0L5.88,18a1,1,0,0,1-.49.12,1.12,1.12,0,0,1-.63-.2,1.06,1.06,0,0,1-.42-1L5,13H5l.08-.43A.44.44,0,0,0,5,12.2L3.77,11h0l-2-1.94A1,1,0,0,1,1.52,8a1.08,1.08,0,0,1,.85-.72l2.75-.4h0L6.8,6.6a.44.44,0,0,0,.32-.23l.12-.26v0L9.06,2.42A1,1,0,0,1,10,1.83a1.06,1.06,0,0,1,.95.59l1.21,2.43h0l.32.66.3.6h0l.12.25a.41.41,0,0,0,.32.23l1.68.26h0l2.73.4a1.05,1.05,0,0,1,.85.72A1,1,0,0,1,18.21,9.08Z" transform="translate(-1.47 -1.83)"/></svg>