<?xml version="1.0" encoding="utf-8"?>
<!-- Generator: Adobe Illustrator 27.8.1, SVG Export Plug-In . SVG Version: 6.00 Build 0)  -->
<svg version="1.1" id="Layer_1" xmlns="http://www.w3.org/2000/svg" xmlns:xlink="http://www.w3.org/1999/xlink" x="0px" y="0px"
	 viewBox="0 0 512 512" style="enable-background:new 0 0 512 512;" xml:space="preserve">
<path d="M396.4,500.2c-4.7,0-9.4-1.2-13.8-3.6L256,425.7l-126.6,70.9c-9.7,5.4-21.3,4.7-30.3-1.8c-9-6.5-13.2-17.4-11.1-28.3
	l28.3-142.3L9.8,225.7c-8.2-7.5-11.1-18.8-7.7-29.4c3.4-10.6,12.4-18,23.5-19.3l144.1-17.1l60.8-131.7c4.7-10.1,14.5-16.4,25.6-16.4
	c0,0,0,0,0,0c11.1,0,20.9,6.3,25.6,16.4l60.8,131.8L486.4,177c11,1.3,20,8.7,23.5,19.3c3.4,10.6,0.5,21.8-7.7,29.4l-106.5,98.5
	L424,466.5c2.2,10.9-2.1,21.7-11.1,28.3C408,498.4,402.2,500.2,396.4,500.2z M392.6,472.7L392.6,472.7L392.6,472.7z M37.6,207.8
	l102,94.3c7.1,6.6,10.4,16.7,8.5,26.2L121,464.6l121.3-67.9c8.6-4.8,18.9-4.8,27.5,0L391,464.6l-27.1-136.3
	c-1.9-9.7,1.2-19.5,8.5-26.2l102-94.3l-138-16.4c-9.8-1.2-18.1-7.2-22.2-16.2L256,49.1l-58.2,126.2c-4.1,8.8-12.6,15-22.3,16.2
	L37.6,207.8z M480.5,202.2C480.5,202.2,480.5,202.2,480.5,202.2L480.5,202.2C480.5,202.2,480.5,202.2,480.5,202.2z"/>
</svg>
