<?xml version="1.0" encoding="utf-8"?>
<!-- Generator: Adobe Illustrator 27.8.1, SVG Export Plug-In . SVG Version: 6.00 Build 0)  -->
<svg version="1.1" id="Layer_1" xmlns="http://www.w3.org/2000/svg" xmlns:xlink="http://www.w3.org/1999/xlink" x="0px" y="0px"
	 viewBox="0 0 512 512" style="enable-background:new 0 0 512 512;" xml:space="preserve">
<path d="M499.5,233l-99.3,91.9l26.4,132.7c2.8,13.8-2.6,27.6-14.1,35.9c-6.3,4.6-13.6,6.9-21,6.9c-6,0-12-1.5-17.5-4.6l-118-66.1
	L138,495.7c-12.3,6.9-27.1,6-38.5-2.3c-11.4-8.3-16.8-22-14.1-35.9l26.4-132.7L12.5,233c-10.4-9.6-14.1-23.9-9.7-37.3
	c4.4-13.4,15.8-22.8,29.8-24.5l134.4-15.9l56.7-122.8c5.9-12.8,18.4-20.8,32.5-20.8c14.1,0,26.6,8,32.5,20.8l56.7,122.9l134.3,15.9
	c14,1.7,25.4,11,29.8,24.5C513.7,209.1,509.9,223.4,499.5,233z"/>
</svg>
