<?xml version="1.0" encoding="utf-8"?>
<!-- Generator: Adobe Illustrator 27.8.1, SVG Export Plug-In . SVG Version: 6.00 Build 0)  -->
<svg version="1.1" id="Layer_1" xmlns="http://www.w3.org/2000/svg" xmlns:xlink="http://www.w3.org/1999/xlink" x="0px" y="0px"
	 viewBox="0 0 512 512" style="enable-background:new 0 0 512 512;" xml:space="preserve">
<path d="M452.3,113.7V478c0,9-5,17.2-13,21.3c-3.5,1.8-7.2,2.7-11,2.7c-4.9,0-9.8-1.5-14-4.5L256,384.5L97.7,497.5
	c-7.3,5.2-16.9,5.9-24.9,1.8c-8-4.1-13-12.3-13-21.3V113.7c0-30.4,0-47.1,8-62.8c7.1-13.9,18.1-24.9,32-32c15.7-8,32.4-8,62.8-8
	h187.1c30.4,0,47.1,0,62.8,8c13.9,7.1,24.9,18.1,32,32C452.3,66.6,452.3,83.4,452.3,113.7z"/>
</svg>
