<?xml version="1.0" encoding="utf-8"?>
<!-- Generator: Adobe Illustrator 27.8.1, SVG Export Plug-In . SVG Version: 6.00 Build 0)  -->
<svg version="1.1" id="Layer_1" xmlns="http://www.w3.org/2000/svg" xmlns:xlink="http://www.w3.org/1999/xlink" x="0px" y="0px"
	 viewBox="0 0 512 512" style="enable-background:new 0 0 512 512;" xml:space="preserve">
<path d="M83.7,502c-3.8,0-7.5-0.9-11-2.7c-8-4.1-13-12.4-13-21.3V113.7c0-30.4,0-47.2,8.1-62.9C74.7,37.2,86,25.9,99.7,18.9
	c15.6-8,32.4-8,62.8-8h187.1c30.4,0,47.2,0,62.8,8c13.6,6.9,24.9,18.2,31.9,31.9c8,15.6,8,32.4,8,62.8V478c0,9-5,17.2-13,21.3
	c-8,4.1-17.6,3.4-24.9-1.8L256,384.5l-158.4,113C93.5,500.5,88.6,502,83.7,502z M256,331c4.9,0,9.8,1.5,13.9,4.5l134.5,95.9V113.7
	c0-21.4,0-35.6-2.7-40.9c-2.5-4.8-6.3-8.7-11-11.1c-0.1,0-0.1-0.1-0.2-0.1c-5.3-2.7-19.5-2.7-40.9-2.7H162.5
	c-21.4,0-35.6,0-40.9,2.7c-4.8,2.5-8.7,6.3-11.1,11c0,0.1-0.1,0.1-0.1,0.2c-2.7,5.3-2.7,19.5-2.7,40.9v317.7l134.4-95.9
	C246.2,332.5,251.1,331,256,331z"/>
</svg>
