<?xml version="1.0" encoding="utf-8"?>
<!-- Generator: Adobe Illustrator 27.8.1, SVG Export Plug-In . SVG Version: 6.00 Build 0)  -->
<svg version="1.1" id="Layer_1" xmlns="http://www.w3.org/2000/svg" xmlns:xlink="http://www.w3.org/1999/xlink" x="0px" y="0px"
	 viewBox="0 0 512 512" style="enable-background:new 0 0 512 512;" xml:space="preserve">
<path d="M428.3,494c-3.3,0-6.5-1-9.3-3L256,374.6L93,491c-4.9,3.5-11.3,3.9-16.6,1.2s-8.7-8.2-8.7-14.2V113.7
	c0-30.1,0-45.2,7.1-59.1c6.3-12.4,16.2-22.2,28.5-28.5c14-7.1,29.1-7.1,59.1-7.1h187.1c30.1,0,45.2,0,59.1,7.1
	c12.4,6.3,22.2,16.2,28.5,28.5c7.1,14,7.1,29.1,7.1,59.1V478c0,6-3.3,11.5-8.7,14.2C433.3,493.4,430.8,494,428.3,494z M256,339
	c3.3,0,6.5,1,9.3,3l147,105V113.7c0-24.2,0-37.5-3.6-44.6c-3.2-6.3-8.2-11.3-14.5-14.5C387,51,373.7,51,349.5,51H162.5
	c-24.2,0-37.5,0-44.6,3.6c-6.3,3.2-11.3,8.2-14.5,14.5c-3.6,7.1-3.6,20.4-3.6,44.6v333.2l147-105C249.5,339.9,252.7,339,256,339z"/>
</svg>
