<svg xmlns="http://www.w3.org/2000/svg" width="22.233" height="17.196" viewBox="0 0 22.233 17.196">
  <g id="crown-svgrepo-com" transform="translate(0 0)">
    <path id="Path_1393" data-name="Path 1393" d="M22.233,62.1a1.689,1.689,0,1,0-2.9,1.172c-1.149,2.379-3.344,3.209-5.046,2.458-1.516-.67-2.075-2.587-2.264-4.071a1.943,1.943,0,1,0-1.806,0c-.189,1.485-.748,3.4-2.264,4.071-1.7.752-3.9-.079-5.046-2.458a1.689,1.689,0,1,0-1.432.5L3.418,70.9h15.4l1.947-7.125A1.688,1.688,0,0,0,22.233,62.1Z" transform="translate(0 -58)" fill="#fff"/>
    <path id="Path_1394" data-name="Path 1394" d="M74.284,395.066a1.257,1.257,0,0,1-1.257,1.257H58.257A1.257,1.257,0,0,1,57,395.066v-.1a1.257,1.257,0,0,1,1.257-1.257h14.77a1.257,1.257,0,0,1,1.257,1.257Z" transform="translate(-54.525 -379.126)" fill="#fff"/>
  </g>
</svg>
