<svg xmlns="http://www.w3.org/2000/svg" xmlns:xlink="http://www.w3.org/1999/xlink" width="561" height="172" viewBox="0 0 561 172">
  <defs>
    <linearGradient id="linear-gradient" x1="0.5" y1="-0.116" x2="0.5" y2="1.055" gradientUnits="objectBoundingBox">
      <stop offset="0" stop-color="#ddd"/>
      <stop offset="1" stop-color="#f5f5f5"/>
    </linearGradient>
    <filter id="Path_1417" x="13.126" y="36.947" width="97.737" height="87.321" filterUnits="userSpaceOnUse">
      <feOffset dy="12" input="SourceAlpha"/>
      <feGaussianBlur stdDeviation="10" result="blur"/>
      <feFlood flood-color="#ddd"/>
      <feComposite operator="in" in2="blur"/>
      <feComposite in="SourceGraphic"/>
    </filter>
    <filter id="Path_1418" x="16.753" y="26.531" width="72.294" height="72.294" filterUnits="userSpaceOnUse">
      <feOffset dy="12" input="SourceAlpha"/>
      <feGaussianBlur stdDeviation="10" result="blur-2"/>
      <feFlood flood-color="#ddd"/>
      <feComposite operator="in" in2="blur-2"/>
      <feComposite in="SourceGraphic"/>
    </filter>
    <filter id="Path_1417-2" x="119.102" y="36.947" width="97.737" height="87.321" filterUnits="userSpaceOnUse">
      <feOffset dy="12" input="SourceAlpha"/>
      <feGaussianBlur stdDeviation="10" result="blur-3"/>
      <feFlood flood-color="#ddd"/>
      <feComposite operator="in" in2="blur-3"/>
      <feComposite in="SourceGraphic"/>
    </filter>
    <filter id="Path_1418-2" x="122.729" y="26.531" width="72.294" height="72.294" filterUnits="userSpaceOnUse">
      <feOffset dy="12" input="SourceAlpha"/>
      <feGaussianBlur stdDeviation="10" result="blur-4"/>
      <feFlood flood-color="#ddd"/>
      <feComposite operator="in" in2="blur-4"/>
      <feComposite in="SourceGraphic"/>
    </filter>
    <filter id="Path_1417-3" x="344.059" y="36.947" width="97.737" height="87.321" filterUnits="userSpaceOnUse">
      <feOffset dy="12" input="SourceAlpha"/>
      <feGaussianBlur stdDeviation="10" result="blur-5"/>
      <feFlood flood-color="#ddd"/>
      <feComposite operator="in" in2="blur-5"/>
      <feComposite in="SourceGraphic"/>
    </filter>
    <filter id="Path_1418-3" x="347.685" y="26.531" width="72.294" height="72.294" filterUnits="userSpaceOnUse">
      <feOffset dy="12" input="SourceAlpha"/>
      <feGaussianBlur stdDeviation="10" result="blur-6"/>
      <feFlood flood-color="#ddd"/>
      <feComposite operator="in" in2="blur-6"/>
      <feComposite in="SourceGraphic"/>
    </filter>
    <filter id="Path_1417-4" x="449.037" y="36.947" width="97.737" height="87.321" filterUnits="userSpaceOnUse">
      <feOffset dy="12" input="SourceAlpha"/>
      <feGaussianBlur stdDeviation="10" result="blur-7"/>
      <feFlood flood-color="#ddd"/>
      <feComposite operator="in" in2="blur-7"/>
      <feComposite in="SourceGraphic"/>
    </filter>
    <filter id="Path_1418-4" x="452.664" y="26.531" width="72.294" height="72.294" filterUnits="userSpaceOnUse">
      <feOffset dy="12" input="SourceAlpha"/>
      <feGaussianBlur stdDeviation="10" result="blur-8"/>
      <feFlood flood-color="#ddd"/>
      <feComposite operator="in" in2="blur-8"/>
      <feComposite in="SourceGraphic"/>
    </filter>
  </defs>
  <g id="Group_4135" data-name="Group 4135" transform="translate(-467 -423)">
    <g id="Group_4134" data-name="Group 4134">
      <rect id="Rectangle_599" data-name="Rectangle 599" width="561" height="172" rx="8" transform="translate(467 423)" fill="#f7f7f7"/>
      <g id="Single-Product" transform="translate(18 54)">
        <rect id="Rectangle_580" data-name="Rectangle 580" width="544" height="152" rx="16" transform="translate(457 379)" fill="none"/>
        <g id="Single-Product-2" data-name="Single-Product" transform="translate(467.88 389.285)" opacity="0.5">
          <g id="Rectangle_580-2" data-name="Rectangle 580" transform="translate(0.121 -0.285)" fill="#fff" stroke="#f2f2f2" stroke-width="2">
            <rect width="87" height="132" rx="16" stroke="none"/>
            <rect x="1" y="1" width="85" height="130" rx="15" fill="none"/>
          </g>
          <g id="product-img" transform="translate(10.376 10.376)" opacity="0.5">
            <g id="Rectangle_567" data-name="Rectangle 567" transform="translate(-0.254 0.339)" stroke="#ddd" stroke-width="2" fill="url(#linear-gradient)">
              <rect width="67" height="66" rx="10" stroke="none"/>
              <rect x="1" y="1" width="65" height="64" rx="9" fill="none"/>
            </g>
            <g id="image-svgrepo-com" transform="translate(13.87 13.87)">
              <g transform="matrix(1, 0, 0, 1, -43.13, -44.53)" filter="url(#Path_1417)">
                <path id="Path_1417-5" data-name="Path 1417" d="M38.741,24.575,33.049,11.262c-1.037-2.437-2.582-3.819-4.347-3.91-1.746-.091-3.437,1.128-4.728,3.455l-3.455,6.2a3.809,3.809,0,0,1-2.892,2.182,3.732,3.732,0,0,1-3.219-1.673l-.4-.509a5.163,5.163,0,0,0-4.528-2.237A5.157,5.157,0,0,0,5.515,17.9L2.368,24.174A7.242,7.242,0,0,0,8.843,34.668H32.049A7.253,7.253,0,0,0,38.1,31.413,7.119,7.119,0,0,0,38.741,24.575Z" transform="translate(41.53 47.6)" fill="#fff"/>
              </g>
              <g transform="matrix(1, 0, 0, 1, -43.13, -44.53)" filter="url(#Path_1418)">
                <path id="Path_1418-5" data-name="Path 1418" d="M9.737,13.914A6.147,6.147,0,1,0,3.59,7.767,6.147,6.147,0,0,0,9.737,13.914Z" transform="translate(43.16 42.91)" fill="#fff"/>
              </g>
            </g>
          </g>
          <rect id="Rectangle_581" data-name="Rectangle 581" width="42" height="11" rx="5.5" transform="translate(10.121 83.715)" fill="#f7f7f7"/>
          <g id="Group_4132" data-name="Group 4132" transform="translate(10.376 103.76)">
            <rect id="Rectangle_583" data-name="Rectangle 583" width="67" height="17" rx="8.5" transform="translate(-0.254 -0.045)" fill="#efefef"/>
            <g id="cart-svgrepo-com_8_" data-name="cart-svgrepo-com (8)" transform="translate(27.573 3.009)">
              <path id="Path_1430" data-name="Path 1430" d="M2.5,3.979A.479.479,0,0,1,2.979,3.5h.356a1.342,1.342,0,0,1,1.178.787A4.185,4.185,0,0,1,4.83,5.1l.064,0h7.978a.8.8,0,0,1,.767,1.017L12.473,10.2a1.755,1.755,0,0,1-1.688,1.274h-3.8a1.756,1.756,0,0,1-1.693-1.291L4.809,8.418l-.8-2.712v0a4.654,4.654,0,0,0-.331-.954c-.135-.246-.242-.29-.338-.29H2.979A.479.479,0,0,1,2.5,3.979Z" transform="translate(-2.5 -3.5)" fill="#fff"/>
              <path id="Path_1431" data-name="Path 1431" d="M8.277,19.553A1.277,1.277,0,1,0,7,18.277,1.277,1.277,0,0,0,8.277,19.553Z" transform="translate(-4.127 -8.382)" fill="#fff"/>
              <path id="Path_1432" data-name="Path 1432" d="M15.277,19.553A1.277,1.277,0,1,0,14,18.277,1.277,1.277,0,0,0,15.277,19.553Z" transform="translate(-6.659 -8.382)" fill="#fff"/>
            </g>
          </g>
        </g>
        <g id="Single-Product-3" data-name="Single-Product" transform="translate(573.856 389.285)" opacity="0.5">
          <g id="Rectangle_580-3" data-name="Rectangle 580" transform="translate(0.145 -0.285)" fill="#fff" stroke="#f2f2f2" stroke-width="2">
            <rect width="87" height="132" rx="16" stroke="none"/>
            <rect x="1" y="1" width="85" height="130" rx="15" fill="none"/>
          </g>
          <g id="product-img-2" data-name="product-img" transform="translate(10.376 10.376)" opacity="0.5">
            <g id="Rectangle_567-2" data-name="Rectangle 567" transform="translate(-0.232 0.339)" stroke="#ddd" stroke-width="2" fill="url(#linear-gradient)">
              <rect width="67" height="66" rx="10" stroke="none"/>
              <rect x="1" y="1" width="65" height="64" rx="9" fill="none"/>
            </g>
            <g id="image-svgrepo-com-2" data-name="image-svgrepo-com" transform="translate(13.87 13.87)">
              <g transform="matrix(1, 0, 0, 1, -149.1, -44.53)" filter="url(#Path_1417-2)">
                <path id="Path_1417-6" data-name="Path 1417" d="M38.741,24.575,33.049,11.262c-1.037-2.437-2.582-3.819-4.347-3.91-1.746-.091-3.437,1.128-4.728,3.455l-3.455,6.2a3.809,3.809,0,0,1-2.892,2.182,3.732,3.732,0,0,1-3.219-1.673l-.4-.509a5.163,5.163,0,0,0-4.528-2.237A5.157,5.157,0,0,0,5.515,17.9L2.368,24.174A7.242,7.242,0,0,0,8.843,34.668H32.049A7.253,7.253,0,0,0,38.1,31.413,7.119,7.119,0,0,0,38.741,24.575Z" transform="translate(147.51 47.6)" fill="#fff"/>
              </g>
              <g transform="matrix(1, 0, 0, 1, -149.1, -44.53)" filter="url(#Path_1418-2)">
                <path id="Path_1418-6" data-name="Path 1418" d="M9.737,13.914A6.147,6.147,0,1,0,3.59,7.767,6.147,6.147,0,0,0,9.737,13.914Z" transform="translate(149.14 42.91)" fill="#fff"/>
              </g>
            </g>
          </g>
          <rect id="Rectangle_581-2" data-name="Rectangle 581" width="42" height="11" rx="5.5" transform="translate(10.145 83.715)" fill="#f7f7f7"/>
          <g id="Group_4132-2" data-name="Group 4132" transform="translate(10.376 103.76)">
            <rect id="Rectangle_583-2" data-name="Rectangle 583" width="67" height="17" rx="8.5" transform="translate(-0.232 -0.045)" fill="#efefef"/>
            <g id="cart-svgrepo-com_8_2" data-name="cart-svgrepo-com (8)" transform="translate(27.573 3.009)">
              <path id="Path_1430-2" data-name="Path 1430" d="M2.5,3.979A.479.479,0,0,1,2.979,3.5h.356a1.342,1.342,0,0,1,1.178.787A4.185,4.185,0,0,1,4.83,5.1l.064,0h7.978a.8.8,0,0,1,.767,1.017L12.473,10.2a1.755,1.755,0,0,1-1.688,1.274h-3.8a1.756,1.756,0,0,1-1.693-1.291L4.809,8.418l-.8-2.712v0a4.654,4.654,0,0,0-.331-.954c-.135-.246-.242-.29-.338-.29H2.979A.479.479,0,0,1,2.5,3.979Z" transform="translate(-2.5 -3.5)" fill="#fff"/>
              <path id="Path_1431-2" data-name="Path 1431" d="M8.277,19.553A1.277,1.277,0,1,0,7,18.277,1.277,1.277,0,0,0,8.277,19.553Z" transform="translate(-4.127 -8.382)" fill="#fff"/>
              <path id="Path_1432-2" data-name="Path 1432" d="M15.277,19.553A1.277,1.277,0,1,0,14,18.277,1.277,1.277,0,0,0,15.277,19.553Z" transform="translate(-6.659 -8.382)" fill="#fff"/>
            </g>
          </g>
        </g>
        <g id="Single-Product-4" data-name="Single-Product" transform="translate(798.812 389.285)" opacity="0.5">
          <g id="Rectangle_580-4" data-name="Rectangle 580" transform="translate(0.188 -0.285)" fill="#fff" stroke="#f2f2f2" stroke-width="2">
            <rect width="87" height="132" rx="16" stroke="none"/>
            <rect x="1" y="1" width="85" height="130" rx="15" fill="none"/>
          </g>
          <g id="product-img-3" data-name="product-img" transform="translate(10.376 10.376)" opacity="0.5">
            <g id="Rectangle_567-3" data-name="Rectangle 567" transform="translate(-0.189 0.339)" stroke="#ddd" stroke-width="2" fill="url(#linear-gradient)">
              <rect width="67" height="66" rx="10" stroke="none"/>
              <rect x="1" y="1" width="65" height="64" rx="9" fill="none"/>
            </g>
            <g id="image-svgrepo-com-3" data-name="image-svgrepo-com" transform="translate(13.87 13.87)">
              <g transform="matrix(1, 0, 0, 1, -374.06, -44.53)" filter="url(#Path_1417-3)">
                <path id="Path_1417-7" data-name="Path 1417" d="M38.741,24.575,33.049,11.262c-1.037-2.437-2.582-3.819-4.347-3.91-1.746-.091-3.437,1.128-4.728,3.455l-3.455,6.2a3.809,3.809,0,0,1-2.892,2.182,3.732,3.732,0,0,1-3.219-1.673l-.4-.509a5.163,5.163,0,0,0-4.528-2.237A5.157,5.157,0,0,0,5.515,17.9L2.368,24.174A7.242,7.242,0,0,0,8.843,34.668H32.049A7.253,7.253,0,0,0,38.1,31.413,7.119,7.119,0,0,0,38.741,24.575Z" transform="translate(372.46 47.6)" fill="#fff"/>
              </g>
              <g transform="matrix(1, 0, 0, 1, -374.06, -44.53)" filter="url(#Path_1418-3)">
                <path id="Path_1418-7" data-name="Path 1418" d="M9.737,13.914A6.147,6.147,0,1,0,3.59,7.767,6.147,6.147,0,0,0,9.737,13.914Z" transform="translate(374.1 42.91)" fill="#fff"/>
              </g>
            </g>
          </g>
          <rect id="Rectangle_581-3" data-name="Rectangle 581" width="42" height="11" rx="5.5" transform="translate(10.188 83.715)" fill="#f7f7f7"/>
          <g id="Group_4132-3" data-name="Group 4132" transform="translate(10.376 103.76)">
            <rect id="Rectangle_583-3" data-name="Rectangle 583" width="67" height="17" rx="8.5" transform="translate(-0.189 -0.045)" fill="#efefef"/>
            <g id="cart-svgrepo-com_8_3" data-name="cart-svgrepo-com (8)" transform="translate(27.573 3.009)">
              <path id="Path_1430-3" data-name="Path 1430" d="M2.5,3.979A.479.479,0,0,1,2.979,3.5h.356a1.342,1.342,0,0,1,1.178.787A4.185,4.185,0,0,1,4.83,5.1l.064,0h7.978a.8.8,0,0,1,.767,1.017L12.473,10.2a1.755,1.755,0,0,1-1.688,1.274h-3.8a1.756,1.756,0,0,1-1.693-1.291L4.809,8.418l-.8-2.712v0a4.654,4.654,0,0,0-.331-.954c-.135-.246-.242-.29-.338-.29H2.979A.479.479,0,0,1,2.5,3.979Z" transform="translate(-2.5 -3.5)" fill="#fff"/>
              <path id="Path_1431-3" data-name="Path 1431" d="M8.277,19.553A1.277,1.277,0,1,0,7,18.277,1.277,1.277,0,0,0,8.277,19.553Z" transform="translate(-4.127 -8.382)" fill="#fff"/>
              <path id="Path_1432-3" data-name="Path 1432" d="M15.277,19.553A1.277,1.277,0,1,0,14,18.277,1.277,1.277,0,0,0,15.277,19.553Z" transform="translate(-6.659 -8.382)" fill="#fff"/>
            </g>
          </g>
        </g>
        <g id="Single-Product-5" data-name="Single-Product" transform="translate(903.791 389.285)" opacity="0.5">
          <g id="Rectangle_580-5" data-name="Rectangle 580" transform="translate(0.209 -0.285)" fill="#fff" stroke="#f2f2f2" stroke-width="2">
            <rect width="87" height="132" rx="16" stroke="none"/>
            <rect x="1" y="1" width="85" height="130" rx="15" fill="none"/>
          </g>
          <g id="product-img-4" data-name="product-img" transform="translate(10.376 10.376)" opacity="0.5">
            <g id="Rectangle_567-4" data-name="Rectangle 567" transform="translate(-0.166 0.339)" stroke="#ddd" stroke-width="2" fill="url(#linear-gradient)">
              <rect width="67" height="66" rx="10" stroke="none"/>
              <rect x="1" y="1" width="65" height="64" rx="9" fill="none"/>
            </g>
            <g id="image-svgrepo-com-4" data-name="image-svgrepo-com" transform="translate(13.87 13.87)">
              <g transform="matrix(1, 0, 0, 1, -479.04, -44.53)" filter="url(#Path_1417-4)">
                <path id="Path_1417-8" data-name="Path 1417" d="M38.741,24.575,33.049,11.262c-1.037-2.437-2.582-3.819-4.347-3.91-1.746-.091-3.437,1.128-4.728,3.455l-3.455,6.2a3.809,3.809,0,0,1-2.892,2.182,3.732,3.732,0,0,1-3.219-1.673l-.4-.509a5.163,5.163,0,0,0-4.528-2.237A5.157,5.157,0,0,0,5.515,17.9L2.368,24.174A7.242,7.242,0,0,0,8.843,34.668H32.049A7.253,7.253,0,0,0,38.1,31.413,7.119,7.119,0,0,0,38.741,24.575Z" transform="translate(477.44 47.6)" fill="#fff"/>
              </g>
              <g transform="matrix(1, 0, 0, 1, -479.04, -44.53)" filter="url(#Path_1418-4)">
                <path id="Path_1418-8" data-name="Path 1418" d="M9.737,13.914A6.147,6.147,0,1,0,3.59,7.767,6.147,6.147,0,0,0,9.737,13.914Z" transform="translate(479.07 42.91)" fill="#fff"/>
              </g>
            </g>
          </g>
          <rect id="Rectangle_581-4" data-name="Rectangle 581" width="42" height="11" rx="5.5" transform="translate(10.209 83.715)" fill="#f7f7f7"/>
          <g id="Group_4132-4" data-name="Group 4132" transform="translate(10.376 103.76)">
            <rect id="Rectangle_583-4" data-name="Rectangle 583" width="67" height="17" rx="8.5" transform="translate(-0.166 -0.045)" fill="#efefef"/>
            <g id="cart-svgrepo-com_8_4" data-name="cart-svgrepo-com (8)" transform="translate(27.573 3.009)">
              <path id="Path_1430-4" data-name="Path 1430" d="M2.5,3.979A.479.479,0,0,1,2.979,3.5h.356a1.342,1.342,0,0,1,1.178.787A4.185,4.185,0,0,1,4.83,5.1l.064,0h7.978a.8.8,0,0,1,.767,1.017L12.473,10.2a1.755,1.755,0,0,1-1.688,1.274h-3.8a1.756,1.756,0,0,1-1.693-1.291L4.809,8.418l-.8-2.712v0a4.654,4.654,0,0,0-.331-.954c-.135-.246-.242-.29-.338-.29H2.979A.479.479,0,0,1,2.5,3.979Z" transform="translate(-2.5 -3.5)" fill="#fff"/>
              <path id="Path_1431-4" data-name="Path 1431" d="M8.277,19.553A1.277,1.277,0,1,0,7,18.277,1.277,1.277,0,0,0,8.277,19.553Z" transform="translate(-4.127 -8.382)" fill="#fff"/>
              <path id="Path_1432-4" data-name="Path 1432" d="M15.277,19.553A1.277,1.277,0,1,0,14,18.277,1.277,1.277,0,0,0,15.277,19.553Z" transform="translate(-6.659 -8.382)" fill="#fff"/>
            </g>
          </g>
        </g>
      </g>
    </g>
  </g>
</svg>
