<svg xmlns="http://www.w3.org/2000/svg" width="107" height="162" viewBox="0 0 107 162"><g transform="translate(-457.045 -378.559)"><g transform="translate(457.045 378.559)" fill="#fff" stroke="#f2f2f2" stroke-width="2"><rect width="107" height="162" rx="12" stroke="none"/><rect x="1" y="1" width="105" height="160" rx="11" fill="none"/></g><g transform="translate(463.9 386.065)" opacity="0.5"><g transform="translate(0.144 0.495)" fill="#efefef" stroke="#afafaf" stroke-width="2"><rect width="93" height="93" rx="10" stroke="none"/><rect x="1" y="1" width="91" height="91" rx="9" fill="none"/></g><g transform="translate(19.233 18.968)"><path d="M54.029,31.664,45.994,12.873c-1.463-3.44-3.645-5.391-6.135-5.519-2.464-.128-4.852,1.592-6.675,4.878l-4.878,8.754a5.377,5.377,0,0,1-4.082,3.081A5.268,5.268,0,0,1,19.681,21.7l-.565-.719c-1.823-2.285-4.082-3.389-6.392-3.158s-4.287,1.823-5.6,4.415L2.687,31.1a10.223,10.223,0,0,0,9.139,14.812H44.582a10.238,10.238,0,0,0,8.549-4.6A10.048,10.048,0,0,0,54.029,31.664Z" transform="translate(-1.596 7.355)" fill="#fff"/><path d="M12.267,18.974A8.677,8.677,0,1,0,3.59,10.3,8.677,8.677,0,0,0,12.267,18.974Z" transform="translate(1.529 -1.62)" fill="#fff"/></g></g><rect width="51" height="13" rx="6.5" transform="translate(464.045 485.559)" fill="#f7f7f7"/><g transform="translate(464.027 512.424)"><rect width="93" height="20" rx="7" transform="translate(0.018 0.135)" fill="#efefef"/><g transform="translate(40.079 3.22)"><path d="M2.5,4.087A.587.587,0,0,1,3.087,3.5h.437a1.645,1.645,0,0,1,1.444.965,5.131,5.131,0,0,1,.389.995q.039,0,.079,0h9.781A.978.978,0,0,1,16.158,6.7L14.727,11.72a2.152,2.152,0,0,1-2.07,1.562H8A2.152,2.152,0,0,1,5.926,11.7l-.6-2.169L4.346,6.2l0-.006a5.705,5.705,0,0,0-.406-1.17c-.165-.3-.3-.355-.414-.355H3.087A.587.587,0,0,1,2.5,4.087Z" transform="translate(-2.5 -3.5)" fill="#fff"/><path d="M8.565,20.131A1.565,1.565,0,1,0,7,18.565,1.565,1.565,0,0,0,8.565,20.131Z" transform="translate(-3.478 -6.434)" fill="#fff"/><path d="M15.565,20.131A1.565,1.565,0,1,0,14,18.565,1.565,1.565,0,0,0,15.565,20.131Z" transform="translate(-4.999 -6.434)" fill="#fff"/></g></g><g transform="translate(471.837 395.002)"><rect width="20" height="20" rx="7" transform="translate(0.207 -0.443)" fill="#fd5d00"/><path d="M4.393,51.1l-.049-.045L.936,47.888A2.93,2.93,0,0,1,0,45.74v-.064a2.853,2.853,0,0,1,4.495-2.333,2.922,2.922,0,0,1,.486.434,2.536,2.536,0,0,1,.263-.259,2.771,2.771,0,0,1,.224-.175h0a2.852,2.852,0,0,1,4.495,2.333v.064a2.93,2.93,0,0,1-.936,2.148L5.617,51.054l-.049.045a.866.866,0,0,1-.588.232.857.857,0,0,1-.588-.232Z" transform="translate(5.208 -37.265)" fill="#fff"/></g></g></svg>