<svg xmlns="http://www.w3.org/2000/svg" width="561" height="186" viewBox="0 0 561 186"><g transform="translate(-467 -431)"><rect width="561" height="186" rx="8" transform="translate(467 431)" fill="#f7f7f7"/><g transform="translate(20 62)"><rect width="541" height="166" rx="8" transform="translate(457 379)" fill="#fff"/><g transform="translate(313.273 244.532)" opacity="0.5"><g transform="translate(158.727 149.468)" fill="#efefef" stroke="#ddd" stroke-width="2"><rect width="136" height="136" rx="10" stroke="none"/><rect x="1" y="1" width="134" height="134" rx="9" fill="none"/></g><g transform="translate(187.415 178.156)"><path d="M78.426,42.979,66.652,15.444c-2.144-5.041-5.341-7.9-8.99-8.087-3.611-.188-7.109,2.332-9.78,7.147L40.735,27.331c-1.5,2.708-3.649,4.326-5.981,4.514-2.37.226-4.739-1.016-6.658-3.461l-.828-1.053C24.6,23.983,21.287,22.366,17.9,22.7s-6.282,2.671-8.2,6.47L3.194,42.152a14.979,14.979,0,0,0,13.391,21.7h48a15,15,0,0,0,12.526-6.733A14.724,14.724,0,0,0,78.426,42.979Z" transform="translate(-1.596 14.196)" fill="#fff"/><path d="M16.3,27.048A12.714,12.714,0,1,0,3.59,14.334,12.714,12.714,0,0,0,16.3,27.048Z" transform="translate(3.911 -1.62)" fill="#fff"/></g></g><rect width="116" height="20" rx="10" transform="translate(620 398)" fill="#f7f7f7"/><rect width="342" height="12" rx="6" transform="translate(620 430)" fill="#efefef" opacity="0.5"/><rect width="171" height="12" rx="6" transform="translate(620 446)" fill="#efefef" opacity="0.5"/><g transform="translate(140 64)"><rect width="28" height="28" rx="9" transform="translate(480 402)" fill="#fd5d00"/><path d="M6.383,54.846l-.071-.065-4.952-4.6A4.257,4.257,0,0,1,0,47.061v-.093a4.145,4.145,0,0,1,6.53-3.389,4.245,4.245,0,0,1,.707.63,3.684,3.684,0,0,1,.382-.376,4.024,4.024,0,0,1,.325-.254h0a4.143,4.143,0,0,1,6.53,3.389v.093a4.257,4.257,0,0,1-1.36,3.121l-4.952,4.6-.071.065a1.258,1.258,0,0,1-.854.336,1.245,1.245,0,0,1-.854-.336Z" transform="translate(486.764 366.998)" fill="#fff"/></g><g transform="translate(-37 20)"><rect width="116" height="28" rx="9" transform="translate(657 482)" fill="#616161"/><g transform="translate(703.5 483.5)"><path d="M2.5,4.25a.75.75,0,0,1,.75-.75h.558A2.1,2.1,0,0,1,5.653,4.733,6.555,6.555,0,0,1,6.15,6q.05,0,.1,0h12.5a1.25,1.25,0,0,1,1.2,1.593L18.122,14a2.75,2.75,0,0,1-2.645,2H9.53a2.75,2.75,0,0,1-2.652-2.022L6.117,11.2,4.859,6.956l0-.007a7.29,7.29,0,0,0-.519-1.495C4.127,5.069,3.959,5,3.808,5H3.25A.75.75,0,0,1,2.5,4.25Z" fill="#fff"/><path d="M9,21a2,2,0,1,0-2-2A2,2,0,0,0,9,21Z" fill="#fff"/><path d="M16,21a2,2,0,1,0-2-2A2,2,0,0,0,16,21Z" fill="#fff"/></g></g></g></g></svg>