<svg xmlns="http://www.w3.org/2000/svg" width="561" height="186" viewBox="0 0 561 186"><g transform="translate(-467 -431)"><rect width="561" height="186" rx="8" transform="translate(467 431)" fill="#f7f7f7"/><g transform="translate(20 62)"><rect width="541" height="166" rx="8" transform="translate(457 379)" fill="#fff"/><g transform="translate(310.273 244.532)" opacity="0.5"><g transform="translate(158.727 149.468)" fill="#efefef" stroke="#616161" stroke-width="2"><rect width="136" height="136" rx="10" stroke="none"/><rect x="1" y="1" width="134" height="134" rx="9" fill="none"/></g><g transform="translate(187.515 178.255)"><path d="M78.692,43.1,66.878,15.472c-2.152-5.058-5.36-7.927-9.021-8.115-3.624-.189-7.134,2.34-9.814,7.172L40.87,27.4c-1.51,2.718-3.661,4.341-6,4.53-2.378.226-4.756-1.019-6.681-3.473l-.83-1.057c-2.68-3.359-6-4.983-9.4-4.643s-6.3,2.68-8.229,6.492L3.2,42.272a15.031,15.031,0,0,0,13.438,21.78H64.8A15.053,15.053,0,0,0,77.371,57.3,14.775,14.775,0,0,0,78.692,43.1Z" transform="translate(-1.596 14.27)" fill="#fff"/><path d="M16.348,27.137A12.758,12.758,0,1,0,3.59,14.378,12.758,12.758,0,0,0,16.348,27.137Z" transform="translate(3.937 -1.62)" fill="#fff"/></g></g><rect width="116" height="20" rx="10" transform="translate(617 398)" fill="#f7f7f7"/><rect width="342" height="12" rx="6" transform="translate(617 430)" fill="#efefef" opacity="0.5"/><rect width="171" height="12" rx="6" transform="translate(617 446)" fill="#efefef" opacity="0.5"/><g transform="translate(0 3)"><rect width="28" height="28" rx="8" transform="translate(480 402)" fill="#fd5d00"/><path d="M6.383,54.846l-.071-.065-4.952-4.6A4.257,4.257,0,0,1,0,47.061v-.093a4.145,4.145,0,0,1,6.53-3.389,4.245,4.245,0,0,1,.707.63,3.684,3.684,0,0,1,.382-.376,4.024,4.024,0,0,1,.325-.254h0a4.143,4.143,0,0,1,6.53,3.389v.093a4.257,4.257,0,0,1-1.36,3.121l-4.952,4.6-.071.065a1.258,1.258,0,0,1-.854.336,1.245,1.245,0,0,1-.854-.336Z" transform="translate(486.764 366.998)" fill="#fff"/></g><rect width="116" height="28" rx="9" transform="translate(617 485)" fill="#efefef"/><g transform="translate(663.5 486.5)"><path d="M2.5,4.25a.75.75,0,0,1,.75-.75h.558A2.1,2.1,0,0,1,5.653,4.733,6.555,6.555,0,0,1,6.15,6q.05,0,.1,0h12.5a1.25,1.25,0,0,1,1.2,1.593L18.122,14a2.75,2.75,0,0,1-2.645,2H9.53a2.75,2.75,0,0,1-2.652-2.022L6.117,11.2,4.859,6.956l0-.007a7.29,7.29,0,0,0-.519-1.495C4.127,5.069,3.959,5,3.808,5H3.25A.75.75,0,0,1,2.5,4.25Z" fill="#fff"/><path d="M9,21a2,2,0,1,0-2-2A2,2,0,0,0,9,21Z" fill="#fff"/><path d="M16,21a2,2,0,1,0-2-2A2,2,0,0,0,16,21Z" fill="#fff"/></g></g></g></svg>