<svg id="Group_4136" data-name="Group 4136" xmlns="http://www.w3.org/2000/svg" width="30" height="32" viewBox="0 0 30 32">
  <rect id="BG" width="30" height="32" rx="8" fill="#a45eff" opacity="0.1"/>
  <path id="chart-line-up-bold-svgrepo-com" d="M32.619,46.049a.7.7,0,0,1-.7.7H20.7a.7.7,0,0,1-.7-.7V36.7a.7.7,0,1,1,1.4,0v5.786l2.542-2.542a.7.7,0,0,1,.991,0l1.374,1.374,2.981-2.981h-.644a.7.7,0,1,1,0-1.4h2.34q.033,0,.066,0l.032,0,.036.006.035.008.032.008.033.012.032.012.03.014.032.016.027.016.031.019.029.021.027.02c.017.014.033.028.048.043l0,0,0,0c.015.015.03.031.043.048l.02.027.021.029c.007.01.013.021.019.032l.016.027c.006.011.011.022.016.033s.009.019.014.029.008.022.012.033.008.021.011.032.006.022.009.033.006.022.008.033,0,.026.006.039,0,.019,0,.029,0,.046,0,.07v2.337a.7.7,0,1,1-1.4,0v-.644l-3.477,3.477a.7.7,0,0,1-.991,0L24.44,41.432,21.4,44.47v.878H31.918a.7.7,0,0,1,.7.7Z" transform="translate(-11.31 -25.375)" fill="#a45eff"/>
</svg>
