<svg id="Group_4136" data-name="Group 4136" xmlns="http://www.w3.org/2000/svg" width="30" height="32" viewBox="0 0 30 32">
  <rect id="BG" width="30" height="32" rx="8" fill="#a45eff" opacity="0.1"/>
  <g id="dollar-coin-svgrepo-com_1_" data-name="dollar-coin-svgrepo-com (1)" transform="translate(4.638 5.638)">
    <circle id="Ellipse_98" data-name="Ellipse 98" cx="7" cy="7" r="7" transform="translate(3.362 3.362)" fill="none" stroke="#a45eff" stroke-linecap="round" stroke-linejoin="round" stroke-width="1.5"/>
    <path id="Path_1786" data-name="Path 1786" d="M13.5,8.977l-.118-.1A1.637,1.637,0,0,0,12.336,8.5h-1.9A1.432,1.432,0,0,0,9,9.932H9a1.432,1.432,0,0,0,1.432,1.432h2.046A1.432,1.432,0,0,1,13.91,12.8h0a1.432,1.432,0,0,1-1.432,1.432H10.156a1.637,1.637,0,0,1-1.141-.463L9,13.751" transform="translate(-1.093 -1.002)" fill="none" stroke="#a45eff" stroke-linecap="round" stroke-linejoin="round" stroke-width="1.5"/>
    <path id="Path_1787" data-name="Path 1787" d="M12,7.818V7" transform="translate(-1.638 -0.73)" fill="none" stroke="#a45eff" stroke-linecap="round" stroke-linejoin="round" stroke-width="1.5"/>
    <path id="Path_1788" data-name="Path 1788" d="M12,16.818V16" transform="translate(-1.638 -2.364)" fill="none" stroke="#a45eff" stroke-linecap="round" stroke-linejoin="round" stroke-width="1.5"/>
  </g>
</svg>
