<svg id="Group_4134" data-name="Group 4134" xmlns="http://www.w3.org/2000/svg" width="30" height="32" viewBox="0 0 30 32">
  <rect id="BG" width="30" height="32" rx="8" fill="#a45eff" opacity="0.1"/>
  <g id="magnifier-with-dollar-svgrepo-com" transform="translate(8.211 9.211)">
    <g id="Group_4139" data-name="Group 4139" transform="translate(0 0)">
      <path id="Path_1441" data-name="Path 1441" d="M11.968,9.4A5.51,5.51,0,0,0,4.176,1.611a5.4,5.4,0,0,0-.829,6.65.232.232,0,0,1-.032.276L.5,11.348a1.284,1.284,0,0,0-.2,1.838l.085.085a1.284,1.284,0,0,0,1.838-.2L5.036,10.27a.235.235,0,0,1,.282-.038A5.4,5.4,0,0,0,11.968,9.4ZM5.193,8.386a4.071,4.071,0,1,1,5.758,0A4.076,4.076,0,0,1,5.193,8.386Z" transform="translate(0 0)" fill="#a45eff"/>
    </g>
  </g>
</svg>
