<svg id="Group_4136" data-name="Group 4136" xmlns="http://www.w3.org/2000/svg" width="30" height="32" viewBox="0 0 30 32">
  <rect id="BG" width="30" height="32" rx="8" fill="#a45eff" opacity="0.1"/>
  <path id="route-svgrepo-com" d="M6.067,3.67a.6.6,0,0,1,.3-1.014l3.824-.838a.6.6,0,0,1,.716.716l-.839,3.824a.6.6,0,0,1-1.012.3L6.066,3.669Zm5.4,14.811a2.486,2.486,0,1,0-2.486-2.486A2.486,2.486,0,0,0,11.47,18.48ZM6.425,6.295a.8.8,0,0,0-1.134,0L3.444,8.141a3.406,3.406,0,0,0,0,4.817l0,0a3.411,3.411,0,0,0,4.821,0l4.817-4.817a1.8,1.8,0,0,1,2.557,2.546h0l-1.42,1.42a.8.8,0,0,0,1.134,1.135l1.42-1.42,0,0a3.408,3.408,0,0,0-4.826-4.813L7.133,11.823A1.8,1.8,0,0,1,4.579,9.276L6.425,7.429a.8.8,0,0,0,0-1.134Z" transform="translate(4.891 5.858)" fill="#a45eff" fill-rule="evenodd"/>
</svg>
