<svg id="Group_4136" data-name="Group 4136" xmlns="http://www.w3.org/2000/svg" xmlns:xlink="http://www.w3.org/1999/xlink" width="30" height="32" viewBox="0 0 30 32">
  <defs>
    <clipPath id="clip-path">
      <rect id="Rectangle_605" data-name="Rectangle 605" width="18" height="18" transform="translate(-0.422 -0.422)" fill="#fff"/>
    </clipPath>
  </defs>
  <rect id="BG" width="30" height="32" rx="8" fill="#a45eff" opacity="0.1"/>
  <g id="rocket-launch-svgrepo-com" transform="translate(6.422 7.422)" clip-path="url(#clip-path)">
    <path id="Path_1789" data-name="Path 1789" d="M13.008,9.719c-.8.8-3.932,3.217-3.932,3.217m3.932-3.217C15.152,7.574,15.152,6.145,15.152,4c-2.145,0-3.574,0-5.719,2.145m3.574,3.574.34,1.7a3.574,3.574,0,0,1-.977,3.228l-.837.837a.715.715,0,0,1-1.13-.158L9.076,12.936m.357-6.791L6.217,10.076M9.434,6.145l-1.7-.34a3.574,3.574,0,0,0-3.228.977l-.837.837a.715.715,0,0,0,.158,1.13l2.388,1.327m0,0,2.859,2.859m2.859-5.718-.715.715M3,16.152l2.425-.485a1.43,1.43,0,0,0,1.149-1.4v-.258a1.43,1.43,0,0,0-1.43-1.43H4.887a1.43,1.43,0,0,0-1.4,1.149Z" transform="translate(-0.855 -1.141)" fill="none" stroke="#a45eff" stroke-linecap="round" stroke-linejoin="round" stroke-width="1.5"/>
  </g>
</svg>
