<svg id="Group_4134" data-name="Group 4134" xmlns="http://www.w3.org/2000/svg" width="30" height="32" viewBox="0 0 30 32">
  <rect id="BG" width="30" height="32" rx="8" fill="#a45eff" opacity="0.1"/>
  <path id="money-check-dollar-svgrepo-com" d="M11.556,12h2.333M11.556,8.889h2.333M7.667,8.5V7.722m0,.778H9.222m-1.556,0c-1.4,0-1.554.336-1.555,1.036s0,.908,1.556.908,1.556.16,1.556.907c0,.562,0,1.037-1.556,1.037m0,0v.778m0-.778H6.111m-.622,3.5h9.022a3.864,3.864,0,0,0,1.64-.17,1.555,1.555,0,0,0,.68-.68A3.864,3.864,0,0,0,17,13.4V7.489a3.864,3.864,0,0,0-.17-1.64,1.555,1.555,0,0,0-.68-.68A3.865,3.865,0,0,0,14.511,5H5.489a3.864,3.864,0,0,0-1.64.17,1.555,1.555,0,0,0-.68.68A3.864,3.864,0,0,0,3,7.489V13.4a3.865,3.865,0,0,0,.17,1.64,1.555,1.555,0,0,0,.68.68A3.864,3.864,0,0,0,5.489,15.889Z" transform="translate(5 5.556)" fill="none" stroke="#a45eff" stroke-linecap="round" stroke-linejoin="round" stroke-width="1.5"/>
</svg>
