<svg id="Group_4134" data-name="Group 4134" xmlns="http://www.w3.org/2000/svg" width="30" height="32" viewBox="0 0 30 32">
  <rect id="BG" width="30" height="32" rx="8" fill="#a45eff" opacity="0.1"/>
  <path id="export-bold-svgrepo-com" d="M38.707,8.074a.783.783,0,0,1,0-1.107l2.739-2.738a.783.783,0,0,1,1.107,0l2.739,2.738a.783.783,0,1,1-1.107,1.107l-1.4-1.4v5.415a.783.783,0,1,1-1.565,0V6.671l-1.4,1.4A.783.783,0,0,1,38.707,8.074Zm7.988,1.4H45.13a.783.783,0,0,0,0,1.565h1.3v6h-8.87v-6h1.3a.783.783,0,0,0,0-1.565H37.3a1.306,1.306,0,0,0-1.3,1.3V17.3a1.306,1.306,0,0,0,1.3,1.3H46.7A1.306,1.306,0,0,0,48,17.3V10.782A1.306,1.306,0,0,0,46.7,9.478Z" transform="translate(-27 4.696)" fill="#a45eff" stroke="#a45eff" stroke-width="0.2"/>
</svg>
