<svg id="Group_4136" data-name="Group 4136" xmlns="http://www.w3.org/2000/svg" width="30" height="32" viewBox="0 0 30 32">
  <rect id="BG" width="30" height="32" rx="8" fill="#a45eff" opacity="0.1"/>
  <g id="magnifier-with-a-heart-svgrepo-com" transform="translate(8.114 9.114)">
    <g id="Group_4375" data-name="Group 4375" transform="translate(0 0)">
      <path id="Path_1777" data-name="Path 1777" d="M12.138,1.634a5.6,5.6,0,0,0-7.9,0,5.48,5.48,0,0,0-.841,6.745.235.235,0,0,1-.032.28L.511,11.51a1.3,1.3,0,0,0-.2,1.864L.4,13.46a1.3,1.3,0,0,0,1.864-.2l2.845-2.845a.239.239,0,0,1,.286-.038,5.48,5.48,0,0,0,6.744-.841A5.6,5.6,0,0,0,12.138,1.634ZM11.106,8.505a4.129,4.129,0,1,1,0-5.84A4.134,4.134,0,0,1,11.106,8.505Z" transform="translate(0 0)" fill="#a45eff"/>
      <path id="Path_1778" data-name="Path 1778" d="M129.215,82.8c-.712,0-1.164.794-1.271.794s-.527-.794-1.271-.794a1.383,1.383,0,0,0-1.354,1.32,1.587,1.587,0,0,0,.3,1,7.321,7.321,0,0,0,2.332,1.916,7.193,7.193,0,0,0,2.327-1.916,1.587,1.587,0,0,0,.3-1A1.383,1.383,0,0,0,129.215,82.8Z" transform="translate(-119.757 -79.126)" fill="#a45eff"/>
    </g>
  </g>
</svg>
