<svg id="Group_4136" data-name="Group 4136" xmlns="http://www.w3.org/2000/svg" width="30" height="32" viewBox="0 0 30 32">
  <rect id="BG" width="30" height="32" rx="8" fill="#a45eff" opacity="0.1"/>
  <path id="search-folder-svgrepo-com" d="M12.057,11.348a.709.709,0,0,1,0-1.418.709.709,0,0,0,.709-.709V3.546a.709.709,0,0,0-.709-.709H6.678l-.334-.946a.71.71,0,0,0-.67-.472H2.128a.709.709,0,0,0-.709.709V9.22a.709.709,0,0,0,.709.709.709.709,0,0,1,0,1.418A2.128,2.128,0,0,1,0,9.22V2.128A2.128,2.128,0,0,1,2.128,0H5.674A2.13,2.13,0,0,1,7.681,1.418h4.376a2.128,2.128,0,0,1,2.128,2.128V9.22A2.128,2.128,0,0,1,12.057,11.348ZM8.5,11.28a3.548,3.548,0,1,1,1-1l2.057,2.057a.709.709,0,1,1-1,1L8.5,11.28ZM8.053,9.826a2.128,2.128,0,1,0-3.01,0,2.128,2.128,0,0,0,3.01,0Z" transform="translate(8.45 9.71)" fill="#a45eff" stroke="#a45eff" stroke-width="0.2"/>
</svg>
