<svg id="Group_4134" data-name="Group 4134" xmlns="http://www.w3.org/2000/svg" width="30" height="32" viewBox="0 0 30 32">
  <rect id="BG" width="30" height="32" rx="8" fill="#a45eff" opacity="0.1"/>
  <g id="megaphone-svgrepo-com" transform="translate(6.871 6.859)">
    <path id="Path_1780" data-name="Path 1780" d="M7.1,9.056l4.772,1.3V5.277L7.1,6.578Zm-1.7.651a.852.852,0,0,0,.628.822L12.5,12.3a.852.852,0,0,0,1.076-.822V4.161A.852.852,0,0,0,12.5,3.339L6.028,5.105a.852.852,0,0,0-.628.822Z" transform="translate(-0.554)" fill="#a45eff" fill-rule="evenodd"/>
    <path id="Path_1781" data-name="Path 1781" d="M4.519,9.149V7.1H3.626a2.07,2.07,0,0,0,0,2.045Zm.852,1.7A.852.852,0,0,0,6.223,10V6.252A.852.852,0,0,0,5.371,5.4H3.016a.469.469,0,0,0-.34.146,3.766,3.766,0,0,0,0,5.157.473.473,0,0,0,.344.15Z" transform="translate(0 -0.309)" fill="#a45eff" fill-rule="evenodd"/>
    <path id="Path_1782" data-name="Path 1782" d="M5.886,11.7h-.5L4.736,14.26h.5Zm-.5-1.7a1.7,1.7,0,0,0-1.651,1.283L2.813,14.9a.852.852,0,0,0,.826,1.063H5.232a1.7,1.7,0,0,0,1.651-1.282l.654-2.556A1.7,1.7,0,0,0,5.886,10Z" transform="translate(-0.168 -0.99)" fill="#a45eff" fill-rule="evenodd"/>
    <path id="Path_1783" data-name="Path 1783" d="M18.539,4.379A.852.852,0,0,1,18.3,5.561l-1.278.852A.852.852,0,0,1,16.079,5l1.278-.852A.852.852,0,0,1,18.539,4.379Z" transform="translate(-2.078 -0.102)" fill="#a45eff" fill-rule="evenodd"/>
    <path id="Path_1784" data-name="Path 1784" d="M15.7,8.452a.852.852,0,0,1,.852-.852H17.83a.852.852,0,1,1,0,1.7H16.552A.852.852,0,0,1,15.7,8.452Z" transform="translate(-2.078 -0.635)" fill="#a45eff" fill-rule="evenodd"/>
    <path id="Path_1785" data-name="Path 1785" d="M15.9,10.456a.852.852,0,0,1,1.2-.1l1.176.988a.852.852,0,1,1-1.1,1.3L16,11.657A.852.852,0,0,1,15.9,10.456Z" transform="translate(-2.078 -1.012)" fill="#a45eff" fill-rule="evenodd"/>
  </g>
</svg>
