<svg id="Group_4136" data-name="Group 4136" xmlns="http://www.w3.org/2000/svg" width="30" height="32" viewBox="0 0 30 32">
  <rect id="BG" width="30" height="32" rx="8" fill="#a45eff" opacity="0.1"/>
  <g id="user-scan-svgrepo-com" transform="translate(5.581 6.294)">
    <circle id="Ellipse_9" data-name="Ellipse 9" cx="2" cy="2" r="2" transform="translate(7.419 5.706)" fill="#a45eff"/>
    <path id="Path_1439" data-name="Path 1439" d="M14.317,15.074a.169.169,0,0,1-.048.217,6.421,6.421,0,0,1-7.681,0,.169.169,0,0,1-.048-.217A4.4,4.4,0,0,1,10.428,13,4.4,4.4,0,0,1,14.317,15.074Z" transform="translate(-1.009 -2.581)" fill="#a45eff" fill-rule="evenodd"/>
    <path id="Path_1440" data-name="Path 1440" d="M12.986,4h.358a3.9,3.9,0,0,1,1.627.165,1.569,1.569,0,0,1,.7.7,3.9,3.9,0,0,1,.165,1.627v.358m-2.853,8.559h.358a3.9,3.9,0,0,0,1.627-.165,1.569,1.569,0,0,0,.7-.7,3.9,3.9,0,0,0,.165-1.627v-.358M5.853,4H5.495a3.9,3.9,0,0,0-1.627.165,1.569,1.569,0,0,0-.7.7A3.9,3.9,0,0,0,3,6.495v.358m2.853,8.559H5.495a3.9,3.9,0,0,1-1.627-.165,1.569,1.569,0,0,1-.7-.7A3.9,3.9,0,0,1,3,12.917v-.358" fill="none" stroke="#a45eff" stroke-linecap="round" stroke-width="2"/>
  </g>
</svg>
