<svg id="Group_4134" data-name="Group 4134" xmlns="http://www.w3.org/2000/svg" width="30" height="32" viewBox="0 0 30 32">
  <rect id="BG" width="30" height="32" rx="8" fill="#a45eff" opacity="0.1"/>
  <g id="magnifier-with-dollar-svgrepo-com" transform="translate(8.211 9.211)">
    <g id="Group_4139" data-name="Group 4139" transform="translate(0 0)">
      <path id="Path_1441" data-name="Path 1441" d="M11.968,9.4A5.51,5.51,0,0,0,4.176,1.611a5.4,5.4,0,0,0-.829,6.65.232.232,0,0,1-.032.276L.5,11.348a1.284,1.284,0,0,0-.2,1.838l.085.085a1.284,1.284,0,0,0,1.838-.2L5.036,10.27a.235.235,0,0,1,.282-.038A5.4,5.4,0,0,0,11.968,9.4ZM5.193,8.386a4.071,4.071,0,1,1,5.758,0A4.076,4.076,0,0,1,5.193,8.386Z" transform="translate(0 0)" fill="#a45eff"/>
      <path id="Path_1442" data-name="Path 1442" d="M149.508,66.18a2.407,2.407,0,0,0-.785-.373s-.022,0-.022-.037v-.856c0-.164.205-.249.205.229a.472.472,0,0,0,.471.431.427.427,0,0,0,.308-.126.438.438,0,0,0,.127-.352V65.09a1.265,1.265,0,0,0-.422-.864,1.25,1.25,0,0,0-.643-.314s-.046,0-.046-.073a.42.42,0,0,0-.84,0c0,.071-.044.07-.044.07a1.4,1.4,0,0,0-.679.3,1.2,1.2,0,0,0-.463.982,1.086,1.086,0,0,0,.418.871,1.942,1.942,0,0,0,.738.357.04.04,0,0,1,.03.036c0,.146,0,.816,0,1.06,0,.039-.015.046-.026.042a.569.569,0,0,1-.173-.1.593.593,0,0,1-.2-.511.438.438,0,0,0-.143-.339.457.457,0,0,0-.609,0,.427.427,0,0,0-.137.352,1.433,1.433,0,0,0,.559,1.175,1.591,1.591,0,0,0,.7.277.048.048,0,0,1,.033.047.421.421,0,1,0,.84,0,.042.042,0,0,1,.03-.043,1.581,1.581,0,0,0,.723-.342,1.223,1.223,0,0,0,.494-.994A1.1,1.1,0,0,0,149.508,66.18Zm-.473.941a.4.4,0,0,1-.207.352c-.041.028-.126.091-.126.022v-.782c0-.034.018-.028.018-.028a.633.633,0,0,1,.2.108A.379.379,0,0,1,149.035,67.12Zm-1.207-2.332s.034-.01.034.079v.638c0,.042-.034.02-.034.02a.433.433,0,0,1-.131-.092.372.372,0,0,1-.107-.276.386.386,0,0,1,.173-.336A.161.161,0,0,1,147.828,64.788Z" transform="translate(-140.158 -60.664)" fill="#a45eff"/>
    </g>
  </g>
</svg>
