<svg id="Group_4136" data-name="Group 4136" xmlns="http://www.w3.org/2000/svg" width="30" height="32" viewBox="0 0 30 32">
  <rect id="BG" width="30" height="32" rx="8" fill="#a45eff" opacity="0.1"/>
  <path id="star-svgrepo-com_8_" data-name="star-svgrepo-com (8)" d="M9.014,3.1a.743.743,0,0,1,1.376,0l1.282,3.125a.743.743,0,0,0,.632.459l3.368.253A.743.743,0,0,1,16.1,8.242L13.52,10.427a.743.743,0,0,0-.241.743l.8,3.281a.743.743,0,0,1-1.113.808l-2.874-1.775a.744.744,0,0,0-.781,0L6.437,15.26a.743.743,0,0,1-1.113-.808l.8-3.281a.743.743,0,0,0-.241-.743L3.307,8.242a.743.743,0,0,1,.425-1.308L7.1,6.681a.743.743,0,0,0,.632-.459Z" transform="translate(5.299 6.996)" fill="none" stroke="#a45eff" stroke-width="1.8"/>
</svg>
