<?xml version="1.0" encoding="iso-8859-1"?>
<!-- Uploaded to: SVG Repo, www.svgrepo.com, Generator: SVG Repo Mixer Tools -->
<!DOCTYPE svg PUBLIC "-//W3C//DTD SVG 1.1//EN" "http://www.w3.org/Graphics/SVG/1.1/DTD/svg11.dtd">
<svg fill="#000000" version="1.1" id="Capa_1" xmlns="http://www.w3.org/2000/svg" xmlns:xlink="http://www.w3.org/1999/xlink" 
	 width="800px" height="800px" viewBox="0 0 310.42 310.42"
	 xml:space="preserve">
<g>
	<g>
		<path d="M273.588,214.965c49.11-49.111,49.11-129.021-0.001-178.132c-49.11-49.111-129.02-49.111-178.131,0
			C53.793,78.497,47.483,140.462,76.51,188.85c0,0,2.085,3.496-0.731,6.312c-16.065,16.064-64.263,64.263-64.263,64.263
			c-12.791,12.79-15.837,30.675-4.493,42.02l1.953,1.951c11.343,11.345,29.229,8.301,42.019-4.49c0,0,48.096-48.097,64.128-64.128
			c2.951-2.951,6.448-0.866,6.448-0.866C169.958,262.938,231.924,256.629,273.588,214.965z M118.712,191.71
			c-36.288-36.288-36.287-95.332,0-131.62c36.288-36.287,95.333-36.288,131.619,0c36.288,36.287,36.288,95.332,0,131.62
			C214.044,227.997,155,227.997,118.712,191.71z"/>
		<path d="M213.74,126.092c-4.121-3.246-9.677-5.932-17.937-8.523c0,0-0.502-0.083-0.502-0.854c0-3.004,0-15.145,0-19.566
			c0-3.75,4.697-5.688,4.697,5.24c0.26,2.946,1.56,5.462,3.774,7.3c1.931,1.675,4.345,2.56,6.991,2.56
			c2.736,0,5.183-1.002,7.045-2.87c1.464-1.449,3.156-4.023,2.897-8.053l-0.011-0.138c-0.7-8.013-3.933-14.645-9.653-19.752
			c-4.339-3.795-8.573-6.063-14.698-7.184c0,0-1.044,0.083-1.044-1.662c0-5.474-3.886-9.151-9.671-9.151
			c-5.701,0-9.531,3.678-9.531,9.151c0,1.62-1.014,1.598-1.014,1.598c-6.343,1.071-10.867,3.275-15.521,6.957
			c-7.019,5.629-10.577,13.184-10.577,22.455c0,7.98,3.311,14.87,9.551,19.903c4.261,3.475,9.342,6.051,16.867,8.169
			c0,0,0.692,0.172,0.692,0.812c0,3.329,0.016,18.653,0.016,24.23c0,0.892-0.335,1.054-0.599,0.956
			c-1.796-0.665-2.693-1.205-3.962-2.181c-3.232-2.616-4.706-6.303-4.635-11.676c0-3.99-1.78-6.418-3.275-7.754
			c-1.948-1.739-4.354-2.658-6.961-2.658c-2.604,0-5.012,0.919-6.963,2.659c-2.205,1.97-3.313,4.826-3.126,8.05
			c0.46,12.021,4.76,21.062,12.779,26.871c4.29,3.112,9.149,5.142,15.975,6.322c0,0,0.751,0.219,0.751,1.074
			c0,5.549,3.83,10.277,9.531,10.277c5.785,0,9.671-4.729,9.671-10.277c0-0.834,0.687-0.989,0.687-0.989
			c6.53-1.295,11.627-3.831,16.534-7.829c7.5-5.964,11.303-13.608,11.303-22.722C223.825,138.321,220.338,131.148,213.74,126.092z
			 M202.928,147.596c0,3.309-1.461,5.788-4.738,8.038c-0.935,0.642-2.889,2.079-2.889,0.496c0,0,0-13.404,0-17.873
			c0-0.786,0.419-0.646,0.419-0.646c2.866,1.142,3.853,1.878,4.544,2.474C200.923,140.64,202.928,142.327,202.928,147.596z
			 M175.331,94.28c0,0,0.769-0.234,0.769,1.808c0,3.225,0,11.837,0,14.586c0,0.958-0.774,0.458-0.774,0.458
			c-1.829-0.923-2.238-1.396-3.003-2.108c-1.662-1.711-2.438-3.717-2.438-6.304c0-3.189,1.194-5.688,3.959-7.674
			C174.554,94.535,174.926,94.358,175.331,94.28z"/>
	</g>
</g>
</svg>