<svg id="icon-lists" xmlns="http://www.w3.org/2000/svg" width="54" height="54" viewBox="0 0 54 54">
  <rect id="card-bg" width="54" height="54" rx="8" fill="#ea7a0b" opacity="0.1"/>
  <g id="crown-svgrepo-com" transform="translate(15.4 -39.972)">
    <path id="Path_1428" data-name="Path 1428" d="M23.2,62.28A1.763,1.763,0,1,0,20.17,63.5c-1.2,2.482-3.49,3.349-5.265,2.564-1.582-.7-2.165-2.7-2.363-4.248a2.027,2.027,0,1,0-1.885,0c-.2,1.549-.781,3.548-2.363,4.248-1.776.784-4.067-.082-5.265-2.564a1.762,1.762,0,1,0-1.495.523l2.031,7.435H19.633l2.031-7.435A1.762,1.762,0,0,0,23.2,62.28Z" transform="translate(0 0)" fill="#ea7a0b"/>
    <path id="Path_1429" data-name="Path 1429" d="M75.034,395.125a1.311,1.311,0,0,1-1.312,1.311H58.311A1.311,1.311,0,0,1,57,395.125v-.109a1.311,1.311,0,0,1,1.311-1.312H73.723a1.311,1.311,0,0,1,1.312,1.312Z" transform="translate(-54.417 -320.493)" fill="#ea7a0b"/>
  </g>
</svg>
