<svg xmlns="http://www.w3.org/2000/svg" width="61" height="61" viewBox="0 0 61 61">
  <g id="icon-lists" transform="translate(-212 -243)">
    <rect id="card-bg" width="61" height="61" rx="10" transform="translate(212 243)" fill="#9be43b" opacity="0.1"/>
    <g id="status-up-svgrepo-com" transform="translate(228.869 259.863)">
      <path id="Path_1343" data-name="Path 1343" d="M18.513,2H8.761C4.525,2,2,4.525,2,8.761V18.5c0,4.248,2.525,6.773,6.761,6.773H18.5c4.236,0,6.761-2.525,6.761-6.761V8.761C25.274,4.525,22.749,2,18.513,2Z" fill="#9be43b" opacity="0.3"/>
      <path id="Path_1344" data-name="Path 1344" d="M7,19.485a.879.879,0,0,1-.873-.873V16.2a.873.873,0,0,1,1.746,0v2.409A.872.872,0,0,1,7,19.485Z" transform="translate(0.676 2.182)" fill="#9be43b"/>
      <path id="Path_1345" data-name="Path 1345" d="M12.123,19.825a.879.879,0,0,1-.873-.873V14.123a.873.873,0,1,1,1.746,0v4.829A.872.872,0,0,1,12.123,19.825Z" transform="translate(1.514 1.842)" fill="#9be43b"/>
      <path id="Path_1346" data-name="Path 1346" d="M17.242,20.164a.879.879,0,0,1-.873-.873V12.053a.873.873,0,1,1,1.746,0v7.238A.864.864,0,0,1,17.242,20.164Z" transform="translate(2.352 1.503)" fill="#9be43b"/>
      <path id="Path_1347" data-name="Path 1347" d="M19.793,5.938a1.048,1.048,0,0,0-.035-.186c-.012-.047-.023-.1-.035-.151s-.058-.081-.081-.128a.675.675,0,0,0-.116-.14c-.012-.012-.012-.023-.023-.023-.035-.023-.07-.035-.1-.058a.742.742,0,0,0-.163-.093.928.928,0,0,0-.175-.035.5.5,0,0,0-.128-.023h-3.41a.873.873,0,0,0,0,1.746h1.455A21.119,21.119,0,0,1,6.795,12.792.874.874,0,0,0,7,14.515a1.282,1.282,0,0,0,.209-.023A22.73,22.73,0,0,0,18.048,8.254V9.383a.873.873,0,0,0,1.746,0V5.938Z" transform="translate(0.676 0.508)" fill="#9be43b"/>
    </g>
  </g>
</svg>
