<svg xmlns="http://www.w3.org/2000/svg" width="61" height="61" viewBox="0 0 61 61">
  <g id="icon-lists" transform="translate(-212 -243)">
    <rect id="card-bg" width="61" height="61" rx="10" transform="translate(212 243)" fill="#e43b67" opacity="0.1"/>
    <g id="sms-tracking-svgrepo-com" transform="translate(229.239 258.822)">
      <path id="Path_1340" data-name="Path 1340" d="M6.839,13a5.839,5.839,0,1,0,5.839,5.839A5.833,5.833,0,0,0,6.839,13ZM4.457,16.457H6.839a.794.794,0,0,1,0,1.588H4.457a.794.794,0,0,1,0-1.588Zm4.764,4.764H4.445a.794.794,0,1,1,0-1.588H9.221a.794.794,0,0,1,0,1.588Z" transform="translate(0 1.678)" fill="#e43b67"/>
      <path id="Path_1341" data-name="Path 1341" d="M19.516,3H7.839C4.336,3,2,4.752,2,8.839v3.667a1.169,1.169,0,0,0,1.658,1.051,7.582,7.582,0,0,1,10.451,5.43,7.716,7.716,0,0,1,.082,2.581,1.16,1.16,0,0,0,1.156,1.3h4.169c3.5,0,5.839-1.752,5.839-5.839V8.85C25.355,4.752,23.02,3,19.516,3Z" transform="translate(0.168 0)" fill="#e43b67" opacity="0.3"/>
      <path id="Path_1342" data-name="Path 1342" d="M12.966,12.646a4.341,4.341,0,0,1-2.733-.923L6.578,8.8A.873.873,0,0,1,7.664,7.438l3.655,2.919a2.786,2.786,0,0,0,3.281,0l3.655-2.919A.873.873,0,0,1,19.342,8.8l-3.655,2.919A4.285,4.285,0,0,1,12.966,12.646Z" transform="translate(0.88 0.712)" fill="#e43b67"/>
    </g>
  </g>
</svg>
