<svg xmlns="http://www.w3.org/2000/svg" width="115" height="115" viewBox="0 0 115 115">
  <g id="svg-try-premium" transform="translate(-192 -101)">
    <g id="crown" transform="translate(-561 -9)">
      <rect id="Rectangle_354" width="115" height="115" rx="50" transform="translate(753 110)" fill="#fd5d00" opacity="0.02"/>
      <rect id="Rectangle_356" width="89" height="89" rx="35" transform="translate(766 123)" fill="#fd5d00" opacity="0.03"/>
      <rect id="Rectangle_355" width="55" height="55" rx="20" transform="translate(783 140)" fill="#fd5d00" opacity="0.05"/>
      <g id="crown-svgrepo-com" transform="translate(798.477 100.2)">
        <path id="Path_1393" d="M24.047,62.437a1.827,1.827,0,1,0-3.14,1.268c-1.242,2.573-3.617,3.471-5.458,2.658-1.639-.725-2.244-2.8-2.449-4.4a2.1,2.1,0,1,0-1.954,0c-.2,1.606-.809,3.678-2.449,4.4-1.841.813-4.215-.085-5.458-2.658a1.827,1.827,0,1,0-1.549.542L3.7,71.954H20.351l2.105-7.706A1.826,1.826,0,0,0,24.047,62.437Z" transform="translate(0 0)" fill="#fd5d00"/>
        <path id="Path_1394" d="M75.694,395.177a1.359,1.359,0,0,1-1.36,1.359H58.359A1.359,1.359,0,0,1,57,395.177v-.113a1.359,1.359,0,0,1,1.359-1.36H74.334a1.359,1.359,0,0,1,1.36,1.36Z" transform="translate(-54.323 -319.937)" fill="#fd5d00"/>
      </g>
    </g>
    <g id="svg-hand-pointer" transform="translate(212.625 231.407) rotate(-45)">
      <path id="Path_1403" d="M96.949,24.213v-.8a1.528,1.528,0,0,0-1.488-1.507,1.513,1.513,0,0,0-1.6,1.472v.862l-.017-7.716A1.51,1.51,0,0,0,92.3,15.053h-.059a1.51,1.51,0,0,0-1.545,1.473V27.191l-1.5-3.66a1.591,1.591,0,0,0-1.979-.973,1.488,1.488,0,0,0-1.021,1.887l3.3,6.8a2.5,2.5,0,0,0,2.26,1.377l8.883,0a2.435,2.435,0,0,0,2.493-2.375V24.412a1.51,1.51,0,0,0-1.545-1.473h0a1.51,1.51,0,0,0-1.545,1.473v-.35a1.51,1.51,0,0,0-1.545-1.473h0a1.51,1.51,0,0,0-1.545,1.473" transform="translate(-14.313 -14.299)" fill="#fd5d00" opacity="0.1"/>
      <path id="Path_1404" d="M86.323,19.077h0l-8.883,0a3.268,3.268,0,0,1-2.938-1.8l-3.3-6.8a.749.749,0,0,1-.037-.09,2.179,2.179,0,0,1,.131-1.7A2.29,2.29,0,0,1,72.68,7.538a2.353,2.353,0,0,1,2.9,1.428l.044.106V2.226A2.266,2.266,0,0,1,77.926,0h.059a2.266,2.266,0,0,1,2.3,2.226l.01,4.767a2.367,2.367,0,0,1,.879-.138,2.3,2.3,0,0,1,1.829,1,2.35,2.35,0,0,1,2.92.459,2.336,2.336,0,0,1,1.348-.424,2.266,2.266,0,0,1,2.3,2.226v5.836a3.051,3.051,0,0,1-.964,2.225A3.288,3.288,0,0,1,86.323,19.077ZM72.582,9.869l3.275,6.745a1.753,1.753,0,0,0,1.582.953l8.883,0h0a1.787,1.787,0,0,0,1.241-.487,1.558,1.558,0,0,0,.5-1.134V10.113a.795.795,0,0,0-1.582,0,.754.754,0,0,1-1.507,0v-.35a.795.795,0,0,0-1.582,0v.151a.754.754,0,1,1-1.507,0v-.8a.777.777,0,0,0-.76-.754.82.82,0,0,0-.607.226.682.682,0,0,0-.215.492v.862a.754.754,0,0,1-.753.754h0a.754.754,0,0,1-.754-.752l-.017-7.716a.759.759,0,0,0-.791-.72h-.059a.758.758,0,0,0-.791.719V12.892a.754.754,0,0,1-1.451.286l-1.5-3.66q-.01-.023-.017-.047a.835.835,0,0,0-1.045-.491.794.794,0,0,0-.483.392A.683.683,0,0,0,72.582,9.869Z" fill="#fd5d00"/>
    </g>
  </g>
</svg>
