<svg xmlns="http://www.w3.org/2000/svg" width="61" height="61" viewBox="0 0 61 61">
  <g id="icon-settings" transform="translate(-154 40)">
    <rect id="Rectangle_28" data-name="Rectangle 28" width="61" height="61" rx="12" transform="translate(154 -40)" fill="#ffd1b7" opacity="0.3"/>
    <g id="youtube_00000103975802115179222730000012269648027945476753_" transform="translate(170.562 -23.448)">
      <path id="Path_1348" data-name="Path 1348" d="M0,.011H26.876V26.887H0V.011Z" fill="none"/>
      <path id="Path_1349" data-name="Path 1349" d="M15.256,25.748c-.656,0-6.453-.012-8.108-.456a3.625,3.625,0,0,1-2.561-2.561,26.6,26.6,0,0,1-.456-5.107,26.649,26.649,0,0,1,.456-5.107A3.631,3.631,0,0,1,7.148,9.956C8.8,9.512,14.6,9.5,15.256,9.5s6.453.012,8.109.456a3.629,3.629,0,0,1,2.561,2.561h0a26.661,26.661,0,0,1,.455,5.106,26.681,26.681,0,0,1-.456,5.107,3.628,3.628,0,0,1-2.562,2.562c-1.655.444-7.452.457-8.108.457Z" transform="translate(-1.818 -4.175)" fill="#fd5d00"/>
      <path id="Path_1350" data-name="Path 1350" d="M20.447,24.725a.56.56,0,0,1-.56-.56V18.592a.559.559,0,0,1,.84-.485l4.826,2.787a.56.56,0,0,1,0,.97l-4.826,2.787a.567.567,0,0,1-.28.074Z" transform="translate(-8.752 -7.93)" fill="#fff1e9"/>
    </g>
  </g>
</svg>
