<svg xmlns="http://www.w3.org/2000/svg" width="40" height="40" viewBox="0 0 40 40">
  <g id="features-1" transform="translate(-785.292 -1009.483)">
    <rect width="40" height="40" rx="8" transform="translate(785.292 1009.483)" fill="#5e94ff" opacity="0.1"/>
    <g transform="translate(795.275 1019.466)">
      <path d="M6.009,3.6A2.4,2.4,0,0,0,3.6,6.009v8.017a2.4,2.4,0,0,0,2.405,2.405h8.017a2.4,2.4,0,0,0,2.405-2.405V9.215a.8.8,0,1,1,1.6,0v4.81a4.009,4.009,0,0,1-4.009,4.009H6.009A4.009,4.009,0,0,1,2,14.026V6.009A4.009,4.009,0,0,1,6.009,2h4.81a.8.8,0,0,1,0,1.6Z" transform="translate(0 0)" fill="#5e94ff" fill-rule="evenodd"/>
      <path d="M15.388,2.658a2.247,2.247,0,1,1,3.178,3.178l-.628.628a.8.8,0,0,1-1.134,0L14.76,4.42a.8.8,0,0,1,0-1.134Zm-1.762,2.9a.8.8,0,0,0-1.134,0L8.916,9.13a.8.8,0,0,0-.211.372l-.681,2.725A.8.8,0,0,0,9,13.2l2.725-.681a.8.8,0,0,0,.372-.211L15.67,8.731a.8.8,0,0,0,0-1.134Z" transform="translate(-1.19 0)" fill="#5e94ff" fill-rule="evenodd"/>
    </g>
  </g>
</svg>
