<svg xmlns="http://www.w3.org/2000/svg" width="40" height="40" viewBox="0 0 40 40">
  <g id="features-3" transform="translate(-785.292 -1009.483)">
    <rect width="40" height="40" rx="8" transform="translate(785.292 1009.483)" fill="#5e94ff" opacity="0.1"/>
    <g transform="translate(795.442 1019.188)">
      <path d="M8.462,4.565a6.311,6.311,0,0,1,7.074,1.283L17.9,8.215l.071.071a4.146,4.146,0,0,1,.766.912,2.366,2.366,0,0,1,0,2.223,4.144,4.144,0,0,1-.766.912L17.9,12.4l-.041.041a.789.789,0,0,1-1.115-1.115l.041-.041a3.707,3.707,0,0,0,.56-.608.789.789,0,0,0,0-.741,3.707,3.707,0,0,0-.56-.608L14.421,6.963A4.734,4.734,0,0,0,9.115,6a.789.789,0,0,1-.653-1.436Z" transform="translate(-1.304)" fill="#5e94ff" fill-rule="evenodd"/>
      <path d="M2.265,4.434A.789.789,0,0,1,3.372,4.3l14.2,11.041a.789.789,0,0,1-.968,1.245l-2.335-1.816-.032.032a6.309,6.309,0,0,1-8.922,0L3.6,13.088a14.508,14.508,0,0,1-1.216-1.307,2.343,2.343,0,0,1-.556-1.444,2.343,2.343,0,0,1,.556-1.444A14.5,14.5,0,0,1,3.6,7.585l.626-.626L2.4,5.541A.789.789,0,0,1,2.265,4.434ZM10.447,11.8l1.332,1.036A3.156,3.156,0,0,1,6.955,9.081l1.333,1.037A1.578,1.578,0,0,0,10.447,11.8Z" transform="translate(0 -0.027)" fill="#5e94ff" fill-rule="evenodd"/>
    </g>
  </g>
</svg>
