<svg id="Group_4136" data-name="Group 4136" xmlns="http://www.w3.org/2000/svg" width="30" height="32" viewBox="0 0 30 32">
  <rect id="BG" width="30" height="32" rx="8" fill="#5e94ff" opacity="0.1"/>
  <g id="share-svgrepo-com" transform="translate(4.531 3.616)">
    <path id="Path_1426" data-name="Path 1426" d="M10.488,4.829a2.829,2.829,0,1,1,.7,1.858L7.6,8.481a2.856,2.856,0,0,1,0,1.185l3.587,1.793a4.949,4.949,0,0,1,2.134-.972,2.826,2.826,0,1,1-2.767,2.237L6.963,10.931a2.829,2.829,0,1,1,0-3.716L10.55,5.422A2.842,2.842,0,0,1,10.488,4.829Z" transform="translate(1.469 3.384)" fill="#5e94ff" fill-rule="evenodd"/>
  </g>
</svg>
