<svg id="Group_4136" data-name="Group 4136" xmlns="http://www.w3.org/2000/svg" width="30" height="32" viewBox="0 0 30 32">
  <rect id="BG" width="30" height="32" rx="8" fill="#5e94ff" opacity="0.1"/>
  <path id="product-service-campaign-svgrepo-com" d="M26.539,29.858a.237.237,0,0,1,.237.215v3.4a.724.724,0,0,1-.679.71H21.247a.724.724,0,0,1-.71-.682V30.1a.237.237,0,0,1,.215-.237h5.8Zm6.983,0a.237.237,0,0,1,.237.215v3.4a.724.724,0,0,1-.679.71H28.23a.724.724,0,0,1-.71-.682V30.1a.237.237,0,0,1,.215-.237h5.8Zm-8.841,1-.021.026-1.377,1.5-.622-.6a.182.182,0,0,0-.237-.019l-.021.019-.258.237a.147.147,0,0,0-.017.213l.017.019.883.838a.369.369,0,0,0,.256.106.338.338,0,0,0,.258-.106l.743-.786.149-.159.743-.783a.185.185,0,0,0,.014-.213l-.014-.019-.258-.237A.18.18,0,0,0,24.681,30.859Zm6.983,0-.024.026-1.377,1.5-.625-.6a.177.177,0,0,0-.237-.019l-.021.019-.258.237a.147.147,0,0,0-.017.213l.017.019.883.838a.364.364,0,0,0,.256.106.338.338,0,0,0,.258-.106l.743-.786.149-.159.743-.783a.185.185,0,0,0,.014-.213l-.014-.019-.253-.239a.18.18,0,0,0-.237-.026Zm-5.544-3.41a.71.71,0,0,1,.674.679V28.9a.237.237,0,0,1-.2.237H20.282a.237.237,0,0,1-.222-.213v-.748a.71.71,0,0,1,.637-.722h5.443Zm7.449,0a.71.71,0,0,1,.674.679V28.9a.237.237,0,0,1-.2.237H27.719a.237.237,0,0,1-.237-.213v-.748a.71.71,0,0,1,.634-.722H33.56Zm-3.55-5.038a.237.237,0,0,1,.237.215v3.4a.724.724,0,0,1-.679.722H24.74a.724.724,0,0,1-.722-.679V22.653a.237.237,0,0,1,.213-.237h5.8Zm-1.858,1-.021.019-1.377,1.5-.613-.606a.18.18,0,0,0-.237-.017l-.021.017-.256.237a.144.144,0,0,0-.017.213l.017.019.88.835a.369.369,0,0,0,.258.106.338.338,0,0,0,.256-.106l.743-.783.151-.159.741-.786a.185.185,0,0,0,.014-.213l-.014-.017-.256-.237a.182.182,0,0,0-.237-.019ZM30.031,20a.724.724,0,0,1,.71.682v.764a.237.237,0,0,1-.215.237H23.777a.237.237,0,0,1-.237-.215v-.743a.724.724,0,0,1,.679-.71h5.812Z" transform="translate(-12.151 -11.092)" fill="#5e94ff"/>
</svg>
