<svg id="Group_4136" data-name="Group 4136" xmlns="http://www.w3.org/2000/svg" width="30" height="32" viewBox="0 0 30 32">
  <rect id="BG" width="30" height="32" rx="8" fill="#5e94ff" opacity="0.1"/>
  <path id="suitcase-svgrepo-com" d="M14.081,16.081H12.148V5.933h1.933a.967.967,0,0,1,.967.967v8.215A.967.967,0,0,1,14.081,16.081ZM5.866,5.933h0V4.967A.967.967,0,0,1,6.833,4h3.383a.967.967,0,0,1,.967.967V16.081H5.866Zm.967,0h3.383V5.45a.483.483,0,0,0-.483-.483H7.316a.483.483,0,0,0-.483.483ZM2,15.115V6.9a.967.967,0,0,1,.967-.967H4.9V16.081H2.967A.967.967,0,0,1,2,15.115Z" transform="translate(6 6)" fill="#5e94ff"/>
</svg>
