<svg xmlns="http://www.w3.org/2000/svg" width="40" height="40" viewBox="0 0 40 40">
  <g id="features-2" transform="translate(-785.292 -1009.483)">
    <rect id="BG" width="40" height="40" rx="8" transform="translate(785.292 1009.483)" fill="#5e94ff" opacity="0.1"/>
    <g transform="translate(796.902 1022.028)">
      <g transform="translate(0.952 0.051)">
        <path d="M1.427,7.408A1.205,1.205,0,0,0,2.7,6.131l0-.4S2.51,4.588,4.032,4.588l6.164.043V6.258a.767.767,0,0,0,1.083,0l2.381-2.38a.767.767,0,0,0,0-1.083L11.278.274a.767.767,0,0,0-1.083,0V1.981c-.149-.043-5.971-.068-5.971-.068C.79,1.913.039,4.16.039,5.065v.954A1.389,1.389,0,0,0,1.427,7.408Z" transform="translate(0.041 -0.051)" fill="#5e94ff" fill-rule="evenodd"/>
        <path d="M12.489,8.042A1.321,1.321,0,0,0,11.1,9.349l0,.886c-.042.33-.6.546-1.411.546H3.64l0-1.443a.767.767,0,0,0-1.083,0l-2.38,2.38a.767.767,0,0,0,0,1.083l2.38,2.38a.764.764,0,0,0,1.083,0l0-1.713H9.691c3.434,0,4.185-2.26,4.185-3.166V9.348a1.321,1.321,0,0,0-1.388-1.306Z" transform="translate(0.048 -0.647)" fill="#5e94ff" fill-rule="evenodd"/>
      </g>
    </g>
  </g>
</svg>
