<svg xmlns="http://www.w3.org/2000/svg" width="30" height="32" viewBox="0 0 30 32">
  <g id="Group_4136" data-name="Group 4136" transform="translate(-0.5)">
    <rect id="BG" width="30" height="32" rx="8" transform="translate(0.5)" fill="#5e94ff" opacity="0.1"/>
    <path id="gift-fill-svgrepo-com" d="M11.9,11.192V7.283H10.8A1.669,1.669,0,0,1,8.946,5.727a1.255,1.255,0,0,1,1.379-1.269,1.669,1.669,0,0,1,1.615,1.873v.951h1.232V6.332a1.669,1.669,0,0,1,1.615-1.873,1.261,1.261,0,0,1,1.387,1.269,1.685,1.685,0,0,1-1.866,1.556h-1.1v3.909h5.2c.8,0,1.239-.31,1.239-1.1V8.382c0-.782-.435-1.1-1.239-1.1H16.691a2.142,2.142,0,0,0,.73-1.608,2.451,2.451,0,0,0-2.559-2.449,2.36,2.36,0,0,0-2.3,1.637,2.369,2.369,0,0,0-2.309-1.637A2.455,2.455,0,0,0,7.692,5.675a2.117,2.117,0,0,0,.73,1.608H6.7c-.76,0-1.239.317-1.239,1.1v1.711c0,.789.443,1.1,1.239,1.1Zm0,7.627V11.982H6.52v4.964a1.729,1.729,0,0,0,1.955,1.873Zm1.305-6.837v6.837h3.43a1.729,1.729,0,0,0,1.955-1.873V11.982Z" transform="translate(2.035 4.773)" fill="#5e94ff"/>
  </g>
</svg>
