<svg id="Group_4136" data-name="Group 4136" xmlns="http://www.w3.org/2000/svg" width="30" height="32" viewBox="0 0 30 32">
  <rect id="BG" width="30" height="32" rx="8" fill="#5e94ff" opacity="0.1"/>
  <path id="list1-solid" d="M12.827,10.084v.323A1.1,1.1,0,0,1,11.7,11.536H8.47a1.1,1.1,0,0,1-1.129-1.129v-.323A1.1,1.1,0,0,1,8.47,8.955H11.7A1.1,1.1,0,0,1,12.827,10.084ZM11.7,1.291H8.47A1.1,1.1,0,0,0,7.341,2.42v.323A1.1,1.1,0,0,0,8.47,3.872H11.7a1.1,1.1,0,0,0,1.129-1.129V2.42A1.1,1.1,0,0,0,11.7,1.291ZM4.034,0h-2.9A1.1,1.1,0,0,0,0,1.129v2.9A1.1,1.1,0,0,0,1.129,5.163h2.9A1.1,1.1,0,0,0,5.163,4.034v-2.9A1.1,1.1,0,0,0,4.034,0Zm0,7.664h-2.9A1.1,1.1,0,0,0,0,8.793v2.9a1.1,1.1,0,0,0,1.129,1.129h2.9A1.1,1.1,0,0,0,5.163,11.7v-2.9A1.1,1.1,0,0,0,4.034,7.664Z" transform="translate(9 10)" fill="#5e94ff"/>
</svg>
