<svg id="Group_4136" data-name="Group 4136" xmlns="http://www.w3.org/2000/svg" width="30" height="32" viewBox="0 0 30 32">
  <rect id="BG" width="30" height="32" rx="8" fill="#5ec4ff" opacity="0.1"/>
  <g id="heart-add-svgrepo-com" transform="translate(5.909 7.173)">
    <path id="Path_1432" data-name="Path 1432" d="M18.272,13.469v-.007a3.384,3.384,0,1,1,0,.007Zm-1.2,2.907h-.738v.773a.532.532,0,0,1-1.064,0v-.773h-.738a.532.532,0,0,1-.007-1.064h.745V14.6a.09.09,0,0,1,.007-.043.527.527,0,0,1,.525-.489.536.536,0,0,1,.532.511v.73h.738a.532.532,0,0,1,0,1.064Z" transform="translate(-3.025 -2.693)" fill="#5ec4ff"/>
    <path id="Path_1433" data-name="Path 1433" d="M16.183,7.1a7.572,7.572,0,0,1-.369,2.347.218.218,0,0,1-.347.1A4.487,4.487,0,0,0,8.311,13.14a4.446,4.446,0,0,0,.574,2.184c.113.2-.021.454-.234.376A10.679,10.679,0,0,1,2.369,9.452,7.572,7.572,0,0,1,2,7.1,3.937,3.937,0,0,1,9.091,4.722,3.937,3.937,0,0,1,16.183,7.1Z" fill="#5ec4ff"/>
  </g>
</svg>
