<svg id="Group_4136" data-name="Group 4136" xmlns="http://www.w3.org/2000/svg" width="30" height="32" viewBox="0 0 30 32">
  <rect id="BG" width="30" height="32" rx="8" fill="#5ec4ff" opacity="0.1"/>
  <g id="clock-svgrepo-com_4_" data-name="clock-svgrepo-com (4)" transform="translate(3.5 5.13)">
    <path id="Path_1443" data-name="Path 1443" d="M2,9.13a7.13,7.13,0,1,1,7.13,7.13A7.13,7.13,0,0,1,2,9.13Zm9.862,1.821a.713.713,0,0,1-.989.2L9.019,9.913a1.353,1.353,0,0,1-.6-1.126V5.565a.713.713,0,1,1,1.426,0V8.748l1.821,1.214A.713.713,0,0,1,11.862,10.951Z" transform="translate(2.87 1.87)" fill="#5ec4ff" fill-rule="evenodd"/>
  </g>
</svg>
