<svg id="Group_4136" data-name="Group 4136" xmlns="http://www.w3.org/2000/svg" width="30" height="32" viewBox="0 0 30 32">
  <rect id="BG" width="30" height="32" rx="8" fill="#5ec4ff" opacity="0.1"/>
  <g id="eye-svgrepo-com_2_" data-name="eye-svgrepo-com (2)" transform="translate(6.731 6.884)">
    <path id="Path_1436" data-name="Path 1436" d="M5.775,9.116a2.558,2.558,0,1,1,2.558,2.558A2.558,2.558,0,0,1,5.775,9.116ZM4.651,5.5a5.116,5.116,0,0,1,7.235,0l1.386,1.386a11.765,11.765,0,0,1,.986,1.06,1.9,1.9,0,0,1,.451,1.171,1.9,1.9,0,0,1-.451,1.171,11.766,11.766,0,0,1-.986,1.06l-1.386,1.386a5.116,5.116,0,0,1-7.235,0L3.265,11.347a11.764,11.764,0,0,1-.986-1.06,1.9,1.9,0,0,1-.451-1.171,1.9,1.9,0,0,1,.451-1.171,11.762,11.762,0,0,1,.986-1.06l.03-.03Z" fill="#5ec4ff" fill-rule="evenodd"/>
    <path id="Path_1437" data-name="Path 1437" d="M11.279,10a1.279,1.279,0,1,0,1.279,1.279A1.279,1.279,0,0,0,11.279,10Z" transform="translate(-2.946 -2.163)" fill="#5ec4ff" fill-rule="evenodd"/>
  </g>
</svg>
