<svg id="Group_4134" data-name="Group 4134" xmlns="http://www.w3.org/2000/svg" width="30" height="32" viewBox="0 0 30 32">
  <rect id="BG" width="30" height="32" rx="8" fill="#5ec4ff" opacity="0.1"/>
  <g id="Page-1" transform="translate(7 8)">
    <g id="Dribbble-Light-Preview">
      <g id="icons">
        <path id="target-_82_" data-name="target-[#82]" d="M252.8,7687a.8.8,0,1,1-.8-.8.8.8,0,0,1,.8.8m3.2.8h.728a4.8,4.8,0,0,1-3.928,3.928V7691a.8.8,0,0,0-1.6,0v.729a4.8,4.8,0,0,1-3.928-3.928H248a.8.8,0,1,0,0-1.6h-.728a4.8,4.8,0,0,1,3.928-3.928V7683a.8.8,0,1,0,1.6,0v-.727a4.8,4.8,0,0,1,3.928,3.928H256a.8.8,0,1,0,0,1.6m3.2-1.6h-.855a6.388,6.388,0,0,0-5.545-5.544v-.856a.8.8,0,0,0-1.6,0v.856a6.388,6.388,0,0,0-5.545,5.544H244.8a.8.8,0,1,0,0,1.6h.855a6.391,6.391,0,0,0,5.545,5.544v.856a.8.8,0,0,0,1.6,0v-.856a6.391,6.391,0,0,0,5.545-5.544h.855a.8.8,0,1,0,0-1.6" transform="translate(-244 -7679)" fill="#5ec4ff" fill-rule="evenodd"/>
      </g>
    </g>
  </g>
</svg>
