<svg id="Group_4136" data-name="Group 4136" xmlns="http://www.w3.org/2000/svg" width="30" height="32" viewBox="0 0 30 32">
  <rect id="BG" width="30" height="32" rx="8" fill="#5ec4ff" opacity="0.1"/>
  <path id="chart-column-svgrepo-com" d="M5.03,8.06v5.454a.606.606,0,0,1-.606.606H2.606A.606.606,0,0,1,2,13.513V8.06a.606.606,0,0,1,.606-.606H4.424A.606.606,0,0,1,5.03,8.06ZM8.969,4.424H7.151a.606.606,0,0,0-.606.606v8.483a.606.606,0,0,0,.606.606H8.969a.606.606,0,0,0,.606-.606V5.03A.606.606,0,0,0,8.969,4.424ZM13.513,2H11.7a.606.606,0,0,0-.606.606V13.513a.606.606,0,0,0,.606.606h1.818a.606.606,0,0,0,.606-.606V2.606A.606.606,0,0,0,13.513,2Z" transform="translate(7.057 7.587)" fill="#5ec4ff"/>
</svg>
